ISO-10303-21;
HEADER;
FILE_DESCRIPTION (( 'STEP AP203' ),
    '1' );
FILE_NAME ('leading_edge_fab.STEP',
    '2025-10-30T00:22:00',
    ( '' ),
    ( '' ),
    'SwSTEP 2.0',
    'SolidWorks 2025',
    '' );
FILE_SCHEMA (( 'CONFIG_CONTROL_DESIGN' ));
ENDSEC;

DATA;
#1 = APPLICATION_PROTOCOL_DEFINITION ( 'international standard', 'config_control_design', 1994, #13 ) ;
#2 = CARTESIAN_POINT ( 'NONE',  ( 0.1250000000000000000, 14.19218933995700382, 0.000000000000000000 ) ) ;
#3 = VERTEX_POINT ( 'NONE', #256 ) ;
#4 = CC_DESIGN_PERSON_AND_ORGANIZATION_ASSIGNMENT ( #47, #205, ( #501 ) ) ;
#5 = DIRECTION ( 'NONE',  ( 0.08279603152709374969, 0.8639202712313713839, 0.4967761891625624981 ) ) ;
#6 = LINE ( 'NONE', #462, #70 ) ;
#7 = CARTESIAN_POINT ( 'NONE',  ( 0.1250000000000000000, 14.53999999999999915, 0.2000000000000000111 ) ) ;
#8 = PLANE ( 'NONE',  #396 ) ;
#9 = DIRECTION ( 'NONE',  ( 0.000000000000000000, 0.000000000000000000, 1.000000000000000000 ) ) ;
#10 = AXIS2_PLACEMENT_3D ( 'NONE', #524, #482, #485 ) ;
#11 = DIRECTION ( 'NONE',  ( -1.000000000000000000, 0.000000000000000000, 2.449293598294706907E-16 ) ) ;
#12 = DIRECTION ( 'NONE',  ( -0.000000000000000000, -1.000000000000000000, -0.000000000000000000 ) ) ;
#13 = APPLICATION_CONTEXT ( 'configuration controlled 3d designs of mechanical parts and assemblies' ) ;
#14 = EDGE_LOOP ( 'NONE', ( #112, #100, #57, #290 ) ) ;
#15 = CARTESIAN_POINT ( 'NONE',  ( -0.1249999999999999584, 14.53999999999999915, 0.2000000000000000111 ) ) ;
#16 = PRODUCT ( 'leading_edge_fab', 'leading_edge_fab', '', ( #125 ) ) ;
#17 = CARTESIAN_POINT ( 'NONE',  ( 0.2500000000000000000, 14.53999999999999915, 0.000000000000000000 ) ) ;
#18 = VECTOR ( 'NONE', #5, 39.37007874015748854 ) ;
#19 = EDGE_LOOP ( 'NONE', ( #22, #389, #331, #402 ) ) ;
#20 = PLANE ( 'NONE',  #362 ) ;
#21 = DIRECTION ( 'NONE',  ( 1.000000000000000000, 0.000000000000000000, 0.000000000000000000 ) ) ;
#22 = ORIENTED_EDGE ( 'NONE', *, *, #65, .T. ) ;
#23 = AXIS2_PLACEMENT_3D ( 'NONE', #308, #179, #473 ) ;
#24 = ORIENTED_EDGE ( 'NONE', *, *, #422, .T. ) ;
#25 = CARTESIAN_POINT ( 'NONE',  ( 0.2500000000000000000, 2.999999999999999556, 0.1999999999999999833 ) ) ;
#26 = LINE ( 'NONE', #160, #339 ) ;
#27 = VERTEX_POINT ( 'NONE', #207 ) ;
#28 = DIRECTION ( 'NONE',  ( 0.000000000000000000, 0.000000000000000000, 1.000000000000000000 ) ) ;
#29 = APPLICATION_CONTEXT ( 'configuration controlled 3d designs of mechanical parts and assemblies' ) ;
#30 = VECTOR ( 'NONE', #210, 39.37007874015748143 ) ;
#31 = DIRECTION ( 'NONE',  ( 0.000000000000000000, 0.000000000000000000, -1.000000000000000000 ) ) ;
#32 = SHAPE_DEFINITION_REPRESENTATION ( #470, #284 ) ;
#33 = EDGE_CURVE ( 'NONE', #507, #27, #41, .T. ) ;
#34 = PLANE ( 'NONE',  #351 ) ;
#35 = EDGE_CURVE ( 'NONE', #413, #361, #292, .T. ) ;
#36 = ORIENTED_EDGE ( 'NONE', *, *, #146, .F. ) ;
#37 = EDGE_CURVE ( 'NONE', #301, #126, #136, .T. ) ;
#38 = AXIS2_PLACEMENT_3D ( 'NONE', #140, #468, #9 ) ;
#39 = COORDINATED_UNIVERSAL_TIME_OFFSET ( 5, 0, .BEHIND. ) ;
#40 = DESIGN_CONTEXT ( 'detailed design', #29, 'design' ) ;
#41 = LINE ( 'NONE', #215, #367 ) ;
#42 = VERTEX_POINT ( 'NONE', #250 ) ;
#43 = COORDINATED_UNIVERSAL_TIME_OFFSET ( 5, 0, .BEHIND. ) ;
#44 = ADVANCED_FACE ( 'NONE', ( #82 ), #93, .F. ) ;
#45 = CARTESIAN_POINT ( 'NONE',  ( -0.1249999999999999584, 14.53999999999999915, 0.2000000000000000111 ) ) ;
#46 = ORIENTED_EDGE ( 'NONE', *, *, #259, .F. ) ;
#47 = PERSON_AND_ORGANIZATION ( #212, #114 ) ;
#48 = DIRECTION ( 'NONE',  ( 0.000000000000000000, 0.8668967489356022016, 0.4984877397538311494 ) ) ;
#49 = CARTESIAN_POINT ( 'NONE',  ( -0.1250000000000050793, 2.652189339957006897, 1.530808498934315693E-17 ) ) ;
#50 = ADVANCED_FACE ( 'NONE', ( #416 ), #8, .F. ) ;
#51 = DIRECTION ( 'NONE',  ( 1.000000000000000000, 0.000000000000000000, 0.000000000000000000 ) ) ;
#52 = CARTESIAN_POINT ( 'NONE',  ( -1.036914788554820888, 10.86310990010236921, 4.721488731328925326 ) ) ;
#53 = ORIENTED_EDGE ( 'NONE', *, *, #85, .F. ) ;
#54 = FACE_OUTER_BOUND ( 'NONE', #229, .T. ) ;
#55 = LINE ( 'NONE', #385, #91 ) ;
#56 = ORIENTED_EDGE ( 'NONE', *, *, #410, .F. ) ;
#57 = ORIENTED_EDGE ( 'NONE', *, *, #65, .F. ) ;
#58 = APPROVAL_PERSON_ORGANIZATION ( #234, #135, #444 ) ;
#59 = CARTESIAN_POINT ( 'NONE',  ( 0.2500000000000000000, 14.19218933995700382, 0.000000000000000000 ) ) ;
#60 = FACE_OUTER_BOUND ( 'NONE', #355, .T. ) ;
#61 = ORIENTED_EDGE ( 'NONE', *, *, #338, .F. ) ;
#62 = CARTESIAN_POINT ( 'NONE',  ( 0.1250000000000000000, 11.58599761186107280, 5.137167601935906269 ) ) ;
#63 = CARTESIAN_POINT ( 'NONE',  ( -0.1250000000000000000, 14.53999999999999915, 1.530808498934191817E-17 ) ) ;
#64 = ORIENTED_EDGE ( 'NONE', *, *, #323, .T. ) ;
#65 = EDGE_CURVE ( 'NONE', #309, #466, #178, .T. ) ;
#66 = ORIENTED_EDGE ( 'NONE', *, *, #357, .F. ) ;
#67 = DIRECTION ( 'NONE',  ( 0.000000000000000000, -0.8668967489356022016, -0.4984877397538311494 ) ) ;
#68 = CARTESIAN_POINT ( 'NONE',  ( 0.000000000000000000, 14.53999999999999915, -1.500000000000000222 ) ) ;
#69 = ORIENTED_EDGE ( 'NONE', *, *, #236, .T. ) ;
#70 = VECTOR ( 'NONE', #477, 39.37007874015748143 ) ;
#71 = APPROVAL_STATUS ( 'not_yet_approved' ) ;
#72 = CARTESIAN_POINT ( 'NONE',  ( 0.2500000000000000000, 14.53999999999999915, 0.2000000000000000111 ) ) ;
#73 = EDGE_CURVE ( 'NONE', #218, #453, #333, .T. ) ;
#74 = CARTESIAN_POINT ( 'NONE',  ( -0.06250000000000000000, 2.478284009935509680, -0.1000000000000000056 ) ) ;
#75 = VECTOR ( 'NONE', #400, 39.37007874015748143 ) ;
#76 = EDGE_CURVE ( 'NONE', #369, #211, #455, .T. ) ;
#77 = CC_DESIGN_DATE_AND_TIME_ASSIGNMENT ( #277, #161, ( #200 ) ) ;
#78 = ORIENTED_EDGE ( 'NONE', *, *, #394, .F. ) ;
#79 = DATE_AND_TIME ( #491, #403 ) ;
#80 = LOCAL_TIME ( 20, 22, 0.000000000000000000, #39 ) ;
#81 = PERSON_AND_ORGANIZATION ( #212, #114 ) ;
#82 = FACE_OUTER_BOUND ( 'NONE', #121, .T. ) ;
#83 = ORIENTED_EDGE ( 'NONE', *, *, #475, .T. ) ;
#84 = VECTOR ( 'NONE', #472, 39.37007874015748143 ) ;
#85 = EDGE_CURVE ( 'NONE', #211, #353, #298, .T. ) ;
#86 = SECURITY_CLASSIFICATION_LEVEL ( 'unclassified' ) ;
#87 = CARTESIAN_POINT ( 'NONE',  ( -0.1249999999999999584, 14.45357251980462898, 0.1503019946630233528 ) ) ;
#88 = DIRECTION ( 'NONE',  ( 1.000000000000000000, 0.000000000000000000, 0.000000000000000000 ) ) ;
#89 = DIRECTION ( 'NONE',  ( 8.511204573204605137E-17, 0.8668967489356022016, 0.4984877397538311494 ) ) ;
#90 = DIRECTION ( 'NONE',  ( -0.000000000000000000, -1.000000000000000000, -0.000000000000000000 ) ) ;
#91 = VECTOR ( 'NONE', #111, 39.37007874015748854 ) ;
#92 = EDGE_CURVE ( 'NONE', #537, #153, #412, .T. ) ;
#93 = PLANE ( 'NONE',  #345 ) ;
#94 = CARTESIAN_POINT ( 'NONE',  ( -0.06250000000000000000, 2.478284009935509680, -0.1000000000000000056 ) ) ;
#95 = ORIENTED_EDGE ( 'NONE', *, *, #33, .T. ) ;
#96 = ORIENTED_EDGE ( 'NONE', *, *, #92, .F. ) ;
#97 = CARTESIAN_POINT ( 'NONE',  ( -0.2500000000000000000, 14.19218933995700382, -2.048885995248197414E-16 ) ) ;
#98 = VECTOR ( 'NONE', #214, 39.37007874015748143 ) ;
#99 = PLANE ( 'NONE',  #23 ) ;
#100 = ORIENTED_EDGE ( 'NONE', *, *, #227, .T. ) ;
#101 = ORIENTED_EDGE ( 'NONE', *, *, #73, .F. ) ;
#102 = LINE ( 'NONE', #347, #438 ) ;
#103 = FACE_OUTER_BOUND ( 'NONE', #516, .T. ) ;
#104 = ORIENTED_EDGE ( 'NONE', *, *, #194, .F. ) ;
#105 = CARTESIAN_POINT ( 'NONE',  ( 0.06250000000000000000, 14.53999999999999915, 0.000000000000000000 ) ) ;
#106 = CARTESIAN_POINT ( 'NONE',  ( -0.06250000000000000000, 14.01828400993550794, -0.1000000000000000056 ) ) ;
#107 = CC_DESIGN_PERSON_AND_ORGANIZATION_ASSIGNMENT ( #245, #411, ( #200 ) ) ;
#108 = ORIENTED_EDGE ( 'NONE', *, *, #133, .F. ) ;
#109 = ORIENTED_EDGE ( 'NONE', *, *, #399, .F. ) ;
#110 = DIRECTION ( 'NONE',  ( -0.000000000000000000, -1.000000000000000000, -0.000000000000000000 ) ) ;
#111 = DIRECTION ( 'NONE',  ( -0.000000000000000000, 0.8668967489356023126, 0.4984877397538312604 ) ) ;
#112 = ORIENTED_EDGE ( 'NONE', *, *, #131, .T. ) ;
#113 = EDGE_LOOP ( 'NONE', ( #162, #176, #46, #141 ) ) ;
#114 = ORGANIZATION ( 'UNSPECIFIED', 'UNSPECIFIED', '' ) ;
#115 = FACE_OUTER_BOUND ( 'NONE', #193, .T. ) ;
#116 = VECTOR ( 'NONE', #317, 39.37007874015748143 ) ;
#117 = PLANE ( 'NONE',  #530 ) ;
#118 = FACE_OUTER_BOUND ( 'NONE', #113, .T. ) ;
#119 = VERTEX_POINT ( 'NONE', #216 ) ;
#120 = VECTOR ( 'NONE', #90, 39.37007874015748143 ) ;
#121 = EDGE_LOOP ( 'NONE', ( #69, #260, #461, #388 ) ) ;
#122 = DIRECTION ( 'NONE',  ( -1.000000000000000000, 4.259452115309815294E-16, 2.449293598294707400E-16 ) ) ;
#123 = DATE_AND_TIME ( #156, #159 ) ;
#124 = ORIENTED_EDGE ( 'NONE', *, *, #323, .F. ) ;
#125 = MECHANICAL_CONTEXT ( 'NONE', #13, 'mechanical' ) ;
#126 = VERTEX_POINT ( 'NONE', #536 ) ;
#127 = APPROVAL_DATE_TIME ( #407, #251 ) ;
#128 = LINE ( 'NONE', #45, #30 ) ;
#129 = ORIENTED_EDGE ( 'NONE', *, *, #401, .F. ) ;
#130 = VECTOR ( 'NONE', #264, 39.37007874015748854 ) ;
#131 = EDGE_CURVE ( 'NONE', #164, #173, #340, .T. ) ;
#132 = DIRECTION ( 'NONE',  ( 0.9863939238321437486, -0.000000000000000000, 0.1643989873053572637 ) ) ;
#133 = EDGE_CURVE ( 'NONE', #266, #119, #371, .T. ) ;
#134 = DIRECTION ( 'NONE',  ( 0.1643989873053572637, 0.000000000000000000, -0.9863939238321437486 ) ) ;
#135 = APPROVAL ( #71, 'UNSPECIFIED' ) ;
#136 = LINE ( 'NONE', #87, #248 ) ;
#137 = DIRECTION ( 'NONE',  ( -1.000000000000000000, -0.000000000000000000, -0.000000000000000000 ) ) ;
#138 = VECTOR ( 'NONE', #228, 39.37007874015748143 ) ;
#139 = DIRECTION ( 'NONE',  ( 0.000000000000000000, 0.8668967489356022016, 0.4984877397538311494 ) ) ;
#140 = CARTESIAN_POINT ( 'NONE',  ( 0.2500000000000000000, 14.53999999999999915, 0.2000000000000000111 ) ) ;
#141 = ORIENTED_EDGE ( 'NONE', *, *, #509, .T. ) ;
#142 = ORIENTED_EDGE ( 'NONE', *, *, #426, .F. ) ;
#143 = PLANE ( 'NONE',  #406 ) ;
#144 = VECTOR ( 'NONE', #456, 39.37007874015748143 ) ;
#145 = LINE ( 'NONE', #306, #378 ) ;
#146 = EDGE_CURVE ( 'NONE', #42, #413, #408, .T. ) ;
#147 = ORIENTED_EDGE ( 'NONE', *, *, #418, .T. ) ;
#148 = PLANE ( 'NONE',  #417 ) ;
#149 = FACE_OUTER_BOUND ( 'NONE', #423, .T. ) ;
#150 = DIRECTION ( 'NONE',  ( 0.000000000000000000, 0.000000000000000000, -1.000000000000000000 ) ) ;
#151 = PLANE ( 'NONE',  #38 ) ;
#152 = ORIENTED_EDGE ( 'NONE', *, *, #73, .T. ) ;
#153 = VERTEX_POINT ( 'NONE', #330 ) ;
#154 = CARTESIAN_POINT ( 'NONE',  ( -0.06250000000000000000, 14.53999999999999915, 0.000000000000000000 ) ) ;
#155 = EDGE_CURVE ( 'NONE', #42, #126, #128, .T. ) ;
#156 = CALENDAR_DATE ( 2025, 29, 10 ) ;
#157 =( LENGTH_UNIT ( ) NAMED_UNIT ( * ) SI_UNIT ( $, .METRE. ) );
#158 = VECTOR ( 'NONE', #436, 39.37007874015748143 ) ;
#159 = LOCAL_TIME ( 20, 22, 0.000000000000000000, #489 ) ;
#160 = CARTESIAN_POINT ( 'NONE',  ( 1.036914788554820888, 10.86310990010236921, 4.721488731328925326 ) ) ;
#161 = DATE_TIME_ROLE ( 'classification_date' ) ;
#162 = ORIENTED_EDGE ( 'NONE', *, *, #241, .T. ) ;
#163 = DIRECTION ( 'NONE',  ( 2.731847993664262725E-16, 0.000000000000000000, -1.000000000000000000 ) ) ;
#164 = VERTEX_POINT ( 'NONE', #2 ) ;
#165 = CC_DESIGN_PERSON_AND_ORGANIZATION_ASSIGNMENT ( #364, #329, ( #274 ) ) ;
#166 = APPLICATION_PROTOCOL_DEFINITION ( 'international standard', 'config_control_design', 1994, #29 ) ;
#167 = DATE_AND_TIME ( #454, #525 ) ;
#168 = VECTOR ( 'NONE', #505, 39.37007874015748143 ) ;
#169 = CALENDAR_DATE ( 2025, 29, 10 ) ;
#170 = UNCERTAINTY_MEASURE_WITH_UNIT (LENGTH_MEASURE( 1.000000000000000082E-05 ), #484, 'distance_accuracy_value', 'NONE');
#171 = ADVANCED_FACE ( 'NONE', ( #253 ), #175, .F. ) ;
#172 = DIRECTION ( 'NONE',  ( -0.000000000000000000, -1.000000000000000000, -0.000000000000000000 ) ) ;
#173 = VERTEX_POINT ( 'NONE', #336 ) ;
#174 = DIRECTION ( 'NONE',  ( 0.000000000000000000, 0.000000000000000000, 1.000000000000000000 ) ) ;
#175 = PLANE ( 'NONE',  #328 ) ;
#176 = ORIENTED_EDGE ( 'NONE', *, *, #437, .T. ) ;
#177 = LINE ( 'NONE', #335, #518 ) ;
#178 = LINE ( 'NONE', #243, #120 ) ;
#179 = DIRECTION ( 'NONE',  ( 0.000000000000000000, -0.4984877397538311494, 0.8668967489356023126 ) ) ;
#180 = APPROVAL_PERSON_ORGANIZATION ( #81, #251, #242 ) ;
#181 = DIRECTION ( 'NONE',  ( 0.000000000000000000, 0.000000000000000000, -1.000000000000000000 ) ) ;
#182 = CARTESIAN_POINT ( 'NONE',  ( 0.000000000000000000, 11.58360938963454778, -1.500000000000000222 ) ) ;
#183 = AXIS2_PLACEMENT_3D ( 'NONE', #219, #230, #307 ) ;
#184 = LINE ( 'NONE', #62, #276 ) ;
#185 = EDGE_CURVE ( 'NONE', #153, #218, #420, .T. ) ;
#186 = LINE ( 'NONE', #106, #483 ) ;
#187 = CARTESIAN_POINT ( 'NONE',  ( 0.1250000000000000000, 14.53999999999999915, 0.2000000000000000111 ) ) ;
#188 = CLOSED_SHELL ( 'NONE', ( #372, #171, #196, #529, #44, #286, #486, #283, #469, #238, #50, #231, #415, #320, #517 ) ) ;
#189 = LINE ( 'NONE', #313, #526 ) ;
#190 = ORIENTED_EDGE ( 'NONE', *, *, #33, .F. ) ;
#191 = LINE ( 'NONE', #15, #391 ) ;
#192 = LINE ( 'NONE', #52, #318 ) ;
#193 = EDGE_LOOP ( 'NONE', ( #409, #124, #449, #522 ) ) ;
#194 = EDGE_CURVE ( 'NONE', #309, #164, #177, .T. ) ;
#195 = CARTESIAN_POINT ( 'NONE',  ( 0.06250000000000000000, 14.01828400993550794, -0.1000000000000000056 ) ) ;
#196 = ADVANCED_FACE ( 'NONE', ( #342 ), #20, .F. ) ;
#197 = LINE ( 'NONE', #72, #281 ) ;
#198 = ORIENTED_EDGE ( 'NONE', *, *, #85, .T. ) ;
#199 = PLANE ( 'NONE',  #10 ) ;
#200 = SECURITY_CLASSIFICATION ( '', '', #86 ) ;
#201 = LINE ( 'NONE', #279, #233 ) ;
#202 = CARTESIAN_POINT ( 'NONE',  ( -0.06250000000000000000, 14.01828400993550794, -0.1000000000000000056 ) ) ;
#203 = CC_DESIGN_PERSON_AND_ORGANIZATION_ASSIGNMENT ( #494, #451, ( #274 ) ) ;
#204 = ORIENTED_EDGE ( 'NONE', *, *, #384, .T. ) ;
#205 = PERSON_AND_ORGANIZATION_ROLE ( 'creator' ) ;
#206 = VECTOR ( 'NONE', #12, 39.37007874015748143 ) ;
#207 = CARTESIAN_POINT ( 'NONE',  ( -0.06250000000000000000, 14.19218933995700382, 0.000000000000000000 ) ) ;
#208 = ORIENTED_EDGE ( 'NONE', *, *, #384, .F. ) ;
#209 = APPROVAL_STATUS ( 'not_yet_approved' ) ;
#210 = DIRECTION ( 'NONE',  ( 1.000000000000000000, -0.000000000000000000, 2.731847993664262725E-16 ) ) ;
#211 = VERTEX_POINT ( 'NONE', #59 ) ;
#212 = PERSON ( 'UNSPECIFIED', 'UNSPECIFIED', 'UNSPECIFIED', ('UNSPECIFIED'), ('UNSPECIFIED'), ('UNSPECIFIED') ) ;
#213 = VECTOR ( 'NONE', #220, 39.37007874015748143 ) ;
#214 = DIRECTION ( 'NONE',  ( 1.000000000000000000, -4.259452115309812829E-16, -2.449293598294707400E-16 ) ) ;
#215 = CARTESIAN_POINT ( 'NONE',  ( -0.06250000000000000000, 14.45357251980462898, 0.1503019946630233528 ) ) ;
#216 = CARTESIAN_POINT ( 'NONE',  ( 0.2500000000000000000, 2.652189339957002012, -5.463695987328526437E-16 ) ) ;
#217 = CARTESIAN_POINT ( 'NONE',  ( 0.06250000000000000000, 14.19218933995700382, 0.000000000000000000 ) ) ;
#218 = VERTEX_POINT ( 'NONE', #257 ) ;
#219 = CARTESIAN_POINT ( 'NONE',  ( -0.06250000000000000000, 14.53999999999999915, -0.1000000000000000056 ) ) ;
#220 = DIRECTION ( 'NONE',  ( -1.000000000000000000, -0.000000000000000000, -0.000000000000000000 ) ) ;
#221 = VECTOR ( 'NONE', #344, 39.37007874015748143 ) ;
#222 = EDGE_CURVE ( 'NONE', #507, #453, #102, .T. ) ;
#223 = CARTESIAN_POINT ( 'NONE',  ( -0.2500000000000000000, 14.53999999999999915, 0.1999999999999999833 ) ) ;
#224 = DIRECTION ( 'NONE',  ( 1.000000000000000000, 0.000000000000000000, 0.000000000000000000 ) ) ;
#225 = ORIENTED_EDGE ( 'NONE', *, *, #155, .T. ) ;
#226 = PLANE ( 'NONE',  #291 ) ;
#227 = EDGE_CURVE ( 'NONE', #173, #466, #184, .T. ) ;
#228 = DIRECTION ( 'NONE',  ( -0.000000000000000000, -1.000000000000000000, -0.000000000000000000 ) ) ;
#229 = EDGE_LOOP ( 'NONE', ( #460, #311, #129, #366 ) ) ;
#230 = DIRECTION ( 'NONE',  ( 0.000000000000000000, 0.000000000000000000, -1.000000000000000000 ) ) ;
#231 = ADVANCED_FACE ( 'NONE', ( #305 ), #148, .F. ) ;
#232 = PLANE ( 'NONE',  #427 ) ;
#233 = VECTOR ( 'NONE', #122, 39.37007874015748143 ) ;
#234 = PERSON_AND_ORGANIZATION ( #212, #114 ) ;
#235 = DIRECTION ( 'NONE',  ( -0.000000000000000000, -1.000000000000000000, -0.000000000000000000 ) ) ;
#236 = EDGE_CURVE ( 'NONE', #126, #537, #191, .T. ) ;
#237 = VECTOR ( 'NONE', #419, 39.37007874015748143 ) ;
#238 = ADVANCED_FACE ( 'NONE', ( #513 ), #143, .F. ) ;
#239 = CARTESIAN_POINT ( 'NONE',  ( 0.1249999999999999584, 2.999999999999999556, 0.1999999999999999833 ) ) ;
#240 = DATE_TIME_ROLE ( 'creation_date' ) ;
#241 = EDGE_CURVE ( 'NONE', #280, #474, #6, .T. ) ;
#242 = APPROVAL_ROLE ( '' ) ;
#243 = CARTESIAN_POINT ( 'NONE',  ( 0.1250000000000000000, 14.53999999999999915, 0.2000000000000000111 ) ) ;
#244 = EDGE_LOOP ( 'NONE', ( #270, #430, #476, #493 ) ) ;
#245 = PERSON_AND_ORGANIZATION ( #212, #114 ) ;
#246 = CARTESIAN_POINT ( 'NONE',  ( 0.1250000000000000000, 14.53999999999999915, 0.000000000000000000 ) ) ;
#247 = ORIENTED_EDGE ( 'NONE', *, *, #422, .F. ) ;
#248 = VECTOR ( 'NONE', #89, 39.37007874015748143 ) ;
#249 = PERSON_AND_ORGANIZATION_ROLE ( 'design_owner' ) ;
#250 = CARTESIAN_POINT ( 'NONE',  ( -0.2500000000000000000, 14.53999999999999915, 0.1999999999999999833 ) ) ;
#251 = APPROVAL ( #363, 'UNSPECIFIED' ) ;
#252 = CARTESIAN_POINT ( 'NONE',  ( -0.1250000000000000000, 14.53999999999999915, 1.530808498934191817E-17 ) ) ;
#253 = FACE_OUTER_BOUND ( 'NONE', #442, .T. ) ;
#254 = LINE ( 'NONE', #217, #221 ) ;
#255 = EDGE_LOOP ( 'NONE', ( #405, #24, #293, #204 ) ) ;
#256 = CARTESIAN_POINT ( 'NONE',  ( 0.06250000000000000000, 14.19218933995700382, 0.000000000000000000 ) ) ;
#257 = CARTESIAN_POINT ( 'NONE',  ( -0.06250000000000000000, 2.652189339957003789, 0.000000000000000000 ) ) ;
#258 = CARTESIAN_POINT ( 'NONE',  ( 0.4399999999999998912, 2.999999999999999556, 0.1999999999999999833 ) ) ;
#259 = EDGE_CURVE ( 'NONE', #3, #360, #349, .T. ) ;
#260 = ORIENTED_EDGE ( 'NONE', *, *, #92, .T. ) ;
#261 = AXIS2_PLACEMENT_3D ( 'NONE', #404, #174, #88 ) ;
#262 = ORIENTED_EDGE ( 'NONE', *, *, #76, .F. ) ;
#263 = FACE_OUTER_BOUND ( 'NONE', #244, .T. ) ;
#264 = DIRECTION ( 'NONE',  ( 0.08279603152709374969, -0.8639202712313713839, -0.4967761891625624981 ) ) ;
#265 = ORIENTED_EDGE ( 'NONE', *, *, #35, .F. ) ;
#266 = VERTEX_POINT ( 'NONE', #25 ) ;
#267 = DIRECTION ( 'NONE',  ( -0.000000000000000000, -1.000000000000000000, -0.000000000000000000 ) ) ;
#268 = PLANE ( 'NONE',  #457 ) ;
#269 = PRODUCT_RELATED_PRODUCT_CATEGORY ( 'detail', '', ( #16 ) ) ;
#270 = ORIENTED_EDGE ( 'NONE', *, *, #222, .T. ) ;
#271 = DIRECTION ( 'NONE',  ( 0.000000000000000000, 0.000000000000000000, -1.000000000000000000 ) ) ;
#272 = CARTESIAN_POINT ( 'NONE',  ( 0.06250000000000000000, 11.54278387176338683, 5.112318599267418051 ) ) ;
#273 = ORIENTED_EDGE ( 'NONE', *, *, #185, .F. ) ;
#274 = PRODUCT_DEFINITION_FORMATION_WITH_SPECIFIED_SOURCE ( 'ANY', '', #16, .NOT_KNOWN. ) ;
#275 = CARTESIAN_POINT ( 'NONE',  ( 0.06250000000000000000, 14.53999999999999915, -0.1000000000000000056 ) ) ;
#276 = VECTOR ( 'NONE', #312, 39.37007874015748143 ) ;
#277 = DATE_AND_TIME ( #487, #381 ) ;
#278 = CARTESIAN_POINT ( 'NONE',  ( -0.1249999999999999584, 14.53999999999999915, 0.2000000000000000111 ) ) ;
#279 = CARTESIAN_POINT ( 'NONE',  ( -0.1250000000000001388, 14.19218933995700382, 1.530808498934195207E-17 ) ) ;
#280 = VERTEX_POINT ( 'NONE', #195 ) ;
#281 = VECTOR ( 'NONE', #235, 39.37007874015748143 ) ;
#282 = APPROVAL_DATE_TIME ( #123, #135 ) ;
#283 = ADVANCED_FACE ( 'NONE', ( #263 ), #435, .F. ) ;
#284 = ADVANCED_BREP_SHAPE_REPRESENTATION ( 'leading_edge_fab', ( #479, #261 ), #490 ) ;
#285 = VERTEX_POINT ( 'NONE', #97 ) ;
#286 = ADVANCED_FACE ( 'NONE', ( #54 ), #226, .F. ) ;
#287 =( NAMED_UNIT ( * ) SI_UNIT ( $, .STERADIAN. ) SOLID_ANGLE_UNIT ( ) );
#288 = APPROVAL_PERSON_ORGANIZATION ( #296, #443, #414 ) ;
#289 = ORIENTED_EDGE ( 'NONE', *, *, #410, .T. ) ;
#290 = ORIENTED_EDGE ( 'NONE', *, *, #194, .T. ) ;
#291 = AXIS2_PLACEMENT_3D ( 'NONE', #386, #379, #11 ) ;
#292 = LINE ( 'NONE', #452, #535 ) ;
#293 = ORIENTED_EDGE ( 'NONE', *, *, #131, .F. ) ;
#294 = CC_DESIGN_SECURITY_CLASSIFICATION ( #200, ( #274 ) ) ;
#295 = EDGE_CURVE ( 'NONE', #309, #353, #428, .T. ) ;
#296 = PERSON_AND_ORGANIZATION ( #212, #114 ) ;
#297 = CARTESIAN_POINT ( 'NONE',  ( -0.2500000000000000000, 14.53999999999999915, 0.1999999999999999833 ) ) ;
#298 = LINE ( 'NONE', #299, #465 ) ;
#299 = CARTESIAN_POINT ( 'NONE',  ( 0.2500000000000000000, 14.53999999999999915, 0.1999999999999999833 ) ) ;
#300 = CARTESIAN_POINT ( 'NONE',  ( -0.2500000000000000000, 2.652189339957003344, -1.229331597148918547E-15 ) ) ;
#301 = VERTEX_POINT ( 'NONE', #432 ) ;
#302 = DIRECTION ( 'NONE',  ( 1.000000000000000000, -0.000000000000000000, 0.000000000000000000 ) ) ;
#303 = LINE ( 'NONE', #429, #450 ) ;
#304 = ORIENTED_EDGE ( 'NONE', *, *, #527, .T. ) ;
#305 = FACE_OUTER_BOUND ( 'NONE', #19, .T. ) ;
#306 = CARTESIAN_POINT ( 'NONE',  ( -0.06250000000000000000, 14.53999999999999915, 0.000000000000000000 ) ) ;
#307 = DIRECTION ( 'NONE',  ( -1.000000000000000000, 0.000000000000000000, -0.000000000000000000 ) ) ;
#308 = CARTESIAN_POINT ( 'NONE',  ( 0.4399999999999998912, 14.53999999999999915, 0.1999999999999999833 ) ) ;
#309 = VERTEX_POINT ( 'NONE', #7 ) ;
#310 = VERTEX_POINT ( 'NONE', #514 ) ;
#311 = ORIENTED_EDGE ( 'NONE', *, *, #185, .T. ) ;
#312 = DIRECTION ( 'NONE',  ( -0.000000000000000000, 0.8668967489356022016, 0.4984877397538313160 ) ) ;
#313 = CARTESIAN_POINT ( 'NONE',  ( 0.000000000000000000, 14.53999999999999915, -1.500000000000000222 ) ) ;
#314 = CC_DESIGN_DATE_AND_TIME_ASSIGNMENT ( #79, #240, ( #501 ) ) ;
#315 = EDGE_LOOP ( 'NONE', ( #304, #265, #36, #61 ) ) ;
#316 = ORIENTED_EDGE ( 'NONE', *, *, #37, .F. ) ;
#317 = DIRECTION ( 'NONE',  ( 0.000000000000000000, -0.8668967489356022016, -0.4984877397538311494 ) ) ;
#318 = VECTOR ( 'NONE', #341, 39.37007874015748143 ) ;
#319 = LINE ( 'NONE', #441, #116 ) ;
#320 = ADVANCED_FACE ( 'NONE', ( #149 ), #99, .F. ) ;
#321 = FACE_OUTER_BOUND ( 'NONE', #471, .T. ) ;
#322 = VECTOR ( 'NONE', #172, 39.37007874015748143 ) ;
#323 = EDGE_CURVE ( 'NONE', #537, #413, #463, .T. ) ;
#324 = ORIENTED_EDGE ( 'NONE', *, *, #76, .T. ) ;
#325 = EDGE_CURVE ( 'NONE', #301, #153, #374, .T. ) ;
#326 = VECTOR ( 'NONE', #137, 39.37007874015748143 ) ;
#327 = COORDINATED_UNIVERSAL_TIME_OFFSET ( 5, 0, .BEHIND. ) ;
#328 = AXIS2_PLACEMENT_3D ( 'NONE', #498, #132, #134 ) ;
#329 = PERSON_AND_ORGANIZATION_ROLE ( 'creator' ) ;
#330 = CARTESIAN_POINT ( 'NONE',  ( -0.1250000000000000000, 2.652189339957006897, 1.530808498934191509E-17 ) ) ;
#331 = ORIENTED_EDGE ( 'NONE', *, *, #531, .F. ) ;
#332 = EDGE_CURVE ( 'NONE', #266, #466, #425, .T. ) ;
#333 = LINE ( 'NONE', #500, #511 ) ;
#334 = EDGE_LOOP ( 'NONE', ( #515, #152, #447, #95 ) ) ;
#335 = CARTESIAN_POINT ( 'NONE',  ( 0.1250000000000000000, 14.45357251980462898, 0.1503019946630233528 ) ) ;
#336 = CARTESIAN_POINT ( 'NONE',  ( 0.1250000000000000000, 2.652189339957006009, 1.092739197465705287E-15 ) ) ;
#337 = CARTESIAN_POINT ( 'NONE',  ( 0.2500000000000000000, 14.53999999999999915, 0.1999999999999999833 ) ) ;
#338 = EDGE_CURVE ( 'NONE', #285, #42, #55, .T. ) ;
#339 = VECTOR ( 'NONE', #523, 39.37007874015748143 ) ;
#340 = LINE ( 'NONE', #448, #237 ) ;
#341 = DIRECTION ( 'NONE',  ( -0.08279603152709377745, 0.8639202712313713839, 0.4967761891625625537 ) ) ;
#342 = FACE_OUTER_BOUND ( 'NONE', #315, .T. ) ;
#343 = DIMENSIONAL_EXPONENTS ( 1.000000000000000000, 0.000000000000000000, 0.000000000000000000, 0.000000000000000000, 0.000000000000000000, 0.000000000000000000, 0.000000000000000000 ) ;
#344 = DIRECTION ( 'NONE',  ( -1.000000000000000000, 0.000000000000000000, 0.000000000000000000 ) ) ;
#345 = AXIS2_PLACEMENT_3D ( 'NONE', #252, #375, #502 ) ;
#346 = ORIENTED_EDGE ( 'NONE', *, *, #531, .T. ) ;
#347 = CARTESIAN_POINT ( 'NONE',  ( -0.06250000000000000000, 14.53999999999999915, -0.1000000000000000056 ) ) ;
#348 = LINE ( 'NONE', #352, #130 ) ;
#349 = LINE ( 'NONE', #519, #370 ) ;
#350 = CC_DESIGN_PERSON_AND_ORGANIZATION_ASSIGNMENT ( #497, #249, ( #16 ) ) ;
#351 = AXIS2_PLACEMENT_3D ( 'NONE', #278, #163, #488 ) ;
#352 = CARTESIAN_POINT ( 'NONE',  ( -0.2114681665959378398, 13.79013586768899735, -0.2311910004243729333 ) ) ;
#353 = VERTEX_POINT ( 'NONE', #337 ) ;
#354 = LINE ( 'NONE', #397, #75 ) ;
#355 = EDGE_LOOP ( 'NONE', ( #346, #481, #78, #198 ) ) ;
#356 = CC_DESIGN_APPROVAL ( #251, ( #274 ) ) ;
#357 = EDGE_CURVE ( 'NONE', #280, #507, #186, .T. ) ;
#358 = CC_DESIGN_APPROVAL ( #135, ( #200 ) ) ;
#359 = CARTESIAN_POINT ( 'NONE',  ( 0.06250000000000000000, 2.478284009935508347, -0.09999999999999947820 ) ) ;
#360 = VERTEX_POINT ( 'NONE', #433 ) ;
#361 = VERTEX_POINT ( 'NONE', #300 ) ;
#362 = AXIS2_PLACEMENT_3D ( 'NONE', #223, #302, #508 ) ;
#363 = APPROVAL_STATUS ( 'not_yet_approved' ) ;
#364 = PERSON_AND_ORGANIZATION ( #212, #114 ) ;
#365 = CARTESIAN_POINT ( 'NONE',  ( 0.2500000000000000000, 11.67242509205644296, 5.186865607272883594 ) ) ;
#366 = ORIENTED_EDGE ( 'NONE', *, *, #492, .T. ) ;
#367 = VECTOR ( 'NONE', #139, 39.37007874015748143 ) ;
#368 = CARTESIAN_POINT ( 'NONE',  ( 0.2114681665959378398, 13.79013586768899735, -0.2311910004243729333 ) ) ;
#369 = VERTEX_POINT ( 'NONE', #182 ) ;
#370 = VECTOR ( 'NONE', #110, 39.37007874015748143 ) ;
#371 = LINE ( 'NONE', #365, #168 ) ;
#372 = ADVANCED_FACE ( 'NONE', ( #103 ), #268, .F. ) ;
#373 = DIRECTION ( 'NONE',  ( 0.000000000000000000, -0.8668967489356022016, -0.4984877397538313160 ) ) ;
#374 = LINE ( 'NONE', #63, #138 ) ;
#375 = DIRECTION ( 'NONE',  ( -1.000000000000000000, 0.000000000000000000, 1.707404996040164265E-16 ) ) ;
#376 = CARTESIAN_POINT ( 'NONE',  ( -0.2500000000000000000, 2.999999999999999556, 0.1999999999999999833 ) ) ;
#377 = ORIENTED_EDGE ( 'NONE', *, *, #227, .F. ) ;
#378 = VECTOR ( 'NONE', #421, 39.37007874015748143 ) ;
#379 = DIRECTION ( 'NONE',  ( -2.449293598294706907E-16, 0.000000000000000000, -1.000000000000000000 ) ) ;
#380 = DIRECTION ( 'NONE',  ( 0.1643989873053572637, 0.000000000000000000, 0.9863939238321437486 ) ) ;
#381 = LOCAL_TIME ( 20, 22, 0.000000000000000000, #43 ) ;
#382 = ORIENTED_EDGE ( 'NONE', *, *, #509, .F. ) ;
#383 = DIRECTION ( 'NONE',  ( -1.000000000000000000, 0.000000000000000000, -0.000000000000000000 ) ) ;
#384 = EDGE_CURVE ( 'NONE', #164, #3, #254, .T. ) ;
#385 = CARTESIAN_POINT ( 'NONE',  ( -0.2500000000000000000, 14.53999999999999915, 0.1999999999999999833 ) ) ;
#386 = CARTESIAN_POINT ( 'NONE',  ( -0.1250000000000000000, 14.53999999999999915, 1.530808498934191817E-17 ) ) ;
#387 = LINE ( 'NONE', #17, #206 ) ;
#388 = ORIENTED_EDGE ( 'NONE', *, *, #37, .T. ) ;
#389 = ORIENTED_EDGE ( 'NONE', *, *, #332, .F. ) ;
#390 = DIRECTION ( 'NONE',  ( -0.000000000000000000, -1.000000000000000000, -0.000000000000000000 ) ) ;
#391 = VECTOR ( 'NONE', #267, 39.37007874015748143 ) ;
#392 = DIRECTION ( 'NONE',  ( 1.000000000000000000, 0.000000000000000000, 0.000000000000000000 ) ) ;
#393 = ORIENTED_EDGE ( 'NONE', *, *, #527, .F. ) ;
#394 = EDGE_CURVE ( 'NONE', #211, #119, #387, .T. ) ;
#395 = CARTESIAN_POINT ( 'NONE',  ( -0.1249999999999999584, 2.999999999999999556, 0.1999999999999999833 ) ) ;
#396 = AXIS2_PLACEMENT_3D ( 'NONE', #246, #51, #181 ) ;
#397 = CARTESIAN_POINT ( 'NONE',  ( -0.2500000000000000000, 14.53999999999999915, 0.000000000000000000 ) ) ;
#398 = ORIENTED_EDGE ( 'NONE', *, *, #492, .F. ) ;
#399 = EDGE_CURVE ( 'NONE', #453, #474, #459, .T. ) ;
#400 = DIRECTION ( 'NONE',  ( -0.000000000000000000, -1.000000000000000000, -0.000000000000000000 ) ) ;
#401 = EDGE_CURVE ( 'NONE', #27, #218, #145, .T. ) ;
#402 = ORIENTED_EDGE ( 'NONE', *, *, #295, .F. ) ;
#403 = LOCAL_TIME ( 20, 22, 0.000000000000000000, #327 ) ;
#404 = CARTESIAN_POINT ( 'NONE',  ( 0.000000000000000000, 0.000000000000000000, 0.000000000000000000 ) ) ;
#405 = ORIENTED_EDGE ( 'NONE', *, *, #259, .T. ) ;
#406 = AXIS2_PLACEMENT_3D ( 'NONE', #105, #150, #383 ) ;
#407 = DATE_AND_TIME ( #169, #80 ) ;
#408 = LINE ( 'NONE', #297, #322 ) ;
#409 = ORIENTED_EDGE ( 'NONE', *, *, #146, .T. ) ;
#410 = EDGE_CURVE ( 'NONE', #310, #361, #192, .T. ) ;
#411 = PERSON_AND_ORGANIZATION_ROLE ( 'classification_officer' ) ;
#412 = LINE ( 'NONE', #495, #144 ) ;
#413 = VERTEX_POINT ( 'NONE', #376 ) ;
#414 = APPROVAL_ROLE ( '' ) ;
#415 = ADVANCED_FACE ( 'NONE', ( #60 ), #151, .F. ) ;
#416 = FACE_OUTER_BOUND ( 'NONE', #14, .T. ) ;
#417 = AXIS2_PLACEMENT_3D ( 'NONE', #467, #271, #424 ) ;
#418 = EDGE_CURVE ( 'NONE', #285, #369, #348, .T. ) ;
#419 = DIRECTION ( 'NONE',  ( -0.000000000000000000, -1.000000000000000000, -0.000000000000000000 ) ) ;
#420 = LINE ( 'NONE', #49, #98 ) ;
#421 = DIRECTION ( 'NONE',  ( -0.000000000000000000, -1.000000000000000000, -0.000000000000000000 ) ) ;
#422 = EDGE_CURVE ( 'NONE', #360, #173, #303, .T. ) ;
#423 = EDGE_LOOP ( 'NONE', ( #398, #190, #66, #382, #208, #104, #499, #53, #262, #496, #480, #225, #316 ) ) ;
#424 = DIRECTION ( 'NONE',  ( -1.000000000000000000, 0.000000000000000000, -0.000000000000000000 ) ) ;
#425 = LINE ( 'NONE', #510, #326 ) ;
#426 = EDGE_CURVE ( 'NONE', #369, #310, #189, .T. ) ;
#427 = AXIS2_PLACEMENT_3D ( 'NONE', #154, #439, #28 ) ;
#428 = LINE ( 'NONE', #187, #84 ) ;
#429 = CARTESIAN_POINT ( 'NONE',  ( 0.06250000000000000000, 2.652189339957006897, 0.000000000000000000 ) ) ;
#430 = ORIENTED_EDGE ( 'NONE', *, *, #399, .T. ) ;
#431 = ORIENTED_EDGE ( 'NONE', *, *, #475, .F. ) ;
#432 = CARTESIAN_POINT ( 'NONE',  ( -0.1250000000000000000, 14.19218933995700382, 1.530808498934191817E-17 ) ) ;
#433 = CARTESIAN_POINT ( 'NONE',  ( 0.06250000000000000000, 2.652189339957006897, 0.000000000000000000 ) ) ;
#434 = ORIENTED_EDGE ( 'NONE', *, *, #394, .T. ) ;
#435 = PLANE ( 'NONE',  #183 ) ;
#436 = DIRECTION ( 'NONE',  ( -0.000000000000000000, 0.8668967489356022016, 0.4984877397538313160 ) ) ;
#437 = EDGE_CURVE ( 'NONE', #474, #360, #478, .T. ) ;
#438 = VECTOR ( 'NONE', #390, 39.37007874015748143 ) ;
#439 = DIRECTION ( 'NONE',  ( -1.000000000000000000, 0.000000000000000000, 0.000000000000000000 ) ) ;
#440 = LENGTH_MEASURE_WITH_UNIT ( LENGTH_MEASURE( 0.02539999999999999897 ), #157 );
#441 = CARTESIAN_POINT ( 'NONE',  ( 0.06250000000000000000, 14.41035877970694479, 0.1254529919945349958 ) ) ;
#442 = EDGE_LOOP ( 'NONE', ( #533, #289, #393, #147 ) ) ;
#443 = APPROVAL ( #209, 'UNSPECIFIED' ) ;
#444 = APPROVAL_ROLE ( '' ) ;
#445 = COORDINATED_UNIVERSAL_TIME_OFFSET ( 5, 0, .BEHIND. ) ;
#446 = CC_DESIGN_APPROVAL ( #443, ( #501 ) ) ;
#447 = ORIENTED_EDGE ( 'NONE', *, *, #222, .F. ) ;
#448 = CARTESIAN_POINT ( 'NONE',  ( 0.1250000000000000000, 14.53999999999999915, 0.000000000000000000 ) ) ;
#449 = ORIENTED_EDGE ( 'NONE', *, *, #236, .F. ) ;
#450 = VECTOR ( 'NONE', #224, 39.37007874015748143 ) ;
#451 = PERSON_AND_ORGANIZATION_ROLE ( 'design_supplier' ) ;
#452 = CARTESIAN_POINT ( 'NONE',  ( -0.2500000000000000000, 2.999999999999999556, 0.1999999999999999833 ) ) ;
#453 = VERTEX_POINT ( 'NONE', #74 ) ;
#454 = CALENDAR_DATE ( 2025, 29, 10 ) ;
#455 = LINE ( 'NONE', #368, #18 ) ;
#456 = DIRECTION ( 'NONE',  ( -8.511204573204608834E-17, -0.8668967489356022016, -0.4984877397538313160 ) ) ;
#457 = AXIS2_PLACEMENT_3D ( 'NONE', #68, #506, #380 ) ;
#458 = DIRECTION ( 'NONE',  ( 0.000000000000000000, -0.8668967489356022016, -0.4984877397538313160 ) ) ;
#459 = LINE ( 'NONE', #94, #504 ) ;
#460 = ORIENTED_EDGE ( 'NONE', *, *, #325, .T. ) ;
#461 = ORIENTED_EDGE ( 'NONE', *, *, #325, .F. ) ;
#462 = CARTESIAN_POINT ( 'NONE',  ( 0.06250000000000000000, 14.53999999999999915, -0.1000000000000000056 ) ) ;
#463 = LINE ( 'NONE', #258, #213 ) ;
#464 = ORIENTED_EDGE ( 'NONE', *, *, #35, .T. ) ;
#465 = VECTOR ( 'NONE', #48, 39.37007874015748143 ) ;
#466 = VERTEX_POINT ( 'NONE', #239 ) ;
#467 = CARTESIAN_POINT ( 'NONE',  ( 0.1250000000000000000, 14.53999999999999915, 0.2000000000000000111 ) ) ;
#468 = DIRECTION ( 'NONE',  ( -1.000000000000000000, 0.000000000000000000, 0.000000000000000000 ) ) ;
#469 = ADVANCED_FACE ( 'NONE', ( #118 ), #117, .F. ) ;
#470 = PRODUCT_DEFINITION_SHAPE ( 'NONE', 'NONE',  #501 ) ;
#471 = EDGE_LOOP ( 'NONE', ( #64, #464, #56, #431, #108, #521, #377, #247, #512, #109, #101, #273, #96 ) ) ;
#472 = DIRECTION ( 'NONE',  ( 1.000000000000000000, 0.000000000000000000, 0.000000000000000000 ) ) ;
#473 = DIRECTION ( 'NONE',  ( 0.000000000000000000, -0.8668967489356023126, -0.4984877397538311494 ) ) ;
#474 = VERTEX_POINT ( 'NONE', #359 ) ;
#475 = EDGE_CURVE ( 'NONE', #119, #310, #26, .T. ) ;
#476 = ORIENTED_EDGE ( 'NONE', *, *, #241, .F. ) ;
#477 = DIRECTION ( 'NONE',  ( -0.000000000000000000, -1.000000000000000000, -0.000000000000000000 ) ) ;
#478 = LINE ( 'NONE', #272, #158 ) ;
#479 = MANIFOLD_SOLID_BREP ( 'Cut-Extrude2', #188 ) ;
#480 = ORIENTED_EDGE ( 'NONE', *, *, #338, .T. ) ;
#481 = ORIENTED_EDGE ( 'NONE', *, *, #133, .T. ) ;
#482 = DIRECTION ( 'NONE',  ( 0.000000000000000000, 0.4984877397538313160, -0.8668967489356022016 ) ) ;
#483 = VECTOR ( 'NONE', #503, 39.37007874015748143 ) ;
#484 =( CONVERSION_BASED_UNIT ( 'INCH', #440 ) LENGTH_UNIT ( ) NAMED_UNIT ( #343 ) );
#485 = DIRECTION ( 'NONE',  ( 0.000000000000000000, 0.8668967489356022016, 0.4984877397538313160 ) ) ;
#486 = ADVANCED_FACE ( 'NONE', ( #528 ), #232, .F. ) ;
#487 = CALENDAR_DATE ( 2025, 29, 10 ) ;
#488 = DIRECTION ( 'NONE',  ( -1.000000000000000000, 0.000000000000000000, -2.731847993664262725E-16 ) ) ;
#489 = COORDINATED_UNIVERSAL_TIME_OFFSET ( 5, 0, .BEHIND. ) ;
#490 =( GEOMETRIC_REPRESENTATION_CONTEXT ( 3 ) GLOBAL_UNCERTAINTY_ASSIGNED_CONTEXT ( ( #170 ) ) GLOBAL_UNIT_ASSIGNED_CONTEXT ( ( #484, #532, #287 ) ) REPRESENTATION_CONTEXT ( 'NONE', 'WORKASPACE' ) );
#491 = CALENDAR_DATE ( 2025, 29, 10 ) ;
#492 = EDGE_CURVE ( 'NONE', #27, #301, #201, .T. ) ;
#493 = ORIENTED_EDGE ( 'NONE', *, *, #357, .T. ) ;
#494 = PERSON_AND_ORGANIZATION ( #212, #114 ) ;
#495 = CARTESIAN_POINT ( 'NONE',  ( -0.1249999999999991257, 11.58599761186107280, 5.137167601935906269 ) ) ;
#496 = ORIENTED_EDGE ( 'NONE', *, *, #418, .F. ) ;
#497 = PERSON_AND_ORGANIZATION ( #212, #114 ) ;
#498 = CARTESIAN_POINT ( 'NONE',  ( 0.000000000000000000, 14.53999999999999915, -1.500000000000000222 ) ) ;
#499 = ORIENTED_EDGE ( 'NONE', *, *, #295, .T. ) ;
#500 = CARTESIAN_POINT ( 'NONE',  ( -0.06250000000000000000, 11.58599761186107280, 5.137167601935906269 ) ) ;
#501 = PRODUCT_DEFINITION ( 'UNKNOWN', '', #274, #40 ) ;
#502 = DIRECTION ( 'NONE',  ( 1.707404996040164265E-16, 0.000000000000000000, 1.000000000000000000 ) ) ;
#503 = DIRECTION ( 'NONE',  ( -1.000000000000000000, 0.000000000000000000, 0.000000000000000000 ) ) ;
#504 = VECTOR ( 'NONE', #21, 39.37007874015748143 ) ;
#505 = DIRECTION ( 'NONE',  ( 0.000000000000000000, -0.8668967489356022016, -0.4984877397538313160 ) ) ;
#506 = DIRECTION ( 'NONE',  ( -0.9863939238321437486, 0.000000000000000000, 0.1643989873053572637 ) ) ;
#507 = VERTEX_POINT ( 'NONE', #202 ) ;
#508 = DIRECTION ( 'NONE',  ( 0.000000000000000000, 0.000000000000000000, -1.000000000000000000 ) ) ;
#509 = EDGE_CURVE ( 'NONE', #3, #280, #319, .T. ) ;
#510 = CARTESIAN_POINT ( 'NONE',  ( 0.4399999999999998912, 2.999999999999999556, 0.1999999999999999833 ) ) ;
#511 = VECTOR ( 'NONE', #458, 39.37007874015748143 ) ;
#512 = ORIENTED_EDGE ( 'NONE', *, *, #437, .F. ) ;
#513 = FACE_OUTER_BOUND ( 'NONE', #255, .T. ) ;
#514 = CARTESIAN_POINT ( 'NONE',  ( -6.829619984160658046E-17, 0.04360938963454893263, -1.499999999999999334 ) ) ;
#515 = ORIENTED_EDGE ( 'NONE', *, *, #401, .T. ) ;
#516 = EDGE_LOOP ( 'NONE', ( #434, #83, #142, #324 ) ) ;
#517 = ADVANCED_FACE ( 'NONE', ( #321 ), #199, .F. ) ;
#518 = VECTOR ( 'NONE', #67, 39.37007874015748143 ) ;
#519 = CARTESIAN_POINT ( 'NONE',  ( 0.06250000000000000000, 14.53999999999999915, 0.000000000000000000 ) ) ;
#520 = DIRECTION ( 'NONE',  ( -0.000000000000000000, -1.000000000000000000, -0.000000000000000000 ) ) ;
#521 = ORIENTED_EDGE ( 'NONE', *, *, #332, .T. ) ;
#522 = ORIENTED_EDGE ( 'NONE', *, *, #155, .F. ) ;
#523 = DIRECTION ( 'NONE',  ( -0.08279603152709377745, -0.8639202712313713839, -0.4967761891625625537 ) ) ;
#524 = CARTESIAN_POINT ( 'NONE',  ( 0.4399999999999998912, 2.999999999999999556, 0.1999999999999999833 ) ) ;
#525 = LOCAL_TIME ( 20, 22, 0.000000000000000000, #445 ) ;
#526 = VECTOR ( 'NONE', #520, 39.37007874015748143 ) ;
#527 = EDGE_CURVE ( 'NONE', #285, #361, #354, .T. ) ;
#528 = FACE_OUTER_BOUND ( 'NONE', #334, .T. ) ;
#529 = ADVANCED_FACE ( 'NONE', ( #115 ), #34, .F. ) ;
#530 = AXIS2_PLACEMENT_3D ( 'NONE', #275, #392, #31 ) ;
#531 = EDGE_CURVE ( 'NONE', #353, #266, #197, .T. ) ;
#532 =( NAMED_UNIT ( * ) PLANE_ANGLE_UNIT ( ) SI_UNIT ( $, .RADIAN. ) );
#533 = ORIENTED_EDGE ( 'NONE', *, *, #426, .T. ) ;
#534 = APPROVAL_DATE_TIME ( #167, #443 ) ;
#535 = VECTOR ( 'NONE', #373, 39.37007874015748143 ) ;
#536 = CARTESIAN_POINT ( 'NONE',  ( -0.1249999999999999584, 14.53999999999999915, 0.1999999999999999833 ) ) ;
#537 = VERTEX_POINT ( 'NONE', #395 ) ;
ENDSEC;
END-ISO-10303-21;
