ISO-10303-21;
HEADER;
FILE_DESCRIPTION (( 'STEP AP214' ),
    '1' );
FILE_NAME ('ctrlSurf_modif.STEP',
    '2025-09-25T00:54:06',
    ( '' ),
    ( '' ),
    'SwSTEP 2.0',
    'SolidWorks 2025',
    '' );
FILE_SCHEMA (( 'AUTOMOTIVE_DESIGN' ));
ENDSEC;

DATA;
#1 = ORIENTED_EDGE ( 'NONE', *, *, #792, .F. ) ;
#2 = DIRECTION ( 'NONE',  ( 0.1370521391469133321, -0.000000000000000000, -0.9905638349724137370 ) ) ;
#3 = CARTESIAN_POINT ( 'NONE',  ( -40.10293193298435455, 3.968750000000076383, -4.137450648968905575 ) ) ;
#4 = AXIS2_PLACEMENT_3D ( 'NONE', #151, #320, #436 ) ;
#5 = ORIENTED_EDGE ( 'NONE', *, *, #310, .T. ) ;
#6 = CARTESIAN_POINT ( 'NONE',  ( -23.54985813519760640, 0.5000000000000004441, -5.683404349771288722 ) ) ;
#7 = CYLINDRICAL_SURFACE ( 'NONE', #228, 4.060119808809604436 ) ;
#8 = ORIENTED_EDGE ( 'NONE', *, *, #623, .F. ) ;
#9 = ADVANCED_FACE ( 'NONE', ( #409 ), #38, .T. ) ;
#10 = LINE ( 'NONE', #309, #661 ) ;
#11 = FACE_OUTER_BOUND ( 'NONE', #587, .T. ) ;
#12 = ORIENTED_EDGE ( 'NONE', *, *, #70, .F. ) ;
#13 = CARTESIAN_POINT ( 'NONE',  ( 0.2607028232281292102, 7.437500000000000000, -1.884266746746414034 ) ) ;
#14 = EDGE_CURVE ( 'NONE', #609, #677, #100, .T. ) ;
#15 = FACE_BOUND ( 'NONE', #236, .T. ) ;
#16 = AXIS2_PLACEMENT_3D ( 'NONE', #636, #517, #631 ) ;
#17 = EDGE_LOOP ( 'NONE', ( #737, #66, #690, #771 ) ) ;
#18 = CIRCLE ( 'NONE', #765, 3.468749999999999112 ) ;
#19 = CARTESIAN_POINT ( 'NONE',  ( -23.61838420477106482, 7.937500000000000000, -5.188122432285079633 ) ) ;
#20 = ADVANCED_FACE ( 'NONE', ( #643 ), #285, .T. ) ;
#21 = CARTESIAN_POINT ( 'NONE',  ( -39.67301216572395361, 7.366139556797720367, -4.077967936513304359 ) ) ;
#22 = ORIENTED_EDGE ( 'NONE', *, *, #548, .T. ) ;
#23 = DIRECTION ( 'NONE',  ( 0.1370521391469133321, 4.163336342344337027E-17, -0.9905638349724137370 ) ) ;
#24 = CARTESIAN_POINT ( 'NONE',  ( -42.38230260914593117, 3.968750000000000888, 19.63351863747151071 ) ) ;
#25 = EDGE_CURVE ( 'NONE', #291, #339, #595, .T. ) ;
#26 = ORIENTED_EDGE ( 'NONE', *, *, #229, .T. ) ;
#27 = CYLINDRICAL_SURFACE ( 'NONE', #317, 1.000000032000008199 ) ;
#28 = PRODUCT_DEFINITION_CONTEXT ( 'detailed design', #540, 'design' ) ;
#29 = DIRECTION ( 'NONE',  ( -0.9825784608107164253, -0.1267197682838522299, -0.1359473011020441158 ) ) ;
#30 = DIRECTION ( 'NONE',  ( 0.1370521391469133321, -0.000000000000000000, -0.9905638349724137370 ) ) ;
#31 = ORIENTED_EDGE ( 'NONE', *, *, #656, .T. ) ;
#32 = AXIS2_PLACEMENT_3D ( 'NONE', #401, #637, #723 ) ;
#33 = CARTESIAN_POINT ( 'NONE',  ( -38.99020143683172535, 3.968750000000000000, -7.314931790601667316 ) ) ;
#34 = CARTESIAN_POINT ( 'NONE',  ( -41.09349579965486043, 3.968750000000000888, -4.274502792501487569 ) ) ;
#35 = ORIENTED_EDGE ( 'NONE', *, *, #95, .F. ) ;
#36 = CARTESIAN_POINT ( 'NONE',  ( -41.22241094705388065, 1.001697375780428168, -4.292339196472338969 ) ) ;
#37 = ADVANCED_FACE ( 'NONE', ( #772 ), #231, .T. ) ;
#38 = PLANE ( 'NONE',  #732 ) ;
#39 = DIRECTION ( 'NONE',  ( -0.9905638349724135150, 0.000000000000000000, -0.1370521391469141648 ) ) ;
#40 = ORIENTED_EDGE ( 'NONE', *, *, #543, .T. ) ;
#41 = DIRECTION ( 'NONE',  ( 0.000000000000000000, -1.000000000000000000, 0.000000000000000000 ) ) ;
#42 = VECTOR ( 'NONE', #607, 999.9999999999998863 ) ;
#43 = AXIS2_PLACEMENT_3D ( 'NONE', #733, #492, #477 ) ;
#44 = VECTOR ( 'NONE', #29, 1000.000000000000114 ) ;
#45 = ORIENTED_EDGE ( 'NONE', *, *, #55, .F. ) ;
#46 = AXIS2_PLACEMENT_3D ( 'NONE', #705, #584, #586 ) ;
#47 = DIRECTION ( 'NONE',  ( 0.1370521391469147754, 0.000000000000000000, -0.9905638349724135150 ) ) ;
#48 = ORIENTED_EDGE ( 'NONE', *, *, #380, .T. ) ;
#49 = DIRECTION ( 'NONE',  ( -0.2521477732085202206, -0.9670596809364666591, -0.03488658729431692862 ) ) ;
#50 = ADVANCED_FACE ( 'NONE', ( #721 ), #177, .F. ) ;
#51 = ORIENTED_EDGE ( 'NONE', *, *, #781, .F. ) ;
#52 = ORIENTED_EDGE ( 'NONE', *, *, #159, .T. ) ;
#53 = CARTESIAN_POINT ( 'NONE',  ( -42.19722149286949531, 7.437500000000000000, 15.86426194775282106 ) ) ;
#54 = DIRECTION ( 'NONE',  ( -0.1370521391469131656, 0.000000000000000000, 0.9905638349724137370 ) ) ;
#55 = EDGE_CURVE ( 'NONE', #615, #242, #605, .T. ) ;
#56 = DIRECTION ( 'NONE',  ( 0.9676487102442355992, -0.2523013546588032674, 0.000000000000000000 ) ) ;
#57 = CIRCLE ( 'NONE', #313, 1.000000032000008199 ) ;
#58 = VECTOR ( 'NONE', #671, 1000.000000000000114 ) ;
#59 = LINE ( 'NONE', #181, #58 ) ;
#60 = VERTEX_POINT ( 'NONE', #728 ) ;
#61 = DIRECTION ( 'NONE',  ( 0.1370521391469131656, 0.000000000000000000, -0.9905638349724137370 ) ) ;
#62 = CARTESIAN_POINT ( 'NONE',  ( -27.45639342368624014, 7.937500000000000000, 17.90376909343283174 ) ) ;
#63 = ORIENTED_EDGE ( 'NONE', *, *, #86, .F. ) ;
#64 = CARTESIAN_POINT ( 'NONE',  ( -26.82540426080883478, 7.937499999999996447, 17.99107130606942562 ) ) ;
#65 = LINE ( 'NONE', #739, #98 ) ;
#66 = ORIENTED_EDGE ( 'NONE', *, *, #719, .F. ) ;
#67 = DIRECTION ( 'NONE',  ( 0.1370521391469152195, 0.000000000000000000, -0.9905638349724134040 ) ) ;
#68 = CIRCLE ( 'NONE', #649, 3.968749999999997780 ) ;
#69 = CARTESIAN_POINT ( 'NONE',  ( -38.92167536725826693, 3.968750000000000000, -7.810213708087877293 ) ) ;
#70 = EDGE_CURVE ( 'NONE', #84, #258, #676, .T. ) ;
#71 = VECTOR ( 'NONE', #30, 999.9999999999998863 ) ;
#72 = ORIENTED_EDGE ( 'NONE', *, *, #122, .T. ) ;
#73 = FACE_OUTER_BOUND ( 'NONE', #713, .T. ) ;
#74 = CARTESIAN_POINT ( 'NONE',  ( -39.44247349601653951, 3.968750000000000000, -4.046071135192705448 ) ) ;
#75 = EDGE_CURVE ( 'NONE', #371, #550, #59, .T. ) ;
#76 = ORIENTED_EDGE ( 'NONE', *, *, #623, .T. ) ;
#77 = DIRECTION ( 'NONE',  ( -0.9905638349724135150, 0.000000000000000000, -0.1370521391469133321 ) ) ;
#78 = CARTESIAN_POINT ( 'NONE',  ( -39.67301216572395361, 7.366139556797720367, -4.077967936513304359 ) ) ;
#79 = ORIENTED_EDGE ( 'NONE', *, *, #380, .F. ) ;
#80 = FILL_AREA_STYLE_COLOUR ( '', #691 ) ;
#81 = TOROIDAL_SURFACE ( 'NONE', #264, 3.468749999999998224, 0.5000000000000000000 ) ;
#82 = PLANE ( 'NONE',  #694 ) ;
#83 = CIRCLE ( 'NONE', #693, 3.174999999996611866 ) ;
#84 = VERTEX_POINT ( 'NONE', #429 ) ;
#85 = CARTESIAN_POINT ( 'NONE',  ( -39.67301216572396783, 0.5713604432024321778, -4.077967936513307912 ) ) ;
#86 = EDGE_CURVE ( 'NONE', #207, #275, #65, .T. ) ;
#87 = DIRECTION ( 'NONE',  ( -0.1370521391469131656, 0.000000000000000000, 0.9905638349724137370 ) ) ;
#88 = ORIENTED_EDGE ( 'NONE', *, *, #440, .F. ) ;
#89 = ORIENTED_EDGE ( 'NONE', *, *, #645, .T. ) ;
#90 = DIRECTION ( 'NONE',  ( 0.9905638349724135150, 0.000000000000000000, 0.1370521391469152472 ) ) ;
#91 = FACE_OUTER_BOUND ( 'NONE', #585, .T. ) ;
#92 = ORIENTED_EDGE ( 'NONE', *, *, #656, .F. ) ;
#93 = DIRECTION ( 'NONE',  ( -0.1370521391469133321, -4.163336342344337027E-17, 0.9905638349724137370 ) ) ;
#94 = DIRECTION ( 'NONE',  ( 0.9905638349724135150, 0.000000000000000000, 0.1370521391469152472 ) ) ;
#95 = EDGE_CURVE ( 'NONE', #615, #650, #667, .T. ) ;
#96 = VERTEX_POINT ( 'NONE', #793 ) ;
#97 = AXIS2_PLACEMENT_3D ( 'NONE', #673, #791, #250 ) ;
#98 = VECTOR ( 'NONE', #552, 1000.000000000000000 ) ;
#99 = DIRECTION ( 'NONE',  ( -0.9905638349724137370, 0.000000000000000000, -0.1370521391469131656 ) ) ;
#100 = LINE ( 'NONE', #108, #415 ) ;
#101 = APPLICATION_PROTOCOL_DEFINITION ( 'draft international standard', 'automotive_design', 1998, #540 ) ;
#102 = EDGE_LOOP ( 'NONE', ( #433, #160, #308, #622, #114, #722, #125, #516, #146, #172, #753, #741 ) ) ;
#103 = VERTEX_POINT ( 'NONE', #432 ) ;
#104 = AXIS2_PLACEMENT_3D ( 'NONE', #542, #494, #788 ) ;
#105 = EDGE_LOOP ( 'NONE', ( #321, #88, #468, #462, #546, #305, #12, #593 ) ) ;
#106 = PLANE ( 'NONE',  #490 ) ;
#107 = EDGE_CURVE ( 'NONE', #776, #672, #307, .T. ) ;
#108 = CARTESIAN_POINT ( 'NONE',  ( -38.92167536725826693, 0.5000000000000004441, -7.810213708087872853 ) ) ;
#109 = VECTOR ( 'NONE', #41, 1000.000000000000000 ) ;
#110 = CARTESIAN_POINT ( 'NONE',  ( -41.22241094705321274, 6.935802624219980395, -4.292339196472245710 ) ) ;
#111 = EDGE_LOOP ( 'NONE', ( #687, #606, #333, #312, #367, #756, #26, #449, #592 ) ) ;
#112 = DIRECTION ( 'NONE',  ( 0.9905638349724136260, 3.500703230800043874E-15, 0.1370521391469131101 ) ) ;
#113 = CARTESIAN_POINT ( 'NONE',  ( -41.22241094705388065, 1.001697375780428168, -4.292339196472338969 ) ) ;
#114 = ORIENTED_EDGE ( 'NONE', *, *, #524, .F. ) ;
#115 = CARTESIAN_POINT ( 'NONE',  ( -42.19722149286949531, 7.437500000000000000, 15.86426194775282106 ) ) ;
#116 = DIRECTION ( 'NONE',  ( 0.1370521391469133043, -0.000000000000000000, -0.9905638349724136260 ) ) ;
#117 = EDGE_CURVE ( 'NONE', #358, #430, #488, .T. ) ;
#118 = ORIENTED_EDGE ( 'NONE', *, *, #180, .T. ) ;
#119 = LINE ( 'NONE', #551, #706 ) ;
#120 = LINE ( 'NONE', #311, #567 ) ;
#121 = ORIENTED_EDGE ( 'NONE', *, *, #589, .T. ) ;
#122 = EDGE_CURVE ( 'NONE', #339, #258, #120, .T. ) ;
#123 = CARTESIAN_POINT ( 'NONE',  ( -42.92620599941081849, 3.968750000000000888, 16.26816435146282203 ) ) ;
#124 = CARTESIAN_POINT ( 'NONE',  ( -41.93564213274035524, 3.968750000000000888, 16.40521649499540757 ) ) ;
#125 = ORIENTED_EDGE ( 'NONE', *, *, #396, .T. ) ;
#126 = DIRECTION ( 'NONE',  ( 0.000000000000000000, 1.000000000000000000, 0.000000000000000000 ) ) ;
#127 = DIRECTION ( 'NONE',  ( 0.1370521391469133321, -0.000000000000000000, -0.9905638349724137370 ) ) ;
#128 = VERTEX_POINT ( 'NONE', #597 ) ;
#129 = DIRECTION ( 'NONE',  ( 0.1370521391469134986, -0.000000000000000000, -0.9905638349724137370 ) ) ;
#130 = AXIS2_PLACEMENT_3D ( 'NONE', #170, #461, #61 ) ;
#131 = EDGE_CURVE ( 'NONE', #60, #609, #734, .T. ) ;
#132 = DIRECTION ( 'NONE',  ( 0.1370521391469138317, -0.000000000000000000, -0.9905638349724136260 ) ) ;
#133 = CIRCLE ( 'NONE', #774, 3.174999999996611866 ) ;
#134 = ORIENTED_EDGE ( 'NONE', *, *, #471, .F. ) ;
#135 = DIRECTION ( 'NONE',  ( 0.9905638349724136260, 0.000000000000000000, 0.1370521391469138317 ) ) ;
#136 = FACE_OUTER_BOUND ( 'NONE', #639, .T. ) ;
#137 = VERTEX_POINT ( 'NONE', #124 ) ;
#138 = DIRECTION ( 'NONE',  ( 0.9905638349724136260, 0.000000000000000000, 0.1370521391469131656 ) ) ;
#139 = LINE ( 'NONE', #392, #527 ) ;
#140 = ORIENTED_EDGE ( 'NONE', *, *, #270, .T. ) ;
#141 = EDGE_CURVE ( 'NONE', #790, #459, #133, .T. ) ;
#142 = CARTESIAN_POINT ( 'NONE',  ( -40.38270298416270521, 0.8983355130284327306, -8.012358136523474172 ) ) ;
#143 = CIRCLE ( 'NONE', #588, 3.468749999999999112 ) ;
#144 = CARTESIAN_POINT ( 'NONE',  ( 0.09161532917439668688, 2.237832166577077952, 1.423774675266740619 ) ) ;
#145 = CIRCLE ( 'NONE', #43, 3.468749999999999556 ) ;
#146 = ORIENTED_EDGE ( 'NONE', *, *, #740, .F. ) ;
#147 = AXIS2_PLACEMENT_3D ( 'NONE', #519, #49, #56 ) ;
#148 =( LENGTH_UNIT ( ) NAMED_UNIT ( * ) SI_UNIT ( .MILLI., .METRE. ) );
#149 = VERTEX_POINT ( 'NONE', #376 ) ;
#150 = CYLINDRICAL_SURFACE ( 'NONE', #641, 0.5000000000000002220 ) ;
#151 = CARTESIAN_POINT ( 'NONE',  ( -38.92167536725826693, 3.968750000000000000, -7.810213708087877293 ) ) ;
#152 = ORIENTED_EDGE ( 'NONE', *, *, #117, .F. ) ;
#153 = PRESENTATION_STYLE_ASSIGNMENT (( #262 ) ) ;
#154 = EDGE_CURVE ( 'NONE', #528, #729, #369, .T. ) ;
#155 = DIRECTION ( 'NONE',  ( 0.9905638349724137370, 0.000000000000000000, 0.1370521391469131656 ) ) ;
#156 = DIRECTION ( 'NONE',  ( 0.1370521391469133321, -0.000000000000000000, -0.9905638349724137370 ) ) ;
#157 = ORIENTED_EDGE ( 'NONE', *, *, #25, .F. ) ;
#158 =( NAMED_UNIT ( * ) PLANE_ANGLE_UNIT ( ) SI_UNIT ( $, .RADIAN. ) );
#159 = EDGE_CURVE ( 'NONE', #410, #371, #145, .T. ) ;
#160 = ORIENTED_EDGE ( 'NONE', *, *, #611, .F. ) ;
#161 = AXIS2_PLACEMENT_3D ( 'NONE', #256, #195, #666 ) ;
#162 = APPLICATION_CONTEXT ( 'automotive_design' ) ;
#163 = CARTESIAN_POINT ( 'NONE',  ( -42.92150165687848329, 0.5000000000000004441, -7.858857467840976163 ) ) ;
#164 = VECTOR ( 'NONE', #304, 1000.000000000000114 ) ;
#165 = ORIENTED_EDGE ( 'NONE', *, *, #792, .T. ) ;
#166 = FACE_OUTER_BOUND ( 'NONE', #658, .T. ) ;
#167 = ORIENTED_EDGE ( 'NONE', *, *, #70, .T. ) ;
#168 = ORIENTED_EDGE ( 'NONE', *, *, #598, .F. ) ;
#169 = EDGE_CURVE ( 'NONE', #96, #294, #653, .T. ) ;
#170 = CARTESIAN_POINT ( 'NONE',  ( -23.61838420477106482, 0.5000000000000004441, -5.188122432285080521 ) ) ;
#171 = PRODUCT_DEFINITION_SHAPE ( 'NONE', 'NONE',  #787 ) ;
#172 = ORIENTED_EDGE ( 'NONE', *, *, #169, .F. ) ;
#173 =( NAMED_UNIT ( * ) PLANE_ANGLE_UNIT ( ) SI_UNIT ( $, .RADIAN. ) );
#174 = CIRCLE ( 'NONE', #97, 3.174999999996611866 ) ;
#175 = DIRECTION ( 'NONE',  ( 0.1370521391469138317, -0.000000000000000000, -0.9905638349724136260 ) ) ;
#176 = VECTOR ( 'NONE', #260, 1000.000000000000114 ) ;
#177 = PLANE ( 'NONE',  #578 ) ;
#178 = AXIS2_PLACEMENT_3D ( 'NONE', #163, #411, #47 ) ;
#179 = CARTESIAN_POINT ( 'NONE',  ( -42.87849179857709458, 3.968750000000000000, -4.521470742858561209 ) ) ;
#180 = EDGE_CURVE ( 'NONE', #729, #242, #247, .T. ) ;
#181 = CARTESIAN_POINT ( 'NONE',  ( -42.26574756244295372, 0.5000000000000000000, 16.35954386523902571 ) ) ;
#182 = ORIENTED_EDGE ( 'NONE', *, *, #169, .T. ) ;
#183 = CARTESIAN_POINT ( 'NONE',  ( -42.85297558730502487, 7.437500000000000000, -8.354139385327183476 ) ) ;
#184 = DIRECTION ( 'NONE',  ( 0.9825784608107164253, -0.1267197682838523132, 0.1359473011020441158 ) ) ;
#185 = EDGE_LOOP ( 'NONE', ( #496, #224, #152, #79 ) ) ;
#186 = CIRCLE ( 'NONE', #235, 0.4999999999999985567 ) ;
#187 = DIRECTION ( 'NONE',  ( 0.1370521391469138039, -0.000000000000000000, -0.9905638349724135150 ) ) ;
#188 = AXIS2_PLACEMENT_3D ( 'NONE', #608, #544, #316 ) ;
#189 = VECTOR ( 'NONE', #156, 999.9999999999998863 ) ;
#190 = DIRECTION ( 'NONE',  ( 0.1370521391469133043, -0.000000000000000000, -0.9905638349724137370 ) ) ;
#191 = ORIENTED_EDGE ( 'NONE', *, *, #95, .T. ) ;
#192 = DIRECTION ( 'NONE',  ( 0.1370521391469130545, 0.000000000000000000, -0.9905638349724137370 ) ) ;
#193 = DIRECTION ( 'NONE',  ( 0.000000000000000000, -1.000000000000000000, 0.000000000000000000 ) ) ;
#194 = ORIENTED_EDGE ( 'NONE', *, *, #280, .F. ) ;
#195 = DIRECTION ( 'NONE',  ( -0.1370521391469134986, 0.000000000000000000, 0.9905638349724137370 ) ) ;
#196 = EDGE_CURVE ( 'NONE', #493, #630, #18, .T. ) ;
#197 = CARTESIAN_POINT ( 'NONE',  ( -46.64370825889529470, 3.968750000000000000, 19.04392033047582800 ) ) ;
#198 = ORIENTED_EDGE ( 'NONE', *, *, #686, .F. ) ;
#199 = DIRECTION ( 'NONE',  ( 0.9825784608107164253, -0.1267197682838523132, 0.1359473011020441158 ) ) ;
#200 = ADVANCED_FACE ( 'NONE', ( #557 ), #7, .F. ) ;
#201 = AXIS2_PLACEMENT_3D ( 'NONE', #277, #94, #453 ) ;
#202 = CARTESIAN_POINT ( 'NONE',  ( -38.99020143683172535, 3.968750000000000000, -7.314931790601667316 ) ) ;
#203 = ORIENTED_EDGE ( 'NONE', *, *, #435, .F. ) ;
#204 = DIRECTION ( 'NONE',  ( -0.9905638349724137370, 0.000000000000000000, -0.1370521391469131656 ) ) ;
#205 = CARTESIAN_POINT ( 'NONE',  ( -40.90350111292097068, 7.039164486971720258, -4.248215563628301439 ) ) ;
#206 = EDGE_CURVE ( 'NONE', #207, #103, #709, .T. ) ;
#207 = VERTEX_POINT ( 'NONE', #424 ) ;
#208 = CARTESIAN_POINT ( 'NONE',  ( -2.089672202890741293, -9.277185723478950763, -2.714222269148427902 ) ) ;
#209 = DIRECTION ( 'NONE',  ( 0.1370521391469133043, -0.000000000000000000, -0.9905638349724136260 ) ) ;
#210 = EDGE_LOOP ( 'NONE', ( #499, #510, #482, #712, #351 ) ) ;
#211 = CARTESIAN_POINT ( 'NONE',  ( -42.71240803884852966, 3.968750000000000000, 19.58784600771513951 ) ) ;
#212 = CARTESIAN_POINT ( 'NONE',  ( -40.90350111292097068, 0.8983355130284327306, -4.248215563628301439 ) ) ;
#213 = CIRCLE ( 'NONE', #201, 0.5000000000000002220 ) ;
#214 = DIRECTION ( 'NONE',  ( 0.1370521391469133043, -0.000000000000000000, -0.9905638349724137370 ) ) ;
#215 = CIRCLE ( 'NONE', #416, 3.968749999999997780 ) ;
#216 = ORIENTED_EDGE ( 'NONE', *, *, #326, .T. ) ;
#217 = EDGE_CURVE ( 'NONE', #149, #84, #743, .T. ) ;
#218 = PRODUCT_DEFINITION_FORMATION_WITH_SPECIFIED_SOURCE ( 'ANY', '', #545, .NOT_KNOWN. ) ;
#219 = PLANE ( 'NONE',  #366 ) ;
#220 = DIRECTION ( 'NONE',  ( -0.9579343461956250083, -0.2545497466254084129, -0.1325375979550742211 ) ) ;
#221 = ORIENTED_EDGE ( 'NONE', *, *, #25, .T. ) ;
#222 = ADVANCED_FACE ( 'NONE', ( #747 ), #621, .F. ) ;
#223 = CARTESIAN_POINT ( 'NONE',  ( -44.36343034248685768, 3.968750000000000888, 19.35941435040634317 ) ) ;
#224 = ORIENTED_EDGE ( 'NONE', *, *, #287, .T. ) ;
#225 = ORIENTED_EDGE ( 'NONE', *, *, #75, .F. ) ;
#226 = AXIS2_PLACEMENT_3D ( 'NONE', #669, #187, #375 ) ;
#227 = FACE_OUTER_BOUND ( 'NONE', #446, .T. ) ;
#228 = AXIS2_PLACEMENT_3D ( 'NONE', #240, #116, #495 ) ;
#229 = EDGE_CURVE ( 'NONE', #442, #776, #83, .T. ) ;
#230 = VERTEX_POINT ( 'NONE', #78 ) ;
#231 = CYLINDRICAL_SURFACE ( 'NONE', #614, 3.968749999999997335 ) ;
#232 = ADVANCED_FACE ( 'NONE', ( #91 ), #502, .F. ) ;
#233 = CARTESIAN_POINT ( 'NONE',  ( -42.85297558730502487, 7.937500000000000000, -8.354139385327183476 ) ) ;
#234 = DIRECTION ( 'NONE',  ( 0.1370521391469132766, -0.000000000000000000, -0.9905638349724136260 ) ) ;
#235 = AXIS2_PLACEMENT_3D ( 'NONE', #115, #715, #476 ) ;
#236 = EDGE_LOOP ( 'NONE', ( #76, #414 ) ) ;
#237 = DIRECTION ( 'NONE',  ( 0.9905638349724137370, -0.000000000000000000, 0.1370521391469131656 ) ) ;
#238 = EDGE_CURVE ( 'NONE', #672, #493, #315, .T. ) ;
#239 = AXIS2_PLACEMENT_3D ( 'NONE', #144, #634, #271 ) ;
#240 = CARTESIAN_POINT ( 'NONE',  ( -29.74034648618424370, 3.968750000000076383, -2.703707105710857039 ) ) ;
#241 = AXIS2_PLACEMENT_3D ( 'NONE', #717, #286, #284 ) ;
#242 = VERTEX_POINT ( 'NONE', #509 ) ;
#243 = CARTESIAN_POINT ( 'NONE',  ( -23.54985813519760640, 0.5000000000000004441, -5.683404349771288722 ) ) ;
#244 = DIRECTION ( 'NONE',  ( -0.9905638349724136260, 0.000000000000000000, -0.1370521391469134709 ) ) ;
#245 = VERTEX_POINT ( 'NONE', #685 ) ;
#246 = LINE ( 'NONE', #483, #42 ) ;
#247 = LINE ( 'NONE', #612, #427 ) ;
#248 = ORIENTED_EDGE ( 'NONE', *, *, #406, .T. ) ;
#249 = CIRCLE ( 'NONE', #354, 4.060119808809604436 ) ;
#250 = DIRECTION ( 'NONE',  ( -0.9905638349724136260, 0.000000000000000000, -0.1370521391469134709 ) ) ;
#251 = VECTOR ( 'NONE', #214, 999.9999999999998863 ) ;
#252 = VECTOR ( 'NONE', #652, 1000.000000000000000 ) ;
#253 = DIRECTION ( 'NONE',  ( 0.9905638349724137370, 0.000000000000000000, 0.1370521391469131656 ) ) ;
#254 = EDGE_CURVE ( 'NONE', #230, #207, #568, .T. ) ;
#255 = ORIENTED_EDGE ( 'NONE', *, *, #287, .F. ) ;
#256 = CARTESIAN_POINT ( 'NONE',  ( -42.19722149286949531, 3.968750000000000000, 15.86426194775282106 ) ) ;
#257 = CARTESIAN_POINT ( 'NONE',  ( -38.99020143683172535, 3.968750000000000000, -7.314931790601667316 ) ) ;
#258 = VERTEX_POINT ( 'NONE', #505 ) ;
#259 = DIRECTION ( 'NONE',  ( 0.1370521391469133321, -0.000000000000000000, -0.9905638349724137370 ) ) ;
#260 = DIRECTION ( 'NONE',  ( -0.9905638349724136260, 0.000000000000000000, -0.1370521391469134986 ) ) ;
#261 = EDGE_LOOP ( 'NONE', ( #194, #725, #35, #134 ) ) ;
#262 = SURFACE_STYLE_USAGE ( .BOTH. , #327 ) ;
#263 = EDGE_CURVE ( 'NONE', #459, #275, #454, .T. ) ;
#264 = AXIS2_PLACEMENT_3D ( 'NONE', #33, #504, #138 ) ;
#265 = CARTESIAN_POINT ( 'NONE',  ( -42.26574756244295372, 7.437500000000000000, 16.35954386523902571 ) ) ;
#266 = AXIS2_PLACEMENT_3D ( 'NONE', #257, #54, #662 ) ;
#267 = ORIENTED_EDGE ( 'NONE', *, *, #217, .T. ) ;
#268 = SURFACE_STYLE_FILL_AREA ( #334 ) ;
#269 = EDGE_CURVE ( 'NONE', #149, #615, #215, .T. ) ;
#270 = EDGE_CURVE ( 'NONE', #242, #84, #513, .T. ) ;
#271 = DIRECTION ( 'NONE',  ( -0.9920881849152208831, 0.1255429542093965400, 0.000000000000000000 ) ) ;
#272 = ORIENTED_EDGE ( 'NONE', *, *, #217, .F. ) ;
#273 = FACE_OUTER_BOUND ( 'NONE', #716, .T. ) ;
#274 = DIRECTION ( 'NONE',  ( 0.9905638349724137370, 0.000000000000000000, 0.1370521391469131656 ) ) ;
#275 = VERTEX_POINT ( 'NONE', #561 ) ;
#276 = CARTESIAN_POINT ( 'NONE',  ( -43.37286647581639443, 3.968750000000000888, 19.49646649393892872 ) ) ;
#277 = CARTESIAN_POINT ( 'NONE',  ( -38.99020143683172535, 0.5000000000000017764, -7.314931790601667316 ) ) ;
#278 = CARTESIAN_POINT ( 'NONE',  ( -39.44247349601653951, 3.968750000000000000, -4.046071135192705448 ) ) ;
#279 = ORIENTED_EDGE ( 'NONE', *, *, #14, .F. ) ;
#280 = EDGE_CURVE ( 'NONE', #455, #410, #332, .T. ) ;
#281 = FACE_OUTER_BOUND ( 'NONE', #437, .T. ) ;
#282 = CARTESIAN_POINT ( 'NONE',  ( -0.1915692359566846248, 1.000123473360248636E-16, 1.384593908662553163 ) ) ;
#283 = ORIENTED_EDGE ( 'NONE', *, *, #141, .F. ) ;
#284 = DIRECTION ( 'NONE',  ( -0.1370521391469147754, 0.000000000000000000, 0.9905638349724135150 ) ) ;
#285 = PLANE ( 'NONE',  #390 ) ;
#286 = DIRECTION ( 'NONE',  ( -0.9905638349724135150, 0.000000000000000000, -0.1370521391469145256 ) ) ;
#287 = EDGE_CURVE ( 'NONE', #137, #430, #570, .T. ) ;
#288 = AXIS2_PLACEMENT_3D ( 'NONE', #617, #428, #67 ) ;
#289 = CARTESIAN_POINT ( 'NONE',  ( -42.71240803884852966, 3.968750000000000000, 19.58784600771513951 ) ) ;
#290 = PRODUCT_CONTEXT ( 'NONE', #162, 'mechanical' ) ;
#291 = VERTEX_POINT ( 'NONE', #767 ) ;
#292 = CIRCLE ( 'NONE', #393, 0.5000000000000002220 ) ;
#293 = PRODUCT_RELATED_PRODUCT_CATEGORY ( 'part', '', ( #545 ) ) ;
#294 = VERTEX_POINT ( 'NONE', #681 ) ;
#295 = CARTESIAN_POINT ( 'NONE',  ( -38.92167536725826693, 3.968750000000000000, -7.810213708087872853 ) ) ;
#296 = ORIENTED_EDGE ( 'NONE', *, *, #229, .F. ) ;
#297 = ADVANCED_FACE ( 'NONE', ( #696 ), #399, .F. ) ;
#298 = CARTESIAN_POINT ( 'NONE',  ( -2.610470331649012099, -9.277185723478950763, 1.049920303746744166 ) ) ;
#299 = CARTESIAN_POINT ( 'NONE',  ( -40.10293193298439007, 3.968750000000000888, -4.137450648968907352 ) ) ;
#300 = AXIS2_PLACEMENT_3D ( 'NONE', #684, #93, #323 ) ;
#301 = ADVANCED_FACE ( 'NONE', ( #11 ), #386, .F. ) ;
#302 = VECTOR ( 'NONE', #190, 999.9999999999998863 ) ;
#303 = CARTESIAN_POINT ( 'NONE',  ( -38.92167536725826693, 3.968750000000000000, -7.810213708087872853 ) ) ;
#304 = DIRECTION ( 'NONE',  ( 0.9905638349724136260, -0.000000000000000000, 0.1370521391469134986 ) ) ;
#305 = ORIENTED_EDGE ( 'NONE', *, *, #444, .F. ) ;
#306 = FACE_OUTER_BOUND ( 'NONE', #210, .T. ) ;
#307 = LINE ( 'NONE', #113, #465 ) ;
#308 = ORIENTED_EDGE ( 'NONE', *, *, #440, .T. ) ;
#309 = CARTESIAN_POINT ( 'NONE',  ( 0.09161532917439668688, 2.237832166577077952, 1.423774675266740619 ) ) ;
#310 = EDGE_CURVE ( 'NONE', #744, #672, #343, .T. ) ;
#311 = CARTESIAN_POINT ( 'NONE',  ( -42.71240803884852966, 8.673617379884035472E-16, 19.58784600771513951 ) ) ;
#312 = ORIENTED_EDGE ( 'NONE', *, *, #727, .T. ) ;
#313 = AXIS2_PLACEMENT_3D ( 'NONE', #123, #129, #479 ) ;
#314 = DIRECTION ( 'NONE',  ( 0.1370521391469134986, -0.000000000000000000, -0.9905638349724137370 ) ) ;
#315 = CIRCLE ( 'NONE', #4, 3.468749999999999112 ) ;
#316 = DIRECTION ( 'NONE',  ( 0.1370521391469145256, 0.000000000000000000, -0.9905638349724135150 ) ) ;
#317 = AXIS2_PLACEMENT_3D ( 'NONE', #276, #470, #39 ) ;
#318 = ORIENTED_EDGE ( 'NONE', *, *, #708, .F. ) ;
#319 = CYLINDRICAL_SURFACE ( 'NONE', #104, 0.5000000000000002220 ) ;
#320 = DIRECTION ( 'NONE',  ( 0.1370521391469133321, 4.163336342344337027E-17, -0.9905638349724137370 ) ) ;
#321 = ORIENTED_EDGE ( 'NONE', *, *, #775, .T. ) ;
#322 = ADVANCED_FACE ( 'NONE', ( #136, #15 ), #82, .T. ) ;
#323 = DIRECTION ( 'NONE',  ( -0.9905638349724135150, 0.000000000000000000, -0.1370521391469133043 ) ) ;
#324 = DIRECTION ( 'NONE',  ( 0.9905638349724136260, 0.000000000000000000, 0.1370521391469138317 ) ) ;
#325 = VERTEX_POINT ( 'NONE', #445 ) ;
#326 = EDGE_CURVE ( 'NONE', #230, #459, #139, .T. ) ;
#327 = SURFACE_SIDE_STYLE ('',( #268 ) ) ;
#328 = TOROIDAL_SURFACE ( 'NONE', #161, 3.468749999999998224, 0.5000000000000000000 ) ;
#329 = DIRECTION ( 'NONE',  ( -0.9905638349724136260, 0.000000000000000000, -0.1370521391469134709 ) ) ;
#330 = ORIENTED_EDGE ( 'NONE', *, *, #180, .F. ) ;
#331 = DIRECTION ( 'NONE',  ( 0.1370521391469133321, 4.163336342344337027E-17, -0.9905638349724137370 ) ) ;
#332 = LINE ( 'NONE', #265, #176 ) ;
#333 = ORIENTED_EDGE ( 'NONE', *, *, #602, .T. ) ;
#334 = FILL_AREA_STYLE ('',( #80 ) ) ;
#335 = UNCERTAINTY_MEASURE_WITH_UNIT (LENGTH_MEASURE( 1.000000000000000082E-05 ), #349, 'distance_accuracy_value', 'NONE');
#336 = ORIENTED_EDGE ( 'NONE', *, *, #475, .T. ) ;
#337 = DIRECTION ( 'NONE',  ( 0.1370521391469131656, -0.000000000000000000, -0.9905638349724137370 ) ) ;
#338 = DIRECTION ( 'NONE',  ( 0.1370521391469133043, -0.000000000000000000, -0.9905638349724136260 ) ) ;
#339 = VERTEX_POINT ( 'NONE', #701 ) ;
#340 = FACE_OUTER_BOUND ( 'NONE', #478, .T. ) ;
#341 = VECTOR ( 'NONE', #126, 1000.000000000000000 ) ;
#342 = EDGE_CURVE ( 'NONE', #394, #493, #638, .T. ) ;
#343 = CIRCLE ( 'NONE', #784, 3.174999999996611866 ) ;
#344 = DIRECTION ( 'NONE',  ( 0.000000000000000000, -0.000000000000000000, -1.000000000000000000 ) ) ;
#345 = ADVANCED_BREP_SHAPE_REPRESENTATION ( 'ctrlSurf_modif', ( #710, #46 ), #357 ) ;
#346 = SHAPE_DEFINITION_REPRESENTATION ( #171, #345 ) ;
#347 = AXIS2_PLACEMENT_3D ( 'NONE', #211, #451, #395 ) ;
#348 = CARTESIAN_POINT ( 'NONE',  ( -4.545965770942799189, 16.70037085876682781, 0.7821295961729159973 ) ) ;
#349 =( LENGTH_UNIT ( ) NAMED_UNIT ( * ) SI_UNIT ( .MILLI., .METRE. ) );
#350 = ADVANCED_FACE ( 'NONE', ( #402, #364 ), #106, .T. ) ;
#351 = ORIENTED_EDGE ( 'NONE', *, *, #159, .F. ) ;
#352 =( NAMED_UNIT ( * ) SI_UNIT ( $, .STERADIAN. ) SOLID_ANGLE_UNIT ( ) );
#353 = ORIENTED_EDGE ( 'NONE', *, *, #521, .F. ) ;
#354 = AXIS2_PLACEMENT_3D ( 'NONE', #749, #23, #624 ) ;
#355 = EDGE_LOOP ( 'NONE', ( #5, #400, #296, #683 ) ) ;
#356 = CARTESIAN_POINT ( 'NONE',  ( -42.26574756244295372, 0.5000000000000017764, 16.35954386523902571 ) ) ;
#357 =( GEOMETRIC_REPRESENTATION_CONTEXT ( 3 ) GLOBAL_UNCERTAINTY_ASSIGNED_CONTEXT ( ( #335 ) ) GLOBAL_UNIT_ASSIGNED_CONTEXT ( ( #349, #173, #352 ) ) REPRESENTATION_CONTEXT ( 'NONE', 'WORKASPACE' ) );
#358 = VERTEX_POINT ( 'NONE', #34 ) ;
#359 = DIRECTION ( 'NONE',  ( -0.1370521391469131101, -7.413348187935066437E-17, 0.9905638349724137370 ) ) ;
#360 = UNCERTAINTY_MEASURE_WITH_UNIT (LENGTH_MEASURE( 1.000000000000000082E-05 ), #148, 'distance_accuracy_value', 'NONE');
#361 = PLANE ( 'NONE',  #147 ) ;
#362 = ADVANCED_FACE ( 'NONE', ( #573 ), #361, .F. ) ;
#363 = DIRECTION ( 'NONE',  ( -0.9825784608107164253, -0.1267197682838522299, -0.1359473011020441158 ) ) ;
#364 = FACE_BOUND ( 'NONE', #384, .T. ) ;
#365 = CARTESIAN_POINT ( 'NONE',  ( 0.6124134579326673267, 2.237832166577077952, -2.340367897628431670 ) ) ;
#366 = AXIS2_PLACEMENT_3D ( 'NONE', #233, #537, #155 ) ;
#367 = ORIENTED_EDGE ( 'NONE', *, *, #435, .T. ) ;
#368 = FACE_OUTER_BOUND ( 'NONE', #185, .T. ) ;
#369 = CIRCLE ( 'NONE', #391, 0.5000000000000011102 ) ;
#370 = DIRECTION ( 'NONE',  ( -0.1370521391469133321, -4.163336342344337027E-17, 0.9905638349724137370 ) ) ;
#371 = VERTEX_POINT ( 'NONE', #356 ) ;
#372 = CARTESIAN_POINT ( 'NONE',  ( -40.70161281829494726, 6.935802624219980395, -8.056481769367417556 ) ) ;
#373 = CARTESIAN_POINT ( 'NONE',  ( -42.71240803884852966, 7.937500000000000000, 19.58784600771513951 ) ) ;
#374 = ORIENTED_EDGE ( 'NONE', *, *, #611, .T. ) ;
#375 = DIRECTION ( 'NONE',  ( -0.9905638349724135150, 0.000000000000000000, -0.1370521391469141648 ) ) ;
#376 = CARTESIAN_POINT ( 'NONE',  ( -46.12852171291626036, 3.968750000000000000, 15.32033627051350955 ) ) ;
#377 = ORIENTED_EDGE ( 'NONE', *, *, #154, .T. ) ;
#378 = LINE ( 'NONE', #738, #731 ) ;
#379 = DIRECTION ( 'NONE',  ( -0.9905638349724136260, 0.000000000000000000, -0.1370521391469133599 ) ) ;
#380 = EDGE_CURVE ( 'NONE', #325, #358, #596, .T. ) ;
#381 = VERTEX_POINT ( 'NONE', #648 ) ;
#382 = CARTESIAN_POINT ( 'NONE',  ( -42.19722149286949531, 7.937500000000000000, 15.86426194775282106 ) ) ;
#383 = DIRECTION ( 'NONE',  ( -0.1370521391469134986, 0.000000000000000000, 0.9905638349724136260 ) ) ;
#384 = EDGE_LOOP ( 'NONE', ( #532, #520 ) ) ;
#385 = LINE ( 'NONE', #85, #464 ) ;
#386 = PLANE ( 'NONE',  #239 ) ;
#387 = ORIENTED_EDGE ( 'NONE', *, *, #708, .T. ) ;
#388 = FACE_OUTER_BOUND ( 'NONE', #105, .T. ) ;
#389 = MECHANICAL_DESIGN_GEOMETRIC_PRESENTATION_REPRESENTATION (  '', ( #773 ), #525 ) ;
#390 = AXIS2_PLACEMENT_3D ( 'NONE', #348, #779, #581 ) ;
#391 = AXIS2_PLACEMENT_3D ( 'NONE', #549, #253, #539 ) ;
#392 = CARTESIAN_POINT ( 'NONE',  ( -4.545965770942799189, 16.70037085876682781, 0.7821295961729159973 ) ) ;
#393 = AXIS2_PLACEMENT_3D ( 'NONE', #594, #90, #533 ) ;
#394 = VERTEX_POINT ( 'NONE', #179 ) ;
#395 = DIRECTION ( 'NONE',  ( -0.9905638349724137370, 0.000000000000000000, -0.1370521391469129435 ) ) ;
#396 = EDGE_CURVE ( 'NONE', #677, #672, #628, .T. ) ;
#397 = ORIENTED_EDGE ( 'NONE', *, *, #602, .F. ) ;
#398 = DIRECTION ( 'NONE',  ( 0.1370521391469147754, 0.000000000000000000, -0.9905638349724135150 ) ) ;
#399 = CYLINDRICAL_SURFACE ( 'NONE', #678, 3.174999999996611866 ) ;
#400 = ORIENTED_EDGE ( 'NONE', *, *, #107, .F. ) ;
#401 = CARTESIAN_POINT ( 'NONE',  ( -26.82540426080883478, 7.437500000000000000, 17.99107130606942206 ) ) ;
#402 = FACE_OUTER_BOUND ( 'NONE', #111, .T. ) ;
#403 = ORIENTED_EDGE ( 'NONE', *, *, #524, .T. ) ;
#404 = CARTESIAN_POINT ( 'NONE',  ( -39.44247349601653951, 3.968750000000000000, -4.046071135192705448 ) ) ;
#405 = CIRCLE ( 'NONE', #577, 4.060119808809604436 ) ;
#406 = EDGE_CURVE ( 'NONE', #371, #339, #292, .T. ) ;
#407 = ORIENTED_EDGE ( 'NONE', *, *, #740, .T. ) ;
#408 = CARTESIAN_POINT ( 'NONE',  ( -23.61838420477106482, 7.937500000000000000, -5.188122432285079633 ) ) ;
#409 = FACE_OUTER_BOUND ( 'NONE', #419, .T. ) ;
#410 = VERTEX_POINT ( 'NONE', #418 ) ;
#411 = DIRECTION ( 'NONE',  ( 0.9905638349724137370, 0.000000000000000000, 0.1370521391469131656 ) ) ;
#412 = DIRECTION ( 'NONE',  ( 0.1370521391469133043, 4.163336342344335794E-17, -0.9905638349724136260 ) ) ;
#413 = CIRCLE ( 'NONE', #288, 0.4999999999999985567 ) ;
#414 = ORIENTED_EDGE ( 'NONE', *, *, #663, .T. ) ;
#415 = VECTOR ( 'NONE', #99, 1000.000000000000000 ) ;
#416 = AXIS2_PLACEMENT_3D ( 'NONE', #755, #629, #324 ) ;
#417 = LINE ( 'NONE', #644, #109 ) ;
#418 = CARTESIAN_POINT ( 'NONE',  ( -42.26574756244295372, 7.437500000000000000, 16.35954386523902571 ) ) ;
#419 = EDGE_LOOP ( 'NONE', ( #336, #92, #221, #72 ) ) ;
#420 = DIRECTION ( 'NONE',  ( -0.9905638349724136260, 0.000000000000000000, -0.1370521391469134709 ) ) ;
#421 = FACE_OUTER_BOUND ( 'NONE', #102, .T. ) ;
#422 = DIRECTION ( 'NONE',  ( 0.1370521391469133043, -0.000000000000000000, -0.9905638349724137370 ) ) ;
#423 = ORIENTED_EDGE ( 'NONE', *, *, #269, .T. ) ;
#424 = CARTESIAN_POINT ( 'NONE',  ( -39.15221403696568814, 7.366139556797720367, -7.842110509408476204 ) ) ;
#425 = EDGE_CURVE ( 'NONE', #245, #442, #778, .T. ) ;
#426 = ORIENTED_EDGE ( 'NONE', *, *, #558, .F. ) ;
#427 = VECTOR ( 'NONE', #484, 1000.000000000000000 ) ;
#428 = DIRECTION ( 'NONE',  ( 0.9905638349724137370, 0.000000000000000000, 0.1370521391469131656 ) ) ;
#429 = CARTESIAN_POINT ( 'NONE',  ( -42.92150165687848329, 3.968750000000000000, -7.858857467840977939 ) ) ;
#430 = VERTEX_POINT ( 'NONE', #472 ) ;
#431 = CARTESIAN_POINT ( 'NONE',  ( -42.92620599941081849, 3.968750000000000888, 16.26816435146282203 ) ) ;
#432 = CARTESIAN_POINT ( 'NONE',  ( -25.54133056663479806, 5.610790678016319255, -5.958939905526939640 ) ) ;
#433 = ORIENTED_EDGE ( 'NONE', *, *, #86, .T. ) ;
#434 = CARTESIAN_POINT ( 'NONE',  ( -38.92167536725826693, 7.437500000000000000, -7.810213708087872853 ) ) ;
#435 = EDGE_CURVE ( 'NONE', #128, #245, #695, .T. ) ;
#436 = DIRECTION ( 'NONE',  ( -0.9905638349724136260, 0.000000000000000000, -0.1370521391469133599 ) ) ;
#437 = EDGE_LOOP ( 'NONE', ( #330, #668, #353, #760 ) ) ;
#438 = VECTOR ( 'NONE', #259, 999.9999999999998863 ) ;
#439 = LINE ( 'NONE', #6, #341 ) ;
#440 = EDGE_CURVE ( 'NONE', #630, #566, #675, .T. ) ;
#441 = CARTESIAN_POINT ( 'NONE',  ( -39.58213380422608907, 3.968750000000076383, -7.901593221864077421 ) ) ;
#442 = VERTEX_POINT ( 'NONE', #212 ) ;
#443 = DIRECTION ( 'NONE',  ( -0.1370521391469132211, 0.000000000000000000, 0.9905638349724136260 ) ) ;
#444 = EDGE_CURVE ( 'NONE', #258, #677, #213, .T. ) ;
#445 = CARTESIAN_POINT ( 'NONE',  ( -43.91676986608128175, 3.968750000000000888, 16.13111220793024003 ) ) ;
#446 = EDGE_LOOP ( 'NONE', ( #279, #603, #563, #554 ) ) ;
#447 =( NAMED_UNIT ( * ) SI_UNIT ( $, .STERADIAN. ) SOLID_ANGLE_UNIT ( ) );
#448 = DIRECTION ( 'NONE',  ( 0.1370521391469133321, 4.163336342344337027E-17, -0.9905638349724137370 ) ) ;
#449 = ORIENTED_EDGE ( 'NONE', *, *, #719, .T. ) ;
#450 = ADVANCED_FACE ( 'NONE', ( #514 ), #150, .T. ) ;
#451 = DIRECTION ( 'NONE',  ( 0.1370521391469132766, -0.000000000000000000, -0.9905638349724136260 ) ) ;
#452 = AXIS2_PLACEMENT_3D ( 'NONE', #74, #574, #689 ) ;
#453 = DIRECTION ( 'NONE',  ( 0.1370521391469147754, 0.000000000000000000, -0.9905638349724135150 ) ) ;
#454 = LINE ( 'NONE', #205, #555 ) ;
#455 = VERTEX_POINT ( 'NONE', #633 ) ;
#456 = DIRECTION ( 'NONE',  ( 0.9905638349724135150, 0.000000000000000000, 0.1370521391469141648 ) ) ;
#457 = CARTESIAN_POINT ( 'NONE',  ( -42.35769366981882911, 3.968750000000000000, -8.285613315753732167 ) ) ;
#458 = CARTESIAN_POINT ( 'NONE',  ( -42.87849179857709458, 3.968750000000000000, -4.521470742858561209 ) ) ;
#459 = VERTEX_POINT ( 'NONE', #766 ) ;
#460 = ADVANCED_FACE ( 'NONE', ( #421 ), #219, .F. ) ;
#461 = DIRECTION ( 'NONE',  ( 0.9905638349724137370, 0.000000000000000000, 0.1370521391469131656 ) ) ;
#462 = ORIENTED_EDGE ( 'NONE', *, *, #238, .F. ) ;
#463 = CARTESIAN_POINT ( 'NONE',  ( -40.10293193298435455, 3.968750000000076383, -4.137450648968905575 ) ) ;
#464 = VECTOR ( 'NONE', #698, 999.9999999999998863 ) ;
#465 = VECTOR ( 'NONE', #127, 999.9999999999998863 ) ;
#466 = ORIENTED_EDGE ( 'NONE', *, *, #263, .T. ) ;
#467 = ORIENTED_EDGE ( 'NONE', *, *, #280, .T. ) ;
#468 = ORIENTED_EDGE ( 'NONE', *, *, #196, .F. ) ;
#469 = CARTESIAN_POINT ( 'NONE',  ( 0.000000000000000000, 7.937500000000000000, 0.000000000000000000 ) ) ;
#470 = DIRECTION ( 'NONE',  ( 0.1370521391469138039, -0.000000000000000000, -0.9905638349724135150 ) ) ;
#471 = EDGE_CURVE ( 'NONE', #410, #615, #186, .T. ) ;
#472 = CARTESIAN_POINT ( 'NONE',  ( -39.11236806631392682, 3.968750000000000888, -4.000398505436323582 ) ) ;
#473 = VECTOR ( 'NONE', #745, 1000.000000000000000 ) ;
#474 = DIRECTION ( 'NONE',  ( -0.9905638349724137370, 0.000000000000000000, -0.1370521391469129435 ) ) ;
#475 = EDGE_CURVE ( 'NONE', #258, #60, #782, .T. ) ;
#476 = DIRECTION ( 'NONE',  ( -0.1370521391469152195, 0.000000000000000000, 0.9905638349724134040 ) ) ;
#477 = DIRECTION ( 'NONE',  ( 0.9905638349724135150, 0.000000000000000000, 0.1370521391469136097 ) ) ;
#478 = EDGE_LOOP ( 'NONE', ( #635, #403, #377, #165, #507, #541, #40, #31 ) ) ;
#479 = DIRECTION ( 'NONE',  ( 0.9905638349724135150, 0.000000000000000000, 0.1370521391469141648 ) ) ;
#480 = EDGE_CURVE ( 'NONE', #650, #455, #783, .T. ) ;
#481 = CARTESIAN_POINT ( 'NONE',  ( -0.3759014538847922360, 5.572208254761385149, -2.477108880928258650 ) ) ;
#482 = ORIENTED_EDGE ( 'NONE', *, *, #548, .F. ) ;
#483 = CARTESIAN_POINT ( 'NONE',  ( -26.06212869539307064, 5.610790678016319255, -2.194797332631767794 ) ) ;
#484 = DIRECTION ( 'NONE',  ( -0.9905638349724137370, 0.000000000000000000, -0.1370521391469131656 ) ) ;
#485 = PRESENTATION_LAYER_ASSIGNMENT (  '', '', ( #773 ) ) ;
#486 = VECTOR ( 'NONE', #777, 1000.000000000000114 ) ;
#487 = ORIENTED_EDGE ( 'NONE', *, *, #589, .F. ) ;
#488 = CIRCLE ( 'NONE', #707, 1.000000032000008199 ) ;
#489 = CARTESIAN_POINT ( 'NONE',  ( -40.90350111292097068, 0.8983355130284327306, -4.248215563628301439 ) ) ;
#490 = AXIS2_PLACEMENT_3D ( 'NONE', #282, #412, #599 ) ;
#491 = CIRCLE ( 'NONE', #241, 0.5000000000000002220 ) ;
#492 = DIRECTION ( 'NONE',  ( -0.1370521391469134986, 0.000000000000000000, 0.9905638349724137370 ) ) ;
#493 = VERTEX_POINT ( 'NONE', #457 ) ;
#494 = DIRECTION ( 'NONE',  ( 0.9905638349724137370, 0.000000000000000000, 0.1370521391469134986 ) ) ;
#495 = DIRECTION ( 'NONE',  ( -0.9905638349724135150, 0.000000000000000000, -0.1370521391469133321 ) ) ;
#496 = ORIENTED_EDGE ( 'NONE', *, *, #663, .F. ) ;
#497 = DIRECTION ( 'NONE',  ( 0.1370521391469133321, 4.163336342344337027E-17, -0.9905638349724137370 ) ) ;
#498 = CARTESIAN_POINT ( 'NONE',  ( -42.26574756244295372, 3.968750000000000000, 16.35954386523902571 ) ) ;
#499 = ORIENTED_EDGE ( 'NONE', *, *, #471, .T. ) ;
#500 = VECTOR ( 'NONE', #2, 999.9999999999998863 ) ;
#501 = FACE_OUTER_BOUND ( 'NONE', #632, .T. ) ;
#502 = CYLINDRICAL_SURFACE ( 'NONE', #452, 3.468749999999999112 ) ;
#503 = ORIENTED_EDGE ( 'NONE', *, *, #196, .T. ) ;
#504 = DIRECTION ( 'NONE',  ( -0.1370521391469131656, 0.000000000000000000, 0.9905638349724137370 ) ) ;
#505 = CARTESIAN_POINT ( 'NONE',  ( -38.99020143683172535, 8.673617379884035472E-16, -7.314931790601667316 ) ) ;
#506 = ADVANCED_FACE ( 'NONE', ( #340 ), #580, .T. ) ;
#507 = ORIENTED_EDGE ( 'NONE', *, *, #480, .T. ) ;
#508 = CYLINDRICAL_SURFACE ( 'NONE', #347, 3.968749999999997335 ) ;
#509 = CARTESIAN_POINT ( 'NONE',  ( -38.99020143683172535, 7.937500000000000000, -7.314931790601663764 ) ) ;
#510 = ORIENTED_EDGE ( 'NONE', *, *, #269, .F. ) ;
#511 = CARTESIAN_POINT ( 'NONE',  ( -40.70161281829560807, 1.001697375780427723, -8.056481769367502821 ) ) ;
#512 = CIRCLE ( 'NONE', #761, 1.000000032000008199 ) ;
#513 = CIRCLE ( 'NONE', #579, 3.968749999999997335 ) ;
#514 = FACE_OUTER_BOUND ( 'NONE', #261, .T. ) ;
#515 = DIRECTION ( 'NONE',  ( 0.1370521391469133321, 4.163336342344337027E-17, -0.9905638349724137370 ) ) ;
#516 = ORIENTED_EDGE ( 'NONE', *, *, #310, .F. ) ;
#517 = DIRECTION ( 'NONE',  ( 0.1255240196380683071, -0.9919385567292396955, 0.01736721531550312544 ) ) ;
#518 = ADVANCED_FACE ( 'NONE', ( #73 ), #319, .T. ) ;
#519 = CARTESIAN_POINT ( 'NONE',  ( -2.610470331649012099, -9.277185723478950763, 1.049920303746744166 ) ) ;
#520 = ORIENTED_EDGE ( 'NONE', *, *, #699, .T. ) ;
#521 = EDGE_CURVE ( 'NONE', #566, #528, #726, .T. ) ;
#522 = ORIENTED_EDGE ( 'NONE', *, *, #425, .F. ) ;
#523 = LINE ( 'NONE', #408, #680 ) ;
#524 = EDGE_CURVE ( 'NONE', #609, #528, #439, .T. ) ;
#525 =( GEOMETRIC_REPRESENTATION_CONTEXT ( 3 ) GLOBAL_UNCERTAINTY_ASSIGNED_CONTEXT ( ( #360 ) ) GLOBAL_UNIT_ASSIGNED_CONTEXT ( ( #148, #158, #447 ) ) REPRESENTATION_CONTEXT ( 'NONE', 'WORKASPACE' ) );
#526 = AXIS2_PLACEMENT_3D ( 'NONE', #278, #338, #379 ) ;
#527 = VECTOR ( 'NONE', #220, 1000.000000000000000 ) ;
#528 = VERTEX_POINT ( 'NONE', #730 ) ;
#529 = CYLINDRICAL_SURFACE ( 'NONE', #178, 0.5000000000000002220 ) ;
#530 = ADVANCED_FACE ( 'NONE', ( #368 ), #742, .F. ) ;
#531 = ORIENTED_EDGE ( 'NONE', *, *, #598, .T. ) ;
#532 = ORIENTED_EDGE ( 'NONE', *, *, #117, .T. ) ;
#533 = DIRECTION ( 'NONE',  ( 0.1370521391469147754, 0.000000000000000000, -0.9905638349724135150 ) ) ;
#534 = DIRECTION ( 'NONE',  ( 0.000000000000000000, -1.000000000000000000, 0.000000000000000000 ) ) ;
#535 = APPLICATION_PROTOCOL_DEFINITION ( 'draft international standard', 'automotive_design', 1998, #162 ) ;
#536 = ORIENTED_EDGE ( 'NONE', *, *, #263, .F. ) ;
#537 = DIRECTION ( 'NONE',  ( -0.1370521391469131656, 0.000000000000000000, 0.9905638349724137370 ) ) ;
#538 = AXIS2_PLACEMENT_3D ( 'NONE', #303, #758, #112 ) ;
#539 = DIRECTION ( 'NONE',  ( 0.1370521391469145256, 0.000000000000000000, -0.9905638349724135150 ) ) ;
#540 = APPLICATION_CONTEXT ( 'automotive_design' ) ;
#541 = ORIENTED_EDGE ( 'NONE', *, *, #781, .T. ) ;
#542 = CARTESIAN_POINT ( 'NONE',  ( -42.19722149286949531, 0.5000000000000000000, 15.86426194775282106 ) ) ;
#543 = EDGE_CURVE ( 'NONE', #550, #291, #413, .T. ) ;
#544 = DIRECTION ( 'NONE',  ( 0.9905638349724137370, 0.000000000000000000, 0.1370521391469131656 ) ) ;
#545 = PRODUCT ( 'ctrlSurf_modif', 'ctrlSurf_modif', '', ( #290 ) ) ;
#546 = ORIENTED_EDGE ( 'NONE', *, *, #396, .F. ) ;
#547 = LINE ( 'NONE', #679, #500 ) ;
#548 = EDGE_CURVE ( 'NONE', #339, #149, #68, .T. ) ;
#549 = CARTESIAN_POINT ( 'NONE',  ( -23.61838420477106482, 7.437500000000000000, -5.188122432285080521 ) ) ;
#550 = VERTEX_POINT ( 'NONE', #620 ) ;
#551 = CARTESIAN_POINT ( 'NONE',  ( -26.06212869539307064, 2.326709321983833956, -2.194797332631767794 ) ) ;
#552 = DIRECTION ( 'NONE',  ( -0.9579343461956250083, -0.2545497466254084129, -0.1325375979550742211 ) ) ;
#553 = CIRCLE ( 'NONE', #300, 1.000000032000008199 ) ;
#554 = ORIENTED_EDGE ( 'NONE', *, *, #444, .T. ) ;
#555 = VECTOR ( 'NONE', #759, 999.9999999999998863 ) ;
#556 = LINE ( 'NONE', #489, #438 ) ;
#557 = FACE_OUTER_BOUND ( 'NONE', #559, .T. ) ;
#558 = EDGE_CURVE ( 'NONE', #442, #744, #556, .T. ) ;
#559 = EDGE_LOOP ( 'NONE', ( #647, #487, #665, #89 ) ) ;
#560 = DIRECTION ( 'NONE',  ( 0.1370521391469133321, -0.000000000000000000, -0.9905638349724137370 ) ) ;
#561 = CARTESIAN_POINT ( 'NONE',  ( -40.38270298416270521, 7.039164486971720258, -8.012358136523474172 ) ) ;
#562 = ADVANCED_FACE ( 'NONE', ( #306 ), #328, .T. ) ;
#563 = ORIENTED_EDGE ( 'NONE', *, *, #475, .F. ) ;
#564 = CYLINDRICAL_SURFACE ( 'NONE', #720, 0.4999999999999999445 ) ;
#565 = CARTESIAN_POINT ( 'NONE',  ( -40.10293193298435455, 3.968750000000076383, -4.137450648968905575 ) ) ;
#566 = VERTEX_POINT ( 'NONE', #434 ) ;
#567 = VECTOR ( 'NONE', #422, 999.9999999999998863 ) ;
#568 = LINE ( 'NONE', #21, #71 ) ;
#569 = ORIENTED_EDGE ( 'NONE', *, *, #206, .T. ) ;
#570 = LINE ( 'NONE', #24, #616 ) ;
#571 = ORIENTED_EDGE ( 'NONE', *, *, #122, .F. ) ;
#572 = FACE_OUTER_BOUND ( 'NONE', #714, .T. ) ;
#573 = FACE_OUTER_BOUND ( 'NONE', #768, .T. ) ;
#574 = DIRECTION ( 'NONE',  ( 0.1370521391469133043, -0.000000000000000000, -0.9905638349724136260 ) ) ;
#575 = EDGE_CURVE ( 'NONE', #103, #96, #405, .T. ) ;
#576 = ORIENTED_EDGE ( 'NONE', *, *, #543, .F. ) ;
#577 = AXIS2_PLACEMENT_3D ( 'NONE', #659, #497, #77 ) ;
#578 = AXIS2_PLACEMENT_3D ( 'NONE', #469, #193, #789 ) ;
#579 = AXIS2_PLACEMENT_3D ( 'NONE', #202, #87, #274 ) ;
#580 = PLANE ( 'NONE',  #130 ) ;
#581 = DIRECTION ( 'NONE',  ( 0.9676487102442354882, 0.2523013546588038780, 0.000000000000000000 ) ) ;
#582 = AXIS2_PLACEMENT_3D ( 'NONE', #463, #651, #420 ) ;
#583 = CARTESIAN_POINT ( 'NONE',  ( -2.946317232809648967, 0.000000000000000000, 21.29492699160809011 ) ) ;
#584 = DIRECTION ( 'NONE',  ( 0.000000000000000000, 0.000000000000000000, 1.000000000000000000 ) ) ;
#585 = EDGE_LOOP ( 'NONE', ( #198, #646, #503, #168 ) ) ;
#586 = DIRECTION ( 'NONE',  ( 1.000000000000000000, 0.000000000000000000, 0.000000000000000000 ) ) ;
#587 = EDGE_LOOP ( 'NONE', ( #569, #626, #397, #748 ) ) ;
#588 = AXIS2_PLACEMENT_3D ( 'NONE', #757, #331, #703 ) ;
#589 = EDGE_CURVE ( 'NONE', #128, #96, #119, .T. ) ;
#590 = VECTOR ( 'NONE', #363, 1000.000000000000114 ) ;
#591 = AXIS2_PLACEMENT_3D ( 'NONE', #295, #337, #770 ) ;
#592 = ORIENTED_EDGE ( 'NONE', *, *, #686, .T. ) ;
#593 = ORIENTED_EDGE ( 'NONE', *, *, #270, .F. ) ;
#594 = CARTESIAN_POINT ( 'NONE',  ( -42.19722149286949531, 0.5000000000000017764, 15.86426194775282106 ) ) ;
#595 = LINE ( 'NONE', #583, #486 ) ;
#596 = LINE ( 'NONE', #223, #736 ) ;
#597 = CARTESIAN_POINT ( 'NONE',  ( -26.06212869539307064, 2.326709321983833956, -2.194797332631767794 ) ) ;
#598 = EDGE_CURVE ( 'NONE', #790, #630, #547, .T. ) ;
#599 = DIRECTION ( 'NONE',  ( -0.9905638349724136260, 0.000000000000000000, -0.1370521391469133043 ) ) ;
#600 = AXIS2_PLACEMENT_3D ( 'NONE', #404, #764, #769 ) ;
#601 = DIRECTION ( 'NONE',  ( 0.1370521391469133321, 4.163336342344337027E-17, -0.9905638349724137370 ) ) ;
#602 = EDGE_CURVE ( 'NONE', #230, #381, #10, .T. ) ;
#603 = ORIENTED_EDGE ( 'NONE', *, *, #131, .F. ) ;
#604 = CARTESIAN_POINT ( 'NONE',  ( -42.19722149286949531, 3.968750000000000000, 15.86426194775282106 ) ) ;
#605 = LINE ( 'NONE', #373, #302 ) ;
#606 = ORIENTED_EDGE ( 'NONE', *, *, #326, .F. ) ;
#607 = DIRECTION ( 'NONE',  ( 0.1370521391469133321, -0.000000000000000000, -0.9905638349724137370 ) ) ;
#608 = CARTESIAN_POINT ( 'NONE',  ( -23.61838420477106482, 0.5000000000000004441, -5.188122432285080521 ) ) ;
#609 = VERTEX_POINT ( 'NONE', #243 ) ;
#610 = DIRECTION ( 'NONE',  ( 0.1370521391469134986, -0.000000000000000000, -0.9905638349724137370 ) ) ;
#611 = EDGE_CURVE ( 'NONE', #630, #275, #174, .T. ) ;
#612 = CARTESIAN_POINT ( 'NONE',  ( 0.2607028232281289881, 7.937500000000000000, -1.884266746746412258 ) ) ;
#613 = VECTOR ( 'NONE', #688, 1000.000000000000000 ) ;
#614 = AXIS2_PLACEMENT_3D ( 'NONE', #289, #234, #474 ) ;
#615 = VERTEX_POINT ( 'NONE', #382 ) ;
#616 = VECTOR ( 'NONE', #132, 1000.000000000000114 ) ;
#617 = CARTESIAN_POINT ( 'NONE',  ( -26.82540426080883478, 0.5000000000000000000, 17.99107130606942206 ) ) ;
#618 = DIRECTION ( 'NONE',  ( -0.9905638349724136260, 0.000000000000000000, -0.1370521391469134709 ) ) ;
#619 = ORIENTED_EDGE ( 'NONE', *, *, #254, .F. ) ;
#620 = CARTESIAN_POINT ( 'NONE',  ( -26.89393033038228964, 0.5000000000000001110, 18.48635322355562494 ) ) ;
#621 = CYLINDRICAL_SURFACE ( 'NONE', #526, 3.468749999999999112 ) ;
#622 = ORIENTED_EDGE ( 'NONE', *, *, #521, .T. ) ;
#623 = EDGE_CURVE ( 'NONE', #325, #137, #57, .T. ) ;
#624 = DIRECTION ( 'NONE',  ( -0.9905638349724135150, 0.000000000000000000, -0.1370521391469133321 ) ) ;
#625 = CARTESIAN_POINT ( 'NONE',  ( -40.10293193298435455, 3.968750000000076383, -4.137450648968905575 ) ) ;
#626 = ORIENTED_EDGE ( 'NONE', *, *, #645, .F. ) ;
#627 = VECTOR ( 'NONE', #237, 1000.000000000000000 ) ;
#628 = CIRCLE ( 'NONE', #591, 3.468749999999999112 ) ;
#629 = DIRECTION ( 'NONE',  ( 0.1370521391469134986, -0.000000000000000000, -0.9905638349724137370 ) ) ;
#630 = VERTEX_POINT ( 'NONE', #372 ) ;
#631 = DIRECTION ( 'NONE',  ( 0.9920881849152208831, 0.1255429542093964290, 0.000000000000000000 ) ) ;
#632 = EDGE_LOOP ( 'NONE', ( #182, #318, #203, #121 ) ) ;
#633 = CARTESIAN_POINT ( 'NONE',  ( -26.89393033038228964, 7.437500000000000000, 18.48635322355562138 ) ) ;
#634 = DIRECTION ( 'NONE',  ( 0.1255240196380684181, 0.9919385567292396955, 0.01736721531550313932 ) ) ;
#635 = ORIENTED_EDGE ( 'NONE', *, *, #131, .T. ) ;
#636 = CARTESIAN_POINT ( 'NONE',  ( -0.8966995826430628203, 5.572208254761385149, 1.287033691966913418 ) ) ;
#637 = DIRECTION ( 'NONE',  ( 0.9905638349724137370, 0.000000000000000000, 0.1370521391469131656 ) ) ;
#638 = LINE ( 'NONE', #458, #189 ) ;
#639 = EDGE_LOOP ( 'NONE', ( #52, #642, #51, #467 ) ) ;
#640 = CARTESIAN_POINT ( 'NONE',  ( -38.92167536725826693, 0.5000000000000017764, -7.810213708087872853 ) ) ;
#641 = AXIS2_PLACEMENT_3D ( 'NONE', #53, #700, #398 ) ;
#642 = ORIENTED_EDGE ( 'NONE', *, *, #75, .T. ) ;
#643 = FACE_OUTER_BOUND ( 'NONE', #786, .T. ) ;
#644 = CARTESIAN_POINT ( 'NONE',  ( -26.89393033038228964, 7.437500000000000000, 18.48635322355562138 ) ) ;
#645 = EDGE_CURVE ( 'NONE', #381, #103, #246, .T. ) ;
#646 = ORIENTED_EDGE ( 'NONE', *, *, #342, .T. ) ;
#647 = ORIENTED_EDGE ( 'NONE', *, *, #575, .T. ) ;
#648 = CARTESIAN_POINT ( 'NONE',  ( -26.06212869539307064, 5.610790678016319255, -2.194797332631767794 ) ) ;
#649 = AXIS2_PLACEMENT_3D ( 'NONE', #604, #314, #135 ) ;
#650 = VERTEX_POINT ( 'NONE', #64 ) ;
#651 = DIRECTION ( 'NONE',  ( 0.1370521391469133043, -0.000000000000000000, -0.9905638349724136260 ) ) ;
#652 = DIRECTION ( 'NONE',  ( -0.9579343461956251193, 0.2545497466254078578, -0.1325375979550742211 ) ) ;
#653 = LINE ( 'NONE', #481, #590 ) ;
#654 = EDGE_LOOP ( 'NONE', ( #272, #423, #780, #140 ) ) ;
#655 = CARTESIAN_POINT ( 'NONE',  ( -24.24937336764847728, 0.000000000000000000, -5.275424644921661965 ) ) ;
#656 = EDGE_CURVE ( 'NONE', #291, #60, #378, .T. ) ;
#657 = DIRECTION ( 'NONE',  ( 0.1370521391469133321, 4.163336342344337027E-17, -0.9905638349724137370 ) ) ;
#658 = EDGE_LOOP ( 'NONE', ( #374, #536, #283, #531 ) ) ;
#659 = CARTESIAN_POINT ( 'NONE',  ( -29.21954835742597112, 3.968750000000076383, -6.467849678606029329 ) ) ;
#660 = CIRCLE ( 'NONE', #600, 3.468749999999999112 ) ;
#661 = VECTOR ( 'NONE', #199, 1000.000000000000114 ) ;
#662 = DIRECTION ( 'NONE',  ( 0.9905638349724137370, 0.000000000000000000, 0.1370521391469131656 ) ) ;
#663 = EDGE_CURVE ( 'NONE', #137, #325, #512, .T. ) ;
#664 = VECTOR ( 'NONE', #184, 1000.000000000000114 ) ;
#665 = ORIENTED_EDGE ( 'NONE', *, *, #727, .F. ) ;
#666 = DIRECTION ( 'NONE',  ( 0.9905638349724136260, 0.000000000000000000, 0.1370521391469134986 ) ) ;
#667 = LINE ( 'NONE', #62, #164 ) ;
#668 = ORIENTED_EDGE ( 'NONE', *, *, #154, .F. ) ;
#669 = CARTESIAN_POINT ( 'NONE',  ( -43.37286647581639443, 3.968750000000000888, 19.49646649393892872 ) ) ;
#670 = ADVANCED_FACE ( 'NONE', ( #501 ), #692, .F. ) ;
#671 = DIRECTION ( 'NONE',  ( 0.9905638349724136260, 0.000000000000000000, 0.1370521391469134986 ) ) ;
#672 = VERTEX_POINT ( 'NONE', #511 ) ;
#673 = CARTESIAN_POINT ( 'NONE',  ( -39.58213380422608907, 3.968750000000076383, -7.901593221864077421 ) ) ;
#674 = DIRECTION ( 'NONE',  ( -0.9905638349724136260, 0.000000000000000000, -0.1370521391469134709 ) ) ;
#675 = CIRCLE ( 'NONE', #538, 3.468749999999999112 ) ;
#676 = CIRCLE ( 'NONE', #266, 3.968749999999997335 ) ;
#677 = VERTEX_POINT ( 'NONE', #640 ) ;
#678 = AXIS2_PLACEMENT_3D ( 'NONE', #565, #209, #674 ) ;
#679 = CARTESIAN_POINT ( 'NONE',  ( -41.22241094705321274, 6.935802624219980395, -4.292339196472245710 ) ) ;
#680 = VECTOR ( 'NONE', #359, 1000.000000000000000 ) ;
#681 = CARTESIAN_POINT ( 'NONE',  ( -39.15221403696570235, 0.5713604432024321778, -7.842110509408479757 ) ) ;
#682 = ADVANCED_FACE ( 'NONE', ( #388 ), #81, .T. ) ;
#683 = ORIENTED_EDGE ( 'NONE', *, *, #558, .T. ) ;
#684 = CARTESIAN_POINT ( 'NONE',  ( -40.10293193298439007, 3.968750000000000888, -4.137450648968907352 ) ) ;
#685 = CARTESIAN_POINT ( 'NONE',  ( -39.67301216572396783, 0.5713604432024321778, -4.077967936513307912 ) ) ;
#686 = EDGE_CURVE ( 'NONE', #394, #790, #660, .T. ) ;
#687 = ORIENTED_EDGE ( 'NONE', *, *, #141, .T. ) ;
#688 = DIRECTION ( 'NONE',  ( -0.9579343461956251193, 0.2545497466254078578, -0.1325375979550742211 ) ) ;
#689 = DIRECTION ( 'NONE',  ( -0.9905638349724136260, 0.000000000000000000, -0.1370521391469133599 ) ) ;
#690 = ORIENTED_EDGE ( 'NONE', *, *, #107, .T. ) ;
#691 = COLOUR_RGB ( '',0.1372549019607843257, 0.2941176470588235392, 0.7490196078431372584 ) ;
#692 = PLANE ( 'NONE',  #16 ) ;
#693 = AXIS2_PLACEMENT_3D ( 'NONE', #625, #448, #618 ) ;
#694 = AXIS2_PLACEMENT_3D ( 'NONE', #498, #383, #752 ) ;
#695 = LINE ( 'NONE', #718, #44 ) ;
#696 = FACE_OUTER_BOUND ( 'NONE', #355, .T. ) ;
#697 = ORIENTED_EDGE ( 'NONE', *, *, #699, .F. ) ;
#698 = DIRECTION ( 'NONE',  ( 0.1370521391469133321, -0.000000000000000000, -0.9905638349724137370 ) ) ;
#699 = EDGE_CURVE ( 'NONE', #430, #358, #553, .T. ) ;
#700 = DIRECTION ( 'NONE',  ( 0.9905638349724137370, 0.000000000000000000, 0.1370521391469134986 ) ) ;
#701 = CARTESIAN_POINT ( 'NONE',  ( -42.19722149286949531, 8.673617379884035472E-16, 15.86426194775282106 ) ) ;
#702 = EDGE_LOOP ( 'NONE', ( #45, #191, #1, #118 ) ) ;
#703 = DIRECTION ( 'NONE',  ( -0.9905638349724136260, 0.000000000000000000, -0.1370521391469133599 ) ) ;
#704 = CARTESIAN_POINT ( 'NONE',  ( 0.000000000000000000, 0.000000000000000000, 0.000000000000000000 ) ) ;
#705 = CARTESIAN_POINT ( 'NONE',  ( 0.000000000000000000, 0.000000000000000000, 0.000000000000000000 ) ) ;
#706 = VECTOR ( 'NONE', #560, 999.9999999999998863 ) ;
#707 = AXIS2_PLACEMENT_3D ( 'NONE', #299, #370, #724 ) ;
#708 = EDGE_CURVE ( 'NONE', #245, #294, #385, .T. ) ;
#709 = LINE ( 'NONE', #365, #664 ) ;
#710 = MANIFOLD_SOLID_BREP ( 'Boss-Extrude2', #763 ) ;
#711 = CYLINDRICAL_SURFACE ( 'NONE', #582, 3.174999999996611866 ) ;
#712 = ORIENTED_EDGE ( 'NONE', *, *, #406, .F. ) ;
#713 = EDGE_LOOP ( 'NONE', ( #248, #157, #576, #225 ) ) ;
#714 = EDGE_LOOP ( 'NONE', ( #255, #8, #48, #697 ) ) ;
#715 = DIRECTION ( 'NONE',  ( -0.9905638349724135150, 0.000000000000000000, -0.1370521391469152472 ) ) ;
#716 = EDGE_LOOP ( 'NONE', ( #22, #267, #167, #571 ) ) ;
#717 = CARTESIAN_POINT ( 'NONE',  ( -38.99020143683172535, 7.437500000000000000, -7.314931790601664652 ) ) ;
#718 = CARTESIAN_POINT ( 'NONE',  ( -0.8966995826430628203, 5.572208254761385149, 1.287033691966913418 ) ) ;
#719 = EDGE_CURVE ( 'NONE', #776, #394, #143, .T. ) ;
#720 = AXIS2_PLACEMENT_3D ( 'NONE', #13, #204, #443 ) ;
#721 = FACE_OUTER_BOUND ( 'NONE', #702, .T. ) ;
#722 = ORIENTED_EDGE ( 'NONE', *, *, #14, .T. ) ;
#723 = DIRECTION ( 'NONE',  ( 0.1370521391469152195, 0.000000000000000000, -0.9905638349724134040 ) ) ;
#724 = DIRECTION ( 'NONE',  ( -0.9905638349724135150, 0.000000000000000000, -0.1370521391469133043 ) ) ;
#725 = ORIENTED_EDGE ( 'NONE', *, *, #480, .F. ) ;
#726 = LINE ( 'NONE', #183, #473 ) ;
#727 = EDGE_CURVE ( 'NONE', #381, #128, #249, .T. ) ;
#728 = CARTESIAN_POINT ( 'NONE',  ( -23.61838420477106482, 0.000000000000000000, -5.188122432285080521 ) ) ;
#729 = VERTEX_POINT ( 'NONE', #19 ) ;
#730 = CARTESIAN_POINT ( 'NONE',  ( -23.54985813519760640, 7.437500000000000000, -5.683404349771288722 ) ) ;
#731 = VECTOR ( 'NONE', #192, 1000.000000000000114 ) ;
#732 = AXIS2_PLACEMENT_3D ( 'NONE', #704, #534, #344 ) ;
#733 = CARTESIAN_POINT ( 'NONE',  ( -42.26574756244295372, 3.968750000000000000, 16.35954386523902571 ) ) ;
#734 = CIRCLE ( 'NONE', #188, 0.5000000000000011102 ) ;
#735 = ADVANCED_FACE ( 'NONE', ( #281 ), #564, .T. ) ;
#736 = VECTOR ( 'NONE', #175, 1000.000000000000114 ) ;
#737 = ORIENTED_EDGE ( 'NONE', *, *, #342, .F. ) ;
#738 = CARTESIAN_POINT ( 'NONE',  ( -26.82540426080883478, 0.000000000000000000, 17.99107130606942562 ) ) ;
#739 = CARTESIAN_POINT ( 'NONE',  ( -4.025167642184528383, 16.70037085876682781, -2.982012976722256070 ) ) ;
#740 = EDGE_CURVE ( 'NONE', #294, #744, #754, .T. ) ;
#741 = ORIENTED_EDGE ( 'NONE', *, *, #206, .F. ) ;
#742 = CYLINDRICAL_SURFACE ( 'NONE', #226, 1.000000032000008199 ) ;
#743 = LINE ( 'NONE', #197, #251 ) ;
#744 = VERTEX_POINT ( 'NONE', #142 ) ;
#745 = DIRECTION ( 'NONE',  ( 0.9905638349724137370, -0.000000000000000000, 0.1370521391469131656 ) ) ;
#746 = ADVANCED_FACE ( 'NONE', ( #273 ), #508, .T. ) ;
#747 = FACE_OUTER_BOUND ( 'NONE', #17, .T. ) ;
#748 = ORIENTED_EDGE ( 'NONE', *, *, #254, .T. ) ;
#749 = CARTESIAN_POINT ( 'NONE',  ( -29.74034648618424370, 3.968750000000076383, -2.703707105710857039 ) ) ;
#750 = ADVANCED_FACE ( 'NONE', ( #572 ), #27, .F. ) ;
#751 = ADVANCED_FACE ( 'NONE', ( #227 ), #529, .T. ) ;
#752 = DIRECTION ( 'NONE',  ( 0.9905638349724136260, 0.000000000000000000, 0.1370521391469134986 ) ) ;
#753 = ORIENTED_EDGE ( 'NONE', *, *, #575, .F. ) ;
#754 = LINE ( 'NONE', #208, #613 ) ;
#755 = CARTESIAN_POINT ( 'NONE',  ( -42.19722149286949531, 3.968750000000000000, 15.86426194775282106 ) ) ;
#756 = ORIENTED_EDGE ( 'NONE', *, *, #425, .T. ) ;
#757 = CARTESIAN_POINT ( 'NONE',  ( -39.44247349601653951, 3.968750000000000000, -4.046071135192705448 ) ) ;
#758 = DIRECTION ( 'NONE',  ( 0.1370521391469131656, -0.000000000000000000, -0.9905638349724137370 ) ) ;
#759 = DIRECTION ( 'NONE',  ( 0.1370521391469133321, -0.000000000000000000, -0.9905638349724137370 ) ) ;
#760 = ORIENTED_EDGE ( 'NONE', *, *, #775, .F. ) ;
#761 = AXIS2_PLACEMENT_3D ( 'NONE', #431, #610, #456 ) ;
#762 = ADVANCED_FACE ( 'NONE', ( #166 ), #711, .F. ) ;
#763 = CLOSED_SHELL ( 'NONE', ( #232, #746, #530, #750, #9, #50, #37, #460, #322, #450, #562, #518, #735, #682, #751, #350, #762, #222, #297, #362, #670, #200, #301, #20, #506 ) ) ;
#764 = DIRECTION ( 'NONE',  ( 0.1370521391469133321, 4.163336342344337027E-17, -0.9905638349724137370 ) ) ;
#765 = AXIS2_PLACEMENT_3D ( 'NONE', #69, #657, #785 ) ;
#766 = CARTESIAN_POINT ( 'NONE',  ( -40.90350111292097068, 7.039164486971720258, -4.248215563628301439 ) ) ;
#767 = CARTESIAN_POINT ( 'NONE',  ( -26.82540426080883478, 0.000000000000000000, 17.99107130606942562 ) ) ;
#768 = EDGE_LOOP ( 'NONE', ( #407, #426, #522, #387 ) ) ;
#769 = DIRECTION ( 'NONE',  ( -0.9905638349724136260, 0.000000000000000000, -0.1370521391469133599 ) ) ;
#770 = DIRECTION ( 'NONE',  ( 0.9905638349724136260, 0.000000000000000000, 0.1370521391469131101 ) ) ;
#771 = ORIENTED_EDGE ( 'NONE', *, *, #238, .T. ) ;
#772 = FACE_OUTER_BOUND ( 'NONE', #654, .T. ) ;
#773 = STYLED_ITEM ( 'NONE', ( #153 ), #710 ) ;
#774 = AXIS2_PLACEMENT_3D ( 'NONE', #3, #601, #244 ) ;
#775 = EDGE_CURVE ( 'NONE', #242, #566, #491, .T. ) ;
#776 = VERTEX_POINT ( 'NONE', #36 ) ;
#777 = DIRECTION ( 'NONE',  ( -0.9905638349724136260, -0.000000000000000000, -0.1370521391469134986 ) ) ;
#778 = LINE ( 'NONE', #298, #252 ) ;
#779 = DIRECTION ( 'NONE',  ( 0.2521477732085208312, -0.9670596809364665480, 0.03488658729431699801 ) ) ;
#780 = ORIENTED_EDGE ( 'NONE', *, *, #55, .T. ) ;
#781 = EDGE_CURVE ( 'NONE', #455, #550, #417, .T. ) ;
#782 = LINE ( 'NONE', #655, #627 ) ;
#783 = CIRCLE ( 'NONE', #32, 0.4999999999999985567 ) ;
#784 = AXIS2_PLACEMENT_3D ( 'NONE', #441, #515, #329 ) ;
#785 = DIRECTION ( 'NONE',  ( -0.9905638349724136260, 0.000000000000000000, -0.1370521391469133599 ) ) ;
#786 = EDGE_LOOP ( 'NONE', ( #63, #619, #216, #466 ) ) ;
#787 = PRODUCT_DEFINITION ( 'UNKNOWN', '', #218, #28 ) ;
#788 = DIRECTION ( 'NONE',  ( 0.1370521391469147754, 0.000000000000000000, -0.9905638349724135150 ) ) ;
#789 = DIRECTION ( 'NONE',  ( 0.000000000000000000, -0.000000000000000000, -1.000000000000000000 ) ) ;
#790 = VERTEX_POINT ( 'NONE', #110 ) ;
#791 = DIRECTION ( 'NONE',  ( 0.1370521391469133321, 4.163336342344337027E-17, -0.9905638349724137370 ) ) ;
#792 = EDGE_CURVE ( 'NONE', #729, #650, #523, .T. ) ;
#793 = CARTESIAN_POINT ( 'NONE',  ( -25.54133056663479806, 2.326709321983833956, -5.958939905526939640 ) ) ;
ENDSEC;
END-ISO-10303-21;
