ISO-10303-21;
HEADER;
FILE_DESCRIPTION (( 'STEP AP203' ),
    '1' );
FILE_NAME ('ctrlSurf_modif_printable.STEP',
    '2025-10-15T18:56:55',
    ( '' ),
    ( '' ),
    'SwSTEP 2.0',
    'SolidWorks 2025',
    '' );
FILE_SCHEMA (( 'CONFIG_CONTROL_DESIGN' ));
ENDSEC;

DATA;
#1 = ORIENTED_EDGE ( 'NONE', *, *, #613, .T. ) ;
#2 = VECTOR ( 'NONE', #446, 999.9999999999998863 ) ;
#3 = VECTOR ( 'NONE', #401, 1000.000000000000000 ) ;
#4 = CARTESIAN_POINT ( 'NONE',  ( -40.10293193298434744, 3.968750000000074607, -4.137450648968904687 ) ) ;
#5 = VECTOR ( 'NONE', #280, 999.9999999999998863 ) ;
#6 = EDGE_CURVE ( 'NONE', #41, #605, #331, .T. ) ;
#7 = CARTESIAN_POINT ( 'NONE',  ( -41.22241094705390196, 1.001697375780427945, -4.292339196472339857 ) ) ;
#8 = DIRECTION ( 'NONE',  ( 0.1370521391469147754, 0.000000000000000000, -0.9905638349724135150 ) ) ;
#9 = DIRECTION ( 'NONE',  ( 0.9905638349724136260, 0.000000000000000000, 0.1370521391469143313 ) ) ;
#10 = EDGE_CURVE ( 'NONE', #605, #34, #468, .T. ) ;
#11 = DIRECTION ( 'NONE',  ( -0.9905638349724136260, 0.000000000000000000, -0.1370521391469131656 ) ) ;
#12 = DIRECTION ( 'NONE',  ( 0.1370521391469133321, 0.000000000000000000, -0.9905638349724136260 ) ) ;
#13 = EDGE_LOOP ( 'NONE', ( #66, #767, #447, #326, #153 ) ) ;
#14 = DIRECTION ( 'NONE',  ( 0.1370521391469133599, 0.000000000000000000, -0.9905638349724137370 ) ) ;
#15 = DIRECTION ( 'NONE',  ( -0.9905638349724136260, 0.000000000000000000, -0.1370521391469131656 ) ) ;
#16 = PERSON_AND_ORGANIZATION ( #377, #429 ) ;
#17 = DIRECTION ( 'NONE',  ( 0.000000000000000000, -1.000000000000000000, -4.202996511032809778E-17 ) ) ;
#18 = ORIENTED_EDGE ( 'NONE', *, *, #744, .T. ) ;
#19 = CC_DESIGN_PERSON_AND_ORGANIZATION_ASSIGNMENT ( #230, #475, ( #481 ) ) ;
#20 = CARTESIAN_POINT ( 'NONE',  ( -39.58213380422610328, 3.968750000000074607, -7.901593221864079197 ) ) ;
#21 = LOCAL_TIME ( 14, 56, 55.00000000000000000, #614 ) ;
#22 = DIRECTION ( 'NONE',  ( 0.1370521391469137484, 0.000000000000000000, -0.9905638349724136260 ) ) ;
#23 = ORIENTED_EDGE ( 'NONE', *, *, #684, .T. ) ;
#24 = APPROVAL_STATUS ( 'not_yet_approved' ) ;
#25 = CARTESIAN_POINT ( 'NONE',  ( -26.89393033038230030, 0.5000000000000000000, 18.48635322355564981 ) ) ;
#26 = EDGE_CURVE ( 'NONE', #445, #295, #637, .T. ) ;
#27 = DIRECTION ( 'NONE',  ( 0.1370521391469152195, 0.000000000000000000, -0.9905638349724134040 ) ) ;
#28 = CARTESIAN_POINT ( 'NONE',  ( -39.44247349601654662, 3.968750000000000000, -4.046071135192705448 ) ) ;
#29 = ORIENTED_EDGE ( 'NONE', *, *, #64, .F. ) ;
#30 = ORIENTED_EDGE ( 'NONE', *, *, #256, .T. ) ;
#31 = APPROVAL ( #24, 'UNSPECIFIED' ) ;
#32 = DIRECTION ( 'NONE',  ( 0.9905638349724137370, 0.000000000000000000, 0.1370521391469131378 ) ) ;
#33 = VECTOR ( 'NONE', #435, 999.9999999999998863 ) ;
#34 = VERTEX_POINT ( 'NONE', #173 ) ;
#35 = AXIS2_PLACEMENT_3D ( 'NONE', #110, #302, #556 ) ;
#36 = VERTEX_POINT ( 'NONE', #342 ) ;
#37 = CIRCLE ( 'NONE', #413, 0.5000000000000002220 ) ;
#38 = CARTESIAN_POINT ( 'NONE',  ( -42.87849179857709458, 3.968750000000000000, -4.521470742858560321 ) ) ;
#39 = EDGE_CURVE ( 'NONE', #625, #103, #522, .T. ) ;
#40 = CARTESIAN_POINT ( 'NONE',  ( -23.54985813519759930, 0.5000000000000000000, -5.683404349771289610 ) ) ;
#41 = VERTEX_POINT ( 'NONE', #288 ) ;
#42 = DIRECTION ( 'NONE',  ( -0.9905638349724136260, 0.000000000000000000, -0.1370521391469131378 ) ) ;
#43 = DIRECTION ( 'NONE',  ( -0.9905638349724134040, 0.000000000000000000, -0.1370521391469147199 ) ) ;
#44 = CARTESIAN_POINT ( 'NONE',  ( -0.8966995826430629313, 5.572208254761390478, 1.287033691966914084 ) ) ;
#45 = VECTOR ( 'NONE', #549, 999.9999999999998863 ) ;
#46 = VECTOR ( 'NONE', #159, 999.9999999999998863 ) ;
#47 = DIRECTION ( 'NONE',  ( 0.000000000000000000, -1.000000000000000000, 0.000000000000000000 ) ) ;
#48 = ORIENTED_EDGE ( 'NONE', *, *, #335, .F. ) ;
#49 = EDGE_CURVE ( 'NONE', #625, #454, #281, .T. ) ;
#50 = LINE ( 'NONE', #482, #70 ) ;
#51 = VERTEX_POINT ( 'NONE', #707 ) ;
#52 = ADVANCED_FACE ( 'NONE', ( #228 ), #411, .T. ) ;
#53 = LINE ( 'NONE', #245, #33 ) ;
#54 = CARTESIAN_POINT ( 'NONE',  ( -39.15221403696570235, 0.5713604432024320667, -7.842110509408479757 ) ) ;
#55 = CALENDAR_DATE ( 2025, 15, 10 ) ;
#56 = CIRCLE ( 'NONE', #513, 0.5000000000000002220 ) ;
#57 = AXIS2_PLACEMENT_3D ( 'NONE', #419, #428, #601 ) ;
#58 = CARTESIAN_POINT ( 'NONE',  ( -42.92150165687850460, 3.968750000000000000, -7.858857467840979716 ) ) ;
#59 = EDGE_CURVE ( 'NONE', #34, #724, #757, .T. ) ;
#60 = CARTESIAN_POINT ( 'NONE',  ( -41.22241094705319853, 6.935802624219980395, -4.292339196472244822 ) ) ;
#61 = EDGE_LOOP ( 'NONE', ( #48, #704, #671, #65 ) ) ;
#62 = DIRECTION ( 'NONE',  ( 0.9825784608107164253, -0.1267197682838523409, 0.1359473011020441435 ) ) ;
#63 = DIRECTION ( 'NONE',  ( 0.1370521391469147754, 0.000000000000000000, -0.9905638349724135150 ) ) ;
#64 = EDGE_CURVE ( 'NONE', #303, #610, #155, .T. ) ;
#65 = ORIENTED_EDGE ( 'NONE', *, *, #96, .T. ) ;
#66 = ORIENTED_EDGE ( 'NONE', *, *, #85, .T. ) ;
#67 = DIRECTION ( 'NONE',  ( 0.1370521391469131378, 0.000000000000000000, -0.9905638349724137370 ) ) ;
#68 = CARTESIAN_POINT ( 'NONE',  ( -38.99020143683175377, 3.968750000000000000, -7.314931790601669093 ) ) ;
#69 = ORIENTED_EDGE ( 'NONE', *, *, #348, .T. ) ;
#70 = VECTOR ( 'NONE', #603, 999.9999999999998863 ) ;
#71 = CYLINDRICAL_SURFACE ( 'NONE', #200, 3.968750000000004441 ) ;
#72 = VECTOR ( 'NONE', #520, 1000.000000000000114 ) ;
#73 = ORIENTED_EDGE ( 'NONE', *, *, #112, .F. ) ;
#74 = ADVANCED_FACE ( 'NONE', ( #639 ), #405, .F. ) ;
#75 = DATE_TIME_ROLE ( 'creation_date' ) ;
#76 = CARTESIAN_POINT ( 'NONE',  ( -25.54133056663479806, 2.326709321983835288, -5.958939905526939640 ) ) ;
#77 = ORIENTED_EDGE ( 'NONE', *, *, #568, .F. ) ;
#78 = VERTEX_POINT ( 'NONE', #653 ) ;
#79 = EDGE_CURVE ( 'NONE', #724, #654, #626, .T. ) ;
#80 = CARTESIAN_POINT ( 'NONE',  ( -42.26574756244294662, 0.5000000000000000000, 16.35954386523904702 ) ) ;
#81 = ORIENTED_EDGE ( 'NONE', *, *, #10, .T. ) ;
#82 = DATE_AND_TIME ( #622, #711 ) ;
#83 = CC_DESIGN_APPROVAL ( #279, ( #242 ) ) ;
#84 = DIRECTION ( 'NONE',  ( 0.9905638349724136260, 3.500703230800043874E-15, 0.1370521391469131101 ) ) ;
#85 = EDGE_CURVE ( 'NONE', #36, #617, #760, .T. ) ;
#86 = CARTESIAN_POINT ( 'NONE',  ( -23.61838420477105061, 7.437500000000000000, -5.188122432285079633 ) ) ;
#87 = VECTOR ( 'NONE', #126, 999.9999999999998863 ) ;
#88 = ORIENTED_EDGE ( 'NONE', *, *, #508, .T. ) ;
#89 =( NAMED_UNIT ( * ) SI_UNIT ( $, .STERADIAN. ) SOLID_ANGLE_UNIT ( ) );
#90 = DIRECTION ( 'NONE',  ( 0.9905638349724136260, 0.000000000000000000, 0.1370521391469143313 ) ) ;
#91 = ORIENTED_EDGE ( 'NONE', *, *, #172, .T. ) ;
#92 = VERTEX_POINT ( 'NONE', #703 ) ;
#93 = CARTESIAN_POINT ( 'NONE',  ( -40.90350111292099911, 7.039164486971720258, -4.248215563628299662 ) ) ;
#94 = ORIENTED_EDGE ( 'NONE', *, *, #421, .T. ) ;
#95 = ORIENTED_EDGE ( 'NONE', *, *, #539, .F. ) ;
#96 = EDGE_CURVE ( 'NONE', #445, #670, #289, .T. ) ;
#97 = DATE_AND_TIME ( #55, #582 ) ;
#98 = DIRECTION ( 'NONE',  ( -0.9905638349724137370, 0.000000000000000000, -0.1370521391469133599 ) ) ;
#99 = VECTOR ( 'NONE', #170, 1000.000000000000114 ) ;
#100 = CARTESIAN_POINT ( 'NONE',  ( -38.92167536725824561, 0.5000000000000000000, -7.810213708087869300 ) ) ;
#101 = CYLINDRICAL_SURFACE ( 'NONE', #498, 0.5000000000000001110 ) ;
#102 = CARTESIAN_POINT ( 'NONE',  ( -39.58213380422610328, 3.968750000000074607, -7.901593221864079197 ) ) ;
#103 = VERTEX_POINT ( 'NONE', #105 ) ;
#104 = CARTESIAN_POINT ( 'NONE',  ( -23.54985813519759930, 7.437500000000000000, -5.683404349771289610 ) ) ;
#105 = CARTESIAN_POINT ( 'NONE',  ( -38.92167536725824561, 0.5000000000000000000, -7.810213708087869300 ) ) ;
#106 = DIRECTION ( 'NONE',  ( 0.1255240196380681128, -0.9919385567292395844, 0.01736721531550314626 ) ) ;
#107 = ADVANCED_FACE ( 'NONE', ( #168 ), #351, .T. ) ;
#108 = CIRCLE ( 'NONE', #215, 3.174999999996611866 ) ;
#109 = DIRECTION ( 'NONE',  ( -0.9905638349724136260, 0.000000000000000000, -0.1370521391469133599 ) ) ;
#110 = CARTESIAN_POINT ( 'NONE',  ( -42.26574756244294662, 3.968750000000000000, 16.35954386523904702 ) ) ;
#111 = VERTEX_POINT ( 'NONE', #550 ) ;
#112 = EDGE_CURVE ( 'NONE', #670, #610, #160, .T. ) ;
#113 = APPROVAL_STATUS ( 'not_yet_approved' ) ;
#114 = DIRECTION ( 'NONE',  ( -0.9825784608107166473, -0.1267197682838521466, -0.1359473011020441435 ) ) ;
#115 = DIRECTION ( 'NONE',  ( 0.9905638349724135150, 0.000000000000000000, 0.1370521391469147476 ) ) ;
#116 = EDGE_CURVE ( 'NONE', #610, #111, #315, .T. ) ;
#117 = DIRECTION ( 'NONE',  ( -0.2521477732085203316, -0.9670596809364666591, -0.03488658729431694250 ) ) ;
#118 = DIRECTION ( 'NONE',  ( 0.1255240196380683904, 0.9919385567292395844, 0.01736721531550311851 ) ) ;
#119 =( GEOMETRIC_REPRESENTATION_CONTEXT ( 3 ) GLOBAL_UNCERTAINTY_ASSIGNED_CONTEXT ( ( #399 ) ) GLOBAL_UNIT_ASSIGNED_CONTEXT ( ( #255, #314, #89 ) ) REPRESENTATION_CONTEXT ( 'NONE', 'WORKASPACE' ) );
#120 = AXIS2_PLACEMENT_3D ( 'NONE', #531, #647, #456 ) ;
#121 = DIRECTION ( 'NONE',  ( 0.1370521391469133599, 0.000000000000000000, -0.9905638349724137370 ) ) ;
#122 = ADVANCED_FACE ( 'NONE', ( #658 ), #123, .F. ) ;
#123 = PLANE ( 'NONE',  #263 ) ;
#124 = DESIGN_CONTEXT ( 'detailed design', #318, 'design' ) ;
#125 = CARTESIAN_POINT ( 'NONE',  ( -0.3759014538847920694, 5.572208254761390478, -2.477108880928259982 ) ) ;
#126 = DIRECTION ( 'NONE',  ( -0.9905638349724137370, 0.000000000000000000, -0.1370521391469131378 ) ) ;
#127 = PRODUCT ( 'ctrlSurf_modif_printable', 'ctrlSurf_modif_printable', '', ( #675 ) ) ;
#128 = CARTESIAN_POINT ( 'NONE',  ( -26.82540426080885254, 0.5000000000000000000, 17.99107130606945049 ) ) ;
#129 = DIRECTION ( 'NONE',  ( 0.1370521391469131378, 0.000000000000000000, -0.9905638349724136260 ) ) ;
#130 = ORIENTED_EDGE ( 'NONE', *, *, #751, .T. ) ;
#131 = EDGE_CURVE ( 'NONE', #749, #445, #370, .T. ) ;
#132 = AXIS2_PLACEMENT_3D ( 'NONE', #28, #739, #196 ) ;
#133 = PERSON_AND_ORGANIZATION ( #377, #429 ) ;
#134 = AXIS2_PLACEMENT_3D ( 'NONE', #477, #118, #129 ) ;
#135 = DIRECTION ( 'NONE',  ( 0.000000000000000000, -0.03605145518123139409, -0.9993499349974039880 ) ) ;
#136 = VECTOR ( 'NONE', #67, 999.9999999999998863 ) ;
#137 = CC_DESIGN_PERSON_AND_ORGANIZATION_ASSIGNMENT ( #16, #560, ( #127 ) ) ;
#138 = CYLINDRICAL_SURFACE ( 'NONE', #340, 3.968750000000004441 ) ;
#139 = VERTEX_POINT ( 'NONE', #54 ) ;
#140 = COORDINATED_UNIVERSAL_TIME_OFFSET ( 5, 0, .BEHIND. ) ;
#141 = ADVANCED_FACE ( 'NONE', ( #365 ), #480, .T. ) ;
#142 = DIRECTION ( 'NONE',  ( 0.1370521391469131378, -1.311246760727727423E-31, -0.9905638349724136260 ) ) ;
#143 = EDGE_LOOP ( 'NONE', ( #316, #265, #645, #755 ) ) ;
#144 = CARTESIAN_POINT ( 'NONE',  ( -40.70161281829494726, 6.935802624219980395, -8.056481769367419332 ) ) ;
#145 = AXIS2_PLACEMENT_3D ( 'NONE', #180, #543, #8 ) ;
#146 = CARTESIAN_POINT ( 'NONE',  ( -38.92167536725824561, 7.437500000000000000, -7.810213708087869300 ) ) ;
#147 = AXIS2_PLACEMENT_3D ( 'NONE', #587, #164, #644 ) ;
#148 = EDGE_LOOP ( 'NONE', ( #191, #674, #409, #616 ) ) ;
#149 = CIRCLE ( 'NONE', #750, 3.468749999999999112 ) ;
#150 = APPROVAL_ROLE ( '' ) ;
#151 = CARTESIAN_POINT ( 'NONE',  ( -46.64370825889530181, 3.968750000000000000, 19.04392033047584576 ) ) ;
#152 = ORIENTED_EDGE ( 'NONE', *, *, #618, .T. ) ;
#153 = ORIENTED_EDGE ( 'NONE', *, *, #517, .F. ) ;
#154 = FACE_OUTER_BOUND ( 'NONE', #493, .T. ) ;
#155 = LINE ( 'NONE', #414, #379 ) ;
#156 = EDGE_CURVE ( 'NONE', #391, #303, #188, .T. ) ;
#157 = CARTESIAN_POINT ( 'NONE',  ( -29.74034648618425081, 3.968750000000074607, -2.703707105710855263 ) ) ;
#158 = VECTOR ( 'NONE', #98, 999.9999999999998863 ) ;
#159 = DIRECTION ( 'NONE',  ( 0.1370521391469133599, 0.000000000000000000, -0.9905638349724137370 ) ) ;
#160 = CIRCLE ( 'NONE', #431, 3.968750000000004441 ) ;
#161 = EDGE_LOOP ( 'NONE', ( #69, #432, #511, #641, #357, #648, #395, #656, #425, #563, #223, #346 ) ) ;
#162 = ORIENTED_EDGE ( 'NONE', *, *, #618, .F. ) ;
#163 = DIRECTION ( 'NONE',  ( 0.1370521391469152195, 0.000000000000000000, -0.9905638349724134040 ) ) ;
#164 = DIRECTION ( 'NONE',  ( -0.1370521391469131378, 0.000000000000000000, 0.9905638349724136260 ) ) ;
#165 = EDGE_LOOP ( 'NONE', ( #406, #383, #95, #345, #545, #503, #73, #349 ) ) ;
#166 = DIRECTION ( 'NONE',  ( -0.9905638349724135150, 0.000000000000000000, -0.1370521391469132211 ) ) ;
#167 = EDGE_CURVE ( 'NONE', #654, #557, #552, .T. ) ;
#168 = FACE_OUTER_BOUND ( 'NONE', #536, .T. ) ;
#169 = ORIENTED_EDGE ( 'NONE', *, *, #39, .F. ) ;
#170 = DIRECTION ( 'NONE',  ( 0.9825784608107164253, -0.1267197682838523409, 0.1359473011020441435 ) ) ;
#171 = APPROVAL_PERSON_ORGANIZATION ( #738, #31, #199 ) ;
#172 = EDGE_CURVE ( 'NONE', #78, #654, #241, .T. ) ;
#173 = CARTESIAN_POINT ( 'NONE',  ( -40.90350111292099911, 0.8983355130284329526, -4.248215563628299662 ) ) ;
#174 = CIRCLE ( 'NONE', #597, 3.968750000000004885 ) ;
#175 = ORIENTED_EDGE ( 'NONE', *, *, #655, .T. ) ;
#176 = AXIS2_PLACEMENT_3D ( 'NONE', #361, #298, #547 ) ;
#177 = DIRECTION ( 'NONE',  ( 0.1370521391469133321, 0.000000000000000000, -0.9905638349724136260 ) ) ;
#178 = DIRECTION ( 'NONE',  ( -0.1370521391469131378, 0.000000000000000000, 0.9905638349724136260 ) ) ;
#179 = EDGE_CURVE ( 'NONE', #111, #625, #249, .T. ) ;
#180 = CARTESIAN_POINT ( 'NONE',  ( -42.19722149286949531, 7.437500000000000000, 15.86426194775279797 ) ) ;
#181 = FACE_OUTER_BOUND ( 'NONE', #61, .T. ) ;
#182 = VERTEX_POINT ( 'NONE', #60 ) ;
#183 = ADVANCED_FACE ( 'NONE', ( #472 ), #662, .F. ) ;
#184 = ORIENTED_EDGE ( 'NONE', *, *, #613, .F. ) ;
#185 = CARTESIAN_POINT ( 'NONE',  ( -39.67301216572394651, 0.5713604432024320667, -4.077967936513309688 ) ) ;
#186 = DIRECTION ( 'NONE',  ( -0.9905638349724137370, 0.000000000000000000, -0.1370521391469126937 ) ) ;
#187 = CC_DESIGN_SECURITY_CLASSIFICATION ( #481, ( #524 ) ) ;
#188 = CIRCLE ( 'NONE', #701, 0.5000000000000002220 ) ;
#189 = LINE ( 'NONE', #596, #45 ) ;
#190 = FACE_OUTER_BOUND ( 'NONE', #13, .T. ) ;
#191 = ORIENTED_EDGE ( 'NONE', *, *, #320, .F. ) ;
#192 = CARTESIAN_POINT ( 'NONE',  ( -38.99020143683175377, 0.5000000000000000000, -7.314931790601669093 ) ) ;
#193 = ADVANCED_FACE ( 'NONE', ( #372 ), #599, .F. ) ;
#194 = DIRECTION ( 'NONE',  ( 0.1370521391469147754, 0.000000000000000000, -0.9905638349724135150 ) ) ;
#195 = APPROVAL_STATUS ( 'not_yet_approved' ) ;
#196 = DIRECTION ( 'NONE',  ( -0.9905638349724136260, 0.000000000000000000, -0.1370521391469133599 ) ) ;
#197 = CC_DESIGN_DATE_AND_TIME_ASSIGNMENT ( #595, #339, ( #481 ) ) ;
#198 = AXIS2_PLACEMENT_3D ( 'NONE', #277, #518, #516 ) ;
#199 = APPROVAL_ROLE ( '' ) ;
#200 = AXIS2_PLACEMENT_3D ( 'NONE', #669, #423, #186 ) ;
#201 = FACE_OUTER_BOUND ( 'NONE', #203, .T. ) ;
#202 = CIRCLE ( 'NONE', #746, 4.060119808809604436 ) ;
#203 = EDGE_LOOP ( 'NONE', ( #629, #420, #743, #327 ) ) ;
#204 = ORIENTED_EDGE ( 'NONE', *, *, #79, .T. ) ;
#205 = COORDINATED_UNIVERSAL_TIME_OFFSET ( 5, 0, .BEHIND. ) ;
#206 = CARTESIAN_POINT ( 'NONE',  ( -4.025167642184530159, 16.70037085876684912, -2.982012976722255182 ) ) ;
#207 = ORIENTED_EDGE ( 'NONE', *, *, #754, .T. ) ;
#208 = ORIENTED_EDGE ( 'NONE', *, *, #517, .T. ) ;
#209 = PERSON_AND_ORGANIZATION ( #377, #429 ) ;
#210 = FACE_OUTER_BOUND ( 'NONE', #430, .T. ) ;
#211 = ORIENTED_EDGE ( 'NONE', *, *, #694, .F. ) ;
#212 = ORIENTED_EDGE ( 'NONE', *, *, #256, .F. ) ;
#213 = DIRECTION ( 'NONE',  ( 0.1370521391469129713, 0.000000000000000000, -0.9905638349724137370 ) ) ;
#214 = TOROIDAL_SURFACE ( 'NONE', #541, 3.468750000000000000, 0.5000000000000000000 ) ;
#215 = AXIS2_PLACEMENT_3D ( 'NONE', #20, #561, #689 ) ;
#216 = VERTEX_POINT ( 'NONE', #721 ) ;
#217 = CARTESIAN_POINT ( 'NONE',  ( -4.545965770942800077, 16.70037085876684912, 0.7821295961729159973 ) ) ;
#218 = ADVANCED_FACE ( 'NONE', ( #190 ), #214, .T. ) ;
#219 = ORIENTED_EDGE ( 'NONE', *, *, #172, .F. ) ;
#220 = CARTESIAN_POINT ( 'NONE',  ( -41.22241094705319853, 6.935802624219980395, -4.292339196472244822 ) ) ;
#221 = DIRECTION ( 'NONE',  ( -0.1370521391469147754, 0.000000000000000000, 0.9905638349724135150 ) ) ;
#222 = ADVANCED_FACE ( 'NONE', ( #181 ), #71, .T. ) ;
#223 = ORIENTED_EDGE ( 'NONE', *, *, #307, .F. ) ;
#224 = DIRECTION ( 'NONE',  ( -0.9905638349724136260, 0.000000000000000000, -0.1370521391469133599 ) ) ;
#225 = VECTOR ( 'NONE', #62, 1000.000000000000114 ) ;
#226 = CARTESIAN_POINT ( 'NONE',  ( -29.74034648618425081, 3.968750000000074607, -2.703707105710855263 ) ) ;
#227 = PLANE ( 'NONE',  #716 ) ;
#228 = FACE_OUTER_BOUND ( 'NONE', #682, .T. ) ;
#229 = ORIENTED_EDGE ( 'NONE', *, *, #49, .T. ) ;
#230 = PERSON_AND_ORGANIZATION ( #377, #429 ) ;
#231 = DIRECTION ( 'NONE',  ( -0.9905638349724136260, 0.000000000000000000, -0.1370521391469131656 ) ) ;
#232 = EDGE_LOOP ( 'NONE', ( #737, #374, #233, #94 ) ) ;
#233 = ORIENTED_EDGE ( 'NONE', *, *, #496, .F. ) ;
#234 = PLANE ( 'NONE',  #575 ) ;
#235 = ADVANCED_FACE ( 'NONE', ( #717 ), #544, .T. ) ;
#236 = CARTESIAN_POINT ( 'NONE',  ( -42.19722149286949531, 0.5000000000000000000, 15.86426194775279797 ) ) ;
#237 = AXIS2_PLACEMENT_3D ( 'NONE', #736, #22, #389 ) ;
#238 = ORIENTED_EDGE ( 'NONE', *, *, #59, .T. ) ;
#239 = AXIS2_PLACEMENT_3D ( 'NONE', #382, #393, #444 ) ;
#240 = CARTESIAN_POINT ( 'NONE',  ( -23.54985813519759930, 0.5000000000000000000, -5.683404349771289610 ) ) ;
#241 = LINE ( 'NONE', #7, #727 ) ;
#242 = PRODUCT_DEFINITION ( 'UNKNOWN', '', #524, #124 ) ;
#243 = CARTESIAN_POINT ( 'NONE',  ( -26.06212869539305288, 5.610790678016320143, -2.194797332631770015 ) ) ;
#244 = DIRECTION ( 'NONE',  ( 0.9905638349724137370, 0.000000000000000000, 0.1370521391469131378 ) ) ;
#245 = CARTESIAN_POINT ( 'NONE',  ( -26.82540426080885254, 0.000000000000000000, 17.99107130606945049 ) ) ;
#246 = CARTESIAN_POINT ( 'NONE',  ( -42.85297558730505330, 7.937500000000000000, -8.354139385327179923 ) ) ;
#247 = CC_DESIGN_APPROVAL ( #698, ( #481 ) ) ;
#248 = AXIS2_PLACEMENT_3D ( 'NONE', #301, #177, #11 ) ;
#249 = CIRCLE ( 'NONE', #352, 0.5000000000000002220 ) ;
#250 = ADVANCED_FACE ( 'NONE', ( #665 ), #306, .F. ) ;
#251 = CIRCLE ( 'NONE', #691, 3.174999999996611866 ) ;
#252 = DIRECTION ( 'NONE',  ( 0.1370521391469133321, 4.163336342344332713E-17, -0.9905638349724136260 ) ) ;
#253 = CARTESIAN_POINT ( 'NONE',  ( -42.19722149286949531, 3.968750000000000000, 15.86426194775279797 ) ) ;
#254 = VERTEX_POINT ( 'NONE', #25 ) ;
#255 =( LENGTH_UNIT ( ) NAMED_UNIT ( * ) SI_UNIT ( .MILLI., .METRE. ) );
#256 = EDGE_CURVE ( 'NONE', #454, #749, #37, .T. ) ;
#257 = DIRECTION ( 'NONE',  ( 0.1370521391469133321, 4.163336342344332713E-17, -0.9905638349724136260 ) ) ;
#258 = CARTESIAN_POINT ( 'NONE',  ( -23.61838420477105061, 7.937500000000000000, -5.188122432285079633 ) ) ;
#259 = DIRECTION ( 'NONE',  ( 0.2521477732085211088, -0.9670596809364664370, 0.03488658729431699801 ) ) ;
#260 = EDGE_CURVE ( 'NONE', #303, #92, #470, .T. ) ;
#261 = APPROVAL_PERSON_ORGANIZATION ( #133, #279, #324 ) ;
#262 = PERSON_AND_ORGANIZATION ( #377, #429 ) ;
#263 = AXIS2_PLACEMENT_3D ( 'NONE', #246, #436, #730 ) ;
#264 = PLANE ( 'NONE',  #278 ) ;
#265 = ORIENTED_EDGE ( 'NONE', *, *, #558, .F. ) ;
#266 = ORIENTED_EDGE ( 'NONE', *, *, #156, .T. ) ;
#267 = LINE ( 'NONE', #258, #460 ) ;
#268 = DIRECTION ( 'NONE',  ( 0.1370521391469131378, 0.000000000000000000, -0.9905638349724137370 ) ) ;
#269 = ORIENTED_EDGE ( 'NONE', *, *, #478, .F. ) ;
#270 = ORIENTED_EDGE ( 'NONE', *, *, #496, .T. ) ;
#271 = DIRECTION ( 'NONE',  ( 0.1370521391469133599, 0.000000000000000000, -0.9905638349724137370 ) ) ;
#272 = CARTESIAN_POINT ( 'NONE',  ( -0.1915692359566844860, 1.000123473360250115E-16, 1.384593908662552053 ) ) ;
#273 = ORIENTED_EDGE ( 'NONE', *, *, #568, .T. ) ;
#274 = PERSON_AND_ORGANIZATION ( #377, #429 ) ;
#276 = EDGE_CURVE ( 'NONE', #712, #354, #108, .T. ) ;
#275 = VECTOR ( 'NONE', #427, 999.9999999999998863 ) ;
#277 = CARTESIAN_POINT ( 'NONE',  ( -42.26574756244294662, 3.968750000000000000, 16.35954386523904702 ) ) ;
#278 = AXIS2_PLACEMENT_3D ( 'NONE', #623, #259, #135 ) ;
#279 = APPROVAL ( #195, 'UNSPECIFIED' ) ;
#280 = DIRECTION ( 'NONE',  ( 0.1370521391469133599, 0.000000000000000000, -0.9905638349724137370 ) ) ;
#281 = LINE ( 'NONE', #40, #748 ) ;
#282 = ORIENTED_EDGE ( 'NONE', *, *, #633, .F. ) ;
#283 = CARTESIAN_POINT ( 'NONE',  ( -26.89393033038230030, 7.437500000000000000, 18.48635322355560007 ) ) ;
#284 = CARTESIAN_POINT ( 'NONE',  ( -0.8966995826430629313, 5.572208254761390478, 1.287033691966914084 ) ) ;
#285 = ADVANCED_FACE ( 'NONE', ( #438 ), #330, .T. ) ;
#286 = CARTESIAN_POINT ( 'NONE',  ( -40.10293193298434744, 3.968750000000074607, -4.137450648968904687 ) ) ;
#287 = CIRCLE ( 'NONE', #484, 0.4999999999999985567 ) ;
#288 = CARTESIAN_POINT ( 'NONE',  ( -26.06212869539305288, 2.326709321983835288, -2.194797332631770015 ) ) ;
#289 = CIRCLE ( 'NONE', #147, 3.968750000000004441 ) ;
#290 = VERTEX_POINT ( 'NONE', #570 ) ;
#291 = FACE_OUTER_BOUND ( 'NONE', #588, .T. ) ;
#292 = SHAPE_DEFINITION_REPRESENTATION ( #323, #695 ) ;
#293 = CARTESIAN_POINT ( 'NONE',  ( -26.82540426080885254, 0.000000000000000000, 17.99107130606945049 ) ) ;
#294 = DIRECTION ( 'NONE',  ( 0.1370521391469133321, 0.000000000000000000, -0.9905638349724136260 ) ) ;
#295 = VERTEX_POINT ( 'NONE', #146 ) ;
#296 = FACE_OUTER_BOUND ( 'NONE', #143, .T. ) ;
#297 = ADVANCED_FACE ( 'NONE', ( #201 ), #264, .T. ) ;
#298 = DIRECTION ( 'NONE',  ( 0.1370521391469133321, 4.163336342344332713E-17, -0.9905638349724136260 ) ) ;
#299 = AXIS2_PLACEMENT_3D ( 'NONE', #461, #702, #163 ) ;
#300 = AXIS2_PLACEMENT_3D ( 'NONE', #236, #115, #63 ) ;
#301 = CARTESIAN_POINT ( 'NONE',  ( -40.10293193298434744, 3.968750000000074607, -4.137450648968904687 ) ) ;
#302 = DIRECTION ( 'NONE',  ( -0.1370521391469133321, 0.000000000000000000, 0.9905638349724136260 ) ) ;
#303 = VERTEX_POINT ( 'NONE', #619 ) ;
#304 = EDGE_LOOP ( 'NONE', ( #499, #466, #211, #632 ) ) ;
#305 = DIRECTION ( 'NONE',  ( 0.9905638349724136260, 0.000000000000000000, 0.1370521391469135819 ) ) ;
#306 = PLANE ( 'NONE',  #678 ) ;
#307 = EDGE_CURVE ( 'NONE', #216, #387, #652, .T. ) ;
#308 = CARTESIAN_POINT ( 'NONE',  ( -42.87849179857709458, 3.968750000000000000, -4.521470742858560321 ) ) ;
#309 = CARTESIAN_POINT ( 'NONE',  ( 0.2607028232281289881, 7.937500000000000000, -1.884266746746410037 ) ) ;
#310 = ORIENTED_EDGE ( 'NONE', *, *, #116, .F. ) ;
#311 = VECTOR ( 'NONE', #385, 1000.000000000000114 ) ;
#312 = AXIS2_PLACEMENT_3D ( 'NONE', #673, #12, #15 ) ;
#313 = AXIS2_PLACEMENT_3D ( 'NONE', #559, #448, #686 ) ;
#314 =( NAMED_UNIT ( * ) PLANE_ANGLE_UNIT ( ) SI_UNIT ( $, .RADIAN. ) );
#315 = LINE ( 'NONE', #540, #450 ) ;
#316 = ORIENTED_EDGE ( 'NONE', *, *, #668, .F. ) ;
#317 = ORIENTED_EDGE ( 'NONE', *, *, #179, .T. ) ;
#318 = APPLICATION_CONTEXT ( 'configuration controlled 3d designs of mechanical parts and assemblies' ) ;
#319 = DIRECTION ( 'NONE',  ( 1.000000000000000000, 0.000000000000000000, 0.000000000000000000 ) ) ;
#320 = EDGE_CURVE ( 'NONE', #666, #182, #443, .T. ) ;
#321 = CARTESIAN_POINT ( 'NONE',  ( -38.92167536725824561, 3.968750000000000000, -7.810213708087869300 ) ) ;
#322 = EDGE_LOOP ( 'NONE', ( #270, #269, #624, #719, #523, #81, #1, #88, #441 ) ) ;
#323 = PRODUCT_DEFINITION_SHAPE ( 'NONE', 'NONE',  #242 ) ;
#324 = APPROVAL_ROLE ( '' ) ;
#325 = DIRECTION ( 'NONE',  ( 0.000000000000000000, -1.000000000000000000, 0.000000000000000000 ) ) ;
#326 = ORIENTED_EDGE ( 'NONE', *, *, #156, .F. ) ;
#327 = ORIENTED_EDGE ( 'NONE', *, *, #373, .T. ) ;
#328 = VECTOR ( 'NONE', #509, 1000.000000000000227 ) ;
#329 = DIRECTION ( 'NONE',  ( 0.000000000000000000, 0.000000000000000000, 1.000000000000000000 ) ) ;
#330 = PLANE ( 'NONE',  #576 ) ;
#331 = LINE ( 'NONE', #284, #3 ) ;
#332 = ORIENTED_EDGE ( 'NONE', *, *, #529, .F. ) ;
#333 = DATE_AND_TIME ( #490, #366 ) ;
#334 = DIRECTION ( 'NONE',  ( 0.1370521391469147754, 0.000000000000000000, -0.9905638349724135150 ) ) ;
#335 = EDGE_CURVE ( 'NONE', #92, #670, #631, .T. ) ;
#336 = DIRECTION ( 'NONE',  ( 0.000000000000000000, 0.000000000000000000, -1.000000000000000000 ) ) ;
#337 = ORIENTED_EDGE ( 'NONE', *, *, #591, .T. ) ;
#338 = ADVANCED_FACE ( 'NONE', ( #510 ), #615, .F. ) ;
#339 = DATE_TIME_ROLE ( 'classification_date' ) ;
#340 = AXIS2_PLACEMENT_3D ( 'NONE', #693, #213, #628 ) ;
#341 = LINE ( 'NONE', #217, #72 ) ;
#342 = CARTESIAN_POINT ( 'NONE',  ( -42.26574756244294662, 7.437500000000000000, 16.35954386523904702 ) ) ;
#343 = TOROIDAL_SURFACE ( 'NONE', #608, 3.468750000000000000, 0.5000000000000000000 ) ;
#344 = DIRECTION ( 'NONE',  ( -0.1370521391469131378, 0.000000000000000000, 0.9905638349724136260 ) ) ;
#345 = ORIENTED_EDGE ( 'NONE', *, *, #167, .F. ) ;
#346 = ORIENTED_EDGE ( 'NONE', *, *, #426, .F. ) ;
#347 = DIRECTION ( 'NONE',  ( 0.000000000000000000, -0.01750567503791739671, -0.9998467639300867571 ) ) ;
#348 = EDGE_CURVE ( 'NONE', #453, #354, #507, .T. ) ;
#349 = ORIENTED_EDGE ( 'NONE', *, *, #96, .F. ) ;
#350 = CARTESIAN_POINT ( 'NONE',  ( -39.15221403696570235, 7.366139556797720367, -7.842110509408479757 ) ) ;
#351 = PLANE ( 'NONE',  #35 ) ;
#352 = AXIS2_PLACEMENT_3D ( 'NONE', #726, #9, #376 ) ;
#353 = VECTOR ( 'NONE', #418, 999.9999999999998863 ) ;
#354 = VERTEX_POINT ( 'NONE', #742 ) ;
#355 = CARTESIAN_POINT ( 'NONE',  ( 0.09161532917439670076, 2.237832166577080173, 1.423774675266739953 ) ) ;
#356 = CARTESIAN_POINT ( 'NONE',  ( -23.61838420477105061, 0.5000000000000000000, -5.188122432285079633 ) ) ;
#357 = ORIENTED_EDGE ( 'NONE', *, *, #49, .F. ) ;
#358 = ADVANCED_FACE ( 'NONE', ( #210 ), #732, .T. ) ;
#359 = ORIENTED_EDGE ( 'NONE', *, *, #179, .F. ) ;
#360 = LINE ( 'NONE', #125, #714 ) ;
#361 = CARTESIAN_POINT ( 'NONE',  ( -38.92167536725824561, 3.968750000000000000, -7.810213708087879958 ) ) ;
#362 = EDGE_CURVE ( 'NONE', #617, #51, #745, .T. ) ;
#363 = CARTESIAN_POINT ( 'NONE',  ( -39.67301216572394651, 7.366139556797720367, -4.077967936513304359 ) ) ;
#364 = LOCAL_TIME ( 14, 56, 55.00000000000000000, #713 ) ;
#365 = FACE_OUTER_BOUND ( 'NONE', #688, .T. ) ;
#366 = LOCAL_TIME ( 14, 56, 55.00000000000000000, #140 ) ;
#367 = ORIENTED_EDGE ( 'NONE', *, *, #260, .T. ) ;
#368 = CARTESIAN_POINT ( 'NONE',  ( -26.06212869539305288, 5.610790678016320143, -2.194797332631770015 ) ) ;
#369 = ADVANCED_FACE ( 'NONE', ( #397 ), #138, .T. ) ;
#370 = LINE ( 'NONE', #309, #87 ) ;
#371 = LINE ( 'NONE', #368, #564 ) ;
#372 = FACE_OUTER_BOUND ( 'NONE', #232, .T. ) ;
#373 = EDGE_CURVE ( 'NONE', #290, #354, #452, .T. ) ;
#374 = ORIENTED_EDGE ( 'NONE', *, *, #373, .F. ) ;
#375 = APPLICATION_PROTOCOL_DEFINITION ( 'international standard', 'config_control_design', 1994, #442 ) ;
#376 = DIRECTION ( 'NONE',  ( 0.1370521391469147754, 0.000000000000000000, -0.9905638349724135150 ) ) ;
#377 = PERSON ( 'UNSPECIFIED', 'UNSPECIFIED', 'UNSPECIFIED', ('UNSPECIFIED'), ('UNSPECIFIED'), ('UNSPECIFIED') ) ;
#378 = VECTOR ( 'NONE', #121, 999.9999999999998863 ) ;
#379 = VECTOR ( 'NONE', #766, 999.9999999999998863 ) ;
#380 = CIRCLE ( 'NONE', #515, 3.468749999999999112 ) ;
#381 = CARTESIAN_POINT ( 'NONE',  ( -2.089672202890739960, -9.277185723478948987, -2.714222269148429678 ) ) ;
#382 = CARTESIAN_POINT ( 'NONE',  ( -39.44247349601654662, 3.968750000000000000, -4.046071135192705448 ) ) ;
#383 = ORIENTED_EDGE ( 'NONE', *, *, #394, .F. ) ;
#384 = CC_DESIGN_PERSON_AND_ORGANIZATION_ASSIGNMENT ( #274, #514, ( #524 ) ) ;
#385 = DIRECTION ( 'NONE',  ( -0.9579343461956248973, -0.2545497466254084684, -0.1325375979550741934 ) ) ;
#386 = ORIENTED_EDGE ( 'NONE', *, *, #581, .F. ) ;
#387 = VERTEX_POINT ( 'NONE', #76 ) ;
#388 = PERSON_AND_ORGANIZATION_ROLE ( 'creator' ) ;
#389 = DIRECTION ( 'NONE',  ( 0.9905638349724136260, 0.000000000000000000, 0.1370521391469135819 ) ) ;
#390 = APPROVAL_PERSON_ORGANIZATION ( #649, #698, #150 ) ;
#391 = VERTEX_POINT ( 'NONE', #80 ) ;
#392 = LINE ( 'NONE', #627, #583 ) ;
#393 = DIRECTION ( 'NONE',  ( 0.1370521391469133321, 4.163336342344332713E-17, -0.9905638349724136260 ) ) ;
#394 = EDGE_CURVE ( 'NONE', #712, #295, #149, .T. ) ;
#395 = ORIENTED_EDGE ( 'NONE', *, *, #562, .T. ) ;
#396 = SECURITY_CLASSIFICATION_LEVEL ( 'unclassified' ) ;
#397 = FACE_OUTER_BOUND ( 'NONE', #763, .T. ) ;
#398 = ORIENTED_EDGE ( 'NONE', *, *, #655, .F. ) ;
#399 = UNCERTAINTY_MEASURE_WITH_UNIT (LENGTH_MEASURE( 1.000000000000000082E-05 ), #255, 'distance_accuracy_value', 'NONE');
#400 = LINE ( 'NONE', #38, #5 ) ;
#401 = DIRECTION ( 'NONE',  ( -0.9825784608107166473, -0.1267197682838521466, -0.1359473011020441435 ) ) ;
#402 = EDGE_CURVE ( 'NONE', #417, #254, #577, .T. ) ;
#403 = AXIS2_PLACEMENT_3D ( 'NONE', #457, #699, #224 ) ;
#404 = CARTESIAN_POINT ( 'NONE',  ( -42.35769366981880069, 3.968750000000000000, -8.285613315753730390 ) ) ;
#405 = CYLINDRICAL_SURFACE ( 'NONE', #462, 4.060119808809604436 ) ;
#406 = ORIENTED_EDGE ( 'NONE', *, *, #26, .T. ) ;
#407 = CARTESIAN_POINT ( 'NONE',  ( -38.92167536725824561, 3.968750000000000000, -7.810213708087869300 ) ) ;
#408 = DIRECTION ( 'NONE',  ( -0.9905638349724137370, 0.000000000000000000, -0.1370521391469131378 ) ) ;
#409 = ORIENTED_EDGE ( 'NONE', *, *, #539, .T. ) ;
#410 = CARTESIAN_POINT ( 'NONE',  ( -38.99020143683175377, 7.937500000000000000, -7.314931790601660211 ) ) ;
#411 = PLANE ( 'NONE',  #611 ) ;
#412 = DIRECTION ( 'NONE',  ( 0.1370521391469133321, 4.163336342344332713E-17, -0.9905638349724136260 ) ) ;
#413 = AXIS2_PLACEMENT_3D ( 'NONE', #86, #90, #334 ) ;
#414 = CARTESIAN_POINT ( 'NONE',  ( -42.71240803884855097, 8.673617379884030542E-16, 19.58784600771515017 ) ) ;
#415 = ADVANCED_FACE ( 'NONE', ( #580 ), #101, .T. ) ;
#416 = CIRCLE ( 'NONE', #451, 3.468749999999999112 ) ;
#417 = VERTEX_POINT ( 'NONE', #283 ) ;
#418 = DIRECTION ( 'NONE',  ( 0.9905638349724137370, 0.000000000000000000, 0.1370521391469131378 ) ) ;
#419 = CARTESIAN_POINT ( 'NONE',  ( -42.92150165687850460, 0.5000000000000000000, -7.858857467840979716 ) ) ;
#420 = ORIENTED_EDGE ( 'NONE', *, *, #643, .F. ) ;
#421 = EDGE_CURVE ( 'NONE', #182, #712, #525, .T. ) ;
#422 = CARTESIAN_POINT ( 'NONE',  ( -38.99020143683175377, 8.673617379884030542E-16, -7.314931790601669093 ) ) ;
#423 = DIRECTION ( 'NONE',  ( 0.1370521391469129713, 0.000000000000000000, -0.9905638349724137370 ) ) ;
#424 = ORIENTED_EDGE ( 'NONE', *, *, #471, .F. ) ;
#425 = ORIENTED_EDGE ( 'NONE', *, *, #751, .F. ) ;
#426 = EDGE_CURVE ( 'NONE', #453, #216, #572, .T. ) ;
#427 = DIRECTION ( 'NONE',  ( 0.1370521391469133599, 0.000000000000000000, -0.9905638349724137370 ) ) ;
#428 = DIRECTION ( 'NONE',  ( 0.9905638349724135150, 0.000000000000000000, 0.1370521391469147476 ) ) ;
#429 = ORGANIZATION ( 'UNSPECIFIED', 'UNSPECIFIED', '' ) ;
#430 = EDGE_LOOP ( 'NONE', ( #740, #398, #512, #640 ) ) ;
#431 = AXIS2_PLACEMENT_3D ( 'NONE', #68, #178, #244 ) ;
#432 = ORIENTED_EDGE ( 'NONE', *, *, #276, .F. ) ;
#433 = CARTESIAN_POINT ( 'NONE',  ( -2.610470331649009879, -9.277185723478948987, 1.049920303746744166 ) ) ;
#434 = ORIENTED_EDGE ( 'NONE', *, *, #402, .F. ) ;
#435 = DIRECTION ( 'NONE',  ( 0.1370521391469129435, 0.000000000000000000, -0.9905638349724137370 ) ) ;
#436 = DIRECTION ( 'NONE',  ( -0.1370521391469131378, 0.000000000000000000, 0.9905638349724136260 ) ) ;
#437 = ORIENTED_EDGE ( 'NONE', *, *, #131, .F. ) ;
#438 = FACE_OUTER_BOUND ( 'NONE', #322, .T. ) ;
#440 = ADVANCED_FACE ( 'NONE', ( #291 ), #227, .F. ) ;
#439 = AXIS2_PLACEMENT_3D ( 'NONE', #566, #257, #502 ) ;
#441 = ORIENTED_EDGE ( 'NONE', *, *, #320, .T. ) ;
#442 = APPLICATION_CONTEXT ( 'configuration controlled 3d designs of mechanical parts and assemblies' ) ;
#443 = CIRCLE ( 'NONE', #239, 3.468749999999999112 ) ;
#444 = DIRECTION ( 'NONE',  ( -0.9905638349724136260, 0.000000000000000000, -0.1370521391469133599 ) ) ;
#445 = VERTEX_POINT ( 'NONE', #410 ) ;
#446 = DIRECTION ( 'NONE',  ( 0.1370521391469133599, 0.000000000000000000, -0.9905638349724137370 ) ) ;
#447 = ORIENTED_EDGE ( 'NONE', *, *, #260, .F. ) ;
#448 = DIRECTION ( 'NONE',  ( 0.000000000000000000, -1.000000000000000000, 0.000000000000000000 ) ) ;
#449 = ORIENTED_EDGE ( 'NONE', *, *, #362, .T. ) ;
#450 = VECTOR ( 'NONE', #593, 999.9999999999998863 ) ;
#451 = AXIS2_PLACEMENT_3D ( 'NONE', #407, #642, #729 ) ;
#452 = LINE ( 'NONE', #93, #2 ) ;
#453 = VERTEX_POINT ( 'NONE', #350 ) ;
#454 = VERTEX_POINT ( 'NONE', #104 ) ;
#455 = CARTESIAN_POINT ( 'NONE',  ( -38.92167536725824561, 3.968750000000000000, -7.810213708087879958 ) ) ;
#456 = DIRECTION ( 'NONE',  ( -0.1370521391469152195, 0.000000000000000000, 0.9905638349724134040 ) ) ;
#457 = CARTESIAN_POINT ( 'NONE',  ( -39.44247349601654662, 3.968750000000000000, -4.046071135192705448 ) ) ;
#458 = DIRECTION ( 'NONE',  ( 0.000000000000000000, -1.000000000000000000, 0.000000000000000000 ) ) ;
#459 = CC_DESIGN_PERSON_AND_ORGANIZATION_ASSIGNMENT ( #209, #528, ( #524 ) ) ;
#460 = VECTOR ( 'NONE', #555, 999.9999999999998863 ) ;
#461 = CARTESIAN_POINT ( 'NONE',  ( -26.82540426080885254, 7.437500000000000000, 17.99107130606945049 ) ) ;
#462 = AXIS2_PLACEMENT_3D ( 'NONE', #226, #294, #463 ) ;
#463 = DIRECTION ( 'NONE',  ( -0.9905638349724135150, 0.000000000000000000, -0.1370521391469134431 ) ) ;
#464 = FACE_OUTER_BOUND ( 'NONE', #165, .T. ) ;
#465 = DIRECTION ( 'NONE',  ( -0.9905638349724136260, 0.000000000000000000, -0.1370521391469134709 ) ) ;
#466 = ORIENTED_EDGE ( 'NONE', *, *, #684, .F. ) ;
#467 = CARTESIAN_POINT ( 'NONE',  ( 0.6124134579326671046, 2.237832166577080173, -2.340367897628429894 ) ) ;
#468 = LINE ( 'NONE', #769, #500 ) ;
#469 = CARTESIAN_POINT ( 'NONE',  ( -42.19722149286949531, 7.937500000000000000, 15.86426194775279797 ) ) ;
#470 = CIRCLE ( 'NONE', #237, 3.968750000000004885 ) ;
#471 = EDGE_CURVE ( 'NONE', #708, #41, #202, .T. ) ;
#472 = FACE_OUTER_BOUND ( 'NONE', #304, .T. ) ;
#473 = CIRCLE ( 'NONE', #299, 0.4999999999999985567 ) ;
#474 = ORIENTED_EDGE ( 'NONE', *, *, #508, .F. ) ;
#475 = PERSON_AND_ORGANIZATION_ROLE ( 'classification_officer' ) ;
#476 = CARTESIAN_POINT ( 'NONE',  ( -40.70161281829560096, 1.001697375780427945, -8.056481769367499268 ) ) ;
#477 = CARTESIAN_POINT ( 'NONE',  ( 0.09161532917439670076, 2.237832166577080173, 1.423774675266739953 ) ) ;
#478 = EDGE_CURVE ( 'NONE', #497, #290, #341, .T. ) ;
#479 = DIRECTION ( 'NONE',  ( 0.9905638349724134040, 0.000000000000000000, 0.1370521391469147199 ) ) ;
#480 = CYLINDRICAL_SURFACE ( 'NONE', #300, 0.5000000000000002220 ) ;
#481 = SECURITY_CLASSIFICATION ( '', '', #396 ) ;
#482 = CARTESIAN_POINT ( 'NONE',  ( -42.26574756244294662, 0.5000000000000000000, 16.35954386523904702 ) ) ;
#483 = DIRECTION ( 'NONE',  ( 0.1370521391469133599, 0.000000000000000000, -0.9905638349724137370 ) ) ;
#484 = AXIS2_PLACEMENT_3D ( 'NONE', #128, #607, #27 ) ;
#485 = ORIENTED_EDGE ( 'NONE', *, *, #26, .F. ) ;
#486 = AXIS2_PLACEMENT_3D ( 'NONE', #710, #43, #221 ) ;
#487 = AXIS2_PLACEMENT_3D ( 'NONE', #102, #578, #465 ) ;
#488 = LINE ( 'NONE', #363, #378 ) ;
#489 = DIRECTION ( 'NONE',  ( 0.9905638349724134040, 0.000000000000000000, 0.1370521391469147199 ) ) ;
#490 = CALENDAR_DATE ( 2025, 15, 10 ) ;
#491 = ADVANCED_FACE ( 'NONE', ( #464 ), #343, .T. ) ;
#492 = CARTESIAN_POINT ( 'NONE',  ( 0.000000000000000000, 7.937500000000000000, 0.000000000000000000 ) ) ;
#493 = EDGE_LOOP ( 'NONE', ( #567, #474, #91, #680 ) ) ;
#494 = LINE ( 'NONE', #381, #328 ) ;
#495 = DIRECTION ( 'NONE',  ( 0.9905638349724137370, 0.000000000000000000, 0.1370521391469133599 ) ) ;
#496 = EDGE_CURVE ( 'NONE', #182, #290, #538, .T. ) ;
#497 = VERTEX_POINT ( 'NONE', #651 ) ;
#498 = AXIS2_PLACEMENT_3D ( 'NONE', #709, #42, #761 ) ;
#499 = ORIENTED_EDGE ( 'NONE', *, *, #426, .T. ) ;
#500 = VECTOR ( 'NONE', #697, 1000.000000000000227 ) ;
#501 = DATE_AND_TIME ( #506, #21 ) ;
#502 = DIRECTION ( 'NONE',  ( -0.9905638349724135150, 0.000000000000000000, -0.1370521391469130268 ) ) ;
#503 = ORIENTED_EDGE ( 'NONE', *, *, #591, .F. ) ;
#504 = ORIENTED_EDGE ( 'NONE', *, *, #307, .T. ) ;
#505 = EDGE_CURVE ( 'NONE', #666, #557, #400, .T. ) ;
#506 = CALENDAR_DATE ( 2025, 15, 10 ) ;
#507 = LINE ( 'NONE', #206, #311 ) ;
#508 = EDGE_CURVE ( 'NONE', #78, #666, #380, .T. ) ;
#509 = DIRECTION ( 'NONE',  ( -0.9579343461956250083, 0.2545497466254080243, -0.1325375979550741934 ) ) ;
#510 = FACE_OUTER_BOUND ( 'NONE', #148, .T. ) ;
#511 = ORIENTED_EDGE ( 'NONE', *, *, #394, .T. ) ;
#512 = ORIENTED_EDGE ( 'NONE', *, *, #529, .T. ) ;
#513 = AXIS2_PLACEMENT_3D ( 'NONE', #192, #479, #664 ) ;
#514 = PERSON_AND_ORGANIZATION_ROLE ( 'design_supplier' ) ;
#515 = AXIS2_PLACEMENT_3D ( 'NONE', #765, #412, #109 ) ;
#516 = DIRECTION ( 'NONE',  ( 0.9905638349724135150, 0.000000000000000000, 0.1370521391469136097 ) ) ;
#517 = EDGE_CURVE ( 'NONE', #36, #391, #542, .T. ) ;
#518 = DIRECTION ( 'NONE',  ( -0.1370521391469135541, 0.000000000000000000, 0.9905638349724136260 ) ) ;
#519 = PRODUCT_RELATED_PRODUCT_CATEGORY ( 'detail', '', ( #127 ) ) ;
#520 = DIRECTION ( 'NONE',  ( -0.9579343461956248973, -0.2545497466254084684, -0.1325375979550741934 ) ) ;
#521 = MANIFOLD_SOLID_BREP ( 'NONE', #526 ) ;
#522 = LINE ( 'NONE', #100, #584 ) ;
#523 = ORIENTED_EDGE ( 'NONE', *, *, #6, .T. ) ;
#524 = PRODUCT_DEFINITION_FORMATION_WITH_SPECIFIED_SOURCE ( 'ANY', '', #127, .NOT_KNOWN. ) ;
#525 = LINE ( 'NONE', #220, #735 ) ;
#526 = CLOSED_SHELL ( 'NONE', ( #52, #297, #183, #74, #440, #598, #700, #554, #193, #285, #235, #491, #415, #141, #218, #705, #107, #122, #222, #250, #358, #369, #338 ) ) ;
#527 = DIRECTION ( 'NONE',  ( 0.9905638349724136260, 0.000000000000000000, 0.1370521391469131378 ) ) ;
#528 = PERSON_AND_ORGANIZATION_ROLE ( 'creator' ) ;
#529 = EDGE_CURVE ( 'NONE', #594, #303, #638, .T. ) ;
#530 = DIRECTION ( 'NONE',  ( 0.1370521391469133321, 4.163336342344332713E-17, -0.9905638349724136260 ) ) ;
#531 = CARTESIAN_POINT ( 'NONE',  ( -42.19722149286949531, 7.437500000000000000, 15.86426194775279797 ) ) ;
#532 = EDGE_LOOP ( 'NONE', ( #130, #758, #663, #152 ) ) ;
#533 = CC_DESIGN_PERSON_AND_ORGANIZATION_ASSIGNMENT ( #262, #388, ( #242 ) ) ;
#534 = DIRECTION ( 'NONE',  ( -0.9676487102442357102, 0.2523013546588033784, 0.000000000000000000 ) ) ;
#535 = CARTESIAN_POINT ( 'NONE',  ( -40.90350111292099911, 0.8983355130284329526, -4.248215563628299662 ) ) ;
#536 = EDGE_LOOP ( 'NONE', ( #208, #273, #434, #574 ) ) ;
#537 = LINE ( 'NONE', #657, #275 ) ;
#538 = CIRCLE ( 'NONE', #650, 3.174999999996611866 ) ;
#539 = EDGE_CURVE ( 'NONE', #557, #712, #635, .T. ) ;
#540 = CARTESIAN_POINT ( 'NONE',  ( -24.24937336764850215, 0.000000000000000000, -5.275424644921660189 ) ) ;
#541 = AXIS2_PLACEMENT_3D ( 'NONE', #253, #609, #723 ) ;
#542 = CIRCLE ( 'NONE', #198, 3.468749999999999556 ) ;
#543 = DIRECTION ( 'NONE',  ( 0.9905638349724135150, 0.000000000000000000, 0.1370521391469147476 ) ) ;
#544 = CYLINDRICAL_SURFACE ( 'NONE', #57, 0.5000000000000002220 ) ;
#545 = ORIENTED_EDGE ( 'NONE', *, *, #562, .F. ) ;
#546 = LINE ( 'NONE', #768, #353 ) ;
#547 = DIRECTION ( 'NONE',  ( -0.9905638349724135150, 0.000000000000000000, -0.1370521391469136097 ) ) ;
#548 = ORIENTED_EDGE ( 'NONE', *, *, #754, .F. ) ;
#549 = DIRECTION ( 'NONE',  ( -0.9905638349724137370, 0.000000000000000000, -0.1370521391469133599 ) ) ;
#550 = CARTESIAN_POINT ( 'NONE',  ( -23.61838420477105061, 0.000000000000000000, -5.188122432285079633 ) ) ;
#551 = ORIENTED_EDGE ( 'NONE', *, *, #6, .F. ) ;
#552 = CIRCLE ( 'NONE', #176, 3.468749999999999556 ) ;
#553 = VECTOR ( 'NONE', #495, 999.9999999999998863 ) ;
#554 = ADVANCED_FACE ( 'NONE', ( #154 ), #753, .F. ) ;
#555 = DIRECTION ( 'NONE',  ( -0.1370521391469131378, -7.413348187935067670E-17, 0.9905638349724137370 ) ) ;
#556 = DIRECTION ( 'NONE',  ( 0.000000000000000000, 1.000000000000000000, 0.000000000000000000 ) ) ;
#557 = VERTEX_POINT ( 'NONE', #404 ) ;
#558 = EDGE_CURVE ( 'NONE', #51, #417, #473, .T. ) ;
#559 = CARTESIAN_POINT ( 'NONE',  ( 0.000000000000000000, 0.000000000000000000, 0.000000000000000000 ) ) ;
#560 = PERSON_AND_ORGANIZATION_ROLE ( 'design_owner' ) ;
#561 = DIRECTION ( 'NONE',  ( 0.1370521391469133321, 4.163336342344332713E-17, -0.9905638349724136260 ) ) ;
#562 = EDGE_CURVE ( 'NONE', #103, #654, #416, .T. ) ;
#563 = ORIENTED_EDGE ( 'NONE', *, *, #636, .F. ) ;
#564 = VECTOR ( 'NONE', #14, 999.9999999999998863 ) ;
#565 = APPLICATION_PROTOCOL_DEFINITION ( 'international standard', 'config_control_design', 1994, #318 ) ;
#566 = CARTESIAN_POINT ( 'NONE',  ( -29.21954835742594625, 3.968750000000074607, -6.467849678606030217 ) ) ;
#567 = ORIENTED_EDGE ( 'NONE', *, *, #505, .F. ) ;
#568 = EDGE_CURVE ( 'NONE', #391, #254, #50, .T. ) ;
#569 = APPROVAL_DATE_TIME ( #333, #279 ) ;
#570 = CARTESIAN_POINT ( 'NONE',  ( -40.90350111292099911, 7.039164486971720258, -4.248215563628299662 ) ) ;
#571 = EDGE_LOOP ( 'NONE', ( #504, #621, #424, #23 ) ) ;
#572 = LINE ( 'NONE', #467, #99 ) ;
#573 = CC_DESIGN_APPROVAL ( #31, ( #524 ) ) ;
#574 = ORIENTED_EDGE ( 'NONE', *, *, #668, .T. ) ;
#575 = AXIS2_PLACEMENT_3D ( 'NONE', #433, #117, #534 ) ;
#576 = AXIS2_PLACEMENT_3D ( 'NONE', #272, #676, #17 ) ;
#577 = LINE ( 'NONE', #634, #586 ) ;
#578 = DIRECTION ( 'NONE',  ( 0.1370521391469133321, 4.163336342344332713E-17, -0.9905638349724136260 ) ) ;
#579 = ORIENTED_EDGE ( 'NONE', *, *, #718, .F. ) ;
#580 = FACE_OUTER_BOUND ( 'NONE', #690, .T. ) ;
#581 = EDGE_CURVE ( 'NONE', #617, #445, #722, .T. ) ;
#582 = LOCAL_TIME ( 14, 56, 55.00000000000000000, #630 ) ;
#583 = VECTOR ( 'NONE', #271, 999.9999999999998863 ) ;
#584 = VECTOR ( 'NONE', #408, 999.9999999999998863 ) ;
#585 = DIRECTION ( 'NONE',  ( 0.1370521391469133321, 4.163336342344332713E-17, -0.9905638349724136260 ) ) ;
#586 = VECTOR ( 'NONE', #47, 1000.000000000000000 ) ;
#587 = CARTESIAN_POINT ( 'NONE',  ( -38.99020143683175377, 3.968750000000000000, -7.314931790601669093 ) ) ;
#588 = EDGE_LOOP ( 'NONE', ( #659, #162, #551, #18 ) ) ;
#589 = CYLINDRICAL_SURFACE ( 'NONE', #145, 0.5000000000000002220 ) ;
#590 = ORIENTED_EDGE ( 'NONE', *, *, #335, .T. ) ;
#591 = EDGE_CURVE ( 'NONE', #610, #103, #56, .T. ) ;
#592 = CYLINDRICAL_SURFACE ( 'NONE', #248, 3.174999999996611866 ) ;
#593 = DIRECTION ( 'NONE',  ( 0.9905638349724137370, 0.000000000000000000, 0.1370521391469131378 ) ) ;
#594 = VERTEX_POINT ( 'NONE', #293 ) ;
#595 = DATE_AND_TIME ( #692, #364 ) ;
#596 = CARTESIAN_POINT ( 'NONE',  ( -42.26574756244294662, 7.437500000000000000, 16.35954386523904702 ) ) ;
#598 = ADVANCED_FACE ( 'NONE', ( #661 ), #234, .F. ) ;
#597 = AXIS2_PLACEMENT_3D ( 'NONE', #672, #600, #305 ) ;
#599 = CYLINDRICAL_SURFACE ( 'NONE', #312, 3.174999999996611866 ) ;
#600 = DIRECTION ( 'NONE',  ( 0.1370521391469137484, 0.000000000000000000, -0.9905638349724136260 ) ) ;
#601 = DIRECTION ( 'NONE',  ( 0.1370521391469147754, 0.000000000000000000, -0.9905638349724135150 ) ) ;
#602 = ORIENTED_EDGE ( 'NONE', *, *, #112, .T. ) ;
#603 = DIRECTION ( 'NONE',  ( 0.9905638349724137370, 0.000000000000000000, 0.1370521391469133599 ) ) ;
#604 = CARTESIAN_POINT ( 'NONE',  ( -42.19722149286949531, 0.5000000000000000000, 15.86426194775279797 ) ) ;
#605 = VERTEX_POINT ( 'NONE', #185 ) ;
#606 = EDGE_CURVE ( 'NONE', #92, #617, #174, .T. ) ;
#607 = DIRECTION ( 'NONE',  ( 0.9905638349724135150, 0.000000000000000000, 0.1370521391469152472 ) ) ;
#608 = AXIS2_PLACEMENT_3D ( 'NONE', #706, #344, #32 ) ;
#609 = DIRECTION ( 'NONE',  ( -0.1370521391469133321, 0.000000000000000000, 0.9905638349724136260 ) ) ;
#610 = VERTEX_POINT ( 'NONE', #422 ) ;
#611 = AXIS2_PLACEMENT_3D ( 'NONE', #356, #527, #458 ) ;
#612 = AXIS2_PLACEMENT_3D ( 'NONE', #455, #756, #696 ) ;
#613 = EDGE_CURVE ( 'NONE', #34, #78, #251, .T. ) ;
#614 = COORDINATED_UNIVERSAL_TIME_OFFSET ( 5, 0, .BEHIND. ) ;
#615 = CYLINDRICAL_SURFACE ( 'NONE', #132, 3.468749999999999112 ) ;
#616 = ORIENTED_EDGE ( 'NONE', *, *, #421, .F. ) ;
#617 = VERTEX_POINT ( 'NONE', #469 ) ;
#618 = EDGE_CURVE ( 'NONE', #605, #139, #537, .T. ) ;
#619 = CARTESIAN_POINT ( 'NONE',  ( -42.19722149286949531, 8.673617379884030542E-16, 15.86426194775279797 ) ) ;
#620 = ORIENTED_EDGE ( 'NONE', *, *, #558, .T. ) ;
#621 = ORIENTED_EDGE ( 'NONE', *, *, #744, .F. ) ;
#622 = CALENDAR_DATE ( 2025, 15, 10 ) ;
#623 = CARTESIAN_POINT ( 'NONE',  ( -4.545965770942800077, 16.70037085876684912, 0.7821295961729159973 ) ) ;
#624 = ORIENTED_EDGE ( 'NONE', *, *, #694, .T. ) ;
#625 = VERTEX_POINT ( 'NONE', #240 ) ;
#626 = CIRCLE ( 'NONE', #487, 3.174999999996611866 ) ;
#627 = CARTESIAN_POINT ( 'NONE',  ( -26.06212869539305288, 2.326709321983835288, -2.194797332631770015 ) ) ;
#628 = DIRECTION ( 'NONE',  ( -0.9905638349724137370, 0.000000000000000000, -0.1370521391469126937 ) ) ;
#629 = ORIENTED_EDGE ( 'NONE', *, *, #348, .F. ) ;
#630 = COORDINATED_UNIVERSAL_TIME_OFFSET ( 5, 0, .BEHIND. ) ;
#631 = LINE ( 'NONE', #151, #679 ) ;
#632 = ORIENTED_EDGE ( 'NONE', *, *, #643, .T. ) ;
#633 = EDGE_CURVE ( 'NONE', #295, #454, #546, .T. ) ;
#634 = CARTESIAN_POINT ( 'NONE',  ( -26.89393033038230030, 7.437500000000000000, 18.48635322355560007 ) ) ;
#635 = CIRCLE ( 'NONE', #612, 3.468749999999999556 ) ;
#636 = EDGE_CURVE ( 'NONE', #387, #139, #360, .T. ) ;
#637 = CIRCLE ( 'NONE', #486, 0.5000000000000002220 ) ;
#638 = LINE ( 'NONE', #752, #158 ) ;
#639 = FACE_OUTER_BOUND ( 'NONE', #571, .T. ) ;
#640 = ORIENTED_EDGE ( 'NONE', *, *, #64, .T. ) ;
#641 = ORIENTED_EDGE ( 'NONE', *, *, #633, .T. ) ;
#642 = DIRECTION ( 'NONE',  ( 0.1370521391469131378, 0.000000000000000000, -0.9905638349724136260 ) ) ;
#643 = EDGE_CURVE ( 'NONE', #497, #453, #488, .T. ) ;
#644 = DIRECTION ( 'NONE',  ( 0.9905638349724137370, 0.000000000000000000, 0.1370521391469131378 ) ) ;
#645 = ORIENTED_EDGE ( 'NONE', *, *, #362, .F. ) ;
#646 = DIRECTION ( 'NONE',  ( 0.1370521391469133599, 0.000000000000000000, -0.9905638349724137370 ) ) ;
#647 = DIRECTION ( 'NONE',  ( -0.9905638349724135150, 0.000000000000000000, -0.1370521391469152472 ) ) ;
#648 = ORIENTED_EDGE ( 'NONE', *, *, #39, .T. ) ;
#649 = PERSON_AND_ORGANIZATION ( #377, #429 ) ;
#650 = AXIS2_PLACEMENT_3D ( 'NONE', #286, #530, #231 ) ;
#651 = CARTESIAN_POINT ( 'NONE',  ( -39.67301216572394651, 7.366139556797720367, -4.077967936513304359 ) ) ;
#652 = CIRCLE ( 'NONE', #439, 4.060119808809607989 ) ;
#653 = CARTESIAN_POINT ( 'NONE',  ( -41.22241094705390196, 1.001697375780427945, -4.292339196472339857 ) ) ;
#654 = VERTEX_POINT ( 'NONE', #476 ) ;
#655 = EDGE_CURVE ( 'NONE', #594, #111, #53, .T. ) ;
#656 = ORIENTED_EDGE ( 'NONE', *, *, #79, .F. ) ;
#657 = CARTESIAN_POINT ( 'NONE',  ( -39.67301216572394651, 0.5713604432024320667, -4.077967936513309688 ) ) ;
#658 = FACE_OUTER_BOUND ( 'NONE', #161, .T. ) ;
#659 = ORIENTED_EDGE ( 'NONE', *, *, #636, .T. ) ;
#660 = CC_DESIGN_DATE_AND_TIME_ASSIGNMENT ( #501, #75, ( #242 ) ) ;
#661 = FACE_OUTER_BOUND ( 'NONE', #532, .T. ) ;
#662 = PLANE ( 'NONE',  #134 ) ;
#663 = ORIENTED_EDGE ( 'NONE', *, *, #10, .F. ) ;
#664 = DIRECTION ( 'NONE',  ( 0.1370521391469147754, 0.000000000000000000, -0.9905638349724135150 ) ) ;
#665 = FACE_OUTER_BOUND ( 'NONE', #733, .T. ) ;
#666 = VERTEX_POINT ( 'NONE', #308 ) ;
#667 = DIRECTION ( 'NONE',  ( -0.9905638349724136260, 0.000000000000000000, -0.1370521391469131656 ) ) ;
#668 = EDGE_CURVE ( 'NONE', #417, #36, #189, .T. ) ;
#669 = CARTESIAN_POINT ( 'NONE',  ( -42.71240803884855097, 3.968750000000000000, 19.58784600771515017 ) ) ;
#670 = VERTEX_POINT ( 'NONE', #58 ) ;
#671 = ORIENTED_EDGE ( 'NONE', *, *, #581, .T. ) ;
#672 = CARTESIAN_POINT ( 'NONE',  ( -42.19722149286949531, 3.968750000000000000, 15.86426194775279797 ) ) ;
#673 = CARTESIAN_POINT ( 'NONE',  ( -40.10293193298434744, 3.968750000000074607, -4.137450648968904687 ) ) ;
#674 = ORIENTED_EDGE ( 'NONE', *, *, #505, .T. ) ;
#675 = MECHANICAL_CONTEXT ( 'NONE', #442, 'mechanical' ) ;
#676 = DIRECTION ( 'NONE',  ( 0.1370521391469131378, 4.163336342344334561E-17, -0.9905638349724136260 ) ) ;
#677 = EDGE_LOOP ( 'NONE', ( #204, #219, #184, #238 ) ) ;
#678 = AXIS2_PLACEMENT_3D ( 'NONE', #492, #325, #336 ) ;
#679 = VECTOR ( 'NONE', #268, 999.9999999999998863 ) ;
#680 = ORIENTED_EDGE ( 'NONE', *, *, #167, .T. ) ;
#681 = CARTESIAN_POINT ( 'NONE',  ( -27.45639342368625080, 7.937500000000000000, 17.90376909343285305 ) ) ;
#682 = EDGE_LOOP ( 'NONE', ( #317, #229, #30, #747, #620, #728, #207, #175 ) ) ;
#683 = EDGE_LOOP ( 'NONE', ( #169, #359, #310, #337 ) ) ;
#684 = EDGE_CURVE ( 'NONE', #708, #216, #371, .T. ) ;
#685 = CARTESIAN_POINT ( 'NONE',  ( -40.38270298416269810, 0.8983355130284329526, -8.012358136523468843 ) ) ;
#686 = DIRECTION ( 'NONE',  ( 0.000000000000000000, 0.000000000000000000, -1.000000000000000000 ) ) ;
#687 = ORIENTED_EDGE ( 'NONE', *, *, #131, .T. ) ;
#688 = EDGE_LOOP ( 'NONE', ( #266, #332, #548, #77 ) ) ;
#689 = DIRECTION ( 'NONE',  ( -0.9905638349724136260, 0.000000000000000000, -0.1370521391469134709 ) ) ;
#690 = EDGE_LOOP ( 'NONE', ( #437, #212, #282, #485 ) ) ;
#691 = AXIS2_PLACEMENT_3D ( 'NONE', #4, #252, #667 ) ;
#692 = CALENDAR_DATE ( 2025, 15, 10 ) ;
#693 = CARTESIAN_POINT ( 'NONE',  ( -42.71240803884855097, 3.968750000000000000, 19.58784600771515017 ) ) ;
#694 = EDGE_CURVE ( 'NONE', #497, #708, #715, .T. ) ;
#695 = ADVANCED_BREP_SHAPE_REPRESENTATION ( 'ctrlSurf_modif_printable', ( #521, #759 ), #119 ) ;
#696 = DIRECTION ( 'NONE',  ( -0.9905638349724135150, 0.000000000000000000, -0.1370521391469136097 ) ) ;
#697 = DIRECTION ( 'NONE',  ( -0.9579343461956250083, 0.2545497466254080243, -0.1325375979550741934 ) ) ;
#698 = APPROVAL ( #113, 'UNSPECIFIED' ) ;
#699 = DIRECTION ( 'NONE',  ( 0.1370521391469133321, 0.000000000000000000, -0.9905638349724136260 ) ) ;
#700 = ADVANCED_FACE ( 'NONE', ( #720 ), #592, .F. ) ;
#701 = AXIS2_PLACEMENT_3D ( 'NONE', #604, #489, #194 ) ;
#702 = DIRECTION ( 'NONE',  ( 0.9905638349724135150, 0.000000000000000000, 0.1370521391469152472 ) ) ;
#703 = CARTESIAN_POINT ( 'NONE',  ( -46.12852171291630299, 3.968750000000000000, 15.32033627051350066 ) ) ;
#704 = ORIENTED_EDGE ( 'NONE', *, *, #606, .T. ) ;
#705 = ADVANCED_FACE ( 'NONE', ( #296 ), #589, .T. ) ;
#706 = CARTESIAN_POINT ( 'NONE',  ( -38.99020143683175377, 3.968750000000000000, -7.314931790601669093 ) ) ;
#707 = CARTESIAN_POINT ( 'NONE',  ( -26.82540426080885254, 7.937500000000000000, 17.99107130606945049 ) ) ;
#708 = VERTEX_POINT ( 'NONE', #243 ) ;
#709 = CARTESIAN_POINT ( 'NONE',  ( 0.2607028232281289881, 7.437500000000000000, -1.884266746746414922 ) ) ;
#710 = CARTESIAN_POINT ( 'NONE',  ( -38.99020143683175377, 7.437500000000000000, -7.314931790601660211 ) ) ;
#711 = LOCAL_TIME ( 14, 56, 55.00000000000000000, #205 ) ;
#712 = VERTEX_POINT ( 'NONE', #144 ) ;
#713 = COORDINATED_UNIVERSAL_TIME_OFFSET ( 5, 0, .BEHIND. ) ;
#714 = VECTOR ( 'NONE', #114, 1000.000000000000000 ) ;
#715 = LINE ( 'NONE', #355, #225 ) ;
#716 = AXIS2_PLACEMENT_3D ( 'NONE', #44, #106, #347 ) ;
#717 = FACE_OUTER_BOUND ( 'NONE', #683, .T. ) ;
#718 = EDGE_CURVE ( 'NONE', #749, #51, #267, .T. ) ;
#719 = ORIENTED_EDGE ( 'NONE', *, *, #471, .T. ) ;
#720 = FACE_OUTER_BOUND ( 'NONE', #677, .T. ) ;
#721 = CARTESIAN_POINT ( 'NONE',  ( -25.54133056663479806, 5.610790678016320143, -5.958939905526939640 ) ) ;
#722 = LINE ( 'NONE', #725, #136 ) ;
#723 = DIRECTION ( 'NONE',  ( 0.9905638349724137370, 0.000000000000000000, 0.1370521391469133321 ) ) ;
#724 = VERTEX_POINT ( 'NONE', #685 ) ;
#725 = CARTESIAN_POINT ( 'NONE',  ( -42.71240803884855097, 7.937500000000000000, 19.58784600771515017 ) ) ;
#726 = CARTESIAN_POINT ( 'NONE',  ( -23.61838420477105061, 0.5000000000000000000, -5.188122432285079633 ) ) ;
#727 = VECTOR ( 'NONE', #483, 999.9999999999998863 ) ;
#728 = ORIENTED_EDGE ( 'NONE', *, *, #402, .T. ) ;
#729 = DIRECTION ( 'NONE',  ( 0.9905638349724136260, 0.000000000000000000, 0.1370521391469131101 ) ) ;
#730 = DIRECTION ( 'NONE',  ( 0.000000000000000000, 1.000000000000000000, 0.000000000000000000 ) ) ;
#731 = CARTESIAN_POINT ( 'NONE',  ( -23.61838420477105061, 7.937500000000000000, -5.188122432285079633 ) ) ;
#732 = PLANE ( 'NONE',  #313 ) ;
#733 = EDGE_LOOP ( 'NONE', ( #386, #449, #579, #687 ) ) ;
#734 = CARTESIAN_POINT ( 'NONE',  ( 0.000000000000000000, 0.000000000000000000, 0.000000000000000000 ) ) ;
#735 = VECTOR ( 'NONE', #646, 999.9999999999998863 ) ;
#736 = CARTESIAN_POINT ( 'NONE',  ( -42.19722149286949531, 3.968750000000000000, 15.86426194775279797 ) ) ;
#737 = ORIENTED_EDGE ( 'NONE', *, *, #276, .T. ) ;
#738 = PERSON_AND_ORGANIZATION ( #377, #429 ) ;
#739 = DIRECTION ( 'NONE',  ( 0.1370521391469133321, 0.000000000000000000, -0.9905638349724136260 ) ) ;
#740 = ORIENTED_EDGE ( 'NONE', *, *, #116, .T. ) ;
#741 = APPROVAL_DATE_TIME ( #82, #31 ) ;
#742 = CARTESIAN_POINT ( 'NONE',  ( -40.38270298416269810, 7.039164486971720258, -8.012358136523468843 ) ) ;
#743 = ORIENTED_EDGE ( 'NONE', *, *, #478, .T. ) ;
#744 = EDGE_CURVE ( 'NONE', #41, #387, #392, .T. ) ;
#745 = LINE ( 'NONE', #681, #553 ) ;
#746 = AXIS2_PLACEMENT_3D ( 'NONE', #157, #585, #166 ) ;
#747 = ORIENTED_EDGE ( 'NONE', *, *, #718, .T. ) ;
#748 = VECTOR ( 'NONE', #762, 1000.000000000000000 ) ;
#749 = VERTEX_POINT ( 'NONE', #731 ) ;
#750 = AXIS2_PLACEMENT_3D ( 'NONE', #321, #142, #84 ) ;
#751 = EDGE_CURVE ( 'NONE', #139, #724, #494, .T. ) ;
#752 = CARTESIAN_POINT ( 'NONE',  ( -2.946317232809649855, 0.000000000000000000, 21.29492699160810076 ) ) ;
#753 = CYLINDRICAL_SURFACE ( 'NONE', #403, 3.468749999999999112 ) ;
#754 = EDGE_CURVE ( 'NONE', #254, #594, #287, .T. ) ;
#755 = ORIENTED_EDGE ( 'NONE', *, *, #85, .F. ) ;
#756 = DIRECTION ( 'NONE',  ( 0.1370521391469133321, 4.163336342344332713E-17, -0.9905638349724136260 ) ) ;
#757 = LINE ( 'NONE', #535, #46 ) ;
#758 = ORIENTED_EDGE ( 'NONE', *, *, #59, .F. ) ;
#759 = AXIS2_PLACEMENT_3D ( 'NONE', #734, #329, #319 ) ;
#760 = CIRCLE ( 'NONE', #120, 0.4999999999999985567 ) ;
#761 = DIRECTION ( 'NONE',  ( -0.1370521391469131656, 0.000000000000000000, 0.9905638349724137370 ) ) ;
#762 = DIRECTION ( 'NONE',  ( 0.000000000000000000, 1.000000000000000000, 0.000000000000000000 ) ) ;
#763 = EDGE_LOOP ( 'NONE', ( #367, #590, #602, #29 ) ) ;
#764 = APPROVAL_DATE_TIME ( #97, #698 ) ;
#765 = CARTESIAN_POINT ( 'NONE',  ( -39.44247349601654662, 3.968750000000000000, -4.046071135192705448 ) ) ;
#766 = DIRECTION ( 'NONE',  ( 0.1370521391469131378, 0.000000000000000000, -0.9905638349724137370 ) ) ;
#767 = ORIENTED_EDGE ( 'NONE', *, *, #606, .F. ) ;
#768 = CARTESIAN_POINT ( 'NONE',  ( -42.85297558730505330, 7.437500000000000000, -8.354139385327179923 ) ) ;
#769 = CARTESIAN_POINT ( 'NONE',  ( -2.610470331649009879, -9.277185723478948987, 1.049920303746744166 ) ) ;
ENDSEC;
END-ISO-10303-21;
