ISO-10303-21;
HEADER;
FILE_DESCRIPTION (( 'STEP AP203' ),
    '1' );
FILE_NAME ('sanding_jig.STEP',
    '2025-10-15T19:55:23',
    ( '' ),
    ( '' ),
    'SwSTEP 2.0',
    'SolidWorks 2025',
    '' );
FILE_SCHEMA (( 'CONFIG_CONTROL_DESIGN' ));
ENDSEC;

DATA;
#1 = APPLICATION_CONTEXT ( 'configuration controlled 3d designs of mechanical parts and assemblies' ) ;
#2 = EDGE_CURVE ( 'NONE', #495, #12, #387, .T. ) ;
#3 = LINE ( 'NONE', #98, #154 ) ;
#4 = CARTESIAN_POINT ( 'NONE',  ( -5.566558216065530473, 4.750000000000003553, 32.50000000000000000 ) ) ;
#5 = VECTOR ( 'NONE', #132, 1000.000000000000000 ) ;
#6 = CARTESIAN_POINT ( 'NONE',  ( 16.92820323027567753, 9.999999999999998224, 50.00000000000000000 ) ) ;
#7 = CARTESIAN_POINT ( 'NONE',  ( -5.566558216065536691, 3.250000000000003109, 17.50000000000000000 ) ) ;
#8 = CARTESIAN_POINT ( 'NONE',  ( -5.931863652578191370, 3.250000000000003109, 0.000000000000000000 ) ) ;
#9 = VECTOR ( 'NONE', #383, 1000.000000000000000 ) ;
#10 = CARTESIAN_POINT ( 'NONE',  ( 16.92820323027567753, -1.820863463046238806, 50.00000000000000000 ) ) ;
#11 = DIRECTION ( 'NONE',  ( 0.000000000000000000, -1.000000000000000000, -0.000000000000000000 ) ) ;
#12 = VERTEX_POINT ( 'NONE', #434 ) ;
#13 = VERTEX_POINT ( 'NONE', #291 ) ;
#14 = CARTESIAN_POINT ( 'NONE',  ( -5.566558216065530473, 4.750000000000003553, 32.50000000000000000 ) ) ;
#15 = VERTEX_POINT ( 'NONE', #393 ) ;
#16 = LINE ( 'NONE', #72, #234 ) ;
#17 = LINE ( 'NONE', #219, #509 ) ;
#18 = ADVANCED_FACE ( 'NONE', ( #239 ), #534, .F. ) ;
#19 = EDGE_CURVE ( 'NONE', #381, #372, #538, .T. ) ;
#20 = ORIENTED_EDGE ( 'NONE', *, *, #254, .T. ) ;
#21 = DIRECTION ( 'NONE',  ( -0.2588190451025180194, 0.9659258262890690894, 0.000000000000000000 ) ) ;
#22 = APPROVAL_PERSON_ORGANIZATION ( #130, #389, #511 ) ;
#23 = CARTESIAN_POINT ( 'NONE',  ( 3.233299737333490409, 0.000000000000000000, 32.50000000000000000 ) ) ;
#24 = ORIENTED_EDGE ( 'NONE', *, *, #158, .F. ) ;
#25 = VERTEX_POINT ( 'NONE', #196 ) ;
#26 = ORIENTED_EDGE ( 'NONE', *, *, #273, .T. ) ;
#27 = ORIENTED_EDGE ( 'NONE', *, *, #355, .T. ) ;
#28 = ORIENTED_EDGE ( 'NONE', *, *, #133, .T. ) ;
#29 = APPROVAL_DATE_TIME ( #281, #389 ) ;
#30 = AXIS2_PLACEMENT_3D ( 'NONE', #81, #518, #287 ) ;
#31 = VERTEX_POINT ( 'NONE', #193 ) ;
#32 = ORIENTED_EDGE ( 'NONE', *, *, #50, .T. ) ;
#33 = APPLICATION_PROTOCOL_DEFINITION ( 'international standard', 'config_control_design', 1994, #595 ) ;
#34 = PLANE ( 'NONE',  #608 ) ;
#35 = FACE_OUTER_BOUND ( 'NONE', #417, .T. ) ;
#36 = CARTESIAN_POINT ( 'NONE',  ( 0.8705904774487273068, 3.249087894424342426, 17.50000000000000000 ) ) ;
#37 = VECTOR ( 'NONE', #439, 1000.000000000000000 ) ;
#38 = CIRCLE ( 'NONE', #588, 10.00000000000000000 ) ;
#39 = DIRECTION ( 'NONE',  ( -0.000000000000000000, -0.000000000000000000, -1.000000000000000000 ) ) ;
#40 = EDGE_CURVE ( 'NONE', #375, #468, #3, .T. ) ;
#41 = DIRECTION ( 'NONE',  ( 1.000000000000000000, 0.000000000000000000, 0.000000000000000000 ) ) ;
#42 = EDGE_CURVE ( 'NONE', #79, #232, #390, .T. ) ;
#43 = CARTESIAN_POINT ( 'NONE',  ( -5.931863652578191370, 3.250000000000003109, 32.50000000000000000 ) ) ;
#44 = DATE_AND_TIME ( #96, #153 ) ;
#45 = DIRECTION ( 'NONE',  ( -0.000000000000000000, 0.000000000000000000, 1.000000000000000000 ) ) ;
#46 = ORIENTED_EDGE ( 'NONE', *, *, #204, .T. ) ;
#47 = CARTESIAN_POINT ( 'NONE',  ( 0.000000000000000000, 0.000000000000000000, 50.00000000000000000 ) ) ;
#48 = CC_DESIGN_APPROVAL ( #209, ( #102 ) ) ;
#49 = CIRCLE ( 'NONE', #288, 1.000000000000000888 ) ;
#50 = EDGE_CURVE ( 'NONE', #127, #375, #436, .T. ) ;
#51 = CARTESIAN_POINT ( 'NONE',  ( 15.92820323027567575, 9.820863463046253017, 50.00000000000000000 ) ) ;
#52 = DIRECTION ( 'NONE',  ( -0.000000000000000000, 0.000000000000000000, 1.000000000000000000 ) ) ;
#53 = LINE ( 'NONE', #203, #237 ) ;
#54 = CARTESIAN_POINT ( 'NONE',  ( 0.8671864530984930708, 3.250000000000003109, 50.00000000000000000 ) ) ;
#55 = DIRECTION ( 'NONE',  ( -1.000000000000000000, -2.168404344971008868E-16, 0.000000000000000000 ) ) ;
#56 = DIRECTION ( 'NONE',  ( 0.000000000000000000, -0.000000000000000000, -1.000000000000000000 ) ) ;
#57 = EDGE_CURVE ( 'NONE', #113, #372, #570, .T. ) ;
#58 = AXIS2_PLACEMENT_3D ( 'NONE', #141, #563, #147 ) ;
#59 = FACE_OUTER_BOUND ( 'NONE', #418, .T. ) ;
#60 = DIRECTION ( 'NONE',  ( -1.000000000000000000, 0.000000000000000000, 0.000000000000000000 ) ) ;
#61 = ORIENTED_EDGE ( 'NONE', *, *, #2, .F. ) ;
#62 = VECTOR ( 'NONE', #396, 1000.000000000000000 ) ;
#63 = CARTESIAN_POINT ( 'NONE',  ( 16.92820323027567753, 9.820863463046253017, 50.00000000000000000 ) ) ;
#64 = ORIENTED_EDGE ( 'NONE', *, *, #411, .T. ) ;
#65 = EDGE_LOOP ( 'NONE', ( #74, #592, #333, #32, #235, #214 ) ) ;
#66 = FACE_OUTER_BOUND ( 'NONE', #505, .T. ) ;
#67 = EDGE_CURVE ( 'NONE', #131, #115, #49, .T. ) ;
#68 = ADVANCED_FACE ( 'NONE', ( #242 ), #529, .T. ) ;
#69 = AXIS2_PLACEMENT_3D ( 'NONE', #159, #404, #494 ) ;
#70 = DIRECTION ( 'NONE',  ( -1.000000000000000000, 0.000000000000000000, 0.000000000000000000 ) ) ;
#71 = VECTOR ( 'NONE', #475, 1000.000000000000000 ) ;
#72 = CARTESIAN_POINT ( 'NONE',  ( 0.000000000000000000, 10.00000000000000000, 0.000000000000000000 ) ) ;
#73 = LINE ( 'NONE', #271, #142 ) ;
#74 = ORIENTED_EDGE ( 'NONE', *, *, #42, .F. ) ;
#75 = ORIENTED_EDGE ( 'NONE', *, *, #386, .F. ) ;
#76 = VERTEX_POINT ( 'NONE', #296 ) ;
#77 = ORIENTED_EDGE ( 'NONE', *, *, #363, .T. ) ;
#78 = LINE ( 'NONE', #36, #519 ) ;
#79 = VERTEX_POINT ( 'NONE', #351 ) ;
#80 = CALENDAR_DATE ( 2025, 15, 10 ) ;
#81 = CARTESIAN_POINT ( 'NONE',  ( 4.336808689942016750E-16, -1.999999999999999556, 50.00000000000000000 ) ) ;
#82 = ORIENTED_EDGE ( 'NONE', *, *, #320, .F. ) ;
#83 = CARTESIAN_POINT ( 'NONE',  ( -5.931851652578191469, 4.000000000000000000, 0.000000000000000000 ) ) ;
#84 = AXIS2_PLACEMENT_3D ( 'NONE', #306, #148, #152 ) ;
#85 = ADVANCED_FACE ( 'NONE', ( #337 ), #524, .T. ) ;
#86 = ADVANCED_FACE ( 'NONE', ( #151 ), #628, .T. ) ;
#87 = ORIENTED_EDGE ( 'NONE', *, *, #302, .T. ) ;
#88 = APPROVAL_ROLE ( '' ) ;
#89 = CARTESIAN_POINT ( 'NONE',  ( -1.931851652578191247, 4.000000000000001776, 50.00000000000000000 ) ) ;
#90 = DIRECTION ( 'NONE',  ( -0.000000000000000000, -0.000000000000000000, 1.000000000000000000 ) ) ;
#91 = AXIS2_PLACEMENT_3D ( 'NONE', #480, #297, #380 ) ;
#92 = ORIENTED_EDGE ( 'NONE', *, *, #319, .F. ) ;
#93 = FACE_OUTER_BOUND ( 'NONE', #123, .T. ) ;
#94 = CARTESIAN_POINT ( 'NONE',  ( 3.233299737333489077, -2.000000000000000000, 50.00000000000000000 ) ) ;
#95 = DIRECTION ( 'NONE',  ( -1.000000000000000000, 0.000000000000000000, -0.000000000000000000 ) ) ;
#96 = CALENDAR_DATE ( 2025, 15, 10 ) ;
#97 = CARTESIAN_POINT ( 'NONE',  ( 3.233299737333486856, 8.000000000000001776, 32.50000000000000000 ) ) ;
#98 = CARTESIAN_POINT ( 'NONE',  ( -1.129409522551251710, 4.215013720713427503, 32.50000000000000000 ) ) ;
#99 = DATE_AND_TIME ( #292, #182 ) ;
#100 = DIRECTION ( 'NONE',  ( -0.9659258262890690894, -0.2588190451025180194, 0.000000000000000000 ) ) ;
#101 = DIRECTION ( 'NONE',  ( -0.000000000000000000, -0.000000000000000000, -1.000000000000000000 ) ) ;
#102 = SECURITY_CLASSIFICATION ( '', '', #476 ) ;
#103 = DIRECTION ( 'NONE',  ( 0.000000000000000000, 1.000000000000000000, -0.000000000000000000 ) ) ;
#104 = CARTESIAN_POINT ( 'NONE',  ( 0.000000000000000000, 0.000000000000000000, 0.000000000000000000 ) ) ;
#105 = VECTOR ( 'NONE', #101, 1000.000000000000000 ) ;
#106 = ADVANCED_FACE ( 'NONE', ( #579 ), #397, .F. ) ;
#107 = DIRECTION ( 'NONE',  ( -0.000000000000000000, -0.000000000000000000, 1.000000000000000000 ) ) ;
#108 = ORIENTED_EDGE ( 'NONE', *, *, #294, .F. ) ;
#109 = FACE_OUTER_BOUND ( 'NONE', #276, .T. ) ;
#110 = DIRECTION ( 'NONE',  ( -0.000000000000000000, -0.000000000000000000, 1.000000000000000000 ) ) ;
#111 = ORIENTED_EDGE ( 'NONE', *, *, #134, .T. ) ;
#112 = DIRECTION ( 'NONE',  ( 0.000000000000000000, 1.000000000000000000, -0.000000000000000000 ) ) ;
#113 = VERTEX_POINT ( 'NONE', #485 ) ;
#114 = EDGE_CURVE ( 'NONE', #220, #269, #53, .T. ) ;
#115 = VERTEX_POINT ( 'NONE', #63 ) ;
#116 = LINE ( 'NONE', #354, #206 ) ;
#117 = ORIENTED_EDGE ( 'NONE', *, *, #272, .F. ) ;
#118 = ORIENTED_EDGE ( 'NONE', *, *, #272, .T. ) ;
#119 = ADVANCED_FACE ( 'NONE', ( #161 ), #268, .T. ) ;
#120 = AXIS2_PLACEMENT_3D ( 'NONE', #104, #309, #305 ) ;
#121 = CARTESIAN_POINT ( 'NONE',  ( -5.931851652578191469, 4.000000000000000000, 50.00000000000000000 ) ) ;
#122 = EDGE_LOOP ( 'NONE', ( #314, #357, #325, #92, #75, #280, #82, #24 ) ) ;
#123 = EDGE_LOOP ( 'NONE', ( #28, #367, #547, #298, #606, #61 ) ) ;
#124 = CIRCLE ( 'NONE', #91, 9.999999999999998224 ) ;
#125 = CARTESIAN_POINT ( 'NONE',  ( -5.931863652578191370, 3.250000000000003109, 17.50000000000000000 ) ) ;
#126 = VERTEX_POINT ( 'NONE', #168 ) ;
#127 = VERTEX_POINT ( 'NONE', #14 ) ;
#128 = CC_DESIGN_DATE_AND_TIME_ASSIGNMENT ( #559, #516, ( #507 ) ) ;
#129 = VERTEX_POINT ( 'NONE', #10 ) ;
#130 = PERSON_AND_ORGANIZATION ( #374, #385 ) ;
#131 = VERTEX_POINT ( 'NONE', #265 ) ;
#132 = DIRECTION ( 'NONE',  ( 0.000000000000000000, 0.000000000000000000, -1.000000000000000000 ) ) ;
#133 = EDGE_CURVE ( 'NONE', #495, #360, #173, .T. ) ;
#134 = EDGE_CURVE ( 'NONE', #289, #520, #552, .T. ) ;
#135 = VECTOR ( 'NONE', #192, 1000.000000000000000 ) ;
#136 = VERTEX_POINT ( 'NONE', #316 ) ;
#137 = PERSON_AND_ORGANIZATION ( #374, #385 ) ;
#138 = CARTESIAN_POINT ( 'NONE',  ( 16.92820323027567753, 9.999999999999998224, 50.00000000000000000 ) ) ;
#139 = DIRECTION ( 'NONE',  ( 0.000000000000000000, 0.000000000000000000, -1.000000000000000000 ) ) ;
#140 = COORDINATED_UNIVERSAL_TIME_OFFSET ( 5, 0, .BEHIND. ) ;
#141 = CARTESIAN_POINT ( 'NONE',  ( 3.233299737333486856, 8.000000000000001776, 50.00000000000000000 ) ) ;
#142 = VECTOR ( 'NONE', #457, 1000.000000000000000 ) ;
#143 = DIRECTION ( 'NONE',  ( -0.9659258262890690894, -0.2588190451025180194, 0.000000000000000000 ) ) ;
#144 = DATE_TIME_ROLE ( 'classification_date' ) ;
#145 = DIRECTION ( 'NONE',  ( 0.9659258262890692004, -0.2588190451025174088, 0.000000000000000000 ) ) ;
#146 = DIRECTION ( 'NONE',  ( 0.000000000000000000, 0.000000000000000000, 1.000000000000000000 ) ) ;
#147 = DIRECTION ( 'NONE',  ( 1.000000000000000000, 0.000000000000000000, 0.000000000000000000 ) ) ;
#148 = DIRECTION ( 'NONE',  ( 0.000000000000000000, -1.000000000000000000, 0.000000000000000000 ) ) ;
#149 = VECTOR ( 'NONE', #145, 1000.000000000000000 ) ;
#150 = LINE ( 'NONE', #353, #346 ) ;
#151 = FACE_OUTER_BOUND ( 'NONE', #421, .T. ) ;
#152 = DIRECTION ( 'NONE',  ( 0.000000000000000000, -0.000000000000000000, -1.000000000000000000 ) ) ;
#153 = LOCAL_TIME ( 15, 55, 23.00000000000000000, #525 ) ;
#154 = VECTOR ( 'NONE', #143, 999.9999999999998863 ) ;
#155 = CARTESIAN_POINT ( 'NONE',  ( 16.92820323027567753, 0.000000000000000000, 50.00000000000000000 ) ) ;
#156 = DIRECTION ( 'NONE',  ( 1.000000000000000000, 0.000000000000000000, 0.000000000000000000 ) ) ;
#157 = EDGE_CURVE ( 'NONE', #238, #368, #585, .T. ) ;
#158 = EDGE_CURVE ( 'NONE', #284, #79, #409, .T. ) ;
#159 = CARTESIAN_POINT ( 'NONE',  ( 3.233299737333486856, 8.000000000000001776, 0.000000000000000000 ) ) ;
#160 = MANIFOLD_SOLID_BREP ( 'Fillet3', #188 ) ;
#161 = FACE_OUTER_BOUND ( 'NONE', #602, .T. ) ;
#162 = ORIENTED_EDGE ( 'NONE', *, *, #319, .T. ) ;
#163 = VECTOR ( 'NONE', #60, 1000.000000000000000 ) ;
#164 = LINE ( 'NONE', #359, #260 ) ;
#165 = EDGE_CURVE ( 'NONE', #381, #13, #402, .T. ) ;
#166 = ORIENTED_EDGE ( 'NONE', *, *, #451, .T. ) ;
#167 = PLANE ( 'NONE',  #466 ) ;
#168 = CARTESIAN_POINT ( 'NONE',  ( -1.931851652578191247, 4.000000000000001776, 17.50000000000000000 ) ) ;
#169 = ORIENTED_EDGE ( 'NONE', *, *, #165, .T. ) ;
#170 = ORIENTED_EDGE ( 'NONE', *, *, #294, .T. ) ;
#171 = CARTESIAN_POINT ( 'NONE',  ( 0.000000000000000000, 10.00000000000000000, 50.00000000000000000 ) ) ;
#172 = ORIENTED_EDGE ( 'NONE', *, *, #134, .F. ) ;
#173 = CIRCLE ( 'NONE', #537, 10.00000000000000000 ) ;
#174 = ORIENTED_EDGE ( 'NONE', *, *, #467, .F. ) ;
#175 = ORIENTED_EDGE ( 'NONE', *, *, #462, .F. ) ;
#176 = CIRCLE ( 'NONE', #58, 9.999999999999998224 ) ;
#177 = EDGE_CURVE ( 'NONE', #520, #136, #300, .T. ) ;
#178 = ORIENTED_EDGE ( 'NONE', *, *, #304, .T. ) ;
#179 = PERSON_AND_ORGANIZATION_ROLE ( 'creator' ) ;
#180 = CC_DESIGN_PERSON_AND_ORGANIZATION_ASSIGNMENT ( #342, #482, ( #102 ) ) ;
#181 = VERTEX_POINT ( 'NONE', #121 ) ;
#182 = LOCAL_TIME ( 15, 55, 23.00000000000000000, #140 ) ;
#183 = VECTOR ( 'NONE', #210, 1000.000000000000000 ) ;
#184 = ORIENTED_EDGE ( 'NONE', *, *, #428, .T. ) ;
#185 = EDGE_CURVE ( 'NONE', #126, #289, #261, .T. ) ;
#186 = CARTESIAN_POINT ( 'NONE',  ( -5.931851652578191469, 4.000000000000000000, 17.50000000000000000 ) ) ;
#187 = EDGE_CURVE ( 'NONE', #269, #238, #591, .T. ) ;
#188 = CLOSED_SHELL ( 'NONE', ( #119, #542, #106, #540, #18, #554, #574, #336, #86, #256, #68, #403, #85, #444, #560, #514 ) ) ;
#189 = ORIENTED_EDGE ( 'NONE', *, *, #584, .T. ) ;
#190 = FACE_OUTER_BOUND ( 'NONE', #122, .T. ) ;
#191 = CC_DESIGN_PERSON_AND_ORGANIZATION_ASSIGNMENT ( #137, #472, ( #308 ) ) ;
#192 = DIRECTION ( 'NONE',  ( 0.9659258262890690894, 0.2588190451025180194, 0.000000000000000000 ) ) ;
#193 = CARTESIAN_POINT ( 'NONE',  ( 16.18702227537818672, -0.8549376367571687174, 50.00000000000000000 ) ) ;
#194 = MECHANICAL_CONTEXT ( 'NONE', #595, 'mechanical' ) ;
#195 = DIRECTION ( 'NONE',  ( -0.9659258262890692004, 0.2588190451025173533, 0.000000000000000000 ) ) ;
#196 = CARTESIAN_POINT ( 'NONE',  ( 0.8671864530984692010, 3.250000000000006217, 17.50000000000000000 ) ) ;
#197 = CARTESIAN_POINT ( 'NONE',  ( -5.931863652578191370, 0.000000000000000000, 17.50000000000000000 ) ) ;
#198 = CARTESIAN_POINT ( 'NONE',  ( -5.931863652578191370, 4.750000000000003553, 0.000000000000000000 ) ) ;
#199 = LINE ( 'NONE', #473, #322 ) ;
#200 = VECTOR ( 'NONE', #90, 1000.000000000000000 ) ;
#201 = ORIENTED_EDGE ( 'NONE', *, *, #600, .T. ) ;
#202 = AXIS2_PLACEMENT_3D ( 'NONE', #477, #521, #572 ) ;
#203 = CARTESIAN_POINT ( 'NONE',  ( 16.92820323027567753, -2.000000000000000000, 50.00000000000000000 ) ) ;
#204 = EDGE_CURVE ( 'NONE', #76, #13, #116, .T. ) ;
#205 = DIRECTION ( 'NONE',  ( 0.000000000000000000, -0.000000000000000000, -1.000000000000000000 ) ) ;
#206 = VECTOR ( 'NONE', #548, 1000.000000000000000 ) ;
#207 = AXIS2_PLACEMENT_3D ( 'NONE', #345, #469, #483 ) ;
#208 = LINE ( 'NONE', #449, #327 ) ;
#209 = APPROVAL ( #394, 'UNSPECIFIED' ) ;
#210 = DIRECTION ( 'NONE',  ( 0.000000000000000000, 0.000000000000000000, 1.000000000000000000 ) ) ;
#211 = ORIENTED_EDGE ( 'NONE', *, *, #410, .T. ) ;
#212 = DIRECTION ( 'NONE',  ( 0.000000000000000000, 0.000000000000000000, -1.000000000000000000 ) ) ;
#213 = ORIENTED_EDGE ( 'NONE', *, *, #504, .T. ) ;
#214 = ORIENTED_EDGE ( 'NONE', *, *, #411, .F. ) ;
#215 = AXIS2_PLACEMENT_3D ( 'NONE', #313, #589, #489 ) ;
#216 = CARTESIAN_POINT ( 'NONE',  ( -5.566558216065536691, 3.250000000000003109, 17.50000000000000000 ) ) ;
#217 = ORIENTED_EDGE ( 'NONE', *, *, #363, .F. ) ;
#218 = CARTESIAN_POINT ( 'NONE',  ( 16.92820323027567753, 0.000000000000000000, 50.00000000000000000 ) ) ;
#219 = CARTESIAN_POINT ( 'NONE',  ( 16.92820323027567753, 9.820863463046253017, 50.00000000000000000 ) ) ;
#220 = VERTEX_POINT ( 'NONE', #498 ) ;
#221 = CC_DESIGN_APPROVAL ( #564, ( #507 ) ) ;
#222 = EDGE_LOOP ( 'NONE', ( #27, #162, #458, #609 ) ) ;
#223 = DIRECTION ( 'NONE',  ( -0.9659258262890690894, -0.2588190451025180194, 0.000000000000000000 ) ) ;
#224 = ORIENTED_EDGE ( 'NONE', *, *, #539, .F. ) ;
#225 = DIRECTION ( 'NONE',  ( 1.000000000000000000, 0.000000000000000000, 0.000000000000000000 ) ) ;
#226 = EDGE_CURVE ( 'NONE', #360, #284, #544, .T. ) ;
#227 = VERTEX_POINT ( 'NONE', #446 ) ;
#228 = ORIENTED_EDGE ( 'NONE', *, *, #601, .F. ) ;
#229 = CIRCLE ( 'NONE', #419, 1.000000000000000888 ) ;
#230 = EDGE_LOOP ( 'NONE', ( #111, #450, #117, #551, #447, #178, #224, #558, #170, #264 ) ) ;
#231 = APPLICATION_PROTOCOL_DEFINITION ( 'international standard', 'config_control_design', 1994, #1 ) ;
#232 = VERTEX_POINT ( 'NONE', #455 ) ;
#233 = EDGE_CURVE ( 'NONE', #115, #113, #17, .T. ) ;
#234 = VECTOR ( 'NONE', #593, 1000.000000000000000 ) ;
#235 = ORIENTED_EDGE ( 'NONE', *, *, #40, .T. ) ;
#236 = PERSON_AND_ORGANIZATION ( #374, #385 ) ;
#237 = VECTOR ( 'NONE', #39, 1000.000000000000000 ) ;
#238 = VERTEX_POINT ( 'NONE', #356 ) ;
#239 = FACE_OUTER_BOUND ( 'NONE', #278, .T. ) ;
#240 = DIRECTION ( 'NONE',  ( 0.000000000000000000, 1.000000000000000000, -0.000000000000000000 ) ) ;
#241 = CARTESIAN_POINT ( 'NONE',  ( -1.129409522551251710, 4.215013720713427503, 50.00000000000000000 ) ) ;
#242 = FACE_OUTER_BOUND ( 'NONE', #65, .T. ) ;
#243 = SHAPE_DEFINITION_REPRESENTATION ( #565, #523 ) ;
#244 = CARTESIAN_POINT ( 'NONE',  ( 0.8705904774487273068, 3.249087894424342426, 32.50000000000000000 ) ) ;
#245 =( NAMED_UNIT ( * ) SI_UNIT ( $, .STERADIAN. ) SOLID_ANGLE_UNIT ( ) );
#246 = EDGE_CURVE ( 'NONE', #227, #131, #208, .T. ) ;
#247 = DIRECTION ( 'NONE',  ( 0.000000000000000000, 0.000000000000000000, 1.000000000000000000 ) ) ;
#248 = APPROVAL_DATE_TIME ( #44, #209 ) ;
#249 = DIRECTION ( 'NONE',  ( -0.000000000000000000, -0.000000000000000000, -1.000000000000000000 ) ) ;
#250 = LINE ( 'NONE', #4, #105 ) ;
#251 = DIRECTION ( 'NONE',  ( 1.000000000000000000, 0.000000000000000000, 0.000000000000000000 ) ) ;
#252 = LINE ( 'NONE', #244, #315 ) ;
#253 = CARTESIAN_POINT ( 'NONE',  ( 15.92820323027567575, -1.820863463046238806, 50.00000000000000000 ) ) ;
#254 = EDGE_CURVE ( 'NONE', #368, #360, #312, .T. ) ;
#255 = AXIS2_PLACEMENT_3D ( 'NONE', #274, #459, #225 ) ;
#256 = ADVANCED_FACE ( 'NONE', ( #491 ), #442, .F. ) ;
#257 = DIRECTION ( 'NONE',  ( 1.000000000000000000, 0.000000000000000000, 0.000000000000000000 ) ) ;
#258 = DIRECTION ( 'NONE',  ( 0.000000000000000000, 0.000000000000000000, 1.000000000000000000 ) ) ;
#259 = CARTESIAN_POINT ( 'NONE',  ( -5.931851652578191469, 4.000000000000000000, 0.000000000000000000 ) ) ;
#260 = VECTOR ( 'NONE', #112, 1000.000000000000000 ) ;
#261 = LINE ( 'NONE', #596, #407 ) ;
#262 = PRODUCT ( 'sanding_jig', 'sanding_jig', '', ( #194 ) ) ;
#263 = DIRECTION ( 'NONE',  ( 0.9659258262890692004, -0.2588190451025174088, 0.000000000000000000 ) ) ;
#264 = ORIENTED_EDGE ( 'NONE', *, *, #504, .F. ) ;
#265 = CARTESIAN_POINT ( 'NONE',  ( 16.18702227537819738, 8.854937636757185260, 50.00000000000000000 ) ) ;
#266 = PLANE ( 'NONE',  #581 ) ;
#267 = AXIS2_PLACEMENT_3D ( 'NONE', #8, #11, #212 ) ;
#268 = PLANE ( 'NONE',  #215 ) ;
#269 = VERTEX_POINT ( 'NONE', #406 ) ;
#270 = DIRECTION ( 'NONE',  ( -1.000000000000000000, 0.000000000000000000, 0.000000000000000000 ) ) ;
#271 = CARTESIAN_POINT ( 'NONE',  ( 16.92820323027567753, 0.000000000000000000, 50.00000000000000000 ) ) ;
#272 = EDGE_CURVE ( 'NONE', #269, #136, #164, .T. ) ;
#273 = EDGE_CURVE ( 'NONE', #220, #129, #73, .T. ) ;
#274 = CARTESIAN_POINT ( 'NONE',  ( 0.000000000000000000, 0.000000000000000000, 0.000000000000000000 ) ) ;
#275 = ORIENTED_EDGE ( 'NONE', *, *, #304, .F. ) ;
#276 = EDGE_LOOP ( 'NONE', ( #118, #189, #330, #502 ) ) ;
#277 = DATE_AND_TIME ( #465, #486 ) ;
#278 = EDGE_LOOP ( 'NONE', ( #408, #463, #420, #412 ) ) ;
#279 = EDGE_CURVE ( 'NONE', #15, #127, #38, .T. ) ;
#280 = ORIENTED_EDGE ( 'NONE', *, *, #513, .F. ) ;
#281 = DATE_AND_TIME ( #80, #377 ) ;
#282 = VECTOR ( 'NONE', #349, 1000.000000000000000 ) ;
#283 = AXIS2_PLACEMENT_3D ( 'NONE', #253, #258, #301 ) ;
#284 = VERTEX_POINT ( 'NONE', #7 ) ;
#285 = COORDINATED_UNIVERSAL_TIME_OFFSET ( 5, 0, .BEHIND. ) ;
#286 = DIRECTION ( 'NONE',  ( 0.000000000000000000, 0.000000000000000000, -1.000000000000000000 ) ) ;
#287 = DIRECTION ( 'NONE',  ( 1.000000000000000000, 2.168404344971008868E-16, 0.000000000000000000 ) ) ;
#288 = AXIS2_PLACEMENT_3D ( 'NONE', #51, #399, #257 ) ;
#289 = VERTEX_POINT ( 'NONE', #587 ) ;
#290 = CARTESIAN_POINT ( 'NONE',  ( 3.233299737333489077, -1.999999999999998668, 0.000000000000000000 ) ) ;
#291 = CARTESIAN_POINT ( 'NONE',  ( 3.233299737333490409, 10.00000000000000000, 50.00000000000000000 ) ) ;
#292 = CALENDAR_DATE ( 2025, 15, 10 ) ;
#293 = DIRECTION ( 'NONE',  ( 0.000000000000000000, 0.000000000000000000, -1.000000000000000000 ) ) ;
#294 = EDGE_CURVE ( 'NONE', #113, #227, #229, .T. ) ;
#295 = LINE ( 'NONE', #54, #282 ) ;
#296 = CARTESIAN_POINT ( 'NONE',  ( 3.233299737333490409, 10.00000000000000000, 0.000000000000000000 ) ) ;
#297 = DIRECTION ( 'NONE',  ( 0.000000000000000000, -0.000000000000000000, -1.000000000000000000 ) ) ;
#298 = ORIENTED_EDGE ( 'NONE', *, *, #487, .T. ) ;
#299 = CARTESIAN_POINT ( 'NONE',  ( 16.92820323027567753, 0.000000000000000000, 50.00000000000000000 ) ) ;
#300 = CIRCLE ( 'NONE', #522, 1.000000000000000888 ) ;
#301 = DIRECTION ( 'NONE',  ( 1.000000000000000000, 0.000000000000000000, 0.000000000000000000 ) ) ;
#302 = EDGE_CURVE ( 'NONE', #415, #468, #400, .T. ) ;
#303 = DIRECTION ( 'NONE',  ( 0.000000000000000000, 0.000000000000000000, 1.000000000000000000 ) ) ;
#304 = EDGE_CURVE ( 'NONE', #368, #76, #124, .T. ) ;
#305 = DIRECTION ( 'NONE',  ( 1.000000000000000000, 0.000000000000000000, 0.000000000000000000 ) ) ;
#306 = CARTESIAN_POINT ( 'NONE',  ( 0.000000000000000000, 10.00000000000000000, 50.00000000000000000 ) ) ;
#307 = CC_DESIGN_PERSON_AND_ORGANIZATION_ASSIGNMENT ( #618, #334, ( #262 ) ) ;
#308 = PRODUCT_DEFINITION_FORMATION_WITH_SPECIFIED_SOURCE ( 'ANY', '', #262, .NOT_KNOWN. ) ;
#309 = DIRECTION ( 'NONE',  ( -0.000000000000000000, 0.000000000000000000, 1.000000000000000000 ) ) ;
#310 = DIRECTION ( 'NONE',  ( -0.000000000000000000, -0.000000000000000000, 1.000000000000000000 ) ) ;
#311 = AXIS2_PLACEMENT_3D ( 'NONE', #629, #45, #41 ) ;
#312 = LINE ( 'NONE', #259, #454 ) ;
#313 = CARTESIAN_POINT ( 'NONE',  ( 0.8705904774487273068, 3.249087894424342426, 50.00000000000000000 ) ) ;
#314 = ORIENTED_EDGE ( 'NONE', *, *, #226, .F. ) ;
#315 = VECTOR ( 'NONE', #195, 1000.000000000000114 ) ;
#316 = CARTESIAN_POINT ( 'NONE',  ( 16.92820323027567753, -1.820863463046238806, 0.000000000000000000 ) ) ;
#317 = ORIENTED_EDGE ( 'NONE', *, *, #600, .F. ) ;
#318 = ORIENTED_EDGE ( 'NONE', *, *, #487, .F. ) ;
#319 = EDGE_CURVE ( 'NONE', #562, #238, #535, .T. ) ;
#320 = EDGE_CURVE ( 'NONE', #79, #15, #490, .T. ) ;
#321 = DIRECTION ( 'NONE',  ( 0.000000000000000000, 0.000000000000000000, -1.000000000000000000 ) ) ;
#322 = VECTOR ( 'NONE', #623, 1000.000000000000000 ) ;
#323 = ORIENTED_EDGE ( 'NONE', *, *, #40, .F. ) ;
#324 = ORIENTED_EDGE ( 'NONE', *, *, #624, .F. ) ;
#325 = ORIENTED_EDGE ( 'NONE', *, *, #157, .F. ) ;
#326 = ORIENTED_EDGE ( 'NONE', *, *, #451, .F. ) ;
#327 = VECTOR ( 'NONE', #110, 1000.000000000000000 ) ;
#328 = EDGE_LOOP ( 'NONE', ( #174, #492, #597, #201 ) ) ;
#329 = APPROVAL_STATUS ( 'not_yet_approved' ) ;
#330 = ORIENTED_EDGE ( 'NONE', *, *, #273, .F. ) ;
#331 = COORDINATED_UNIVERSAL_TIME_OFFSET ( 5, 0, .BEHIND. ) ;
#332 = LINE ( 'NONE', #299, #527 ) ;
#333 = ORIENTED_EDGE ( 'NONE', *, *, #279, .T. ) ;
#334 = PERSON_AND_ORGANIZATION_ROLE ( 'design_owner' ) ;
#335 = CYLINDRICAL_SURFACE ( 'NONE', #202, 9.999999999999998224 ) ;
#336 = ADVANCED_FACE ( 'NONE', ( #626 ), #34, .T. ) ;
#337 = FACE_OUTER_BOUND ( 'NONE', #503, .T. ) ;
#338 = PERSON_AND_ORGANIZATION ( #374, #385 ) ;
#339 = LINE ( 'NONE', #526, #440 ) ;
#340 = AXIS2_PLACEMENT_3D ( 'NONE', #197, #293, #391 ) ;
#341 = CARTESIAN_POINT ( 'NONE',  ( 16.92820323027567753, 0.000000000000000000, 0.000000000000000000 ) ) ;
#342 = PERSON_AND_ORGANIZATION ( #374, #385 ) ;
#343 = LINE ( 'NONE', #125, #496 ) ;
#344 = CARTESIAN_POINT ( 'NONE',  ( -5.931863652578191370, 4.750000000000003553, 32.50000000000000000 ) ) ;
#345 = CARTESIAN_POINT ( 'NONE',  ( 15.92820323027567575, -1.820863463046238806, 50.00000000000000000 ) ) ;
#346 = VECTOR ( 'NONE', #303, 1000.000000000000000 ) ;
#347 = DIRECTION ( 'NONE',  ( 0.000000000000000000, -1.000000000000000000, -0.000000000000000000 ) ) ;
#348 = APPROVAL_PERSON_ORGANIZATION ( #338, #209, #530 ) ;
#349 = DIRECTION ( 'NONE',  ( 0.000000000000000000, 0.000000000000000000, -1.000000000000000000 ) ) ;
#350 = VECTOR ( 'NONE', #622, 1000.000000000000000 ) ;
#351 = CARTESIAN_POINT ( 'NONE',  ( -5.566558216065534026, 3.250000000000004441, 32.50000000000000000 ) ) ;
#352 = CARTESIAN_POINT ( 'NONE',  ( 15.92820323027567575, 9.820863463046253017, 0.000000000000000000 ) ) ;
#353 = CARTESIAN_POINT ( 'NONE',  ( -5.931851652578191469, 4.000000000000000000, 0.000000000000000000 ) ) ;
#354 = CARTESIAN_POINT ( 'NONE',  ( 3.233299737333490409, 10.00000000000000000, 50.00000000000000000 ) ) ;
#355 = EDGE_CURVE ( 'NONE', #220, #562, #199, .T. ) ;
#356 = CARTESIAN_POINT ( 'NONE',  ( 3.233299737333489077, -2.000000000000000000, 0.000000000000000000 ) ) ;
#357 = ORIENTED_EDGE ( 'NONE', *, *, #254, .F. ) ;
#358 = CARTESIAN_POINT ( 'NONE',  ( -1.931851652578191247, 4.000000000000001776, 32.50000000000000000 ) ) ;
#359 = CARTESIAN_POINT ( 'NONE',  ( 16.92820323027567753, 0.000000000000000000, 0.000000000000000000 ) ) ;
#360 = VERTEX_POINT ( 'NONE', #186 ) ;
#361 = DIRECTION ( 'NONE',  ( 1.000000000000000000, -3.469446951953611033E-15, 0.000000000000000000 ) ) ;
#362 = ORIENTED_EDGE ( 'NONE', *, *, #165, .F. ) ;
#363 = EDGE_CURVE ( 'NONE', #13, #181, #401, .T. ) ;
#364 = EDGE_CURVE ( 'NONE', #12, #126, #430, .T. ) ;
#365 = CARTESIAN_POINT ( 'NONE',  ( 16.18702227537818672, -0.8549376367571687174, 0.000000000000000000 ) ) ;
#366 = CARTESIAN_POINT ( 'NONE',  ( 3.233299737333490409, 0.000000000000000000, 17.50000000000000000 ) ) ;
#367 = ORIENTED_EDGE ( 'NONE', *, *, #226, .T. ) ;
#368 = VERTEX_POINT ( 'NONE', #83 ) ;
#369 = CYLINDRICAL_SURFACE ( 'NONE', #283, 1.000000000000000888 ) ;
#370 = AXIS2_PLACEMENT_3D ( 'NONE', #582, #139, #95 ) ;
#371 = ORIENTED_EDGE ( 'NONE', *, *, #177, .F. ) ;
#372 = VERTEX_POINT ( 'NONE', #395 ) ;
#373 = PLANE ( 'NONE',  #30 ) ;
#374 = PERSON ( 'UNSPECIFIED', 'UNSPECIFIED', 'UNSPECIFIED', ('UNSPECIFIED'), ('UNSPECIFIED'), ('UNSPECIFIED') ) ;
#375 = VERTEX_POINT ( 'NONE', #580 ) ;
#376 = PERSON_AND_ORGANIZATION ( #374, #385 ) ;
#377 = LOCAL_TIME ( 15, 55, 23.00000000000000000, #285 ) ;
#378 = VECTOR ( 'NONE', #55, 1000.000000000000000 ) ;
#379 = ORIENTED_EDGE ( 'NONE', *, *, #2, .T. ) ;
#380 = DIRECTION ( 'NONE',  ( 1.000000000000000000, 0.000000000000000000, 0.000000000000000000 ) ) ;
#381 = VERTEX_POINT ( 'NONE', #138 ) ;
#382 = PERSON_AND_ORGANIZATION ( #374, #385 ) ;
#383 = DIRECTION ( 'NONE',  ( 0.000000000000000000, 0.000000000000000000, -1.000000000000000000 ) ) ;
#384 = EDGE_CURVE ( 'NONE', #129, #31, #474, .T. ) ;
#385 = ORGANIZATION ( 'UNSPECIFIED', 'UNSPECIFIED', '' ) ;
#386 = EDGE_CURVE ( 'NONE', #181, #562, #176, .T. ) ;
#387 = LINE ( 'NONE', #586, #37 ) ;
#388 = CARTESIAN_POINT ( 'NONE',  ( -1.931851652578191247, 4.000000000000001776, 50.00000000000000000 ) ) ;
#389 = APPROVAL ( #329, 'UNSPECIFIED' ) ;
#390 = LINE ( 'NONE', #43, #71 ) ;
#391 = DIRECTION ( 'NONE',  ( -1.000000000000000000, 0.000000000000000000, -0.000000000000000000 ) ) ;
#392 = LINE ( 'NONE', #627, #62 ) ;
#393 = CARTESIAN_POINT ( 'NONE',  ( -5.931851652578191469, 4.000000000000000000, 32.50000000000000000 ) ) ;
#394 = APPROVAL_STATUS ( 'not_yet_approved' ) ;
#395 = CARTESIAN_POINT ( 'NONE',  ( 16.92820323027567753, 9.999999999999998224, 0.000000000000000000 ) ) ;
#396 = DIRECTION ( 'NONE',  ( 0.9659258262890690894, 0.2588190451025180194, 0.000000000000000000 ) ) ;
#397 = PLANE ( 'NONE',  #120 ) ;
#398 = AXIS2_PLACEMENT_3D ( 'NONE', #448, #416, #270 ) ;
#399 = DIRECTION ( 'NONE',  ( -0.000000000000000000, 0.000000000000000000, 1.000000000000000000 ) ) ;
#400 = LINE ( 'NONE', #89, #555 ) ;
#401 = CIRCLE ( 'NONE', #311, 9.999999999999998224 ) ;
#402 = LINE ( 'NONE', #171, #163 ) ;
#403 = ADVANCED_FACE ( 'NONE', ( #93 ), #427, .F. ) ;
#404 = DIRECTION ( 'NONE',  ( 0.000000000000000000, -0.000000000000000000, -1.000000000000000000 ) ) ;
#405 = CC_DESIGN_PERSON_AND_ORGANIZATION_ASSIGNMENT ( #236, #179, ( #507 ) ) ;
#406 = CARTESIAN_POINT ( 'NONE',  ( 16.92820323027567753, -2.000000000000000000, 0.000000000000000000 ) ) ;
#407 = VECTOR ( 'NONE', #550, 1000.000000000000000 ) ;
#408 = ORIENTED_EDGE ( 'NONE', *, *, #410, .F. ) ;
#409 = LINE ( 'NONE', #216, #183 ) ;
#410 = EDGE_CURVE ( 'NONE', #115, #381, #332, .T. ) ;
#411 = EDGE_CURVE ( 'NONE', #232, #468, #252, .T. ) ;
#412 = ORIENTED_EDGE ( 'NONE', *, *, #19, .F. ) ;
#413 = DIRECTION ( 'NONE',  ( 0.000000000000000000, 0.000000000000000000, -1.000000000000000000 ) ) ;
#414 = ORIENTED_EDGE ( 'NONE', *, *, #302, .F. ) ;
#415 = VERTEX_POINT ( 'NONE', #388 ) ;
#416 = DIRECTION ( 'NONE',  ( 0.000000000000000000, 0.000000000000000000, -1.000000000000000000 ) ) ;
#417 = EDGE_LOOP ( 'NONE', ( #567, #612, #371, #471 ) ) ;
#418 = EDGE_LOOP ( 'NONE', ( #508, #422, #108, #533 ) ) ;
#419 = AXIS2_PLACEMENT_3D ( 'NONE', #352, #205, #156 ) ;
#420 = ORIENTED_EDGE ( 'NONE', *, *, #57, .T. ) ;
#421 = EDGE_LOOP ( 'NONE', ( #546, #461, #379, #166 ) ) ;
#422 = ORIENTED_EDGE ( 'NONE', *, *, #246, .F. ) ;
#423 = ORIENTED_EDGE ( 'NONE', *, *, #204, .F. ) ;
#424 = CALENDAR_DATE ( 2025, 15, 10 ) ;
#425 = VECTOR ( 'NONE', #103, 1000.000000000000000 ) ;
#426 = ORIENTED_EDGE ( 'NONE', *, *, #364, .T. ) ;
#427 = PLANE ( 'NONE',  #340 ) ;
#428 = EDGE_CURVE ( 'NONE', #31, #520, #614, .T. ) ;
#429 = ORIENTED_EDGE ( 'NONE', *, *, #67, .T. ) ;
#430 = LINE ( 'NONE', #517, #445 ) ;
#431 = CC_DESIGN_DATE_AND_TIME_ASSIGNMENT ( #99, #144, ( #102 ) ) ;
#432 = ORIENTED_EDGE ( 'NONE', *, *, #355, .F. ) ;
#433 = LINE ( 'NONE', #576, #149 ) ;
#434 = CARTESIAN_POINT ( 'NONE',  ( 0.8671864530984766395, 4.749999999999999112, 17.50000000000000000 ) ) ;
#435 = DIRECTION ( 'NONE',  ( 1.000000000000000000, 0.000000000000000000, 0.000000000000000000 ) ) ;
#436 = LINE ( 'NONE', #344, #500 ) ;
#437 = CARTESIAN_POINT ( 'NONE',  ( 16.92820323027567753, -1.820863463046238806, 50.00000000000000000 ) ) ;
#438 =( GEOMETRIC_REPRESENTATION_CONTEXT ( 3 ) GLOBAL_UNCERTAINTY_ASSIGNED_CONTEXT ( ( #566 ) ) GLOBAL_UNIT_ASSIGNED_CONTEXT ( ( #478, #484, #245 ) ) REPRESENTATION_CONTEXT ( 'NONE', 'WORKASPACE' ) );
#439 = DIRECTION ( 'NONE',  ( 1.000000000000000000, -0.000000000000000000, -0.000000000000000000 ) ) ;
#440 = VECTOR ( 'NONE', #531, 1000.000000000000000 ) ;
#441 = CARTESIAN_POINT ( 'NONE',  ( -5.566558216065526921, 4.750000000000001776, 17.50000000000000000 ) ) ;
#442 = PLANE ( 'NONE',  #267 ) ;
#443 = AXIS2_PLACEMENT_3D ( 'NONE', #479, #247, #251 ) ;
#444 = ADVANCED_FACE ( 'NONE', ( #190 ), #335, .T. ) ;
#445 = VECTOR ( 'NONE', #100, 999.9999999999998863 ) ;
#446 = CARTESIAN_POINT ( 'NONE',  ( 16.18702227537819738, 8.854937636757185260, 0.000000000000000000 ) ) ;
#447 = ORIENTED_EDGE ( 'NONE', *, *, #157, .T. ) ;
#448 = CARTESIAN_POINT ( 'NONE',  ( 15.92820323027567575, 9.820863463046253017, 50.00000000000000000 ) ) ;
#449 = CARTESIAN_POINT ( 'NONE',  ( 16.18702227537819738, 8.854937636757185260, 50.00000000000000000 ) ) ;
#450 = ORIENTED_EDGE ( 'NONE', *, *, #177, .T. ) ;
#451 = EDGE_CURVE ( 'NONE', #12, #375, #339, .T. ) ;
#452 = DIRECTION ( 'NONE',  ( -1.000000000000000000, -3.197442310920450205E-14, 0.000000000000000000 ) ) ;
#453 = ORIENTED_EDGE ( 'NONE', *, *, #539, .T. ) ;
#454 = VECTOR ( 'NONE', #599, 1000.000000000000000 ) ;
#455 = CARTESIAN_POINT ( 'NONE',  ( 0.8671864530984692010, 3.250000000000006217, 32.50000000000000000 ) ) ;
#456 = CARTESIAN_POINT ( 'NONE',  ( -1.129409522551251710, 4.215013720713427503, 50.00000000000000000 ) ) ;
#457 = DIRECTION ( 'NONE',  ( 0.000000000000000000, 1.000000000000000000, -0.000000000000000000 ) ) ;
#458 = ORIENTED_EDGE ( 'NONE', *, *, #187, .F. ) ;
#459 = DIRECTION ( 'NONE',  ( 0.000000000000000000, 0.000000000000000000, 1.000000000000000000 ) ) ;
#460 = ORIENTED_EDGE ( 'NONE', *, *, #601, .T. ) ;
#461 = ORIENTED_EDGE ( 'NONE', *, *, #624, .T. ) ;
#462 = EDGE_CURVE ( 'NONE', #415, #31, #433, .T. ) ;
#463 = ORIENTED_EDGE ( 'NONE', *, *, #233, .T. ) ;
#464 = ORIENTED_EDGE ( 'NONE', *, *, #19, .T. ) ;
#465 = CALENDAR_DATE ( 2025, 15, 10 ) ;
#466 = AXIS2_PLACEMENT_3D ( 'NONE', #218, #603, #497 ) ;
#467 = EDGE_CURVE ( 'NONE', #284, #25, #343, .T. ) ;
#468 = VERTEX_POINT ( 'NONE', #358 ) ;
#469 = DIRECTION ( 'NONE',  ( -0.000000000000000000, 0.000000000000000000, 1.000000000000000000 ) ) ;
#470 = VECTOR ( 'NONE', #263, 1000.000000000000000 ) ;
#471 = ORIENTED_EDGE ( 'NONE', *, *, #428, .F. ) ;
#472 = PERSON_AND_ORGANIZATION_ROLE ( 'design_supplier' ) ;
#473 = CARTESIAN_POINT ( 'NONE',  ( 4.336808689942016750E-16, -1.999999999999999556, 50.00000000000000000 ) ) ;
#474 = CIRCLE ( 'NONE', #207, 1.000000000000000888 ) ;
#475 = DIRECTION ( 'NONE',  ( 1.000000000000000000, -0.000000000000000000, -0.000000000000000000 ) ) ;
#476 = SECURITY_CLASSIFICATION_LEVEL ( 'unclassified' ) ;
#477 = CARTESIAN_POINT ( 'NONE',  ( 3.233299737333486856, 8.000000000000001776, 0.000000000000000000 ) ) ;
#478 =( LENGTH_UNIT ( ) NAMED_UNIT ( * ) SI_UNIT ( .MILLI., .METRE. ) );
#479 = CARTESIAN_POINT ( 'NONE',  ( 3.233299737333490409, 0.000000000000000000, 0.000000000000000000 ) ) ;
#480 = CARTESIAN_POINT ( 'NONE',  ( 3.233299737333490409, 0.000000000000000000, 0.000000000000000000 ) ) ;
#481 = ORIENTED_EDGE ( 'NONE', *, *, #246, .T. ) ;
#482 = PERSON_AND_ORGANIZATION_ROLE ( 'classification_officer' ) ;
#483 = DIRECTION ( 'NONE',  ( 1.000000000000000000, 0.000000000000000000, 0.000000000000000000 ) ) ;
#484 =( NAMED_UNIT ( * ) PLANE_ANGLE_UNIT ( ) SI_UNIT ( $, .RADIAN. ) );
#485 = CARTESIAN_POINT ( 'NONE',  ( 16.92820323027567753, 9.820863463046253017, 0.000000000000000000 ) ) ;
#486 = LOCAL_TIME ( 15, 55, 23.00000000000000000, #506 ) ;
#487 = EDGE_CURVE ( 'NONE', #25, #126, #78, .T. ) ;
#488 = CARTESIAN_POINT ( 'NONE',  ( 15.92820323027567575, -1.820863463046238806, 0.000000000000000000 ) ) ;
#489 = DIRECTION ( 'NONE',  ( -0.9659258262890692004, 0.2588190451025174088, 0.000000000000000000 ) ) ;
#490 = CIRCLE ( 'NONE', #577, 10.00000000000000000 ) ;
#491 = FACE_OUTER_BOUND ( 'NONE', #328, .T. ) ;
#492 = ORIENTED_EDGE ( 'NONE', *, *, #158, .T. ) ;
#493 = EDGE_LOOP ( 'NONE', ( #26, #556, #175, #460, #429, #211, #169, #77, #553, #432 ) ) ;
#494 = DIRECTION ( 'NONE',  ( 1.000000000000000000, 0.000000000000000000, 0.000000000000000000 ) ) ;
#495 = VERTEX_POINT ( 'NONE', #441 ) ;
#496 = VECTOR ( 'NONE', #583, 1000.000000000000000 ) ;
#497 = DIRECTION ( 'NONE',  ( 0.000000000000000000, 0.000000000000000000, 1.000000000000000000 ) ) ;
#498 = CARTESIAN_POINT ( 'NONE',  ( 16.92820323027567753, -2.000000000000000000, 50.00000000000000000 ) ) ;
#499 = CC_DESIGN_SECURITY_CLASSIFICATION ( #102, ( #308 ) ) ;
#500 = VECTOR ( 'NONE', #575, 1000.000000000000000 ) ;
#501 = DIRECTION ( 'NONE',  ( -1.000000000000000000, 0.000000000000000000, 0.000000000000000000 ) ) ;
#502 = ORIENTED_EDGE ( 'NONE', *, *, #114, .T. ) ;
#503 = EDGE_LOOP ( 'NONE', ( #217, #423, #275, #20, #604, #324, #617, #611 ) ) ;
#504 = EDGE_CURVE ( 'NONE', #289, #227, #392, .T. ) ;
#505 = EDGE_LOOP ( 'NONE', ( #213, #481, #228, #87, #323, #326, #426, #515 ) ) ;
#506 = COORDINATED_UNIVERSAL_TIME_OFFSET ( 5, 0, .BEHIND. ) ;
#507 = PRODUCT_DEFINITION ( 'UNKNOWN', '', #308, #621 ) ;
#508 = ORIENTED_EDGE ( 'NONE', *, *, #67, .F. ) ;
#509 = VECTOR ( 'NONE', #413, 1000.000000000000000 ) ;
#510 = ORIENTED_EDGE ( 'NONE', *, *, #185, .F. ) ;
#511 = APPROVAL_ROLE ( '' ) ;
#512 = FACE_OUTER_BOUND ( 'NONE', #222, .T. ) ;
#513 = EDGE_CURVE ( 'NONE', #15, #181, #150, .T. ) ;
#514 = ADVANCED_FACE ( 'NONE', ( #59 ), #590, .T. ) ;
#515 = ORIENTED_EDGE ( 'NONE', *, *, #185, .T. ) ;
#516 = DATE_TIME_ROLE ( 'creation_date' ) ;
#517 = CARTESIAN_POINT ( 'NONE',  ( -1.129409522551251710, 4.215013720713427503, 17.50000000000000000 ) ) ;
#518 = DIRECTION ( 'NONE',  ( 2.168404344971008868E-16, -1.000000000000000000, 0.000000000000000000 ) ) ;
#519 = VECTOR ( 'NONE', #620, 1000.000000000000114 ) ;
#520 = VERTEX_POINT ( 'NONE', #365 ) ;
#521 = DIRECTION ( 'NONE',  ( 0.000000000000000000, 0.000000000000000000, 1.000000000000000000 ) ) ;
#522 = AXIS2_PLACEMENT_3D ( 'NONE', #488, #56, #361 ) ;
#523 = ADVANCED_BREP_SHAPE_REPRESENTATION ( 'sanding_jig', ( #160, #255 ), #438 ) ;
#524 = CYLINDRICAL_SURFACE ( 'NONE', #443, 9.999999999999998224 ) ;
#525 = COORDINATED_UNIVERSAL_TIME_OFFSET ( 5, 0, .BEHIND. ) ;
#526 = CARTESIAN_POINT ( 'NONE',  ( 0.8671864530985058384, 4.750000000000003553, 50.00000000000000000 ) ) ;
#527 = VECTOR ( 'NONE', #240, 1000.000000000000000 ) ;
#528 = PLANE ( 'NONE',  #84 ) ;
#529 = PLANE ( 'NONE',  #370 ) ;
#530 = APPROVAL_ROLE ( '' ) ;
#531 = DIRECTION ( 'NONE',  ( 0.000000000000000000, 0.000000000000000000, 1.000000000000000000 ) ) ;
#532 = LINE ( 'NONE', #437, #200 ) ;
#533 = ORIENTED_EDGE ( 'NONE', *, *, #233, .F. ) ;
#534 = PLANE ( 'NONE',  #616 ) ;
#535 = LINE ( 'NONE', #290, #9 ) ;
#536 = LINE ( 'NONE', #241, #135 ) ;
#537 = AXIS2_PLACEMENT_3D ( 'NONE', #366, #107, #452 ) ;
#538 = LINE ( 'NONE', #6, #350 ) ;
#539 = EDGE_CURVE ( 'NONE', #372, #76, #16, .T. ) ;
#540 = ADVANCED_FACE ( 'NONE', ( #109 ), #167, .F. ) ;
#541 = DIRECTION ( 'NONE',  ( 0.000000000000000000, 0.000000000000000000, -1.000000000000000000 ) ) ;
#542 = ADVANCED_FACE ( 'NONE', ( #66 ), #266, .F. ) ;
#543 = CARTESIAN_POINT ( 'NONE',  ( 3.233299737333486856, 8.000000000000001776, 17.50000000000000000 ) ) ;
#544 = CIRCLE ( 'NONE', #605, 10.00000000000000000 ) ;
#545 = CARTESIAN_POINT ( 'NONE',  ( 4.336808689942016750E-16, -1.999999999999999556, 0.000000000000000000 ) ) ;
#546 = ORIENTED_EDGE ( 'NONE', *, *, #50, .F. ) ;
#547 = ORIENTED_EDGE ( 'NONE', *, *, #467, .T. ) ;
#548 = DIRECTION ( 'NONE',  ( 0.000000000000000000, 0.000000000000000000, 1.000000000000000000 ) ) ;
#549 = EDGE_LOOP ( 'NONE', ( #453, #46, #362, #464 ) ) ;
#550 = DIRECTION ( 'NONE',  ( -0.000000000000000000, -0.000000000000000000, -1.000000000000000000 ) ) ;
#551 = ORIENTED_EDGE ( 'NONE', *, *, #187, .T. ) ;
#552 = LINE ( 'NONE', #594, #470 ) ;
#553 = ORIENTED_EDGE ( 'NONE', *, *, #386, .T. ) ;
#554 = ADVANCED_FACE ( 'NONE', ( #512 ), #373, .T. ) ;
#555 = VECTOR ( 'NONE', #249, 1000.000000000000000 ) ;
#556 = ORIENTED_EDGE ( 'NONE', *, *, #384, .T. ) ;
#557 = ORIENTED_EDGE ( 'NONE', *, *, #462, .T. ) ;
#558 = ORIENTED_EDGE ( 'NONE', *, *, #57, .F. ) ;
#559 = DATE_AND_TIME ( #424, #569 ) ;
#560 = ADVANCED_FACE ( 'NONE', ( #35 ), #369, .T. ) ;
#561 = CC_DESIGN_APPROVAL ( #389, ( #308 ) ) ;
#562 = VERTEX_POINT ( 'NONE', #94 ) ;
#563 = DIRECTION ( 'NONE',  ( -0.000000000000000000, 0.000000000000000000, 1.000000000000000000 ) ) ;
#564 = APPROVAL ( #571, 'UNSPECIFIED' ) ;
#565 = PRODUCT_DEFINITION_SHAPE ( 'NONE', 'NONE',  #507 ) ;
#566 = UNCERTAINTY_MEASURE_WITH_UNIT (LENGTH_MEASURE( 1.000000000000000082E-05 ), #478, 'distance_accuracy_value', 'NONE');
#567 = ORIENTED_EDGE ( 'NONE', *, *, #384, .F. ) ;
#568 = DIRECTION ( 'NONE',  ( -1.000000000000000000, 0.000000000000000000, 0.000000000000000000 ) ) ;
#569 = LOCAL_TIME ( 15, 55, 23.00000000000000000, #331 ) ;
#570 = LINE ( 'NONE', #341, #425 ) ;
#571 = APPROVAL_STATUS ( 'not_yet_approved' ) ;
#572 = DIRECTION ( 'NONE',  ( 1.000000000000000000, 0.000000000000000000, 0.000000000000000000 ) ) ;
#573 = FACE_OUTER_BOUND ( 'NONE', #549, .T. ) ;
#574 = ADVANCED_FACE ( 'NONE', ( #573 ), #528, .F. ) ;
#575 = DIRECTION ( 'NONE',  ( 1.000000000000000000, -0.000000000000000000, -0.000000000000000000 ) ) ;
#576 = CARTESIAN_POINT ( 'NONE',  ( 0.8705904774487273068, 3.249087894424342426, 50.00000000000000000 ) ) ;
#577 = AXIS2_PLACEMENT_3D ( 'NONE', #97, #286, #568 ) ;
#578 = PRODUCT_RELATED_PRODUCT_CATEGORY ( 'detail', '', ( #262 ) ) ;
#579 = FACE_OUTER_BOUND ( 'NONE', #230, .T. ) ;
#580 = CARTESIAN_POINT ( 'NONE',  ( 0.8671864530985038400, 4.750000000000003553, 32.50000000000000000 ) ) ;
#581 = AXIS2_PLACEMENT_3D ( 'NONE', #456, #21, #223 ) ;
#582 = CARTESIAN_POINT ( 'NONE',  ( -5.931863652578191370, 0.000000000000000000, 32.50000000000000000 ) ) ;
#583 = DIRECTION ( 'NONE',  ( 1.000000000000000000, -0.000000000000000000, -0.000000000000000000 ) ) ;
#584 = EDGE_CURVE ( 'NONE', #136, #129, #532, .T. ) ;
#585 = CIRCLE ( 'NONE', #69, 9.999999999999998224 ) ;
#586 = CARTESIAN_POINT ( 'NONE',  ( -5.931863652578191370, 4.750000000000003553, 17.50000000000000000 ) ) ;
#587 = CARTESIAN_POINT ( 'NONE',  ( -1.931851652578191247, 4.000000000000001776, 0.000000000000000000 ) ) ;
#588 = AXIS2_PLACEMENT_3D ( 'NONE', #23, #321, #501 ) ;
#589 = DIRECTION ( 'NONE',  ( 0.2588190451025174088, 0.9659258262890692004, -0.000000000000000000 ) ) ;
#590 = CYLINDRICAL_SURFACE ( 'NONE', #398, 1.000000000000000888 ) ;
#591 = LINE ( 'NONE', #545, #378 ) ;
#592 = ORIENTED_EDGE ( 'NONE', *, *, #320, .T. ) ;
#593 = DIRECTION ( 'NONE',  ( -1.000000000000000000, 0.000000000000000000, 0.000000000000000000 ) ) ;
#594 = CARTESIAN_POINT ( 'NONE',  ( 0.8705904774487273068, 3.249087894424342426, 0.000000000000000000 ) ) ;
#595 = APPLICATION_CONTEXT ( 'configuration controlled 3d designs of mechanical parts and assemblies' ) ;
#596 = CARTESIAN_POINT ( 'NONE',  ( -1.931851652578191247, 4.000000000000001776, 50.00000000000000000 ) ) ;
#597 = ORIENTED_EDGE ( 'NONE', *, *, #42, .T. ) ;
#598 = APPROVAL_PERSON_ORGANIZATION ( #376, #564, #88 ) ;
#599 = DIRECTION ( 'NONE',  ( 0.000000000000000000, 0.000000000000000000, 1.000000000000000000 ) ) ;
#600 = EDGE_CURVE ( 'NONE', #232, #25, #295, .T. ) ;
#601 = EDGE_CURVE ( 'NONE', #415, #131, #536, .T. ) ;
#602 = EDGE_LOOP ( 'NONE', ( #557, #184, #172, #510, #318, #317, #64, #414 ) ) ;
#603 = DIRECTION ( 'NONE',  ( -1.000000000000000000, 0.000000000000000000, 0.000000000000000000 ) ) ;
#604 = ORIENTED_EDGE ( 'NONE', *, *, #133, .F. ) ;
#605 = AXIS2_PLACEMENT_3D ( 'NONE', #543, #310, #70 ) ;
#606 = ORIENTED_EDGE ( 'NONE', *, *, #364, .F. ) ;
#607 = CC_DESIGN_PERSON_AND_ORGANIZATION_ASSIGNMENT ( #382, #613, ( #308 ) ) ;
#608 = AXIS2_PLACEMENT_3D ( 'NONE', #47, #52, #435 ) ;
#609 = ORIENTED_EDGE ( 'NONE', *, *, #114, .F. ) ;
#610 = APPROVAL_DATE_TIME ( #277, #564 ) ;
#611 = ORIENTED_EDGE ( 'NONE', *, *, #513, .T. ) ;
#612 = ORIENTED_EDGE ( 'NONE', *, *, #584, .F. ) ;
#613 = PERSON_AND_ORGANIZATION_ROLE ( 'creator' ) ;
#614 = LINE ( 'NONE', #619, #5 ) ;
#615 = AXIS2_PLACEMENT_3D ( 'NONE', #198, #347, #541 ) ;
#616 = AXIS2_PLACEMENT_3D ( 'NONE', #155, #625, #146 ) ;
#617 = ORIENTED_EDGE ( 'NONE', *, *, #279, .F. ) ;
#618 = PERSON_AND_ORGANIZATION ( #374, #385 ) ;
#619 = CARTESIAN_POINT ( 'NONE',  ( 16.18702227537819027, -0.8549376367571687174, 0.000000000000000000 ) ) ;
#620 = DIRECTION ( 'NONE',  ( -0.9659258262890692004, 0.2588190451025173533, 0.000000000000000000 ) ) ;
#621 = DESIGN_CONTEXT ( 'detailed design', #1, 'design' ) ;
#622 = DIRECTION ( 'NONE',  ( -0.000000000000000000, -0.000000000000000000, -1.000000000000000000 ) ) ;
#623 = DIRECTION ( 'NONE',  ( -1.000000000000000000, -2.168404344971008868E-16, 0.000000000000000000 ) ) ;
#624 = EDGE_CURVE ( 'NONE', #127, #495, #250, .T. ) ;
#625 = DIRECTION ( 'NONE',  ( -1.000000000000000000, 0.000000000000000000, 0.000000000000000000 ) ) ;
#626 = FACE_OUTER_BOUND ( 'NONE', #493, .T. ) ;
#627 = CARTESIAN_POINT ( 'NONE',  ( -1.129409522551251710, 4.215013720713427503, 0.000000000000000000 ) ) ;
#628 = PLANE ( 'NONE',  #615 ) ;
#629 = CARTESIAN_POINT ( 'NONE',  ( 3.233299737333490409, 0.000000000000000000, 50.00000000000000000 ) ) ;
ENDSEC;
END-ISO-10303-21;
