ISO-10303-21;
HEADER;
FILE_DESCRIPTION (( 'STEP AP214' ),
    '1' );
FILE_NAME ('newshell_supersonic_trapezoid_cfd.STEP',
    '2025-10-03T14:06:20',
    ( '' ),
    ( '' ),
    'SwSTEP 2.0',
    'SolidWorks 2025',
    '' );
FILE_SCHEMA (( 'AUTOMOTIVE_DESIGN' ));
ENDSEC;

DATA;
#1 = DIRECTION ( 'NONE',  ( 1.000000000000000000, 0.000000000000000000, 0.000000000000000000 ) ) ;
#2 = CARTESIAN_POINT ( 'NONE',  ( -42.38647124177703063, 1.170250349337983220, -0.4702700296936003777 ) ) ;
#3 = CARTESIAN_POINT ( 'NONE',  ( 0.3541655173254182332, 17.03865735714882490, 5.025502176431138501 ) ) ;
#4 = CARTESIAN_POINT ( 'NONE',  ( 44.17385147713458338, 11.00000000000000178, 8.640851625621156273 ) ) ;
#5 = CARTESIAN_POINT ( 'NONE',  ( 34.18073939587863208, -5.577478199869529527E-10, 13.50000000046153836 ) ) ;
#6 = APPLICATION_PROTOCOL_DEFINITION ( 'draft international standard', 'automotive_design', 1998, #16 ) ;
#7 = ORIENTED_EDGE ( 'NONE', *, *, #490, .F. ) ;
#8 = CARTESIAN_POINT ( 'NONE',  ( 25.82614852286542373, 11.00000000000000178, 1.473465436848916399 ) ) ;
#9 = CARTESIAN_POINT ( 'NONE',  ( 18.73070680164478574, 0.2682391386740214378, -11.87600667920987796 ) ) ;
#10 = ADVANCED_BREP_SHAPE_REPRESENTATION ( 'newshell_supersonic_trapezoid_cfd', ( #655, #183 ), #174 ) ;
#11 = CARTESIAN_POINT ( 'NONE',  ( 44.17385147713458338, 11.00000000000000178, 12.86130694069556490 ) ) ;
#12 = ADVANCED_FACE ( 'NONE', ( #468 ), #639, .T. ) ;
#13 = DIRECTION ( 'NONE',  ( 0.000000000000000000, 0.7712148120812098995, -0.6365749866485048702 ) ) ;
#14 = SURFACE_STYLE_USAGE ( .BOTH. , #574 ) ;
#15 = CARTESIAN_POINT ( 'NONE',  ( 34.18064775196508265, 2.935710051367201363E-12, -13.49999999999753442 ) ) ;
#16 = APPLICATION_CONTEXT ( 'automotive_design' ) ;
#17 = CARTESIAN_POINT ( 'NONE',  ( -0.6173907419263514607, 0.7052657289419010933, 8.558157314624690315 ) ) ;
#18 = ORIENTED_EDGE ( 'NONE', *, *, #663, .T. ) ;
#19 = CARTESIAN_POINT ( 'NONE',  ( -49.35265631526088015, 0.1000000000004847289, 0.01339514033505509460 ) ) ;
#20 = VECTOR ( 'NONE', #502, 1000.000000000000000 ) ;
#21 = CARTESIAN_POINT ( 'NONE',  ( -80.00000000000000000, 1.481759687504505164E-14, 40.00000000000001421 ) ) ;
#22 = EDGE_CURVE ( 'NONE', #23, #414, #410, .T. ) ;
#23 = VERTEX_POINT ( 'NONE', #407 ) ;
#24 = CARTESIAN_POINT ( 'NONE',  ( 43.71183586072657334, 11.00000000000000178, -4.420396310546749419 ) ) ;
#25 = CARTESIAN_POINT ( 'NONE',  ( 34.90826148522865680, 11.00000000000000178, -8.640851625621385423 ) ) ;
#26 = ORIENTED_EDGE ( 'NONE', *, *, #242, .F. ) ;
#27 = CARTESIAN_POINT ( 'NONE',  ( 35.00000000000000000, 11.00000000000000178, -4.420396310546743202 ) ) ;
#28 = CARTESIAN_POINT ( 'NONE',  ( 35.11188847802468871, -1.480661598200279895E-13, -13.50000000000000000 ) ) ;
#29 = VERTEX_POINT ( 'NONE', #235 ) ;
#30 = CARTESIAN_POINT ( 'NONE',  ( -2.291403582232717895, 7.366666666665098617, 2.960326014032196085 ) ) ;
#31 = CARTESIAN_POINT ( 'NONE',  ( 34.84297866148827438, 18.22116952973382098, -1.540090735301862024 ) ) ;
#32 = CARTESIAN_POINT ( 'NONE',  ( 35.22987373924976851, -1.664137407128637891, -14.87360983104702328 ) ) ;
#33 = EDGE_LOOP ( 'NONE', ( #252, #289, #626, #84 ) ) ;
#34 = ORIENTED_EDGE ( 'NONE', *, *, #382, .F. ) ;
#35 = CARTESIAN_POINT ( 'NONE',  ( 35.00000000000000000, 11.00000000000000178, -4.420396310546742313 ) ) ;
#36 = CARTESIAN_POINT ( 'NONE',  ( 25.15448308108742026, 7.333333333344609350, 7.446930873697834130 ) ) ;
#37 = CARTESIAN_POINT ( 'NONE',  ( 35.00000000000000000, 1.901932654763641534E-13, -13.50000000000000000 ) ) ;
#38 = CARTESIAN_POINT ( 'NONE',  ( -5.220917387624234962, -3.343403336088829558, -11.80326038885327833 ) ) ;
#39 = CARTESIAN_POINT ( 'NONE',  ( 35.00000000000000000, 11.00000000000000178, 8.640851625621174037 ) ) ;
#40 = CARTESIAN_POINT ( 'NONE',  ( -80.00000000000000000, -77.18833849770837219, -1.364264494253606465E-09 ) ) ;
#41 = CARTESIAN_POINT ( 'NONE',  ( 35.00000000000000000, 3.666666666666665630, 10.47346543684891351 ) ) ;
#42 = CARTESIAN_POINT ( 'NONE',  ( 34.80415152877884566, 25.44233905946808960, -7.500577781150466805 ) ) ;
#43 = CARTESIAN_POINT ( 'NONE',  ( 35.11798526122507980, -3.328274814256348968, -16.24721966209405011 ) ) ;
#44 = CARTESIAN_POINT ( 'NONE',  ( 72.29140358223271789, 7.366666666665098617, -2.960326014032196085 ) ) ;
#45 = CARTESIAN_POINT ( 'NONE',  ( 34.89482817639309786, 3.666666666666440033, 10.47346543684891351 ) ) ;
#46 = CARTESIAN_POINT ( 'NONE',  ( 112.3864712418810399, 1.170250349321863892, 0.4702700296872120989 ) ) ;
#47 = CARTESIAN_POINT ( 'NONE',  ( -49.35265631526088015, -0.01512852188253746046, 0.1414965100719967894 ) ) ;
#48 = CARTESIAN_POINT ( 'NONE',  ( 34.89589004355020307, 32.66350858920146294, -13.46106482699907225 ) ) ;
#49 = CARTESIAN_POINT ( 'NONE',  ( 34.81652297045731359, 11.00000000000000178, -17.08176225577067697 ) ) ;
#50 = CARTESIAN_POINT ( 'NONE',  ( 46.79852612252870614, -3.328274814327822018, 16.24721966218957192 ) ) ;
#51 = CARTESIAN_POINT ( 'NONE',  ( -49.35265631526088015, 0.1000000000004847289, -0.07855319659693862921 ) ) ;
#52 = CARTESIAN_POINT ( 'NONE',  ( 46.79852612252712873, -3.328274814318916697, -16.24721966218242386 ) ) ;
#53 = CARTESIAN_POINT ( 'NONE',  ( 34.81652297045731359, 11.00000000000000178, -1.473465436848913956 ) ) ;
#54 = CARTESIAN_POINT ( 'NONE',  ( 73.63473446578834114, 2.455555555577691340, 7.015260599112671969 ) ) ;
#55 = CARTESIAN_POINT ( 'NONE',  ( 119.3526563152608873, 4.847253474810136358E-13, 0.1281836749650050178 ) ) ;
#56 = CARTESIAN_POINT ( 'NONE',  ( -42.37415972230846961, 1.172131903557209531, -0.1567566765652405048 ) ) ;
#57 = LINE ( 'NONE', #610, #20 ) ;
#58 = AXIS2_PLACEMENT_3D ( 'NONE', #40, #259, #696 ) ;
#59 = FACE_OUTER_BOUND ( 'NONE', #132, .T. ) ;
#60 = CARTESIAN_POINT ( 'NONE',  ( 35.00000000000000000, 32.66350856023779414, 13.46106480309332198 ) ) ;
#61 = CARTESIAN_POINT ( 'NONE',  ( 180.0000000000000000, 46.38782051106080928, 0.000000000000000000 ) ) ;
#62 = CARTESIAN_POINT ( 'NONE',  ( 48.03071320850161641, 0.1922205518856121009, -12.35717027013125069 ) ) ;
#63 = CARTESIAN_POINT ( 'NONE',  ( -2.963069024010528629, 4.911111111121436501, -4.987793306572434027 ) ) ;
#64 = CARTESIAN_POINT ( 'NONE',  ( -80.00000000000000000, 46.38782051106080928, -40.00000000000001421 ) ) ;
#65 = CARTESIAN_POINT ( 'NONE',  ( 44.17385147713458338, 11.00000000000000178, 4.420396310546749419 ) ) ;
#66 = CARTESIAN_POINT ( 'NONE',  ( 35.00000000000000000, 11.00000000000000178, 4.420396310546742313 ) ) ;
#67 = CARTESIAN_POINT ( 'NONE',  ( 35.00000000000000000, 3.353636684978552698E-12, -13.49999999999514699 ) ) ;
#68 = EDGE_CURVE ( 'NONE', #363, #185, #572, .T. ) ;
#69 = PLANE ( 'NONE',  #236 ) ;
#70 = FILL_AREA_STYLE_COLOUR ( '', #79 ) ;
#71 = CARTESIAN_POINT ( 'NONE',  ( -16.69289394918942193, 0.9879748576629944212, 5.507452685850409146 ) ) ;
#72 = DIRECTION ( 'NONE',  ( 0.000000000000000000, -1.000000000000000000, 3.704399218761262219E-16 ) ) ;
#73 = DIRECTION ( 'NONE',  ( 1.000000000000000000, -0.000000000000000000, 0.000000000000000000 ) ) ;
#74 = EDGE_CURVE ( 'NONE', #420, #185, #361, .T. ) ;
#75 = CARTESIAN_POINT ( 'NONE',  ( 28.46697297490401368, 0.06438485225687015645, -13.12727610790891930 ) ) ;
#76 = ORIENTED_EDGE ( 'NONE', *, *, #382, .T. ) ;
#77 = CARTESIAN_POINT ( 'NONE',  ( 36.63713124924760223, 0.004711482703742318236, 13.47310125318545815 ) ) ;
#78 = B_SPLINE_CURVE_WITH_KNOTS ( 'NONE', 3,
 ( #676, #625, #24, #294 ),
 .UNSPECIFIED., .F., .F.,
 ( 4, 4 ),
 ( 0.05036222981803908927, 1.000000000000000000 ),
 .UNSPECIFIED. ) ;
#79 = COLOUR_RGB ( '',1.000000000000000000, 1.000000000000000000, 1.000000000000000000 ) ;
#80 = ORIENTED_EDGE ( 'NONE', *, *, #123, .F. ) ;
#81 = CARTESIAN_POINT ( 'NONE',  ( 44.84551691891258685, 7.333333333344672411, -7.446930873697834130 ) ) ;
#82 = CARTESIAN_POINT ( 'NONE',  ( 35.11493686962488425, -1.664137407128248425, -14.87360983104702328 ) ) ;
#83 = CARTESIAN_POINT ( 'NONE',  ( 34.90826148522865680, 11.00000000000000178, -1.473465436848913956 ) ) ;
#84 = ORIENTED_EDGE ( 'NONE', *, *, #337, .F. ) ;
#85 = CARTESIAN_POINT ( 'NONE',  ( 35.00000000000000000, 25.44233905946675733, -7.500577781150466805 ) ) ;
#86 = CARTESIAN_POINT ( 'NONE',  ( 35.00000000000000000, -4.992412221383958126, -17.62082949314107339 ) ) ;
#87 = EDGE_LOOP ( 'NONE', ( #308, #144, #26 ) ) ;
#88 = DIRECTION ( 'NONE',  ( 0.000000000000000000, 1.000000000000000000, -3.704399218761261726E-16 ) ) ;
#89 = CARTESIAN_POINT ( 'NONE',  ( 35.00000000000000000, -1.664137407132439739, 14.87360983105062573 ) ) ;
#90 = CARTESIAN_POINT ( 'NONE',  ( 69.64583447939091343, 17.03865736915366114, 5.025502186343113742 ) ) ;
#91 = CARTESIAN_POINT ( 'NONE',  ( 112.3864712418810399, 1.170250349321863892, 0.4702700296872120989 ) ) ;
#92 = VECTOR ( 'NONE', #344, 1000.000000000000000 ) ;
#93 = EDGE_LOOP ( 'NONE', ( #80, #616, #672 ) ) ;
#94 = CARTESIAN_POINT ( 'NONE',  ( 72.29140358223271789, 7.366666666665098617, 11.43960441977079867 ) ) ;
#95 = DIRECTION ( 'NONE',  ( -0.000000000000000000, 0.7712148120812044594, 0.6365749866485113095 ) ) ;
#96 = CARTESIAN_POINT ( 'NONE',  ( -42.38647124188108251, 1.170250349321864114, 0.4702700296872128760 ) ) ;
#97 = CARTESIAN_POINT ( 'NONE',  ( 39.08689539992302286, 0.02934880629850445538, 13.33128381384080896 ) ) ;
#98 = CARTESIAN_POINT ( 'NONE',  ( 35.00000000000000000, 11.00000000000000178, -4.420396310546742313 ) ) ;
#99 = CARTESIAN_POINT ( 'NONE',  ( -0.9686190323270522651, 12.20266201236987591, -1.032588081581616191 ) ) ;
#100 = CARTESIAN_POINT ( 'NONE',  ( 119.3526563152608873, -0.01512852188298450216, -0.1414965100723996616 ) ) ;
#101 = CARTESIAN_POINT ( 'NONE',  ( 119.3526563152608873, 0.1000000000004847289, -0.01339514033505509460 ) ) ;
#102 = EDGE_CURVE ( 'NONE', #185, #525, #232, .T. ) ;
#103 = CARTESIAN_POINT ( 'NONE',  ( 119.3526563152608873, -0.03025704376653239047, 0.1548093451798445985 ) ) ;
#104 = CARTESIAN_POINT ( 'NONE',  ( 35.00000000000000000, 11.00000000000000178, -1.473465436848913956 ) ) ;
#105 = B_SPLINE_CURVE_WITH_KNOTS ( 'NONE', 3,
 ( #531, #372, #590, #646 ),
 .UNSPECIFIED., .F., .F.,
 ( 4, 4 ),
 ( 0.05036222981803921417, 1.000000000000000000 ),
 .UNSPECIFIED. ) ;
#106 = CARTESIAN_POINT ( 'NONE',  ( 34.90826148522865680, 10.99999999999999822, 4.420396310546743202 ) ) ;
#107 = CARTESIAN_POINT ( 'NONE',  ( 34.81652297045731359, 11.00000000000000178, 4.420396310546742313 ) ) ;
#108 = CARTESIAN_POINT ( 'NONE',  ( 35.00000000000000000, 10.99999999999999822, 4.420396310546743202 ) ) ;
#109 = B_SPLINE_SURFACE_WITH_KNOTS ( 'NONE', 3, 3, ( 
 ( #305, #317, #246, #86, #538, #38, #257 ),
 ( #577, #311, #43, #262, #695, #643, #147 ),
 ( #592, #32, #82, #629, #321, #250, #133 ),
 ( #638, #198, #28, #527, #585, #366, #143 ),
 ( #476, #686, #460, #167, #282, #457, #398 ),
 ( #661, #453, #343, #608, #165, #63, #563 ),
 ( #557, #658, #612, #178, #404, #288, #669 ),
 ( #115, #162, #171, #292, #119, #559, #336 ),
 ( #569, #285, #347, #504, #507, #3, #618 ),
 ( #714, #278, #510, #60, #226, #390, #665 ) ),
 .UNSPECIFIED., .F., .F., .F.,
 ( 4, 3, 3, 4 ),
 ( 4, 3, 4 ),
 ( -0.4538556564894757894, 0.000000000000000000, 1.000000000000000000, 2.969409869112560330 ),
 ( -0.01000000000000000021, 0.000000000000000000, 1.000000000000000000 ),
 .UNSPECIFIED. ) ;
#110 = FACE_OUTER_BOUND ( 'NONE', #635, .T. ) ;
#111 = CARTESIAN_POINT ( 'NONE',  ( 0.000000000000000000, 0.000000000000000000, 0.000000000000000000 ) ) ;
#112 = CARTESIAN_POINT ( 'NONE',  ( -177.7641062538314998, 1.481759687504505164E-14, 40.00000000000001421 ) ) ;
#113 = CARTESIAN_POINT ( 'NONE',  ( 180.0000000000000000, -77.18833849770837219, -1.364264494253606465E-09 ) ) ;
#114 = DIRECTION ( 'NONE',  ( 0.000000000000000000, 0.000000000000000000, -1.000000000000000000 ) ) ;
#115 = CARTESIAN_POINT ( 'NONE',  ( 35.23553200782064465, 18.22116952007993262, 1.540090727333278675 ) ) ;
#116 =( GEOMETRIC_REPRESENTATION_CONTEXT ( 3 ) GLOBAL_UNCERTAINTY_ASSIGNED_CONTEXT ( ( #465 ) ) GLOBAL_UNIT_ASSIGNED_CONTEXT ( ( #129, #182, #519 ) ) REPRESENTATION_CONTEXT ( 'NONE', 'WORKASPACE' ) );
#117 = CARTESIAN_POINT ( 'NONE',  ( 112.3864712417770022, 1.170250349337984774, -0.4702700296936061508 ) ) ;
#118 = CARTESIAN_POINT ( 'NONE',  ( 30.91419022650298842, 0.02933528342771538761, 13.33136192535732256 ) ) ;
#119 = CARTESIAN_POINT ( 'NONE',  ( 27.14893307264487632, 18.22116952005706381, 1.540090727333266463 ) ) ;
#120 = EDGE_LOOP ( 'NONE', ( #631, #247, #353 ) ) ;
#121 = PRODUCT_DEFINITION ( 'UNKNOWN', '', #342, #704 ) ;
#122 = DIRECTION ( 'NONE',  ( -0.000000000000000000, 0.000000000000000000, 1.000000000000000000 ) ) ;
#123 = EDGE_CURVE ( 'NONE', #185, #312, #362, .T. ) ;
#124 = CARTESIAN_POINT ( 'NONE',  ( 43.15848671344613763, 0.09427360068694562445, -12.95097337091118561 ) ) ;
#125 = CARTESIAN_POINT ( 'NONE',  ( 2.600979300801277372, 0.6378145880142966906, 9.149395158256140803 ) ) ;
#126 = AXIS2_PLACEMENT_3D ( 'NONE', #413, #73, #139 ) ;
#127 = ORIENTED_EDGE ( 'NONE', *, *, #680, .T. ) ;
#128 = CARTESIAN_POINT ( 'NONE',  ( 69.50732627470462432, 7.723416783105741423, 3.103687550259590200 ) ) ;
#129 =( LENGTH_UNIT ( ) NAMED_UNIT ( * ) SI_UNIT ( .MILLI., .METRE. ) );
#130 = ORIENTED_EDGE ( 'NONE', *, *, #173, .F. ) ;
#131 = LINE ( 'NONE', #21, #209 ) ;
#132 = EDGE_LOOP ( 'NONE', ( #187, #640, #135, #34 ) ) ;
#133 = CARTESIAN_POINT ( 'NONE',  ( -49.35265631526088015, -0.01512852188249782376, -0.1414965100719714208 ) ) ;
#134 = CARTESIAN_POINT ( 'NONE',  ( 119.3526563152608873, 0.1000000000004847289, -0.1169209721887127934 ) ) ;
#135 = ORIENTED_EDGE ( 'NONE', *, *, #587, .T. ) ;
#136 = CARTESIAN_POINT ( 'NONE',  ( 68.32304992759023321, 21.87465272178668130, -9.018416287677206711 ) ) ;
#137 = CARTESIAN_POINT ( 'NONE',  ( 48.03255380472010216, 0.1922629130498467731, 12.35690510274212883 ) ) ;
#138 = EDGE_CURVE ( 'NONE', #312, #420, #472, .T. ) ;
#139 = DIRECTION ( 'NONE',  ( 0.000000000000000000, 0.000000000000000000, -1.000000000000000000 ) ) ;
#140 = ORIENTED_EDGE ( 'NONE', *, *, #587, .F. ) ;
#141 = CARTESIAN_POINT ( 'NONE',  ( 22.89663471747064705, -4.992412221348143220, 17.62082949315187363 ) ) ;
#142 = CARTESIAN_POINT ( 'NONE',  ( 74.30639990756615987, 3.411431316624367130E-11, -9.042727891652909022 ) ) ;
#143 = CARTESIAN_POINT ( 'NONE',  ( -49.35265631526088015, 4.847061337368008260E-13, -0.1281836749650132612 ) ) ;
#144 = ORIENTED_EDGE ( 'NONE', *, *, #273, .F. ) ;
#145 = CARTESIAN_POINT ( 'NONE',  ( -5.220917387626633932, -3.343403336097779732, 11.80326038886051698 ) ) ;
#146 = CARTESIAN_POINT ( 'NONE',  ( 119.3526563152608873, 0.2969409871561831116, 0.1331192090231377301 ) ) ;
#147 = CARTESIAN_POINT ( 'NONE',  ( -49.35265631526088015, -0.03025704376548035354, -0.1548093451789295527 ) ) ;
#148 = VECTOR ( 'NONE', #279, 1000.000000000000000 ) ;
#149 = ADVANCED_FACE ( 'NONE', ( #110 ), #291, .F. ) ;
#150 = CARTESIAN_POINT ( 'NONE',  ( 34.75793269434883115, -4.992412221558806706, 17.62082949328436143 ) ) ;
#151 = CARTESIAN_POINT ( 'NONE',  ( -49.35265631526088015, -0.04538556564858182985, 0.1681221802859803327 ) ) ;
#152 = CARTESIAN_POINT ( 'NONE',  ( 34.90826148522865680, 11.00000000000000178, -12.86130694069603031 ) ) ;
#153 = B_SPLINE_SURFACE_WITH_KNOTS ( 'NONE', 3, 3, ( 
 ( #441, #651, #497, #329 ),
 ( #156, #52, #637, #316 ),
 ( #304, #591, #484, #100 ),
 ( #37, #359, #142, #249 ),
 ( #365, #537, #245, #694 ),
 ( #261, #81, #310, #255 ),
 ( #27, #475, #526, #584 ),
 ( #203, #378, #642, #647 ),
 ( #373, #479, #90, #431 ),
 ( #421, #685, #436, #146 ) ),
 .UNSPECIFIED., .F., .F., .F.,
 ( 4, 3, 3, 4 ),
 ( 4, 4 ),
 ( -0.4538556565040761104, 0.000000000000000000, 1.000000000000000000, 2.969409871556983660 ),
 ( 0.000000000000000000, 1.000000000000000000 ),
 .UNSPECIFIED. ) ;
#154 = CARTESIAN_POINT ( 'NONE',  ( 34.88201473877472125, -3.328274814372322421, 16.24721966218957547 ) ) ;
#155 = CARTESIAN_POINT ( 'NONE',  ( 25.82614852286542373, 11.00000000000000178, -12.86130694069596458 ) ) ;
#156 = CARTESIAN_POINT ( 'NONE',  ( 35.00000000000000000, -3.328274814362977008, -16.24721966218242741 ) ) ;
#157 = CARTESIAN_POINT ( 'NONE',  ( 34.72478445568597039, 11.00000000000000178, -4.420396310546742313 ) ) ;
#158 = CARTESIAN_POINT ( 'NONE',  ( 70.96861903068523247, 12.20266201837229225, -1.032588086537604921 ) ) ;
#159 = DIRECTION ( 'NONE',  ( 0.000000000000000000, 0.000000000000000000, -1.000000000000000000 ) ) ;
#160 = CARTESIAN_POINT ( 'NONE',  ( 34.68448452917928648, 3.666666666665989283, 10.47346543684891351 ) ) ;
#161 = CARTESIAN_POINT ( 'NONE',  ( 80.26707023713146327, 0.8895543602674715888, -6.752509987384061496 ) ) ;
#162 = CARTESIAN_POINT ( 'NONE',  ( 35.15702133854710354, 18.22116952007971236, 1.540090727333278675 ) ) ;
#163 = CARTESIAN_POINT ( 'NONE',  ( 45.51718236069059031, 3.666666666689217369, 10.47346543684891529 ) ) ;
#164 = PLANE ( 'NONE',  #371 ) ;
#165 = CARTESIAN_POINT ( 'NONE',  ( 25.15448308108742026, 7.333333333344672411, -7.446930873697834130 ) ) ;
#166 = DIRECTION ( 'NONE',  ( 0.000000000000000000, 0.000000000000000000, -1.000000000000000000 ) ) ;
#167 = CARTESIAN_POINT ( 'NONE',  ( 35.00000000000000000, 3.666666666666793528, -10.47346543684891351 ) ) ;
#168 = CARTESIAN_POINT ( 'NONE',  ( -177.7641062538314998, 46.38782051106080928, -40.00000000000001421 ) ) ;
#169 = ADVANCED_FACE ( 'NONE', ( #506 ), #558, .T. ) ;
#170 = CARTESIAN_POINT ( 'NONE',  ( 35.81926060407474210, -2.238678433439962401E-13, -13.50000000000237144 ) ) ;
#171 = CARTESIAN_POINT ( 'NONE',  ( 35.07851066927355532, 18.22116952007948854, 1.540090727333278675 ) ) ;
#172 = ORIENTED_EDGE ( 'NONE', *, *, #22, .T. ) ;
#173 = EDGE_CURVE ( 'NONE', #687, #312, #464, .T. ) ;
#174 =( GEOMETRIC_REPRESENTATION_CONTEXT ( 3 ) GLOBAL_UNCERTAINTY_ASSIGNED_CONTEXT ( ( #379 ) ) GLOBAL_UNIT_ASSIGNED_CONTEXT ( ( #615, #452, #394 ) ) REPRESENTATION_CONTEXT ( 'NONE', 'WORKASPACE' ) );
#175 = CARTESIAN_POINT ( 'NONE',  ( 34.81652297045731359, 11.00000000000000178, 12.86130694069554181 ) ) ;
#176 = APPLICATION_CONTEXT ( 'automotive_design' ) ;
#177 = CARTESIAN_POINT ( 'NONE',  ( 35.00000000000000000, -2.928538529597870248E-10, 13.50000000005383427 ) ) ;
#178 = CARTESIAN_POINT ( 'NONE',  ( 35.00000000000000000, 11.00000000000000178, -4.420396310546743202 ) ) ;
#179 = CARTESIAN_POINT ( 'NONE',  ( -49.35265631526088015, 0.1000000000004847289, 0.1169209721887089493 ) ) ;
#180 = CARTESIAN_POINT ( 'NONE',  ( -10.26707023721654899, 0.8895543600146376129, 6.752509987587759888 ) ) ;
#181 = VECTOR ( 'NONE', #166, 1000.000000000000000 ) ;
#182 =( NAMED_UNIT ( * ) PLANE_ANGLE_UNIT ( ) SI_UNIT ( $, .RADIAN. ) );
#183 = AXIS2_PLACEMENT_3D ( 'NONE', #111, #449, #671 ) ;
#184 = CARTESIAN_POINT ( 'NONE',  ( -42.38647124188108251, 1.170250349321864114, 0.4702700296872128760 ) ) ;
#185 = VERTEX_POINT ( 'NONE', #66 ) ;
#186 = CARTESIAN_POINT ( 'NONE',  ( -42.38647124177703063, 1.170250349337983220, -0.4702700296936003777 ) ) ;
#187 = ORIENTED_EDGE ( 'NONE', *, *, #663, .F. ) ;
#188 = CARTESIAN_POINT ( 'NONE',  ( 25.82614852286542373, 11.00000000000000178, 17.08176225577007301 ) ) ;
#189 = CARTESIAN_POINT ( 'NONE',  ( 35.00000000000000000, 11.00000000000000178, -8.640851625621385423 ) ) ;
#190 = EDGE_LOOP ( 'NONE', ( #518, #244, #302, #579 ) ) ;
#191 = CARTESIAN_POINT ( 'NONE',  ( 34.90826148522865680, 11.00000000000000178, 17.08176225576994156 ) ) ;
#192 = CARTESIAN_POINT ( 'NONE',  ( 25.82614852286542373, 11.00000000000000178, 4.420396310546749419 ) ) ;
#193 = CARTESIAN_POINT ( 'NONE',  ( 40.20549782249092630, 32.66350858913352084, -13.46106482699904916 ) ) ;
#194 = CARTESIAN_POINT ( 'NONE',  ( 51.26929319838956189, 0.2682391381945376518, 11.87600667960966838 ) ) ;
#195 = ORIENTED_EDGE ( 'NONE', *, *, #242, .T. ) ;
#196 = CARTESIAN_POINT ( 'NONE',  ( -49.35265631526088015, 0.2312939912872209458, -0.07535099888134669244 ) ) ;
#197 = CARTESIAN_POINT ( 'NONE',  ( 34.94794502177510509, 32.66350858920080213, -13.46106482699907225 ) ) ;
#198 = CARTESIAN_POINT ( 'NONE',  ( 35.22377695604937742, -4.863255851164201830E-13, -13.50000000000000000 ) ) ;
#199 = PRODUCT ( 'newshell_supersonic_trapezoid_cfd', 'newshell_supersonic_trapezoid_cfd', '', ( #718 ) ) ;
#200 = CARTESIAN_POINT ( 'NONE',  ( 35.00000000000000000, 11.00000000000000178, 4.420396310546742313 ) ) ;
#201 = EDGE_LOOP ( 'NONE', ( #7, #76, #172, #231 ) ) ;
#202 = CARTESIAN_POINT ( 'NONE',  ( 23.81115219753140266, 3.382594252963891026E-11, 13.50000000000000000 ) ) ;
#203 = CARTESIAN_POINT ( 'NONE',  ( 35.00000000000000000, 18.22116952904215381, 1.540090734731410338 ) ) ;
#204 = CARTESIAN_POINT ( 'NONE',  ( 35.00000000000000000, 3.353636684978552698E-12, -13.49999999999514699 ) ) ;
#205 = ADVANCED_FACE ( 'NONE', ( #220, #451 ), #503, .F. ) ;
#206 = CARTESIAN_POINT ( 'NONE',  ( 24.48281763930941324, 3.666666666689217369, 10.47346543684891529 ) ) ;
#207 = CARTESIAN_POINT ( 'NONE',  ( 34.93471717625962469, 25.44233905946720142, -7.500577781150466805 ) ) ;
#208 = CARTESIAN_POINT ( 'NONE',  ( 46.18884780246860089, 3.382594252963891026E-11, 13.50000000000000000 ) ) ;
#209 = VECTOR ( 'NONE', #72, 1000.000000000000000 ) ;
#210 = CARTESIAN_POINT ( 'NONE',  ( 35.00000000000000000, 11.00000000000000178, -17.08176225577054552 ) ) ;
#211 = FACE_OUTER_BOUND ( 'NONE', #87, .T. ) ;
#212 = CARTESIAN_POINT ( 'NONE',  ( 35.00000000000000000, 11.00000000000000178, 1.473465436848913956 ) ) ;
#213 = CARTESIAN_POINT ( 'NONE',  ( 34.88506313037501627, -1.664137407186330408, 14.87360983109478596 ) ) ;
#214 = CARTESIAN_POINT ( 'NONE',  ( -2.291403582232717895, 7.366666666665098617, -8.613178284524865447 ) ) ;
#215 = CARTESIAN_POINT ( 'NONE',  ( 34.90826148522865680, 11.00000000000000178, 4.420396310546742313 ) ) ;
#216 = CARTESIAN_POINT ( 'NONE',  ( 34.90154483081087733, 7.333333333333218462, 7.446930873697829689 ) ) ;
#217 = CARTESIAN_POINT ( 'NONE',  ( 86.69289394910055080, 0.9879748578657518987, -5.507452685690530814 ) ) ;
#218 = VECTOR ( 'NONE', #13, 1000.000000000000114 ) ;
#219 = CARTESIAN_POINT ( 'NONE',  ( 34.88811152197531840, -3.382594252966957471E-13, 13.50000000000000000 ) ) ;
#220 = FACE_BOUND ( 'NONE', #530, .T. ) ;
#221 = CARTESIAN_POINT ( 'NONE',  ( 34.90826148522865680, 11.00000000000000178, 8.640851625621142063 ) ) ;
#222 = APPLICATION_PROTOCOL_DEFINITION ( 'draft international standard', 'automotive_design', 1998, #176 ) ;
#223 = CARTESIAN_POINT ( 'NONE',  ( 35.00000000000000000, -2.928538529597870248E-10, 13.50000000005383427 ) ) ;
#224 = ADVANCED_FACE ( 'NONE', ( #59 ), #164, .F. ) ;
#225 = CARTESIAN_POINT ( 'NONE',  ( 60.95533730230231839, 0.4948668284694670016, -10.29277155037337543 ) ) ;
#226 = CARTESIAN_POINT ( 'NONE',  ( 29.79450217220377795, 32.66350856017118076, 13.46106480309329889 ) ) ;
#227 = CARTESIAN_POINT ( 'NONE',  ( 35.00000000000000000, 11.00000000000000178, 12.86130694069554181 ) ) ;
#228 = DIRECTION ( 'NONE',  ( 0.000000000000000000, 1.000000000000000000, -1.234799739587086995E-16 ) ) ;
#229 = CARTESIAN_POINT ( 'NONE',  ( 180.0000000000000000, -9.806667400214371000, 40.00000000000000000 ) ) ;
#230 = CARTESIAN_POINT ( 'NONE',  ( -35.96351677189382201, 1.162670925570164382, 1.733189012877913271 ) ) ;
#231 = ORIENTED_EDGE ( 'NONE', *, *, #508, .T. ) ;
#232 = B_SPLINE_CURVE_WITH_KNOTS ( 'NONE', 3,
 ( #200, #515, #128, #428 ),
 .UNSPECIFIED., .F., .F.,
 ( 4, 4 ),
 ( 0.000000000000000000, 0.9496377701827491968 ),
 .UNSPECIFIED. ) ;
#233 = CARTESIAN_POINT ( 'NONE',  ( -49.35265631526088015, 0.1000000000004847289, 0.07855319659693711654 ) ) ;
#234 = CARTESIAN_POINT ( 'NONE',  ( 21.96744619531554576, 0.1922629135521647659, -12.35690510232460682 ) ) ;
#235 = CARTESIAN_POINT ( 'NONE',  ( -80.00000000000000000, -9.806667400214371000, 40.00000000000002132 ) ) ;
#236 = AXIS2_PLACEMENT_3D ( 'NONE', #448, #389, #556 ) ;
#237 = CARTESIAN_POINT ( 'NONE',  ( 2.599919295433825717, 0.6378370381488348562, -9.149201291603572983 ) ) ;
#238 = MECHANICAL_DESIGN_GEOMETRIC_PRESENTATION_REPRESENTATION (  '', ( #401 ), #116 ) ;
#239 = ORIENTED_EDGE ( 'NONE', *, *, #461, .F. ) ;
#240 = DIRECTION ( 'NONE',  ( 0.000000000000000000, -1.000000000000000000, 1.234799739587086995E-16 ) ) ;
#241 = CARTESIAN_POINT ( 'NONE',  ( 34.72478445568597039, 11.00000000000000178, -8.640851625621385423 ) ) ;
#242 = EDGE_CURVE ( 'NONE', #692, #691, #402, .T. ) ;
#243 = ADVANCED_FACE ( 'NONE', ( #614 ), #69, .F. ) ;
#244 = ORIENTED_EDGE ( 'NONE', *, *, #68, .F. ) ;
#245 = CARTESIAN_POINT ( 'NONE',  ( 73.63473446578834114, 2.455555555577775717, -7.015260599112671969 ) ) ;
#246 = CARTESIAN_POINT ( 'NONE',  ( 35.12103365282527534, -4.992412221384449289, -17.62082949314107339 ) ) ;
#247 = ORIENTED_EDGE ( 'NONE', *, *, #102, .T. ) ;
#248 = CARTESIAN_POINT ( 'NONE',  ( 35.00000000000000000, 18.22116952077048779, -1.540090727903728585 ) ) ;
#249 = CARTESIAN_POINT ( 'NONE',  ( 119.3526563152608873, 4.847061337368008260E-13, -0.1281836749650132612 ) ) ;
#250 = CARTESIAN_POINT ( 'NONE',  ( -4.611239067585511719, -1.114467778673533527, -9.962905390719701160 ) ) ;
#251 = DIRECTION ( 'NONE',  ( 1.000000000000000000, 0.000000000000000000, 0.000000000000000000 ) ) ;
#252 = ORIENTED_EDGE ( 'NONE', *, *, #508, .F. ) ;
#253 = CARTESIAN_POINT ( 'NONE',  ( 180.0000000000000000, 1.481759687504505164E-14, 40.00000000000001421 ) ) ;
#254 = CARTESIAN_POINT ( 'NONE',  ( 0.3541655175786132537, 17.03865735807465143, -5.025502177195427578 ) ) ;
#255 = CARTESIAN_POINT ( 'NONE',  ( 119.3526563152608873, 0.06666666666715138911, -0.06951817232511460498 ) ) ;
#256 = EDGE_CURVE ( 'NONE', #687, #363, #105, .T. ) ;
#257 = CARTESIAN_POINT ( 'NONE',  ( -49.35265631526088015, -0.04538556564846288333, -0.1681221802858876846 ) ) ;
#258 = B_SPLINE_CURVE_WITH_KNOTS ( 'NONE', 3,
 ( #399, #662, #613, #117 ),
 .UNSPECIFIED., .F., .F.,
 ( 4, 4 ),
 ( 0.000000000000000000, 0.0009405400593808182054 ),
 .UNSPECIFIED. ) ;
#259 = DIRECTION ( 'NONE',  ( -1.000000000000000000, -0.000000000000000000, -0.000000000000000000 ) ) ;
#260 = CARTESIAN_POINT ( 'NONE',  ( -4.916078227606472950, -2.228935557387190514, 10.88308288979131433 ) ) ;
#261 = CARTESIAN_POINT ( 'NONE',  ( 35.00000000000000000, 7.333333333333396098, -7.446930873697829689 ) ) ;
#262 = CARTESIAN_POINT ( 'NONE',  ( 35.00000000000000000, -3.328274814255908431, -16.24721966209405011 ) ) ;
#263 = CARTESIAN_POINT ( 'NONE',  ( 72.29140358223271789, 7.366666666665098617, 0.9867753380107319172 ) ) ;
#264 = CARTESIAN_POINT ( 'NONE',  ( 44.17385147713458338, 11.00000000000000178, 4.420396310546749419 ) ) ;
#265 = CARTESIAN_POINT ( 'NONE',  ( 25.82614852286542373, 11.00000000000000178, -8.640851625621358778 ) ) ;
#266 = CARTESIAN_POINT ( 'NONE',  ( 119.3526563152608873, 0.1000000000004847289, 0.1169209721887083525 ) ) ;
#267 = CARTESIAN_POINT ( 'NONE',  ( -49.35265631526088015, 0.1656469956438528235, -0.01758278893809070778 ) ) ;
#268 = CARTESIAN_POINT ( 'NONE',  ( 34.72478445568597039, 11.00000000000000178, -12.86130694069603031 ) ) ;
#269 = CARTESIAN_POINT ( 'NONE',  ( 34.76402947754943540, -3.328274814372763402, 16.24721966218957547 ) ) ;
#270 = CARTESIAN_POINT ( 'NONE',  ( -49.35265631526088015, 0.1000000000004847289, -0.1552887477804853200 ) ) ;
#271 = CARTESIAN_POINT ( 'NONE',  ( 35.00000000000000000, 25.44233904154097914, -7.500577766354200371 ) ) ;
#272 = CARTESIAN_POINT ( 'NONE',  ( 34.81652297045731359, 11.00000000000000178, 1.473465436848913956 ) ) ;
#273 = EDGE_CURVE ( 'NONE', #691, #363, #536, .T. ) ;
#274 = CARTESIAN_POINT ( 'NONE',  ( 34.66433456592594098, -1.014778275889480134E-12, 13.50000000000000000 ) ) ;
#275 = B_SPLINE_CURVE_WITH_KNOTS ( 'NONE', 3,
 ( #67, #15, #298, #523, #627, #75, #512, #234, #9, #297, #348, #237, #675, #462, #566, #682, #466, #186 ),
 .UNSPECIFIED., .F., .F.,
 ( 4, 2, 2, 2, 2, 2, 2, 2, 4 ),
 ( 0.000000000000000000, 0.002453987711823420008, 0.004907975423646840016, 0.009815950847293680032, 0.01963190169458735659, 0.02944785254188103663, 0.03926380338917472013, 0.05889570508376208019, 0.07852760677834944025 ),
 .UNSPECIFIED. ) ;
#276 = CARTESIAN_POINT ( 'NONE',  ( 46.49368696249865707, -1.664137407146998093, 14.87360983109478596 ) ) ;
#277 = CARTESIAN_POINT ( 'NONE',  ( 33.36315238501693869, 0.004710135094226855328, 13.47310891081369100 ) ) ;
#278 = CARTESIAN_POINT ( 'NONE',  ( 35.10410995655592359, 32.66350856023912996, 13.46106480309332198 ) ) ;
#279 = DIRECTION ( 'NONE',  ( 0.000000000000000000, 1.000000000000000000, -1.234799739587086749E-16 ) ) ;
#280 = CARTESIAN_POINT ( 'NONE',  ( 34.81652297045731359, 11.00000000000000178, 8.640851625621142063 ) ) ;
#281 = CARTESIAN_POINT ( 'NONE',  ( 67.39902069912041327, 0.6378145883691146434, -9.149395157964953285 ) ) ;
#282 = CARTESIAN_POINT ( 'NONE',  ( 24.48281763930941324, 3.666666666689344378, -10.47346543684891529 ) ) ;
#283 = CARTESIAN_POINT ( 'NONE',  ( 180.0000000000000000, -4.939198958348348179E-15, -40.00000000000000711 ) ) ;
#284 = CARTESIAN_POINT ( 'NONE',  ( -177.7641062538314998, -4.939198958348348179E-15, -40.00000000000000711 ) ) ;
#285 = CARTESIAN_POINT ( 'NONE',  ( 35.13056564755151356, 25.44233904015941761, 7.500577765213300552 ) ) ;
#286 = CARTESIAN_POINT ( 'NONE',  ( 35.00000000000000000, 11.00000000000000178, 8.640851625621142063 ) ) ;
#287 = CARTESIAN_POINT ( 'NONE',  ( 21.96928679143465146, 0.1922205513839507218, 12.35717027054474748 ) ) ;
#288 = CARTESIAN_POINT ( 'NONE',  ( -2.291403582232717895, 7.366666666665098617, -2.960326014032196085 ) ) ;
#289 = ORIENTED_EDGE ( 'NONE', *, *, #442, .T. ) ;
#290 = LINE ( 'NONE', #406, #702 ) ;
#291 = PLANE ( 'NONE',  #622 ) ;
#292 = CARTESIAN_POINT ( 'NONE',  ( 35.00000000000000000, 18.22116952007926827, 1.540090727333278675 ) ) ;
#293 = CARTESIAN_POINT ( 'NONE',  ( -2.291403582232717895, 7.366666666665098617, 0.9867753380107319172 ) ) ;
#294 = CARTESIAN_POINT ( 'NONE',  ( 35.00000000000000000, 11.00000000000000178, -4.420396310546742313 ) ) ;
#295 = CARTESIAN_POINT ( 'NONE',  ( 35.00000000000000000, 11.00000000000000000, 0.000000000000000000 ) ) ;
#296 = CARTESIAN_POINT ( 'NONE',  ( 35.81935224803233098, -2.938767836601020017E-10, 13.50000000005715073 ) ) ;
#297 = CARTESIAN_POINT ( 'NONE',  ( 12.26784592788008155, 0.4192835034310481990, -10.84518146971358021 ) ) ;
#298 = CARTESIAN_POINT ( 'NONE',  ( 33.36286875077348668, 0.004711483260020676682, -13.47310125272677617 ) ) ;
#299 = ADVANCED_FACE ( 'NONE', ( #315 ), #595, .T. ) ;
#300 = ADVANCED_FACE ( 'NONE', ( #211 ), #153, .F. ) ;
#301 = CARTESIAN_POINT ( 'NONE',  ( 34.81652297045731359, 11.00000000000000178, -4.420396310546742313 ) ) ;
#302 = ORIENTED_EDGE ( 'NONE', *, *, #611, .F. ) ;
#303 = CARTESIAN_POINT ( 'NONE',  ( 34.81652297045731359, 11.00000000000000178, 17.08176225576994156 ) ) ;
#304 = CARTESIAN_POINT ( 'NONE',  ( 35.00000000000000000, -1.664137407181393469, -14.87360983109121193 ) ) ;
#305 = CARTESIAN_POINT ( 'NONE',  ( 35.36310095847581891, -4.992412221385432503, -17.62082949314107339 ) ) ;
#306 = CARTESIAN_POINT ( 'NONE',  ( 35.00000000000000000, 11.00000000000000178, -1.473465436848913956 ) ) ;
#307 = SHAPE_DEFINITION_REPRESENTATION ( #386, #10 ) ;
#308 = ORIENTED_EDGE ( 'NONE', *, *, #611, .T. ) ;
#309 = CARTESIAN_POINT ( 'NONE',  ( 44.17385147713458338, 11.00000000000000178, 17.08176225576996998 ) ) ;
#310 = CARTESIAN_POINT ( 'NONE',  ( 72.96306902401053662, 4.911111111121436501, -4.987793306572434027 ) ) ;
#311 = CARTESIAN_POINT ( 'NONE',  ( 35.23597052245015959, -3.328274814256789504, -16.24721966209405011 ) ) ;
#312 = VERTEX_POINT ( 'NONE', #96 ) ;
#313 = B_SPLINE_SURFACE_WITH_KNOTS ( 'NONE', 3, 3, ( 
 ( #698, #48, #197, #632, #193, #136, #542 ),
 ( #42, #487, #207, #85, #598, #325, #547 ),
 ( #580, #31, #532, #689, #439, #158, #447 ),
 ( #380, #553, #106, #108, #264, #375, #384 ),
 ( #711, #334, #216, #322, #603, #593, #656 ),
 ( #160, #549, #45, #492, #163, #54, #388 ),
 ( #274, #500, #219, #555, #208, #700, #55 ),
 ( #709, #649, #213, #606, #276, #450, #659 ),
 ( #392, #269, #154, #600, #50, #645, #103 ),
 ( #609, #150, #327, #495, #706, #444, #653 ) ),
 .UNSPECIFIED., .F., .F., .F.,
 ( 4, 3, 3, 4 ),
 ( 4, 3, 4 ),
 ( -1.969409871745467111, 0.000000000000000000, 1.000000000000000000, 1.453855656505256722 ),
 ( -0.01000000000000000021, 0.000000000000000000, 1.000000000000000000 ),
 .UNSPECIFIED. ) ;
#314 = EDGE_LOOP ( 'NONE', ( #140, #624, #318, #470 ) ) ;
#315 = FACE_OUTER_BOUND ( 'NONE', #93, .T. ) ;
#316 = CARTESIAN_POINT ( 'NONE',  ( 119.3526563152608873, -0.03025704376645371035, -0.1548093451797860620 ) ) ;
#317 = CARTESIAN_POINT ( 'NONE',  ( 35.24206730565055068, -4.992412221384941340, -17.62082949314107339 ) ) ;
#318 = ORIENTED_EDGE ( 'NONE', *, *, #442, .F. ) ;
#319 = CARTESIAN_POINT ( 'NONE',  ( -49.35265631526088015, 0.2969409869305890681, -0.1331192088246027083 ) ) ;
#320 = FACE_OUTER_BOUND ( 'NONE', #120, .T. ) ;
#321 = CARTESIAN_POINT ( 'NONE',  ( 23.50631303751194778, -1.664137407088915444, -14.87360983104702328 ) ) ;
#322 = CARTESIAN_POINT ( 'NONE',  ( 35.00000000000000000, 7.333333333333331261, 7.446930873697829689 ) ) ;
#323 = FACE_OUTER_BOUND ( 'NONE', #539, .T. ) ;
#324 = CARTESIAN_POINT ( 'NONE',  ( -49.35265631526088015, 0.03333333333381806318, 0.09885092364505843054 ) ) ;
#325 = CARTESIAN_POINT ( 'NONE',  ( 69.64583447913773284, 17.03865737007948766, -5.025502187107405483 ) ) ;
#326 = CARTESIAN_POINT ( 'NONE',  ( 34.90826148522865680, 11.00000000000000178, 1.473465436848913956 ) ) ;
#327 = CARTESIAN_POINT ( 'NONE',  ( 34.87896634717441913, -4.992412221558314656, 17.62082949328436143 ) ) ;
#328 = CARTESIAN_POINT ( 'NONE',  ( 25.82614852286542373, 11.00000000000000178, -1.473465436848916621 ) ) ;
#329 = CARTESIAN_POINT ( 'NONE',  ( 119.3526563152608873, -0.04538556564992291681, -0.1681221802871724624 ) ) ;
#330 = CARTESIAN_POINT ( 'NONE',  ( 44.17385147713458338, 11.00000000000000178, -17.08176225577070184 ) ) ;
#331 = ADVANCED_FACE ( 'NONE', ( #320 ), #313, .F. ) ;
#332 = ADVANCED_FACE ( 'NONE', ( #419 ), #498, .F. ) ;
#333 = CARTESIAN_POINT ( 'NONE',  ( 119.3526563152608873, 0.1000000000004847289, -0.1552887477804865413 ) ) ;
#334 = CARTESIAN_POINT ( 'NONE',  ( 34.80308966162175466, 7.333333333333105664, 7.446930873697829689 ) ) ;
#335 = CARTESIAN_POINT ( 'NONE',  ( 28.46909011658030053, 0.06435047993137743561, 13.12747750533225322 ) ) ;
#336 = CARTESIAN_POINT ( 'NONE',  ( -49.35265631526088015, 0.1656469956375700991, 0.01758278893256740374 ) ) ;
#337 = EDGE_CURVE ( 'NONE', #621, #355, #424, .T. ) ;
#338 = DIRECTION ( 'NONE',  ( 0.000000000000000000, -3.704399218761262219E-16, -1.000000000000000000 ) ) ;
#339 = CIRCLE ( 'NONE', #58, 78.36000000000001364 ) ;
#340 = LINE ( 'NONE', #283, #148 ) ;
#341 = CARTESIAN_POINT ( 'NONE',  ( 105.9635167717919302, 1.162670925630606034, -1.733189012844556176 ) ) ;
#342 = PRODUCT_DEFINITION_FORMATION_WITH_SPECIFIED_SOURCE ( 'ANY', '', #199, .NOT_KNOWN. ) ;
#343 = CARTESIAN_POINT ( 'NONE',  ( 35.09845516918912978, 7.333333333333284187, -7.446930873697829689 ) ) ;
#344 = DIRECTION ( 'NONE',  ( 1.000000000000000000, 0.000000000000000000, 0.000000000000000000 ) ) ;
#345 = CARTESIAN_POINT ( 'NONE',  ( 34.90826148522865680, 11.00000000000000178, 12.86130694069554181 ) ) ;
#346 = CARTESIAN_POINT ( 'NONE',  ( 18.73181639999431169, 0.2682133910623082373, 11.87617095743019746 ) ) ;
#347 = CARTESIAN_POINT ( 'NONE',  ( 35.06528282377576033, 25.44233904015897352, 7.500577765213300552 ) ) ;
#348 = CARTESIAN_POINT ( 'NONE',  ( 9.043024433604308854, 0.4949042371104350191, -10.29248662951182958 ) ) ;
#349 = CARTESIAN_POINT ( 'NONE',  ( -177.7641062538314998, -77.18833849770837219, -1.364264494253606465E-09 ) ) ;
#350 = CARTESIAN_POINT ( 'NONE',  ( 9.044662697623724767, 0.4948668280638527928, 10.29277155070756677 ) ) ;
#351 = ORIENTED_EDGE ( 'NONE', *, *, #256, .F. ) ;
#352 = CARTESIAN_POINT ( 'NONE',  ( -42.38647124188108251, 1.170250349321864114, 0.4702700296872128760 ) ) ;
#353 = ORIENTED_EDGE ( 'NONE', *, *, #680, .F. ) ;
#354 = CARTESIAN_POINT ( 'NONE',  ( 35.00000000000000000, -2.928538529597870248E-10, 13.50000000005383427 ) ) ;
#355 = VERTEX_POINT ( 'NONE', #482 ) ;
#356 = CARTESIAN_POINT ( 'NONE',  ( 70.61825283535371511, 0.7052830642177002618, 8.557997693978903087 ) ) ;
#357 = CARTESIAN_POINT ( 'NONE',  ( 34.90826148522865680, 11.00000000000000178, -17.08176225577067697 ) ) ;
#358 = ORIENTED_EDGE ( 'NONE', *, *, #273, .T. ) ;
#359 = CARTESIAN_POINT ( 'NONE',  ( 46.18884780246860089, 3.401613579511557734E-11, -13.50000000000000000 ) ) ;
#360 = CARTESIAN_POINT ( 'NONE',  ( 105.9636373728769598, 1.162671067885648446, 1.733165299605207599 ) ) ;
#361 = LINE ( 'NONE', #517, #218 ) ;
#362 = B_SPLINE_CURVE_WITH_KNOTS ( 'NONE', 3,
 ( #634, #367, #677, #184 ),
 .UNSPECIFIED., .F., .F.,
 ( 4, 4 ),
 ( 0.000000000000000000, 0.9496377701827493079 ),
 .UNSPECIFIED. ) ;
#363 = VERTEX_POINT ( 'NONE', #35 ) ;
#364 = CARTESIAN_POINT ( 'NONE',  ( 35.00000000000000000, 11.00000000000000000, -4.420396310546743202 ) ) ;
#365 = CARTESIAN_POINT ( 'NONE',  ( 35.00000000000000000, 3.666666666666793528, -10.47346543684891351 ) ) ;
#366 = CARTESIAN_POINT ( 'NONE',  ( -4.306399907566149210, 3.411431316624367130E-11, -9.042727891652909022 ) ) ;
#367 = CARTESIAN_POINT ( 'NONE',  ( 26.28816413926619688, 11.00000000000000178, 4.420396310546749419 ) ) ;
#368 = PRODUCT_RELATED_PRODUCT_CATEGORY ( 'part', '', ( #199 ) ) ;
#369 = ORIENTED_EDGE ( 'NONE', *, *, #391, .F. ) ;
#370 = CARTESIAN_POINT ( 'NONE',  ( 34.72478445568597039, 11.00000000000000178, 17.08176225576994156 ) ) ;
#371 = AXIS2_PLACEMENT_3D ( 'NONE', #670, #660, #403 ) ;
#372 = CARTESIAN_POINT ( 'NONE',  ( 0.4926737253382023618, 7.723416783111182404, -3.103687550261776451 ) ) ;
#373 = CARTESIAN_POINT ( 'NONE',  ( 35.00000000000000000, 25.44233905808430407, 7.500577780009563433 ) ) ;
#374 = CARTESIAN_POINT ( 'NONE',  ( 86.69331903825816710, 0.9879803759359953030, 5.507370088528460883 ) ) ;
#375 = CARTESIAN_POINT ( 'NONE',  ( 72.29140358223271789, 7.366666666665098617, 2.960326014032196085 ) ) ;
#376 = CARTESIAN_POINT ( 'NONE',  ( 35.00000000000000000, 11.00000000000000178, -8.640851625621342791 ) ) ;
#377 = CARTESIAN_POINT ( 'NONE',  ( 25.82614852286542373, 11.00000000000000178, 4.420396310546749419 ) ) ;
#378 = CARTESIAN_POINT ( 'NONE',  ( 42.85106692571329745, 18.22116952901994580, 1.540090734731398125 ) ) ;
#379 = UNCERTAINTY_MEASURE_WITH_UNIT (LENGTH_MEASURE( 1.000000000000000082E-05 ), #615, 'distance_accuracy_value', 'NONE');
#380 = CARTESIAN_POINT ( 'NONE',  ( 34.72478445568597039, 10.99999999999999822, 4.420396310546743202 ) ) ;
#381 = CARTESIAN_POINT ( 'NONE',  ( 35.00000000000000000, 7.333333333333331261, 7.446930873697829689 ) ) ;
#382 = EDGE_CURVE ( 'NONE', #29, #23, #339, .T. ) ;
#383 = CARTESIAN_POINT ( 'NONE',  ( 44.17385147713458338, 11.00000000000000178, -8.640851625621401411 ) ) ;
#384 = CARTESIAN_POINT ( 'NONE',  ( 119.3526563152608873, 0.1000000000004847289, 0.04018542100516528381 ) ) ;
#385 = CARTESIAN_POINT ( 'NONE',  ( 35.00000000000000000, 11.00000000000000178, -12.86130694069594504 ) ) ;
#386 = PRODUCT_DEFINITION_SHAPE ( 'NONE', 'NONE',  #121 ) ;
#387 = CARTESIAN_POINT ( 'NONE',  ( 34.72478445568597039, 11.00000000000000178, 1.473465436848913956 ) ) ;
#388 = CARTESIAN_POINT ( 'NONE',  ( 119.3526563152608873, 0.03333333333381806318, 0.09885092364505843054 ) ) ;
#389 = DIRECTION ( 'NONE',  ( 0.000000000000000000, -1.000000000000000000, 0.000000000000000000 ) ) ;
#390 = CARTESIAN_POINT ( 'NONE',  ( 1.676950067104486131, 21.87465270239068715, 9.018416271662804462 ) ) ;
#391 = EDGE_CURVE ( 'NONE', #481, #477, #666, .T. ) ;
#392 = CARTESIAN_POINT ( 'NONE',  ( 34.64604421632413533, -3.328274814373203938, 16.24721966218957547 ) ) ;
#393 = CARTESIAN_POINT ( 'NONE',  ( 112.3864712417770022, 1.170250349337984774, -0.4702700296936061508 ) ) ;
#394 =( NAMED_UNIT ( * ) SI_UNIT ( $, .STERADIAN. ) SOLID_ANGLE_UNIT ( ) );
#395 = LINE ( 'NONE', #454, #644 ) ;
#396 = CARTESIAN_POINT ( 'NONE',  ( 34.72478445568597039, 11.00000000000000178, 12.86130694069554181 ) ) ;
#397 = CARTESIAN_POINT ( 'NONE',  ( -42.37415972234420281, 1.172131903551752341, 0.1567566765618149116 ) ) ;
#398 = CARTESIAN_POINT ( 'NONE',  ( -49.35265631526088015, 0.03333333333381804930, -0.09885092364506394003 ) ) ;
#399 = CARTESIAN_POINT ( 'NONE',  ( 112.3864712418810399, 1.170250349321863892, 0.4702700296872120989 ) ) ;
#400 = CARTESIAN_POINT ( 'NONE',  ( 99.54124283669676743, 1.124350227356134102, -2.998464540118114474 ) ) ;
#401 = STYLED_ITEM ( 'NONE', ( #570 ), #655 ) ;
#402 = B_SPLINE_CURVE_WITH_KNOTS ( 'NONE', 3,
 ( #393, #341, #400, #217, #161, #710, #281, #225, #562, #617, #62, #124, #568, #456, #717, #668, #170, #607 ),
 .UNSPECIFIED., .F., .F.,
 ( 4, 2, 2, 2, 2, 2, 2, 2, 4 ),
 ( 0.000000000000000000, 0.01963749140874435431, 0.03927498281748870862, 0.04909372852186087016, 0.05891247422623300395, 0.06873121993060513080, 0.07364059278279121157, 0.07609527920888424501, 0.07854996563497727846 ),
 .UNSPECIFIED. ) ;
#403 = DIRECTION ( 'NONE',  ( 0.000000000000000000, 0.000000000000000000, -1.000000000000000000 ) ) ;
#404 = CARTESIAN_POINT ( 'NONE',  ( 25.82614852286542373, 11.00000000000000178, -4.420396310546749419 ) ) ;
#405 = EDGE_CURVE ( 'NONE', #355, #477, #561, .T. ) ;
#406 = CARTESIAN_POINT ( 'NONE',  ( -80.00000000000000000, -4.939198958348348179E-15, -40.00000000000000711 ) ) ;
#407 = CARTESIAN_POINT ( 'NONE',  ( -80.00000000000000000, -9.806667398594621332, -40.00000000000000711 ) ) ;
#408 = CARTESIAN_POINT ( 'NONE',  ( -80.00000000000000000, 46.38782051106080928, 0.000000000000000000 ) ) ;
#409 = VECTOR ( 'NONE', #88, 1000.000000000000000 ) ;
#410 = LINE ( 'NONE', #463, #520 ) ;
#411 = EDGE_LOOP ( 'NONE', ( #369, #473, #620, #535 ) ) ;
#412 = CARTESIAN_POINT ( 'NONE',  ( -2.291403582232717895, 7.366666666665098617, 11.43960441977086795 ) ) ;
#413 = CARTESIAN_POINT ( 'NONE',  ( 180.0000000000000000, 0.000000000000000000, 0.000000000000000000 ) ) ;
#414 = VERTEX_POINT ( 'NONE', #505 ) ;
#415 = CARTESIAN_POINT ( 'NONE',  ( 35.00000000000000000, 11.00000000000000178, 17.08176225577004104 ) ) ;
#416 = EDGE_LOOP ( 'NONE', ( #358, #351, #678 ) ) ;
#417 = CARTESIAN_POINT ( 'NONE',  ( -2.291403582232717895, 7.366666666665098617, 5.786752149278420632 ) ) ;
#418 = CARTESIAN_POINT ( 'NONE',  ( -49.35265631526088015, 0.1000000000004847289, 0.04018542100516528381 ) ) ;
#419 = FACE_OUTER_BOUND ( 'NONE', #190, .T. ) ;
#420 = VERTEX_POINT ( 'NONE', #223 ) ;
#421 = CARTESIAN_POINT ( 'NONE',  ( 35.00000000000000000, 32.66350858712645078, 13.46106482528771586 ) ) ;
#422 = CARTESIAN_POINT ( 'NONE',  ( 99.54147298189452897, 1.124351663733343498, 2.998419185273822674 ) ) ;
#423 = ORIENTED_EDGE ( 'NONE', *, *, #458, .T. ) ;
#424 = LINE ( 'NONE', #253, #409 ) ;
#425 = CARTESIAN_POINT ( 'NONE',  ( -4.306399907566149210, 3.398691568872290159E-11, 9.042727891652909022 ) ) ;
#426 = FACE_OUTER_BOUND ( 'NONE', #416, .T. ) ;
#427 = CARTESIAN_POINT ( 'NONE',  ( -2.291403582232717895, 7.366666666665098617, 2.960326014032196085 ) ) ;
#428 = CARTESIAN_POINT ( 'NONE',  ( 112.3864712418810399, 1.170250349321863892, 0.4702700296872120989 ) ) ;
#429 = ORIENTED_EDGE ( 'NONE', *, *, #605, .T. ) ;
#430 = CARTESIAN_POINT ( 'NONE',  ( 35.00000000000000000, -4.992412221397318994, 17.62082949315187363 ) ) ;
#431 = CARTESIAN_POINT ( 'NONE',  ( 119.3526563152608873, 0.2312939914376170025, 0.07535099901370340136 ) ) ;
#432 = CARTESIAN_POINT ( 'NONE',  ( 112.3864712417770022, 1.170250349337984774, -0.4702700296936061508 ) ) ;
#433 = CARTESIAN_POINT ( 'NONE',  ( 25.82614852286542373, 11.00000000000000178, 8.640851625621191801 ) ) ;
#434 = AXIS2_PLACEMENT_3D ( 'NONE', #113, #715, #159 ) ;
#435 = CARTESIAN_POINT ( 'NONE',  ( -49.35265631526088015, -0.03025704376555964428, 0.1548093451789885611 ) ) ;
#436 = CARTESIAN_POINT ( 'NONE',  ( 68.32304992797001830, 21.87465272039794328, 9.018416286530769099 ) ) ;
#437 = CARTESIAN_POINT ( 'NONE',  ( 34.90826148522865680, 11.00000000000000178, -4.420396310546742313 ) ) ;
#438 = VECTOR ( 'NONE', #122, 1000.000000000000000 ) ;
#439 = CARTESIAN_POINT ( 'NONE',  ( 42.85106692558670005, 18.22116952971117243, -1.540090735301849811 ) ) ;
#440 = CARTESIAN_POINT ( 'NONE',  ( 25.82614852286542373, 11.00000000000000178, -17.08176225577057039 ) ) ;
#441 = CARTESIAN_POINT ( 'NONE',  ( 35.00000000000000000, -4.992412221544560325, -17.62082949327364290 ) ) ;
#442 = EDGE_CURVE ( 'NONE', #414, #477, #340, .T. ) ;
#443 = CARTESIAN_POINT ( 'NONE',  ( 44.17385147713458338, 11.00000000000000178, -12.86130694069605340 ) ) ;
#444 = CARTESIAN_POINT ( 'NONE',  ( 75.22091738765604418, -3.343403336205268861, 11.80326038894926199 ) ) ;
#445 = CARTESIAN_POINT ( 'NONE',  ( -2.291403582232717895, 7.366666666665098617, -2.960326014032196085 ) ) ;
#446 = CARTESIAN_POINT ( 'NONE',  ( 44.17385147713458338, 11.00000000000000178, -1.473465436848916621 ) ) ;
#447 = CARTESIAN_POINT ( 'NONE',  ( 119.3526563152608873, 0.1656469957253336178, -0.01758278900979238016 ) ) ;
#448 = CARTESIAN_POINT ( 'NONE',  ( -177.7641062538314998, 46.38782051106080928, 0.000000000000000000 ) ) ;
#449 = DIRECTION ( 'NONE',  ( 0.000000000000000000, 0.000000000000000000, 1.000000000000000000 ) ) ;
#450 = CARTESIAN_POINT ( 'NONE',  ( 74.61123906759611657, -1.114467778712431523, 9.962905390751693346 ) ) ;
#451 = FACE_OUTER_BOUND ( 'NONE', #201, .T. ) ;
#452 =( NAMED_UNIT ( * ) PLANE_ANGLE_UNIT ( ) SI_UNIT ( $, .RADIAN. ) );
#453 = CARTESIAN_POINT ( 'NONE',  ( 35.19691033837825245, 7.333333333333171389, -7.446930873697829689 ) ) ;
#454 = CARTESIAN_POINT ( 'NONE',  ( -177.7641062538314998, 46.38782051106080928, 40.00000000000000000 ) ) ;
#455 = CARTESIAN_POINT ( 'NONE',  ( 72.29140358223271789, 7.366666666665098617, 2.960326014032196085 ) ) ;
#456 = CARTESIAN_POINT ( 'NONE',  ( 39.08580977344463037, 0.02933528397672793483, -13.33136192490584193 ) ) ;
#457 = CARTESIAN_POINT ( 'NONE',  ( -3.634734465788338920, 2.455555555577775717, -7.015260599112671969 ) ) ;
#458 = EDGE_CURVE ( 'NONE', #525, #692, #258, .T. ) ;
#459 = CARTESIAN_POINT ( 'NONE',  ( 26.84151328649625157, 0.09427360015656996439, 12.95097337134774840 ) ) ;
#460 = CARTESIAN_POINT ( 'NONE',  ( 35.10517182360690924, 3.666666666666568375, -10.47346543684891351 ) ) ;
#461 = EDGE_CURVE ( 'NONE', #681, #355, #395, .T. ) ;
#462 = CARTESIAN_POINT ( 'NONE',  ( -10.26749193600821641, 0.8895606713401361665, -6.752427690127948523 ) ) ;
#463 = CARTESIAN_POINT ( 'NONE',  ( -177.7641062538314998, -9.806667398594621332, -40.00000000000000711 ) ) ;
#464 = B_SPLINE_CURVE_WITH_KNOTS ( 'NONE', 3,
 ( #2, #56, #397, #713 ),
 .UNSPECIFIED., .F., .F.,
 ( 4, 4 ),
 ( 9.540979117872439019E-18, 0.0009405400593808228675 ),
 .UNSPECIFIED. ) ;
#465 = UNCERTAINTY_MEASURE_WITH_UNIT (LENGTH_MEASURE( 1.000000000000000082E-05 ), #129, 'distance_accuracy_value', 'NONE');
#466 = CARTESIAN_POINT ( 'NONE',  ( -35.96363737277811623, 1.162671067946103642, -1.733165299571238771 ) ) ;
#467 = CLOSED_SHELL ( 'NONE', ( #205, #149, #243, #169, #12, #224, #299, #705, #529, #300, #331, #332 ) ) ;
#468 = FACE_OUTER_BOUND ( 'NONE', #33, .T. ) ;
#469 = CARTESIAN_POINT ( 'NONE',  ( 25.82614852286542373, 11.00000000000000178, 12.86130694069563241 ) ) ;
#470 = ORIENTED_EDGE ( 'NONE', *, *, #22, .F. ) ;
#471 = SURFACE_STYLE_FILL_AREA ( #673 ) ;
#472 = B_SPLINE_CURVE_WITH_KNOTS ( 'NONE', 3,
 ( #352, #230, #674, #71, #180, #17, #125, #350, #571, #346, #287, #459, #335, #118, #509, #277, #5, #177 ),
 .UNSPECIFIED., .F., .F.,
 ( 4, 2, 2, 2, 2, 2, 2, 2, 4 ),
 ( 0.000000000000000000, 0.01963749140878250435, 0.03927498281756500870, 0.04909372852195625914, 0.05891247422634750264, 0.06873121993073876002, 0.07364059278293438870, 0.07609527920903220999, 0.07854996563513003127 ),
 .UNSPECIFIED. ) ;
#473 = ORIENTED_EDGE ( 'NONE', *, *, #543, .T. ) ;
#474 = B_SPLINE_CURVE_WITH_KNOTS ( 'NONE', 3,
 ( #354, #296, #77, #514, #97, #633, #485, #137, #194, #488, #533, #544, #356, #480, #374, #422, #360, #91 ),
 .UNSPECIFIED., .F., .F.,
 ( 4, 2, 2, 2, 2, 2, 2, 2, 4 ),
 ( 0.000000000000000000, 0.002453987711821127137, 0.004907975423642254274, 0.009815950847284487732, 0.01963190169456895812, 0.02944785254185342330, 0.03926380338913786766, 0.05889570508370676333, 0.07852760677827565206 ),
 .UNSPECIFIED. ) ;
#475 = CARTESIAN_POINT ( 'NONE',  ( 44.17385147713458338, 11.00000000000000178, -4.420396310546749419 ) ) ;
#476 = CARTESIAN_POINT ( 'NONE',  ( 35.31551547082072062, 3.666666666666117180, -10.47346543684891351 ) ) ;
#477 = VERTEX_POINT ( 'NONE', #564 ) ;
#478 = CARTESIAN_POINT ( 'NONE',  ( 23.20147387749090129, -3.328274814220820055, 16.24721966210124791 ) ) ;
#479 = CARTESIAN_POINT ( 'NONE',  ( 41.52828237429201153, 25.44233905803989160, 7.500577780009546558 ) ) ;
#480 = CARTESIAN_POINT ( 'NONE',  ( 80.26749193607773236, 0.8895606710870311851, 6.752427690334662280 ) ) ;
#481 = VERTEX_POINT ( 'NONE', #64 ) ;
#482 = CARTESIAN_POINT ( 'NONE',  ( 180.0000000000000000, 46.38782051106080928, 40.00000000000000000 ) ) ;
#483 = CARTESIAN_POINT ( 'NONE',  ( 35.00000000000000000, -3.036128408969369186E-25, 13.50000000000000000 ) ) ;
#484 = CARTESIAN_POINT ( 'NONE',  ( 74.61123906759533497, -1.114467778709385293, -9.962905390749302370 ) ) ;
#485 = CARTESIAN_POINT ( 'NONE',  ( 43.16078833445340734, 0.09431719260453695630, 12.95071326328564787 ) ) ;
#486 = CARTESIAN_POINT ( 'NONE',  ( 29.79450217258357014, 32.66350856224486421, -13.46106480480464818 ) ) ;
#487 = CARTESIAN_POINT ( 'NONE',  ( 34.86943435251924228, 25.44233905946764551, -7.500577781150466805 ) ) ;
#488 = CARTESIAN_POINT ( 'NONE',  ( 57.73215407216633821, 0.4192835029996747620, 10.84518147007311129 ) ) ;
#489 = CARTESIAN_POINT ( 'NONE',  ( 35.00000000000000000, 11.00000000000000178, -12.86130694069603031 ) ) ;
#490 = EDGE_CURVE ( 'NONE', #29, #621, #57, .T. ) ;
#491 = B_SPLINE_SURFACE_WITH_KNOTS ( 'NONE', 3, 3, ( 
 ( #210, #440, #545, #270 ),
 ( #385, #155, #214, #654 ),
 ( #376, #265, #594, #51 ),
 ( #98, #601, #445, #650 ),
 ( #104, #328, #550, #496 ),
 ( #707, #8, #293, #19 ),
 ( #576, #192, #427, #418 ),
 ( #39, #433, #417, #233 ),
 ( #573, #469, #679, #179 ),
 ( #415, #188, #412, #516 ) ),
 .UNSPECIFIED., .F., .F., .F.,
 ( 4, 3, 3, 4 ),
 ( 4, 4 ),
 ( -1.432152804378049593, 0.000000000000000000, 1.000000000000000000, 2.432152804377992972 ),
 ( 0.000000000000000000, 1.000000000000000000 ),
 .UNSPECIFIED. ) ;
#492 = CARTESIAN_POINT ( 'NONE',  ( 35.00000000000000000, 3.666666666666665630, 10.47346543684891351 ) ) ;
#493 = CARTESIAN_POINT ( 'NONE',  ( 35.00000000000000000, -3.328274814264879478, 16.24721966210124791 ) ) ;
#494 = CARTESIAN_POINT ( 'NONE',  ( 34.81652297045731359, 11.00000000000000178, -8.640851625621385423 ) ) ;
#495 = CARTESIAN_POINT ( 'NONE',  ( 35.00000000000000000, -4.992412221557823493, 17.62082949328436143 ) ) ;
#496 = CARTESIAN_POINT ( 'NONE',  ( -49.35265631526088015, 0.1000000000004847289, -0.01339514033505509460 ) ) ;
#497 = CARTESIAN_POINT ( 'NONE',  ( 75.22091738765367097, -3.343403336196383968, -11.80326038894208551 ) ) ;
#498 = B_SPLINE_SURFACE_WITH_KNOTS ( 'NONE', 3, 3, ( 
 ( #548, #49, #357, #524, #330, #703, #333 ),
 ( #268, #578, #152, #489, #443, #554, #134 ),
 ( #241, #494, #25, #189, #383, #552, #652 ),
 ( #157, #301, #437, #599, #604, #44, #683 ),
 ( #630, #53, #83, #306, #446, #528, #101 ),
 ( #387, #272, #326, #212, #699, #263, #499 ),
 ( #708, #107, #215, #648, #65, #455, #716 ),
 ( #567, #280, #221, #286, #4, #513, #667 ),
 ( #396, #175, #345, #227, #11, #596, #266 ),
 ( #370, #303, #191, #589, #309, #94, #540 ) ),
 .UNSPECIFIED., .F., .F., .F.,
 ( 4, 3, 3, 4 ),
 ( 4, 3, 4 ),
 ( -1.432152804378064692, 0.000000000000000000, 1.000000000000000000, 2.432152804377981425 ),
 ( -0.01000000000000000021, 0.000000000000000000, 1.000000000000000000 ),
 .UNSPECIFIED. ) ;
#499 = CARTESIAN_POINT ( 'NONE',  ( 119.3526563152608873, 0.1000000000004847289, 0.01339514033505509460 ) ) ;
#500 = CARTESIAN_POINT ( 'NONE',  ( 34.77622304395062969, -6.765188505930879657E-13, 13.50000000000000000 ) ) ;
#501 = AXIS2_PLACEMENT_3D ( 'NONE', #349, #657, #114 ) ;
#502 = DIRECTION ( 'NONE',  ( 1.000000000000000000, 0.000000000000000000, 0.000000000000000000 ) ) ;
#503 = CYLINDRICAL_SURFACE ( 'NONE', #501, 78.36000000000001364 ) ;
#504 = CARTESIAN_POINT ( 'NONE',  ( 35.00000000000000000, 25.44233904015852943, 7.500577765213300552 ) ) ;
#505 = CARTESIAN_POINT ( 'NONE',  ( 180.0000000000000000, -9.806667398594621332, -40.00000000000000711 ) ) ;
#506 = FACE_OUTER_BOUND ( 'NONE', #314, .T. ) ;
#507 = CARTESIAN_POINT ( 'NONE',  ( 28.47171762242432891, 25.44233904011412051, 7.500577765213282788 ) ) ;
#508 = EDGE_CURVE ( 'NONE', #414, #621, #586, .T. ) ;
#509 = CARTESIAN_POINT ( 'NONE',  ( 31.72986313271167802, 0.01933862031112679875, 13.38902591635224582 ) ) ;
#510 = CARTESIAN_POINT ( 'NONE',  ( 35.05205497827796535, 32.66350856023846205, 13.46106480309332198 ) ) ;
#511 = ORIENTED_EDGE ( 'NONE', *, *, #337, .T. ) ;
#512 = CARTESIAN_POINT ( 'NONE',  ( 26.83921166557180626, 0.09431719313553957318, -12.95071326284542756 ) ) ;
#513 = CARTESIAN_POINT ( 'NONE',  ( 72.29140358223271789, 7.366666666665098617, 5.786752149278396651 ) ) ;
#514 = CARTESIAN_POINT ( 'NONE',  ( 38.27091658737285229, 0.01934679736586983681, 13.38897882715468768 ) ) ;
#515 = CARTESIAN_POINT ( 'NONE',  ( 43.71183586073379956, 11.00000000000000178, 4.420396310546748531 ) ) ;
#516 = CARTESIAN_POINT ( 'NONE',  ( -49.35265631526088015, 0.1000000000004847289, 0.1552887477804807681 ) ) ;
#517 = CARTESIAN_POINT ( 'NONE',  ( 35.00000000000000000, -3.036128408969369186E-25, 13.50000000000000000 ) ) ;
#518 = ORIENTED_EDGE ( 'NONE', *, *, #102, .F. ) ;
#519 =( NAMED_UNIT ( * ) SI_UNIT ( $, .STERADIAN. ) SOLID_ANGLE_UNIT ( ) );
#520 = VECTOR ( 'NONE', #251, 1000.000000000000000 ) ;
#521 = ORIENTED_EDGE ( 'NONE', *, *, #138, .T. ) ;
#522 = PRESENTATION_LAYER_ASSIGNMENT (  '', '', ( #401 ) ) ;
#523 = CARTESIAN_POINT ( 'NONE',  ( 31.72908341264615117, 0.01934679791808208843, -13.38897882669881412 ) ) ;
#524 = CARTESIAN_POINT ( 'NONE',  ( 35.00000000000000000, 11.00000000000000178, -17.08176225577067697 ) ) ;
#525 = VERTEX_POINT ( 'NONE', #46 ) ;
#526 = CARTESIAN_POINT ( 'NONE',  ( 72.29140358223271789, 7.366666666665098617, -2.960326014032196085 ) ) ;
#527 = CARTESIAN_POINT ( 'NONE',  ( 35.00000000000000000, 1.901932654763641534E-13, -13.50000000000000000 ) ) ;
#528 = CARTESIAN_POINT ( 'NONE',  ( 72.29140358223271789, 7.366666666665098617, -0.9867753380107321393 ) ) ;
#529 = ADVANCED_FACE ( 'NONE', ( #323 ), #491, .T. ) ;
#530 = EDGE_LOOP ( 'NONE', ( #521, #127, #423, #195, #429, #575 ) ) ;
#531 = CARTESIAN_POINT ( 'NONE',  ( -42.38647124177703063, 1.170250349337983220, -0.4702700296936003777 ) ) ;
#532 = CARTESIAN_POINT ( 'NONE',  ( 34.92148933074413719, 18.22116952973360071, -1.540090735301862024 ) ) ;
#533 = CARTESIAN_POINT ( 'NONE',  ( 60.95697556644658732, 0.4949042367042990609, 10.29248662985000706 ) ) ;
#534 = VECTOR ( 'NONE', #623, 1000.000000000000000 ) ;
#535 = ORIENTED_EDGE ( 'NONE', *, *, #405, .T. ) ;
#536 = LINE ( 'NONE', #364, #712 ) ;
#537 = CARTESIAN_POINT ( 'NONE',  ( 45.51718236069059031, 3.666666666689344378, -10.47346543684891529 ) ) ;
#538 = CARTESIAN_POINT ( 'NONE',  ( 22.89663471747304158, -4.992412221334778799, -17.62082949314106983 ) ) ;
#539 = EDGE_LOOP ( 'NONE', ( #588, #582, #684, #130 ) ) ;
#540 = CARTESIAN_POINT ( 'NONE',  ( 119.3526563152608873, 0.1000000000004847289, 0.1552887477804798799 ) ) ;
#541 = CARTESIAN_POINT ( 'NONE',  ( 35.00000000000000000, 10.99999999999999822, 4.420396310546743202 ) ) ;
#542 = CARTESIAN_POINT ( 'NONE',  ( 119.3526563152608873, 0.2969409871750314234, -0.1331192090397076977 ) ) ;
#543 = EDGE_CURVE ( 'NONE', #481, #681, #619, .T. ) ;
#544 = CARTESIAN_POINT ( 'NONE',  ( 67.40008070462464218, 0.6378370377935952407, 9.149201291898380717 ) ) ;
#545 = CARTESIAN_POINT ( 'NONE',  ( -2.291403582232717895, 7.366666666665098617, -11.43960441977120190 ) ) ;
#546 = CARTESIAN_POINT ( 'NONE',  ( 23.50631303751115198, -1.664137407093496890, 14.87360983105062573 ) ) ;
#547 = CARTESIAN_POINT ( 'NONE',  ( 119.3526563152608873, 0.2312939914501825067, -0.07535099902475003719 ) ) ;
#548 = CARTESIAN_POINT ( 'NONE',  ( 34.72478445568597039, 11.00000000000000178, -17.08176225577067697 ) ) ;
#549 = CARTESIAN_POINT ( 'NONE',  ( 34.78965635278618862, 3.666666666666214880, 10.47346543684891351 ) ) ;
#550 = CARTESIAN_POINT ( 'NONE',  ( -2.291403582232717895, 7.366666666665098617, -0.9867753380107321393 ) ) ;
#551 = CARTESIAN_POINT ( 'NONE',  ( -2.963069024010528629, 4.911111111121394757, 4.987793306572434915 ) ) ;
#552 = CARTESIAN_POINT ( 'NONE',  ( 72.29140358223271789, 7.366666666665098617, -5.786752149278560964 ) ) ;
#553 = CARTESIAN_POINT ( 'NONE',  ( 34.81652297045731359, 10.99999999999999822, 4.420396310546743202 ) ) ;
#554 = CARTESIAN_POINT ( 'NONE',  ( 72.29140358223271789, 7.366666666665098617, -8.613178284524925843 ) ) ;
#555 = CARTESIAN_POINT ( 'NONE',  ( 35.00000000000000000, -3.036128408969369186E-25, 13.50000000000000000 ) ) ;
#556 = DIRECTION ( 'NONE',  ( 0.000000000000000000, -0.000000000000000000, -1.000000000000000000 ) ) ;
#557 = CARTESIAN_POINT ( 'NONE',  ( 35.27521554431403672, 11.00000000000000178, -4.420396310546743202 ) ) ;
#558 = PLANE ( 'NONE',  #560 ) ;
#559 = CARTESIAN_POINT ( 'NONE',  ( -0.9686190324536497753, 12.20266201190696265, 1.032588081199471208 ) ) ;
#560 = AXIS2_PLACEMENT_3D ( 'NONE', #284, #664, #228 ) ;
#561 = LINE ( 'NONE', #61, #181 ) ;
#562 = CARTESIAN_POINT ( 'NONE',  ( 57.73016919036916761, 0.4192369291530178566, -10.84551075486659855 ) ) ;
#563 = CARTESIAN_POINT ( 'NONE',  ( -49.35265631526088015, 0.06666666666715138911, -0.06951817232511460498 ) ) ;
#564 = CARTESIAN_POINT ( 'NONE',  ( 180.0000000000000000, 46.38782051106080928, -40.00000000000001421 ) ) ;
#565 = DIRECTION ( 'NONE',  ( 0.000000000000000000, 1.000000000000000000, -3.704399218761262219E-16 ) ) ;
#566 = CARTESIAN_POINT ( 'NONE',  ( -16.69331903818211771, 0.9879803761389349681, -5.507370088366073446 ) ) ;
#567 = CARTESIAN_POINT ( 'NONE',  ( 34.72478445568597039, 11.00000000000000178, 8.640851625621142063 ) ) ;
#568 = CARTESIAN_POINT ( 'NONE',  ( 41.53090988336465728, 0.06435048047037141006, -13.12747750488882836 ) ) ;
#569 = CARTESIAN_POINT ( 'NONE',  ( 35.19584847132725969, 25.44233904015986170, 7.500577765213300552 ) ) ;
#570 = PRESENTATION_STYLE_ASSIGNMENT (( #14 ) ) ;
#571 = CARTESIAN_POINT ( 'NONE',  ( 12.26983080955837835, 0.4192369287222284524, 10.84551075522175800 ) ) ;
#572 = LINE ( 'NONE', #295, #534 ) ;
#573 = CARTESIAN_POINT ( 'NONE',  ( 35.00000000000000000, 11.00000000000000178, 12.86130694069560754 ) ) ;
#574 = SURFACE_SIDE_STYLE ('',( #471 ) ) ;
#575 = ORIENTED_EDGE ( 'NONE', *, *, #173, .T. ) ;
#576 = CARTESIAN_POINT ( 'NONE',  ( 35.00000000000000000, 11.00000000000000178, 4.420396310546742313 ) ) ;
#577 = CARTESIAN_POINT ( 'NONE',  ( 35.35395578367523228, -3.328274814257230041, -16.24721966209405011 ) ) ;
#578 = CARTESIAN_POINT ( 'NONE',  ( 34.81652297045731359, 11.00000000000000178, -12.86130694069603031 ) ) ;
#579 = ORIENTED_EDGE ( 'NONE', *, *, #458, .F. ) ;
#580 = CARTESIAN_POINT ( 'NONE',  ( 34.76446799223240447, 18.22116952973404480, -1.540090735301862024 ) ) ;
#581 = CARTESIAN_POINT ( 'NONE',  ( -42.38647124177703063, 1.170250349337983220, -0.4702700296936003777 ) ) ;
#582 = ORIENTED_EDGE ( 'NONE', *, *, #68, .T. ) ;
#583 = CARTESIAN_POINT ( 'NONE',  ( 28.47171762267752015, 25.44233904149657377, -7.500577766354182607 ) ) ;
#584 = CARTESIAN_POINT ( 'NONE',  ( 119.3526563152608873, 0.1000000000004847289, -0.04018542100516528381 ) ) ;
#585 = CARTESIAN_POINT ( 'NONE',  ( 23.81115219753140266, 3.401613579511557734E-11, -13.50000000000000000 ) ) ;
#586 = CIRCLE ( 'NONE', #434, 78.36000000000001364 ) ;
#587 = EDGE_CURVE ( 'NONE', #481, #23, #290, .T. ) ;
#588 = ORIENTED_EDGE ( 'NONE', *, *, #256, .T. ) ;
#589 = CARTESIAN_POINT ( 'NONE',  ( 35.00000000000000000, 11.00000000000000178, 17.08176225576994156 ) ) ;
#590 = CARTESIAN_POINT ( 'NONE',  ( 26.28816413927343731, 11.00000000000000355, -4.420396310546749419 ) ) ;
#591 = CARTESIAN_POINT ( 'NONE',  ( 46.49368696249786836, -1.664137407142450176, -14.87360983109121193 ) ) ;
#592 = CARTESIAN_POINT ( 'NONE',  ( 35.34481060887465276, -1.664137407129027357, -14.87360983104702328 ) ) ;
#593 = CARTESIAN_POINT ( 'NONE',  ( 72.96306902401053662, 4.911111111121394757, 4.987793306572434915 ) ) ;
#594 = CARTESIAN_POINT ( 'NONE',  ( -2.291403582232717895, 7.366666666665098617, -5.786752149278531654 ) ) ;
#595 = B_SPLINE_SURFACE_WITH_KNOTS ( 'NONE', 3, 3, ( 
 ( #641, #486, #688, #319 ),
 ( #271, #583, #254, #196 ),
 ( #248, #636, #99, #267 ),
 ( #541, #377, #30, #693 ),
 ( #381, #36, #551, #602 ),
 ( #41, #206, #597, #324 ),
 ( #483, #202, #425, #697 ),
 ( #89, #546, #701, #47 ),
 ( #493, #478, #260, #435 ),
 ( #430, #141, #145, #151 ) ),
 .UNSPECIFIED., .F., .F., .F.,
 ( 4, 3, 3, 4 ),
 ( 4, 4 ),
 ( -1.969409869301043337, 0.000000000000000000, 1.000000000000000000, 1.453855656490665504 ),
 ( 0.000000000000000000, 1.000000000000000000 ),
 .UNSPECIFIED. ) ;
#596 = CARTESIAN_POINT ( 'NONE',  ( 72.29140358223271789, 7.366666666665098617, 8.613178284524597217 ) ) ;
#597 = CARTESIAN_POINT ( 'NONE',  ( -3.634734465788338920, 2.455555555577691340, 7.015260599112671969 ) ) ;
#598 = CARTESIAN_POINT ( 'NONE',  ( 41.52828237403881673, 25.44233905942234841, -7.500577781150449042 ) ) ;
#599 = CARTESIAN_POINT ( 'NONE',  ( 35.00000000000000000, 11.00000000000000178, -4.420396310546742313 ) ) ;
#600 = CARTESIAN_POINT ( 'NONE',  ( 35.00000000000000000, -3.328274814371881885, 16.24721966218957547 ) ) ;
#601 = CARTESIAN_POINT ( 'NONE',  ( 25.82614852286542373, 11.00000000000000178, -4.420396310546749419 ) ) ;
#602 = CARTESIAN_POINT ( 'NONE',  ( -49.35265631526088015, 0.06666666666715138911, 0.06951817232511185718 ) ) ;
#603 = CARTESIAN_POINT ( 'NONE',  ( 44.84551691891258685, 7.333333333344609350, 7.446930873697834130 ) ) ;
#604 = CARTESIAN_POINT ( 'NONE',  ( 44.17385147713458338, 11.00000000000000178, -4.420396310546749419 ) ) ;
#605 = EDGE_CURVE ( 'NONE', #691, #687, #275, .T. ) ;
#606 = CARTESIAN_POINT ( 'NONE',  ( 35.00000000000000000, -1.664137407185940942, 14.87360983109478596 ) ) ;
#607 = CARTESIAN_POINT ( 'NONE',  ( 35.00000000000000000, 3.353636684978552698E-12, -13.49999999999514699 ) ) ;
#608 = CARTESIAN_POINT ( 'NONE',  ( 35.00000000000000000, 7.333333333333396098, -7.446930873697829689 ) ) ;
#609 = CARTESIAN_POINT ( 'NONE',  ( 34.63689904152322896, -4.992412221559298757, 17.62082949328436143 ) ) ;
#610 = CARTESIAN_POINT ( 'NONE',  ( -177.7641062538314998, -9.806667400214371000, 40.00000000000000000 ) ) ;
#611 = EDGE_CURVE ( 'NONE', #692, #363, #78, .T. ) ;
#612 = CARTESIAN_POINT ( 'NONE',  ( 35.09173851477135031, 11.00000000000000178, -4.420396310546743202 ) ) ;
#613 = CARTESIAN_POINT ( 'NONE',  ( 112.3741597223084767, 1.172131903557211974, -0.1567566765652755045 ) ) ;
#614 = FACE_OUTER_BOUND ( 'NONE', #411, .T. ) ;
#615 =( LENGTH_UNIT ( ) NAMED_UNIT ( * ) SI_UNIT ( .MILLI., .METRE. ) );
#616 = ORIENTED_EDGE ( 'NONE', *, *, #74, .F. ) ;
#617 = CARTESIAN_POINT ( 'NONE',  ( 51.26818359993865926, 0.2682133915410521707, -11.87617095703537728 ) ) ;
#618 = CARTESIAN_POINT ( 'NONE',  ( -49.35265631526088015, 0.2312939912746554416, 0.07535099887030008436 ) ) ;
#619 = LINE ( 'NONE', #408, #438 ) ;
#620 = ORIENTED_EDGE ( 'NONE', *, *, #461, .T. ) ;
#621 = VERTEX_POINT ( 'NONE', #229 ) ;
#622 = AXIS2_PLACEMENT_3D ( 'NONE', #112, #338, #565 ) ;
#623 = DIRECTION ( 'NONE',  ( -0.000000000000000000, -0.000000000000000000, 1.000000000000000000 ) ) ;
#624 = ORIENTED_EDGE ( 'NONE', *, *, #391, .T. ) ;
#625 = CARTESIAN_POINT ( 'NONE',  ( 69.50732627466180702, 7.723416783111181516, -3.103687550261776007 ) ) ;
#626 = ORIENTED_EDGE ( 'NONE', *, *, #405, .F. ) ;
#627 = CARTESIAN_POINT ( 'NONE',  ( 30.91310460009556493, 0.02934880684794642647, -13.33128381338680768 ) ) ;
#628 = ORIENTED_EDGE ( 'NONE', *, *, #490, .T. ) ;
#629 = CARTESIAN_POINT ( 'NONE',  ( 35.00000000000000000, -1.664137407127858959, -14.87360983104702328 ) ) ;
#630 = CARTESIAN_POINT ( 'NONE',  ( 34.72478445568597039, 11.00000000000000178, -1.473465436848913956 ) ) ;
#631 = ORIENTED_EDGE ( 'NONE', *, *, #74, .T. ) ;
#632 = CARTESIAN_POINT ( 'NONE',  ( 35.00000000000000000, 32.66350858920013422, -13.46106482699907225 ) ) ;
#633 = CARTESIAN_POINT ( 'NONE',  ( 41.53302702511427924, 0.06438485171726297807, 13.12727610835601055 ) ) ;
#634 = CARTESIAN_POINT ( 'NONE',  ( 35.00000000000000000, 11.00000000000000178, 4.420396310546742313 ) ) ;
#635 = EDGE_LOOP ( 'NONE', ( #239, #18, #628, #511 ) ) ;
#636 = CARTESIAN_POINT ( 'NONE',  ( 27.14893307277147372, 18.22116952074828689, -1.540090727903716594 ) ) ;
#637 = CARTESIAN_POINT ( 'NONE',  ( 74.91607822762449587, -2.228935557452884630, -10.88308288984569394 ) ) ;
#638 = CARTESIAN_POINT ( 'NONE',  ( 35.33566543407406613, -8.245850104128122502E-13, -13.50000000000000000 ) ) ;
#639 = PLANE ( 'NONE',  #126 ) ;
#640 = ORIENTED_EDGE ( 'NONE', *, *, #543, .F. ) ;
#641 = CARTESIAN_POINT ( 'NONE',  ( 35.00000000000000000, 32.66350856231147048, -13.46106480480467305 ) ) ;
#642 = CARTESIAN_POINT ( 'NONE',  ( 70.96861903081182277, 12.20266201790938076, 1.032588086155459051 ) ) ;
#643 = CARTESIAN_POINT ( 'NONE',  ( -4.916078227604873341, -2.228935557381181543, -10.88308288978648974 ) ) ;
#644 = VECTOR ( 'NONE', #1, 1000.000000000000000 ) ;
#645 = CARTESIAN_POINT ( 'NONE',  ( 74.91607822762608748, -2.228935557458850525, 10.88308288985047767 ) ) ;
#646 = CARTESIAN_POINT ( 'NONE',  ( 35.00000000000000000, 11.00000000000000178, -4.420396310546742313 ) ) ;
#647 = CARTESIAN_POINT ( 'NONE',  ( 119.3526563152608873, 0.1656469957190508657, 0.01758278900426905877 ) ) ;
#648 = CARTESIAN_POINT ( 'NONE',  ( 35.00000000000000000, 11.00000000000000178, 4.420396310546742313 ) ) ;
#649 = CARTESIAN_POINT ( 'NONE',  ( 34.77012626075003254, -1.664137407186719875, 14.87360983109478596 ) ) ;
#650 = CARTESIAN_POINT ( 'NONE',  ( -49.35265631526088015, 0.1000000000004847289, -0.04018542100516528381 ) ) ;
#651 = CARTESIAN_POINT ( 'NONE',  ( 47.10336528255638910, -4.992412221495382774, -17.62082949327363579 ) ) ;
#652 = CARTESIAN_POINT ( 'NONE',  ( 119.3526563152608873, 0.1000000000004847289, -0.07855319659693903167 ) ) ;
#653 = CARTESIAN_POINT ( 'NONE',  ( 119.3526563152608873, -0.04538556565004094739, 0.1681221802872643889 ) ) ;
#654 = CARTESIAN_POINT ( 'NONE',  ( -49.35265631526088015, 0.1000000000004847289, -0.1169209721887119746 ) ) ;
#655 = MANIFOLD_SOLID_BREP ( 'Combine1[1]', #467 ) ;
#656 = CARTESIAN_POINT ( 'NONE',  ( 119.3526563152608873, 0.06666666666715138911, 0.06951817232511185718 ) ) ;
#657 = DIRECTION ( 'NONE',  ( 1.000000000000000000, 0.000000000000000000, 0.000000000000000000 ) ) ;
#658 = CARTESIAN_POINT ( 'NONE',  ( 35.18347702954269351, 11.00000000000000178, -4.420396310546743202 ) ) ;
#659 = CARTESIAN_POINT ( 'NONE',  ( 119.3526563152608873, -0.01512852188302383355, 0.1414965100724248082 ) ) ;
#660 = DIRECTION ( 'NONE',  ( 1.000000000000000000, 0.000000000000000000, 0.000000000000000000 ) ) ;
#661 = CARTESIAN_POINT ( 'NONE',  ( 35.29536550756738222, 7.333333333333058590, -7.446930873697829689 ) ) ;
#662 = CARTESIAN_POINT ( 'NONE',  ( 112.3741597223414317, 1.172131903551958843, 0.1567566765616678348 ) ) ;
#663 = EDGE_CURVE ( 'NONE', #681, #29, #131, .T. ) ;
#664 = DIRECTION ( 'NONE',  ( 0.000000000000000000, -1.234799739587086995E-16, -1.000000000000000000 ) ) ;
#665 = CARTESIAN_POINT ( 'NONE',  ( -49.35265631526088015, 0.2969409869117408118, 0.1331192088080327685 ) ) ;
#666 = LINE ( 'NONE', #168, #92 ) ;
#667 = CARTESIAN_POINT ( 'NONE',  ( 119.3526563152608873, 0.1000000000004847289, 0.07855319659693681122 ) ) ;
#668 = CARTESIAN_POINT ( 'NONE',  ( 36.63684761493443887, 0.004710135650341978897, -13.47310891035602154 ) ) ;
#669 = CARTESIAN_POINT ( 'NONE',  ( -49.35265631526088015, 0.1000000000004847289, -0.04018542100516528381 ) ) ;
#670 = CARTESIAN_POINT ( 'NONE',  ( -80.00000000000000000, -77.18833849770837219, -1.364264494253606465E-09 ) ) ;
#671 = DIRECTION ( 'NONE',  ( 1.000000000000000000, 0.000000000000000000, 0.000000000000000000 ) ) ;
#672 = ORIENTED_EDGE ( 'NONE', *, *, #138, .F. ) ;
#673 = FILL_AREA_STYLE ('',( #70 ) ) ;
#674 = CARTESIAN_POINT ( 'NONE',  ( -29.54124283679413310, 1.124350227249528711, 2.998464540192848471 ) ) ;
#675 = CARTESIAN_POINT ( 'NONE',  ( -0.6182528352922255221, 0.7052830645472698556, -8.557997693706143494 ) ) ;
#676 = CARTESIAN_POINT ( 'NONE',  ( 112.3864712417770022, 1.170250349337984774, -0.4702700296936061508 ) ) ;
#677 = CARTESIAN_POINT ( 'NONE',  ( 0.4926737252953641288, 7.723416783105738759, 3.103687550259589756 ) ) ;
#678 = ORIENTED_EDGE ( 'NONE', *, *, #605, .F. ) ;
#679 = CARTESIAN_POINT ( 'NONE',  ( -2.291403582232717895, 7.366666666665098617, 8.613178284524643402 ) ) ;
#680 = EDGE_CURVE ( 'NONE', #420, #525, #474, .T. ) ;
#681 = VERTEX_POINT ( 'NONE', #690 ) ;
#682 = CARTESIAN_POINT ( 'NONE',  ( -29.54147298180327397, 1.124351663840003068, -2.998419185197860770 ) ) ;
#683 = CARTESIAN_POINT ( 'NONE',  ( 119.3526563152608873, 0.1000000000004847289, -0.04018542100516528381 ) ) ;
#684 = ORIENTED_EDGE ( 'NONE', *, *, #123, .T. ) ;
#685 = CARTESIAN_POINT ( 'NONE',  ( 40.20549782287073270, 32.66350858705983029, 13.46106482528769455 ) ) ;
#686 = CARTESIAN_POINT ( 'NONE',  ( 35.21034364721381849, 3.666666666666342778, -10.47346543684891351 ) ) ;
#687 = VERTEX_POINT ( 'NONE', #581 ) ;
#688 = CARTESIAN_POINT ( 'NONE',  ( 1.676950067484278772, 21.87465270377942872, -9.018416272809240297 ) ) ;
#689 = CARTESIAN_POINT ( 'NONE',  ( 35.00000000000000000, 18.22116952973337689, -1.540090735301862024 ) ) ;
#690 = CARTESIAN_POINT ( 'NONE',  ( -80.00000000000000000, 46.38782051106080928, 40.00000000000000000 ) ) ;
#691 = VERTEX_POINT ( 'NONE', #204 ) ;
#692 = VERTEX_POINT ( 'NONE', #432 ) ;
#693 = CARTESIAN_POINT ( 'NONE',  ( -49.35265631526088015, 0.1000000000004847289, 0.04018542100516528381 ) ) ;
#694 = CARTESIAN_POINT ( 'NONE',  ( 119.3526563152608873, 0.03333333333381804930, -0.09885092364506394003 ) ) ;
#695 = CARTESIAN_POINT ( 'NONE',  ( 23.20147387749249646, -3.328274814211847232, -16.24721966209404656 ) ) ;
#696 = DIRECTION ( 'NONE',  ( 0.000000000000000000, -3.542059164832683751E-15, -1.000000000000000000 ) ) ;
#697 = CARTESIAN_POINT ( 'NONE',  ( -49.35265631526088015, 4.847253474810136358E-13, 0.1281836749650050178 ) ) ;
#698 = CARTESIAN_POINT ( 'NONE',  ( 34.84383506532528685, 32.66350858920213085, -13.46106482699907225 ) ) ;
#699 = CARTESIAN_POINT ( 'NONE',  ( 44.17385147713458338, 11.00000000000000178, 1.473465436848916399 ) ) ;
#700 = CARTESIAN_POINT ( 'NONE',  ( 74.30639990756615987, 3.398691568872290159E-11, 9.042727891652909022 ) ) ;
#701 = CARTESIAN_POINT ( 'NONE',  ( -4.611239067586311080, -1.114467778676601961, 9.962905390722111676 ) ) ;
#702 = VECTOR ( 'NONE', #240, 1000.000000000000000 ) ;
#703 = CARTESIAN_POINT ( 'NONE',  ( 72.29140358223271789, 7.366666666665098617, -11.43960441977128895 ) ) ;
#704 = PRODUCT_DEFINITION_CONTEXT ( 'detailed design', #176, 'design' ) ;
#705 = ADVANCED_FACE ( 'NONE', ( #426 ), #109, .T. ) ;
#706 = CARTESIAN_POINT ( 'NONE',  ( 47.10336528255876232, -4.992412221508645942, 17.62082949328435433 ) ) ;
#707 = CARTESIAN_POINT ( 'NONE',  ( 35.00000000000000000, 11.00000000000000178, 1.473465436848913956 ) ) ;
#708 = CARTESIAN_POINT ( 'NONE',  ( 34.72478445568597039, 11.00000000000000178, 4.420396310546742313 ) ) ;
#709 = CARTESIAN_POINT ( 'NONE',  ( 34.65518939112503460, -1.664137407187109341, 14.87360983109478596 ) ) ;
#710 = CARTESIAN_POINT ( 'NONE',  ( 70.61739074184626475, 0.7052657292710797776, -8.558157314355391065 ) ) ;
#711 = CARTESIAN_POINT ( 'NONE',  ( 34.70463449243262488, 7.333333333332992865, 7.446930873697829689 ) ) ;
#712 = VECTOR ( 'NONE', #95, 1000.000000000000114 ) ;
#713 = CARTESIAN_POINT ( 'NONE',  ( -42.38647124188108251, 1.170250349321864114, 0.4702700296872128760 ) ) ;
#714 = CARTESIAN_POINT ( 'NONE',  ( 35.15616493483386762, 32.66350856023979077, 13.46106480309332198 ) ) ;
#715 = DIRECTION ( 'NONE',  ( 1.000000000000000000, -0.000000000000000000, 0.000000000000000000 ) ) ;
#716 = CARTESIAN_POINT ( 'NONE',  ( 119.3526563152608873, 0.1000000000004847289, 0.04018542100516528381 ) ) ;
#717 = CARTESIAN_POINT ( 'NONE',  ( 38.27013686723700658, 0.01933862086300054683, -13.38902591589842395 ) ) ;
#718 = PRODUCT_CONTEXT ( 'NONE', #16, 'mechanical' ) ;
ENDSEC;
END-ISO-10303-21;
