ISO-10303-21;
HEADER;
FILE_DESCRIPTION (( 'STEP AP214' ),
    '1' );
FILE_NAME ('newshell_supersonic_trapezoid_cfd_larger.STEP',
    '2025-10-03T18:28:36',
    ( '' ),
    ( '' ),
    'SwSTEP 2.0',
    'SolidWorks 2025',
    '' );
FILE_SCHEMA (( 'AUTOMOTIVE_DESIGN' ));
ENDSEC;

DATA;
#1 = CARTESIAN_POINT ( 'NONE',  ( 24.48281763930941324, 3.666666666689344378, -10.47346543684891529 ) ) ;
#2 = ADVANCED_FACE ( 'NONE', ( #223 ), #214, .F. ) ;
#3 = CARTESIAN_POINT ( 'NONE',  ( -49.35265631526088015, 0.2312939912872209458, -0.07535099888134669244 ) ) ;
#4 = CARTESIAN_POINT ( 'NONE',  ( -4.306399907566149210, 3.411431316624367130E-11, -9.042727891652909022 ) ) ;
#5 = CARTESIAN_POINT ( 'NONE',  ( -80.00000000000001421, -1.850371707708595549E-15, 40.00000000000002132 ) ) ;
#6 = CARTESIAN_POINT ( 'NONE',  ( 35.81926060407474210, -2.238678433439962401E-13, -13.50000000000237144 ) ) ;
#7 = CARTESIAN_POINT ( 'NONE',  ( 35.19691033837825245, 7.333333333333171389, -7.446930873697829689 ) ) ;
#8 = CARTESIAN_POINT ( 'NONE',  ( 28.47171762267752015, 25.44233904149657377, -7.500577766354182607 ) ) ;
#9 = CARTESIAN_POINT ( 'NONE',  ( -250.0000000000000568, 140.1933325997856343, 40.00000000000002842 ) ) ;
#10 = ADVANCED_FACE ( 'NONE', ( #110 ), #210, .F. ) ;
#11 = ORIENTED_EDGE ( 'NONE', *, *, #241, .T. ) ;
#12 = CARTESIAN_POINT ( 'NONE',  ( -2.963069024010528629, 4.911111111121436501, -4.987793306572434027 ) ) ;
#13 = DIRECTION ( 'NONE',  ( 0.000000000000000000, 1.000000000000000000, 4.625929269271485791E-17 ) ) ;
#14 = CARTESIAN_POINT ( 'NONE',  ( 12.26784592788008155, 0.4192835034310481990, -10.84518146971358021 ) ) ;
#15 = CARTESIAN_POINT ( 'NONE',  ( 75.22091738765604418, -3.343403336205268861, 11.80326038894926199 ) ) ;
#16 = CARTESIAN_POINT ( 'NONE',  ( -49.35265631526088015, 0.2312939912746554416, 0.07535099887030008436 ) ) ;
#17 = CARTESIAN_POINT ( 'NONE',  ( 70.61825283535371511, 0.7052830642177002618, 8.557997693978903087 ) ) ;
#18 = CARTESIAN_POINT ( 'NONE',  ( 35.00000000000000000, 11.00000000000000178, 4.420396310546742313 ) ) ;
#19 = CLOSED_SHELL ( 'NONE', ( #518, #475, #419, #129, #139, #2, #364, #565, #648, #10, #260, #446 ) ) ;
#20 = DIRECTION ( 'NONE',  ( 0.000000000000000000, -1.000000000000000000, -4.625929269271484558E-17 ) ) ;
#21 = EDGE_CURVE ( 'NONE', #383, #563, #570, .T. ) ;
#22 = CARTESIAN_POINT ( 'NONE',  ( 34.90826148522865680, 11.00000000000000178, -8.640851625621385423 ) ) ;
#23 = DIRECTION ( 'NONE',  ( 1.000000000000000000, -0.000000000000000000, 0.000000000000000000 ) ) ;
#24 = CARTESIAN_POINT ( 'NONE',  ( -2.291403582232717895, 7.366666666665098617, -5.786752149278531654 ) ) ;
#25 = CARTESIAN_POINT ( 'NONE',  ( 34.90826148522865680, 11.00000000000000178, -12.86130694069603031 ) ) ;
#26 = ORIENTED_EDGE ( 'NONE', *, *, #489, .T. ) ;
#27 = CARTESIAN_POINT ( 'NONE',  ( 35.18347702954269351, 11.00000000000000178, -4.420396310546743202 ) ) ;
#28 = FACE_OUTER_BOUND ( 'NONE', #474, .T. ) ;
#29 = FACE_OUTER_BOUND ( 'NONE', #255, .T. ) ;
#30 = EDGE_LOOP ( 'NONE', ( #537, #107, #232, #414, #89, #662 ) ) ;
#31 = EDGE_CURVE ( 'NONE', #583, #171, #375, .T. ) ;
#32 = CARTESIAN_POINT ( 'NONE',  ( 25.82614852286542373, 11.00000000000000178, 1.473465436848916399 ) ) ;
#33 = PRESENTATION_STYLE_ASSIGNMENT (( #135 ) ) ;
#34 = CARTESIAN_POINT ( 'NONE',  ( 180.0000000000000000, 0.000000000000000000, 0.000000000000000000 ) ) ;
#35 = VERTEX_POINT ( 'NONE', #395 ) ;
#36 = DIRECTION ( 'NONE',  ( 1.000000000000000000, 0.000000000000000000, 0.000000000000000000 ) ) ;
#37 = CARTESIAN_POINT ( 'NONE',  ( 35.00000000000000000, 11.00000000000000178, 1.473465436848913956 ) ) ;
#38 = CARTESIAN_POINT ( 'NONE',  ( 34.72478445568597039, 10.99999999999999822, 4.420396310546743202 ) ) ;
#39 =( NAMED_UNIT ( * ) PLANE_ANGLE_UNIT ( ) SI_UNIT ( $, .RADIAN. ) );
#40 = CARTESIAN_POINT ( 'NONE',  ( 34.72478445568597039, 11.00000000000000178, 17.08176225576994156 ) ) ;
#41 = CARTESIAN_POINT ( 'NONE',  ( 34.90826148522865680, 10.99999999999999822, 4.420396310546743202 ) ) ;
#42 = CARTESIAN_POINT ( 'NONE',  ( 72.29140358223271789, 7.366666666665098617, -2.960326014032196085 ) ) ;
#43 = VECTOR ( 'NONE', #587, 1000.000000000000000 ) ;
#44 = CARTESIAN_POINT ( 'NONE',  ( 34.90826148522865680, 11.00000000000000178, -4.420396310546742313 ) ) ;
#45 = CARTESIAN_POINT ( 'NONE',  ( 46.49368696249865707, -1.664137407146998093, 14.87360983109478596 ) ) ;
#46 = CARTESIAN_POINT ( 'NONE',  ( 119.3526563152608873, 0.2312939914376170025, 0.07535099901370340136 ) ) ;
#47 = CARTESIAN_POINT ( 'NONE',  ( -2.291403582232717895, 7.366666666665098617, 0.9867753380107319172 ) ) ;
#48 = CARTESIAN_POINT ( 'NONE',  ( 34.18064775196508265, 2.935710051367201363E-12, -13.49999999999753442 ) ) ;
#49 = CARTESIAN_POINT ( 'NONE',  ( 72.29140358223271789, 7.366666666665098617, 2.960326014032196085 ) ) ;
#50 = CARTESIAN_POINT ( 'NONE',  ( 72.29140358223271789, 7.366666666665098617, 8.613178284524597217 ) ) ;
#51 = CARTESIAN_POINT ( 'NONE',  ( 119.3526563152608873, 4.847253474810136358E-13, 0.1281836749650050178 ) ) ;
#52 = CARTESIAN_POINT ( 'NONE',  ( 46.79852612252712873, -3.328274814318916697, -16.24721966218242386 ) ) ;
#53 = EDGE_CURVE ( 'NONE', #94, #667, #452, .T. ) ;
#54 = CARTESIAN_POINT ( 'NONE',  ( -49.35265631526088015, -0.03025704376548035354, -0.1548093451789295527 ) ) ;
#55 = VECTOR ( 'NONE', #180, 1000.000000000000000 ) ;
#56 = CARTESIAN_POINT ( 'NONE',  ( 23.50631303751115198, -1.664137407093496890, 14.87360983105062573 ) ) ;
#57 = CARTESIAN_POINT ( 'NONE',  ( 35.00000000000000000, 3.666666666666793528, -10.47346543684891351 ) ) ;
#58 = PRODUCT ( 'newshell_supersonic_trapezoid_cfd_larger', 'newshell_supersonic_trapezoid_cfd_larger', '', ( #653 ) ) ;
#59 = CARTESIAN_POINT ( 'NONE',  ( 35.35395578367523228, -3.328274814257230041, -16.24721966209405011 ) ) ;
#60 = CARTESIAN_POINT ( 'NONE',  ( -49.35265631526088015, -0.03025704376555964428, 0.1548093451789885611 ) ) ;
#61 = CARTESIAN_POINT ( 'NONE',  ( 60.95533730230231839, 0.4948668284694670016, -10.29277155037337543 ) ) ;
#62 = CARTESIAN_POINT ( 'NONE',  ( 35.11798526122507980, -3.328274814256348968, -16.24721966209405011 ) ) ;
#63 = CARTESIAN_POINT ( 'NONE',  ( -49.35265631526088015, 4.847253474810136358E-13, 0.1281836749650050178 ) ) ;
#64 = CARTESIAN_POINT ( 'NONE',  ( 38.27013686723700658, 0.01933862086300054683, -13.38902591589842395 ) ) ;
#65 = CARTESIAN_POINT ( 'NONE',  ( -250.0000000000000568, -77.18833849770837219, -1.364264494253606465E-09 ) ) ;
#66 = CARTESIAN_POINT ( 'NONE',  ( -49.35265631526088015, -0.04538556564858182985, 0.1681221802859803327 ) ) ;
#67 = CYLINDRICAL_SURFACE ( 'NONE', #184, 78.36000000000001364 ) ;
#68 = CARTESIAN_POINT ( 'NONE',  ( 35.00000000000000000, 3.666666666666665630, 10.47346543684891351 ) ) ;
#69 = CARTESIAN_POINT ( 'NONE',  ( -80.00000000000001421, -9.806667398594621332, -40.00000000000000711 ) ) ;
#70 = CARTESIAN_POINT ( 'NONE',  ( -250.0000000000000568, 140.1933325997856343, 0.000000000000000000 ) ) ;
#71 = CARTESIAN_POINT ( 'NONE',  ( 18.73181639999431169, 0.2682133910623082373, 11.87617095743019746 ) ) ;
#72 = EDGE_CURVE ( 'NONE', #667, #687, #400, .T. ) ;
#73 = CARTESIAN_POINT ( 'NONE',  ( 25.82614852286542373, 11.00000000000000178, -8.640851625621358778 ) ) ;
#74 = CARTESIAN_POINT ( 'NONE',  ( 72.29140358223271789, 7.366666666665098617, -8.613178284524925843 ) ) ;
#75 = FACE_OUTER_BOUND ( 'NONE', #198, .T. ) ;
#76 = CIRCLE ( 'NONE', #512, 78.36000000000001364 ) ;
#77 = EDGE_LOOP ( 'NONE', ( #145, #712, #410, #85 ) ) ;
#78 = CARTESIAN_POINT ( 'NONE',  ( 25.82614852286542373, 11.00000000000000178, -12.86130694069596458 ) ) ;
#79 = FILL_AREA_STYLE ('',( #535 ) ) ;
#80 = CARTESIAN_POINT ( 'NONE',  ( 26.28816413926619688, 11.00000000000000178, 4.420396310546749419 ) ) ;
#81 = ORIENTED_EDGE ( 'NONE', *, *, #182, .T. ) ;
#82 = CARTESIAN_POINT ( 'NONE',  ( -49.35265631526088015, 0.1000000000004847289, -0.01339514033505509460 ) ) ;
#83 = SURFACE_STYLE_FILL_AREA ( #79 ) ;
#84 = CARTESIAN_POINT ( 'NONE',  ( 34.86943435251924228, 25.44233905946764551, -7.500577781150466805 ) ) ;
#85 = ORIENTED_EDGE ( 'NONE', *, *, #354, .T. ) ;
#86 = CARTESIAN_POINT ( 'NONE',  ( -42.37415972234420281, 1.172131903551752341, 0.1567566765618149116 ) ) ;
#87 = CARTESIAN_POINT ( 'NONE',  ( 105.9636373728769598, 1.162671067885648446, 1.733165299605207599 ) ) ;
#88 = DIRECTION ( 'NONE',  ( 0.000000000000000000, 4.625929269271484558E-17, -1.000000000000000000 ) ) ;
#89 = ORIENTED_EDGE ( 'NONE', *, *, #499, .T. ) ;
#90 = AXIS2_PLACEMENT_3D ( 'NONE', #194, #93, #147 ) ;
#91 = DIRECTION ( 'NONE',  ( 1.000000000000000000, 0.000000000000000000, 0.000000000000000000 ) ) ;
#92 = CARTESIAN_POINT ( 'NONE',  ( 34.90826148522865680, 11.00000000000000178, 12.86130694069554181 ) ) ;
#93 = DIRECTION ( 'NONE',  ( 1.000000000000000000, -0.000000000000000000, 0.000000000000000000 ) ) ;
#94 = VERTEX_POINT ( 'NONE', #413 ) ;
#95 = CARTESIAN_POINT ( 'NONE',  ( 119.3526563152608873, 0.1000000000004847289, 0.07855319659693681122 ) ) ;
#96 = CARTESIAN_POINT ( 'NONE',  ( 34.77622304395062969, -6.765188505930879657E-13, 13.50000000000000000 ) ) ;
#97 = DIRECTION ( 'NONE',  ( 0.000000000000000000, 4.625929269271485791E-17, -1.000000000000000000 ) ) ;
#98 = CARTESIAN_POINT ( 'NONE',  ( 34.76402947754943540, -3.328274814372763402, 16.24721966218957547 ) ) ;
#99 = CARTESIAN_POINT ( 'NONE',  ( 46.49368696249786836, -1.664137407142450176, -14.87360983109121193 ) ) ;
#100 = VECTOR ( 'NONE', #111, 1000.000000000000000 ) ;
#101 = CARTESIAN_POINT ( 'NONE',  ( 35.00000000000000000, 11.00000000000000178, -4.420396310546742313 ) ) ;
#102 = CARTESIAN_POINT ( 'NONE',  ( 74.61123906759533497, -1.114467778709385293, -9.962905390749302370 ) ) ;
#103 = B_SPLINE_CURVE_WITH_KNOTS ( 'NONE', 3,
 ( #481, #467, #131, #424 ),
 .UNSPECIFIED., .F., .F.,
 ( 4, 4 ),
 ( 0.05036222981803921417, 1.000000000000000000 ),
 .UNSPECIFIED. ) ;
#104 = CARTESIAN_POINT ( 'NONE',  ( 35.00000000000000000, 11.00000000000000178, -1.473465436848913956 ) ) ;
#105 = CARTESIAN_POINT ( 'NONE',  ( 34.63689904152322896, -4.992412221559298757, 17.62082949328436143 ) ) ;
#106 = CARTESIAN_POINT ( 'NONE',  ( 119.3526563152608873, 0.03333333333381804930, -0.09885092364506394003 ) ) ;
#107 = ORIENTED_EDGE ( 'NONE', *, *, #396, .T. ) ;
#108 = CARTESIAN_POINT ( 'NONE',  ( 35.11188847802468871, -1.480661598200279895E-13, -13.50000000000000000 ) ) ;
#109 = CARTESIAN_POINT ( 'NONE',  ( 119.3526563152608873, 0.2312939914501825067, -0.07535099902475003719 ) ) ;
#110 = FACE_OUTER_BOUND ( 'NONE', #369, .T. ) ;
#111 = DIRECTION ( 'NONE',  ( 1.000000000000000000, 0.000000000000000000, 0.000000000000000000 ) ) ;
#112 = CARTESIAN_POINT ( 'NONE',  ( 23.81115219753140266, 3.382594252963891026E-11, 13.50000000000000000 ) ) ;
#113 = CARTESIAN_POINT ( 'NONE',  ( 21.96928679143465146, 0.1922205513839507218, 12.35717027054474748 ) ) ;
#114 = ORIENTED_EDGE ( 'NONE', *, *, #215, .F. ) ;
#115 = CARTESIAN_POINT ( 'NONE',  ( 35.22377695604937742, -4.863255851164201830E-13, -13.50000000000000000 ) ) ;
#116 = CARTESIAN_POINT ( 'NONE',  ( 35.00000000000000000, 7.333333333333331261, 7.446930873697829689 ) ) ;
#117 = ORIENTED_EDGE ( 'NONE', *, *, #215, .T. ) ;
#118 = CARTESIAN_POINT ( 'NONE',  ( 112.3864712418810399, 1.170250349321863892, 0.4702700296872120989 ) ) ;
#119 = CARTESIAN_POINT ( 'NONE',  ( -5.220917387626633932, -3.343403336097779732, 11.80326038886051698 ) ) ;
#120 = B_SPLINE_CURVE_WITH_KNOTS ( 'NONE', 3,
 ( #418, #644, #86, #593 ),
 .UNSPECIFIED., .F., .F.,
 ( 4, 4 ),
 ( 9.540979117872439019E-18, 0.0009405400593808228675 ),
 .UNSPECIFIED. ) ;
#121 = CARTESIAN_POINT ( 'NONE',  ( 35.00000000000000000, -3.328274814255908431, -16.24721966209405011 ) ) ;
#122 = CARTESIAN_POINT ( 'NONE',  ( 35.00000000000000000, -2.928538529597870248E-10, 13.50000000005383427 ) ) ;
#123 = AXIS2_PLACEMENT_3D ( 'NONE', #159, #166, #505 ) ;
#124 = CARTESIAN_POINT ( 'NONE',  ( 80.26707023713146327, 0.8895543602674715888, -6.752509987384061496 ) ) ;
#125 = UNCERTAINTY_MEASURE_WITH_UNIT (LENGTH_MEASURE( 1.000000000000000082E-05 ), #300, 'distance_accuracy_value', 'NONE');
#126 = CARTESIAN_POINT ( 'NONE',  ( 112.3864712417770022, 1.170250349337984774, -0.4702700296936061508 ) ) ;
#127 = CARTESIAN_POINT ( 'NONE',  ( 34.72478445568597039, 11.00000000000000178, -17.08176225577067697 ) ) ;
#128 = CARTESIAN_POINT ( 'NONE',  ( 35.00000000000000000, -2.928538529597870248E-10, 13.50000000005383427 ) ) ;
#129 = ADVANCED_FACE ( 'NONE', ( #200 ), #190, .T. ) ;
#130 = CARTESIAN_POINT ( 'NONE',  ( 35.00000000000000000, 18.22116952007926827, 1.540090727333278675 ) ) ;
#131 = CARTESIAN_POINT ( 'NONE',  ( 26.28816413927343731, 11.00000000000000355, -4.420396310546749419 ) ) ;
#132 = CARTESIAN_POINT ( 'NONE',  ( 35.00000000000000000, 32.66350858920013422, -13.46106482699907225 ) ) ;
#133 = EDGE_LOOP ( 'NONE', ( #397, #506, #353 ) ) ;
#134 = CARTESIAN_POINT ( 'NONE',  ( 35.06528282377576033, 25.44233904015897352, 7.500577765213300552 ) ) ;
#135 = SURFACE_STYLE_USAGE ( .BOTH. , #531 ) ;
#136 = CARTESIAN_POINT ( 'NONE',  ( 112.3864712417770022, 1.170250349337984774, -0.4702700296936061508 ) ) ;
#137 = ORIENTED_EDGE ( 'NONE', *, *, #627, .F. ) ;
#138 = CARTESIAN_POINT ( 'NONE',  ( 35.00000000000000000, 11.00000000000000178, -1.473465436848913956 ) ) ;
#139 = ADVANCED_FACE ( 'NONE', ( #29 ), #479, .T. ) ;
#140 = DIRECTION ( 'NONE',  ( 0.000000000000000000, -1.000000000000000000, 0.000000000000000000 ) ) ;
#141 = CARTESIAN_POINT ( 'NONE',  ( 68.32304992759023321, 21.87465272178668130, -9.018416287677206711 ) ) ;
#142 = CARTESIAN_POINT ( 'NONE',  ( 35.00000000000000000, 11.00000000000000178, -17.08176225577054552 ) ) ;
#143 = CARTESIAN_POINT ( 'NONE',  ( 34.72478445568597039, 11.00000000000000178, -12.86130694069603031 ) ) ;
#144 = CARTESIAN_POINT ( 'NONE',  ( 35.00000000000000000, 11.00000000000000178, 4.420396310546742313 ) ) ;
#145 = ORIENTED_EDGE ( 'NONE', *, *, #53, .F. ) ;
#146 = CARTESIAN_POINT ( 'NONE',  ( 35.00000000000000000, 11.00000000000000178, 17.08176225576994156 ) ) ;
#147 = DIRECTION ( 'NONE',  ( 0.000000000000000000, 0.000000000000000000, -1.000000000000000000 ) ) ;
#148 = VERTEX_POINT ( 'NONE', #635 ) ;
#149 = COLOUR_RGB ( '',1.000000000000000000, 1.000000000000000000, 1.000000000000000000 ) ;
#150 = CARTESIAN_POINT ( 'NONE',  ( 34.81652297045731359, 11.00000000000000178, -1.473465436848913956 ) ) ;
#151 = CARTESIAN_POINT ( 'NONE',  ( 34.88811152197531840, -3.382594252966957471E-13, 13.50000000000000000 ) ) ;
#152 = B_SPLINE_SURFACE_WITH_KNOTS ( 'NONE', 3, 3, ( 
 ( #127, #477, #349, #293, #523, #696, #352 ),
 ( #143, #581, #25, #634, #420, #74, #472 ),
 ( #193, #249, #22, #470, #690, #189, #412 ),
 ( #274, #704, #44, #101, #494, #500, #203 ),
 ( #660, #150, #212, #104, #657, #432, #718 ),
 ( #539, #428, #160, #37, #328, #650, #263 ),
 ( #647, #381, #437, #710, #372, #611, #312 ),
 ( #157, #552, #271, #602, #607, #154, #95 ),
 ( #320, #316, #92, #208, #379, #50, #542 ),
 ( #40, #222, #261, #146, #488, #706, #654 ) ),
 .UNSPECIFIED., .F., .F., .F.,
 ( 4, 3, 3, 4 ),
 ( 4, 3, 4 ),
 ( -1.432152804378064692, 0.000000000000000000, 1.000000000000000000, 2.432152804377981425 ),
 ( -0.01000000000000000021, 0.000000000000000000, 1.000000000000000000 ),
 .UNSPECIFIED. ) ;
#153 = CARTESIAN_POINT ( 'NONE',  ( 45.51718236069059031, 3.666666666689344378, -10.47346543684891529 ) ) ;
#154 = CARTESIAN_POINT ( 'NONE',  ( 72.29140358223271789, 7.366666666665098617, 5.786752149278396651 ) ) ;
#155 = CARTESIAN_POINT ( 'NONE',  ( 35.00000000000000000, 7.333333333333331261, 7.446930873697829689 ) ) ;
#156 = CARTESIAN_POINT ( 'NONE',  ( 41.52828237429201153, 25.44233905803989160, 7.500577780009546558 ) ) ;
#157 = CARTESIAN_POINT ( 'NONE',  ( 34.72478445568597039, 11.00000000000000178, 8.640851625621142063 ) ) ;
#158 = CARTESIAN_POINT ( 'NONE',  ( 34.77012626075003254, -1.664137407186719875, 14.87360983109478596 ) ) ;
#159 = CARTESIAN_POINT ( 'NONE',  ( -80.00000000000000000, -77.18833849770837219, -1.364264494253606465E-09 ) ) ;
#160 = CARTESIAN_POINT ( 'NONE',  ( 34.90826148522865680, 11.00000000000000178, 1.473465436848913956 ) ) ;
#161 = EDGE_CURVE ( 'NONE', #171, #201, #257, .T. ) ;
#162 = CARTESIAN_POINT ( 'NONE',  ( 35.00000000000000000, -3.328274814371881885, 16.24721966218957547 ) ) ;
#163 = CARTESIAN_POINT ( 'NONE',  ( 46.18884780246860089, 3.401613579511557734E-11, -13.50000000000000000 ) ) ;
#164 = CARTESIAN_POINT ( 'NONE',  ( 22.89663471747304158, -4.992412221334778799, -17.62082949314106983 ) ) ;
#165 = CARTESIAN_POINT ( 'NONE',  ( 45.51718236069059031, 3.666666666689217369, 10.47346543684891529 ) ) ;
#166 = DIRECTION ( 'NONE',  ( 1.000000000000000000, 0.000000000000000000, 0.000000000000000000 ) ) ;
#167 = ORIENTED_EDGE ( 'NONE', *, *, #528, .F. ) ;
#168 = CARTESIAN_POINT ( 'NONE',  ( 9.043024433604308854, 0.4949042371104350191, -10.29248662951182958 ) ) ;
#169 = CARTESIAN_POINT ( 'NONE',  ( -4.306399907566149210, 3.398691568872290159E-11, 9.042727891652909022 ) ) ;
#170 = CARTESIAN_POINT ( 'NONE',  ( 43.15848671344613763, 0.09427360068694562445, -12.95097337091118561 ) ) ;
#171 = VERTEX_POINT ( 'NONE', #529 ) ;
#172 = FACE_OUTER_BOUND ( 'NONE', #567, .T. ) ;
#173 = CARTESIAN_POINT ( 'NONE',  ( 0.3541655175786132537, 17.03865735807465143, -5.025502177195427578 ) ) ;
#174 = CARTESIAN_POINT ( 'NONE',  ( -16.69289394918942193, 0.9879748576629944212, 5.507452685850409146 ) ) ;
#175 = EDGE_CURVE ( 'NONE', #532, #583, #294, .T. ) ;
#176 = CARTESIAN_POINT ( 'NONE',  ( -49.35265631526088015, 0.03333333333381804930, -0.09885092364506394003 ) ) ;
#177 = DIRECTION ( 'NONE',  ( 0.000000000000000000, -1.000000000000000000, -4.625929269271485791E-17 ) ) ;
#178 = CARTESIAN_POINT ( 'NONE',  ( 41.53090988336465728, 0.06435048047037141006, -13.12747750488882836 ) ) ;
#179 = FACE_OUTER_BOUND ( 'NONE', #227, .T. ) ;
#180 = DIRECTION ( 'NONE',  ( 0.000000000000000000, 1.000000000000000000, 4.625929269271484558E-17 ) ) ;
#181 = CARTESIAN_POINT ( 'NONE',  ( 35.07851066927355532, 18.22116952007948854, 1.540090727333278675 ) ) ;
#182 = EDGE_CURVE ( 'NONE', #258, #532, #284, .T. ) ;
#183 = CARTESIAN_POINT ( 'NONE',  ( -2.291403582232717895, 7.366666666665098617, 2.960326014032196085 ) ) ;
#184 = AXIS2_PLACEMENT_3D ( 'NONE', #65, #664, #617 ) ;
#185 = CARTESIAN_POINT ( 'NONE',  ( -49.35265631526088015, 0.1000000000004847289, -0.1552887477804853200 ) ) ;
#186 = CARTESIAN_POINT ( 'NONE',  ( 80.26749193607773236, 0.8895606710870311851, 6.752427690334662280 ) ) ;
#187 = LINE ( 'NONE', #246, #585 ) ;
#188 = CARTESIAN_POINT ( 'NONE',  ( -2.291403582232717895, 7.366666666665098617, -2.960326014032196085 ) ) ;
#189 = CARTESIAN_POINT ( 'NONE',  ( 72.29140358223271789, 7.366666666665098617, -5.786752149278560964 ) ) ;
#190 = PLANE ( 'NONE',  #405 ) ;
#191 = ORIENTED_EDGE ( 'NONE', *, *, #72, .T. ) ;
#192 = CARTESIAN_POINT ( 'NONE',  ( 35.23553200782064465, 18.22116952007993262, 1.540090727333278675 ) ) ;
#193 = CARTESIAN_POINT ( 'NONE',  ( 34.72478445568597039, 11.00000000000000178, -8.640851625621385423 ) ) ;
#194 = CARTESIAN_POINT ( 'NONE',  ( 180.0000000000000000, -77.18833849770837219, -1.364264494253606465E-09 ) ) ;
#195 = ORIENTED_EDGE ( 'NONE', *, *, #435, .F. ) ;
#196 = CARTESIAN_POINT ( 'NONE',  ( 25.82614852286542373, 11.00000000000000178, -4.420396310546749419 ) ) ;
#197 =( NAMED_UNIT ( * ) PLANE_ANGLE_UNIT ( ) SI_UNIT ( $, .RADIAN. ) );
#198 = EDGE_LOOP ( 'NONE', ( #237, #81, #262 ) ) ;
#199 = CARTESIAN_POINT ( 'NONE',  ( 57.73215407216633821, 0.4192835029996747620, 10.84518147007311129 ) ) ;
#200 = FACE_OUTER_BOUND ( 'NONE', #592, .T. ) ;
#201 = VERTEX_POINT ( 'NONE', #416 ) ;
#202 = CARTESIAN_POINT ( 'NONE',  ( 35.00000000000000000, 11.00000000000000178, 12.86130694069560754 ) ) ;
#203 = CARTESIAN_POINT ( 'NONE',  ( 119.3526563152608873, 0.1000000000004847289, -0.04018542100516528381 ) ) ;
#204 = EDGE_CURVE ( 'NONE', #588, #663, #245, .T. ) ;
#205 = CARTESIAN_POINT ( 'NONE',  ( 34.70463449243262488, 7.333333333332992865, 7.446930873697829689 ) ) ;
#206 = ORIENTED_EDGE ( 'NONE', *, *, #354, .F. ) ;
#207 =( LENGTH_UNIT ( ) NAMED_UNIT ( * ) SI_UNIT ( .MILLI., .METRE. ) );
#208 = CARTESIAN_POINT ( 'NONE',  ( 35.00000000000000000, 11.00000000000000178, 12.86130694069554181 ) ) ;
#209 = CARTESIAN_POINT ( 'NONE',  ( 70.96861903068523247, 12.20266201837229225, -1.032588086537604921 ) ) ;
#210 = B_SPLINE_SURFACE_WITH_KNOTS ( 'NONE', 3, 3, ( 
 ( #656, #666, #318, #430 ),
 ( #333, #52, #377, #382 ),
 ( #606, #99, #102, #322 ),
 ( #439, #163, #557, #708 ),
 ( #57, #153, #443, #106 ),
 ( #269, #610, #374, #652 ),
 ( #544, #211, #42, #492 ),
 ( #613, #330, #547, #325 ),
 ( #434, #156, #551, #46 ),
 ( #273, #498, #717, #219 ) ),
 .UNSPECIFIED., .F., .F., .F.,
 ( 4, 3, 3, 4 ),
 ( 4, 4 ),
 ( -0.4538556565040761104, 0.000000000000000000, 1.000000000000000000, 2.969409871556983660 ),
 ( 0.000000000000000000, 1.000000000000000000 ),
 .UNSPECIFIED. ) ;
#211 = CARTESIAN_POINT ( 'NONE',  ( 44.17385147713458338, 11.00000000000000178, -4.420396310546749419 ) ) ;
#212 = CARTESIAN_POINT ( 'NONE',  ( 34.90826148522865680, 11.00000000000000178, -1.473465436848913956 ) ) ;
#213 = CARTESIAN_POINT ( 'NONE',  ( 46.18884780246860089, 3.382594252963891026E-11, 13.50000000000000000 ) ) ;
#214 = PLANE ( 'NONE',  #123 ) ;
#215 = EDGE_CURVE ( 'NONE', #148, #687, #187, .T. ) ;
#216 = CARTESIAN_POINT ( 'NONE',  ( 180.0000000000000000, 140.1933325997856343, -40.00000000000000000 ) ) ;
#217 = CARTESIAN_POINT ( 'NONE',  ( 28.46697297490401368, 0.06438485225687015645, -13.12727610790891930 ) ) ;
#218 = CARTESIAN_POINT ( 'NONE',  ( 74.30639990756615987, 3.398691568872290159E-11, 9.042727891652909022 ) ) ;
#219 = CARTESIAN_POINT ( 'NONE',  ( 119.3526563152608873, 0.2969409871561831116, 0.1331192090231377301 ) ) ;
#220 = VECTOR ( 'NONE', #697, 1000.000000000000114 ) ;
#221 = ORIENTED_EDGE ( 'NONE', *, *, #72, .F. ) ;
#222 = CARTESIAN_POINT ( 'NONE',  ( 34.81652297045731359, 11.00000000000000178, 17.08176225576994156 ) ) ;
#223 = FACE_OUTER_BOUND ( 'NONE', #281, .T. ) ;
#224 = FACE_BOUND ( 'NONE', #30, .T. ) ;
#225 = CARTESIAN_POINT ( 'NONE',  ( 25.82614852286542373, 11.00000000000000178, 4.420396310546749419 ) ) ;
#226 = CARTESIAN_POINT ( 'NONE',  ( 48.03071320850161641, 0.1922205518856121009, -12.35717027013125069 ) ) ;
#227 = EDGE_LOOP ( 'NONE', ( #305, #195, #483 ) ) ;
#228 = CARTESIAN_POINT ( 'NONE',  ( -10.26749193600821641, 0.8895606713401361665, -6.752427690127948523 ) ) ;
#229 = CARTESIAN_POINT ( 'NONE',  ( 34.75793269434883115, -4.992412221558806706, 17.62082949328436143 ) ) ;
#230 = EDGE_CURVE ( 'NONE', #258, #383, #713, .T. ) ;
#231 = CARTESIAN_POINT ( 'NONE',  ( 12.26983080955837835, 0.4192369287222284524, 10.84551075522175800 ) ) ;
#232 = ORIENTED_EDGE ( 'NONE', *, *, #175, .T. ) ;
#233 = CARTESIAN_POINT ( 'NONE',  ( -4.611239067585511719, -1.114467778673533527, -9.962905390719701160 ) ) ;
#234 = VECTOR ( 'NONE', #288, 1000.000000000000114 ) ;
#235 = CARTESIAN_POINT ( 'NONE',  ( -49.35265631526088015, 0.06666666666715138911, 0.06951817232511185718 ) ) ;
#236 = CARTESIAN_POINT ( 'NONE',  ( 31.72986313271167802, 0.01933862031112679875, 13.38902591635224582 ) ) ;
#237 = ORIENTED_EDGE ( 'NONE', *, *, #299, .T. ) ;
#238 = CARTESIAN_POINT ( 'NONE',  ( -4.916078227604873341, -2.228935557381181543, -10.88308288978648974 ) ) ;
#239 = CARTESIAN_POINT ( 'NONE',  ( 119.3526563152608873, -0.04538556565004094739, 0.1681221802872643889 ) ) ;
#240 = CARTESIAN_POINT ( 'NONE',  ( -0.6173907419263514607, 0.7052657289419010933, 8.558157314624690315 ) ) ;
#241 = EDGE_CURVE ( 'NONE', #201, #258, #297, .T. ) ;
#242 = CARTESIAN_POINT ( 'NONE',  ( -2.291403582232717895, 7.366666666665098617, -8.613178284524865447 ) ) ;
#243 = CARTESIAN_POINT ( 'NONE',  ( 36.63713124924760223, 0.004711482703742318236, 13.47310125318545815 ) ) ;
#244 = CARTESIAN_POINT ( 'NONE',  ( 35.09173851477135031, 11.00000000000000178, -4.420396310546743202 ) ) ;
#245 = CIRCLE ( 'NONE', #90, 78.36000000000001364 ) ;
#246 = CARTESIAN_POINT ( 'NONE',  ( -250.0000000000000568, 140.1933325997856343, -40.00000000000000000 ) ) ;
#247 = AXIS2_PLACEMENT_3D ( 'NONE', #366, #597, #91 ) ;
#248 = CARTESIAN_POINT ( 'NONE',  ( -49.35265631526088015, 0.2969409869117408118, 0.1331192088080327685 ) ) ;
#249 = CARTESIAN_POINT ( 'NONE',  ( 34.81652297045731359, 11.00000000000000178, -8.640851625621385423 ) ) ;
#250 = CARTESIAN_POINT ( 'NONE',  ( 35.00000000000000000, 11.00000000000000000, 0.000000000000000000 ) ) ;
#251 = ORIENTED_EDGE ( 'NONE', *, *, #678, .T. ) ;
#252 = CARTESIAN_POINT ( 'NONE',  ( 35.27521554431403672, 11.00000000000000178, -4.420396310546743202 ) ) ;
#253 = CARTESIAN_POINT ( 'NONE',  ( 112.3741597223084767, 1.172131903557211974, -0.1567566765652755045 ) ) ;
#254 = CARTESIAN_POINT ( 'NONE',  ( 35.00000000000000000, 11.00000000000000178, -8.640851625621342791 ) ) ;
#255 = EDGE_LOOP ( 'NONE', ( #596, #643, #221, #206 ) ) ;
#256 = CARTESIAN_POINT ( 'NONE',  ( -49.35265631526088015, 0.1000000000004847289, 0.04018542100516528381 ) ) ;
#257 = LINE ( 'NONE', #409, #220 ) ;
#258 = VERTEX_POINT ( 'NONE', #18 ) ;
#259 = CARTESIAN_POINT ( 'NONE',  ( 35.00000000000000000, 11.00000000000000178, 4.420396310546742313 ) ) ;
#260 = ADVANCED_FACE ( 'NONE', ( #75 ), #486, .F. ) ;
#261 = CARTESIAN_POINT ( 'NONE',  ( 34.90826148522865680, 11.00000000000000178, 17.08176225576994156 ) ) ;
#262 = ORIENTED_EDGE ( 'NONE', *, *, #396, .F. ) ;
#263 = CARTESIAN_POINT ( 'NONE',  ( 119.3526563152608873, 0.1000000000004847289, 0.01339514033505509460 ) ) ;
#264 = CARTESIAN_POINT ( 'NONE',  ( 34.89482817639309786, 3.666666666666440033, 10.47346543684891351 ) ) ;
#265 = VECTOR ( 'NONE', #20, 1000.000000000000000 ) ;
#266 = CARTESIAN_POINT ( 'NONE',  ( 25.82614852286542373, 11.00000000000000178, 17.08176225577007301 ) ) ;
#267 = CARTESIAN_POINT ( 'NONE',  ( 35.00000000000000000, 11.00000000000000178, -4.420396310546742313 ) ) ;
#268 = B_SPLINE_SURFACE_WITH_KNOTS ( 'NONE', 3, 3, ( 
 ( #680, #280, #515, #566 ),
 ( #508, #8, #173, #3 ),
 ( #569, #290, #618, #628 ),
 ( #574, #225, #183, #394 ),
 ( #116, #277, #406, #235 ),
 ( #68, #332, #556, #455 ),
 ( #449, #112, #169, #63 ),
 ( #517, #56, #399, #624 ),
 ( #561, #621, #669, #60 ),
 ( #342, #339, #119, #66 ) ),
 .UNSPECIFIED., .F., .F., .F.,
 ( 4, 3, 3, 4 ),
 ( 4, 4 ),
 ( -1.969409869301043337, 0.000000000000000000, 1.000000000000000000, 1.453855656490665504 ),
 ( 0.000000000000000000, 1.000000000000000000 ),
 .UNSPECIFIED. ) ;
#269 = CARTESIAN_POINT ( 'NONE',  ( 35.00000000000000000, 7.333333333333396098, -7.446930873697829689 ) ) ;
#270 = CARTESIAN_POINT ( 'NONE',  ( 25.82614852286542373, 11.00000000000000178, 4.420396310546749419 ) ) ;
#271 = CARTESIAN_POINT ( 'NONE',  ( 34.90826148522865680, 11.00000000000000178, 8.640851625621142063 ) ) ;
#272 = CARTESIAN_POINT ( 'NONE',  ( 35.00000000000000000, 25.44233905946675733, -7.500577781150466805 ) ) ;
#273 = CARTESIAN_POINT ( 'NONE',  ( 35.00000000000000000, 32.66350858712645078, 13.46106482528771586 ) ) ;
#274 = CARTESIAN_POINT ( 'NONE',  ( 34.72478445568597039, 11.00000000000000178, -4.420396310546742313 ) ) ;
#275 = CARTESIAN_POINT ( 'NONE',  ( -42.38647124188108251, 1.170250349321864114, 0.4702700296872128760 ) ) ;
#276 = CARTESIAN_POINT ( 'NONE',  ( 35.31551547082072062, 3.666666666666117180, -10.47346543684891351 ) ) ;
#277 = CARTESIAN_POINT ( 'NONE',  ( 25.15448308108742026, 7.333333333344609350, 7.446930873697834130 ) ) ;
#278 = ORIENTED_EDGE ( 'NONE', *, *, #31, .F. ) ;
#279 = CARTESIAN_POINT ( 'NONE',  ( 35.23597052245015959, -3.328274814256789504, -16.24721966209405011 ) ) ;
#280 = CARTESIAN_POINT ( 'NONE',  ( 29.79450217258357014, 32.66350856224486421, -13.46106480480464818 ) ) ;
#281 = EDGE_LOOP ( 'NONE', ( #636, #444, #640, #327 ) ) ;
#282 = CARTESIAN_POINT ( 'NONE',  ( 35.22987373924976851, -1.664137407128637891, -14.87360983104702328 ) ) ;
#283 = LINE ( 'NONE', #5, #309 ) ;
#284 = B_SPLINE_CURVE_WITH_KNOTS ( 'NONE', 3,
 ( #144, #693, #524, #425 ),
 .UNSPECIFIED., .F., .F.,
 ( 4, 4 ),
 ( 0.000000000000000000, 0.9496377701827491968 ),
 .UNSPECIFIED. ) ;
#285 = ORIENTED_EDGE ( 'NONE', *, *, #241, .F. ) ;
#286 = CARTESIAN_POINT ( 'NONE',  ( 35.21034364721381849, 3.666666666666342778, -10.47346543684891351 ) ) ;
#287 = VECTOR ( 'NONE', #36, 1000.000000000000000 ) ;
#288 = DIRECTION ( 'NONE',  ( 0.000000000000000000, 0.7712148120812098995, -0.6365749866485048702 ) ) ;
#289 = CARTESIAN_POINT ( 'NONE',  ( 35.12103365282527534, -4.992412221384449289, -17.62082949314107339 ) ) ;
#290 = CARTESIAN_POINT ( 'NONE',  ( 27.14893307277147372, 18.22116952074828689, -1.540090727903716594 ) ) ;
#291 = CARTESIAN_POINT ( 'NONE',  ( 26.84151328649625157, 0.09427360015656996439, 12.95097337134774840 ) ) ;
#292 = CARTESIAN_POINT ( 'NONE',  ( -49.35265631526088015, 0.06666666666715138911, -0.06951817232511460498 ) ) ;
#293 = CARTESIAN_POINT ( 'NONE',  ( 35.00000000000000000, 11.00000000000000178, -17.08176225577067697 ) ) ;
#294 = B_SPLINE_CURVE_WITH_KNOTS ( 'NONE', 3,
 ( #701, #639, #253, #136 ),
 .UNSPECIFIED., .F., .F.,
 ( 4, 4 ),
 ( 0.000000000000000000, 0.0009405400593808182054 ),
 .UNSPECIFIED. ) ;
#295 = CARTESIAN_POINT ( 'NONE',  ( 105.9635167717919302, 1.162670925630606034, -1.733189012844556176 ) ) ;
#296 = CARTESIAN_POINT ( 'NONE',  ( 25.82614852286542373, 11.00000000000000178, -4.420396310546749419 ) ) ;
#297 = LINE ( 'NONE', #250, #43 ) ;
#298 = CARTESIAN_POINT ( 'NONE',  ( 35.00000000000000000, 11.00000000000000178, -4.420396310546742313 ) ) ;
#299 = EDGE_CURVE ( 'NONE', #563, #258, #504, .T. ) ;
#300 =( LENGTH_UNIT ( ) NAMED_UNIT ( * ) SI_UNIT ( .MILLI., .METRE. ) );
#301 = CARTESIAN_POINT ( 'NONE',  ( 34.89589004355020307, 32.66350858920146294, -13.46106482699907225 ) ) ;
#302 = ORIENTED_EDGE ( 'NONE', *, *, #489, .F. ) ;
#303 = CARTESIAN_POINT ( 'NONE',  ( 35.15616493483386762, 32.66350856023979077, 13.46106480309332198 ) ) ;
#304 = CARTESIAN_POINT ( 'NONE',  ( 34.93471717625962469, 25.44233905946720142, -7.500577781150466805 ) ) ;
#305 = ORIENTED_EDGE ( 'NONE', *, *, #161, .T. ) ;
#306 = CARTESIAN_POINT ( 'NONE',  ( 25.82614852286542373, 11.00000000000000178, -17.08176225577057039 ) ) ;
#307 = APPLICATION_CONTEXT ( 'automotive_design' ) ;
#308 = CARTESIAN_POINT ( 'NONE',  ( 39.08689539992302286, 0.02934880629850445538, 13.33128381384080896 ) ) ;
#309 = VECTOR ( 'NONE', #177, 1000.000000000000000 ) ;
#310 = EDGE_CURVE ( 'NONE', #94, #35, #283, .T. ) ;
#311 = CARTESIAN_POINT ( 'NONE',  ( -49.35265631526088015, 0.1000000000004847289, 0.1552887477804807681 ) ) ;
#312 = CARTESIAN_POINT ( 'NONE',  ( 119.3526563152608873, 0.1000000000004847289, 0.04018542100516528381 ) ) ;
#313 = CARTESIAN_POINT ( 'NONE',  ( -42.38647124188108251, 1.170250349321864114, 0.4702700296872128760 ) ) ;
#314 = ORIENTED_EDGE ( 'NONE', *, *, #204, .T. ) ;
#315 = CARTESIAN_POINT ( 'NONE',  ( 35.00000000000000000, 11.00000000000000178, 17.08176225577004104 ) ) ;
#316 = CARTESIAN_POINT ( 'NONE',  ( 34.81652297045731359, 11.00000000000000178, 12.86130694069554181 ) ) ;
#317 = CARTESIAN_POINT ( 'NONE',  ( 74.61123906759611657, -1.114467778712431523, 9.962905390751693346 ) ) ;
#318 = CARTESIAN_POINT ( 'NONE',  ( 75.22091738765367097, -3.343403336196383968, -11.80326038894208551 ) ) ;
#319 = CARTESIAN_POINT ( 'NONE',  ( -49.35265631526088015, 0.1000000000004847289, 0.01339514033505509460 ) ) ;
#320 = CARTESIAN_POINT ( 'NONE',  ( 34.72478445568597039, 11.00000000000000178, 12.86130694069554181 ) ) ;
#321 = CARTESIAN_POINT ( 'NONE',  ( 34.88201473877472125, -3.328274814372322421, 16.24721966218957547 ) ) ;
#322 = CARTESIAN_POINT ( 'NONE',  ( 119.3526563152608873, -0.01512852188298450216, -0.1414965100723996616 ) ) ;
#323 = CARTESIAN_POINT ( 'NONE',  ( -250.0000000000000568, -1.850371707708595549E-15, 40.00000000000002132 ) ) ;
#324 = CARTESIAN_POINT ( 'NONE',  ( 119.3526563152608873, 0.1656469957253336178, -0.01758278900979238016 ) ) ;
#325 = CARTESIAN_POINT ( 'NONE',  ( 119.3526563152608873, 0.1656469957190508657, 0.01758278900426905877 ) ) ;
#326 = LINE ( 'NONE', #698, #287 ) ;
#327 = ORIENTED_EDGE ( 'NONE', *, *, #608, .F. ) ;
#328 = CARTESIAN_POINT ( 'NONE',  ( 44.17385147713458338, 11.00000000000000178, 1.473465436848916399 ) ) ;
#329 = CARTESIAN_POINT ( 'NONE',  ( 34.78965635278618862, 3.666666666666214880, 10.47346543684891351 ) ) ;
#330 = CARTESIAN_POINT ( 'NONE',  ( 42.85106692571329745, 18.22116952901994580, 1.540090734731398125 ) ) ;
#331 = CARTESIAN_POINT ( 'NONE',  ( -49.35265631526088015, -0.04538556564846288333, -0.1681221802858876846 ) ) ;
#332 = CARTESIAN_POINT ( 'NONE',  ( 24.48281763930941324, 3.666666666689217369, 10.47346543684891529 ) ) ;
#333 = CARTESIAN_POINT ( 'NONE',  ( 35.00000000000000000, -3.328274814362977008, -16.24721966218242741 ) ) ;
#334 = PRESENTATION_LAYER_ASSIGNMENT (  '', '', ( #629 ) ) ;
#335 = CARTESIAN_POINT ( 'NONE',  ( 35.36310095847581891, -4.992412221385432503, -17.62082949314107339 ) ) ;
#336 = LINE ( 'NONE', #458, #55 ) ;
#337 = CARTESIAN_POINT ( 'NONE',  ( 70.61739074184626475, 0.7052657292710797776, -8.558157314355391065 ) ) ;
#338 = CARTESIAN_POINT ( 'NONE',  ( 35.00000000000000000, 1.901932654763641534E-13, -13.50000000000000000 ) ) ;
#339 = CARTESIAN_POINT ( 'NONE',  ( 22.89663471747064705, -4.992412221348143220, 17.62082949315187363 ) ) ;
#340 = CARTESIAN_POINT ( 'NONE',  ( 30.91419022650298842, 0.02933528342771538761, 13.33136192535732256 ) ) ;
#341 = CARTESIAN_POINT ( 'NONE',  ( -5.220917387624234962, -3.343403336088829558, -11.80326038885327833 ) ) ;
#342 = CARTESIAN_POINT ( 'NONE',  ( 35.00000000000000000, -4.992412221397318994, 17.62082949315187363 ) ) ;
#343 = PRODUCT_DEFINITION_CONTEXT ( 'detailed design', #346, 'design' ) ;
#344 = CARTESIAN_POINT ( 'NONE',  ( 23.20147387749249646, -3.328274814211847232, -16.24721966209404656 ) ) ;
#345 = CARTESIAN_POINT ( 'NONE',  ( 35.81935224803233098, -2.938767836601020017E-10, 13.50000000005715073 ) ) ;
#346 = APPLICATION_CONTEXT ( 'automotive_design' ) ;
#347 = CARTESIAN_POINT ( 'NONE',  ( 39.08580977344463037, 0.02933528397672793483, -13.33136192490584193 ) ) ;
#348 = CARTESIAN_POINT ( 'NONE',  ( 0.3541655173254182332, 17.03865735714882490, 5.025502176431138501 ) ) ;
#349 = CARTESIAN_POINT ( 'NONE',  ( 34.90826148522865680, 11.00000000000000178, -17.08176225577067697 ) ) ;
#350 = CARTESIAN_POINT ( 'NONE',  ( 112.3864712417770022, 1.170250349337984774, -0.4702700296936061508 ) ) ;
#351 = LINE ( 'NONE', #471, #265 ) ;
#352 = CARTESIAN_POINT ( 'NONE',  ( 119.3526563152608873, 0.1000000000004847289, -0.1552887477804865413 ) ) ;
#353 = ORIENTED_EDGE ( 'NONE', *, *, #21, .F. ) ;
#354 = EDGE_CURVE ( 'NONE', #663, #667, #682, .T. ) ;
#355 = CARTESIAN_POINT ( 'NONE',  ( 35.00000000000000000, 32.66350856023779414, 13.46106480309332198 ) ) ;
#356 = CARTESIAN_POINT ( 'NONE',  ( 43.16078833445340734, 0.09431719260453695630, 12.95071326328564787 ) ) ;
#357 = DIRECTION ( 'NONE',  ( 1.000000000000000000, 0.000000000000000000, 0.000000000000000000 ) ) ;
#358 = CARTESIAN_POINT ( 'NONE',  ( 25.82614852286542373, 11.00000000000000178, -1.473465436848916621 ) ) ;
#359 = CARTESIAN_POINT ( 'NONE',  ( 38.27091658737285229, 0.01934679736586983681, 13.38897882715468768 ) ) ;
#360 = CARTESIAN_POINT ( 'NONE',  ( 119.3526563152608873, 0.2969409871750314234, -0.1331192090397076977 ) ) ;
#361 = VERTEX_POINT ( 'NONE', #672 ) ;
#362 = CARTESIAN_POINT ( 'NONE',  ( 35.10410995655592359, 32.66350856023912996, 13.46106480309332198 ) ) ;
#363 = CARTESIAN_POINT ( 'NONE',  ( 112.3864712418810399, 1.170250349321863892, 0.4702700296872120989 ) ) ;
#364 = ADVANCED_FACE ( 'NONE', ( #511 ), #268, .T. ) ;
#365 = CARTESIAN_POINT ( 'NONE',  ( 35.00000000000000000, 11.00000000000000178, 4.420396310546742313 ) ) ;
#366 = CARTESIAN_POINT ( 'NONE',  ( 0.000000000000000000, 0.000000000000000000, 0.000000000000000000 ) ) ;
#367 = DIRECTION ( 'NONE',  ( 0.000000000000000000, 1.000000000000000000, 4.625929269271485791E-17 ) ) ;
#368 = DIRECTION ( 'NONE',  ( 0.000000000000000000, 0.000000000000000000, -1.000000000000000000 ) ) ;
#369 = EDGE_LOOP ( 'NONE', ( #26, #453, #278 ) ) ;
#370 = APPLICATION_PROTOCOL_DEFINITION ( 'draft international standard', 'automotive_design', 1998, #307 ) ;
#371 = PRODUCT_DEFINITION_SHAPE ( 'NONE', 'NONE',  #600 ) ;
#372 = CARTESIAN_POINT ( 'NONE',  ( 44.17385147713458338, 11.00000000000000178, 4.420396310546749419 ) ) ;
#373 = CARTESIAN_POINT ( 'NONE',  ( 35.00000000000000000, -1.664137407185940942, 14.87360983109478596 ) ) ;
#374 = CARTESIAN_POINT ( 'NONE',  ( 72.96306902401053662, 4.911111111121436501, -4.987793306572434027 ) ) ;
#375 = B_SPLINE_CURVE_WITH_KNOTS ( 'NONE', 3,
 ( #350, #295, #521, #625, #124, #337, #509, #61, #677, #579, #226, #170, #178, #347, #64, #391, #6, #562 ),
 .UNSPECIFIED., .F., .F.,
 ( 4, 2, 2, 2, 2, 2, 2, 2, 4 ),
 ( 0.000000000000000000, 0.01963749140874435431, 0.03927498281748870862, 0.04909372852186087016, 0.05891247422623300395, 0.06873121993060513080, 0.07364059278279121157, 0.07609527920888424501, 0.07854996563497727846 ),
 .UNSPECIFIED. ) ;
#376 = FACE_OUTER_BOUND ( 'NONE', #77, .T. ) ;
#377 = CARTESIAN_POINT ( 'NONE',  ( 74.91607822762449587, -2.228935557452884630, -10.88308288984569394 ) ) ;
#378 = CARTESIAN_POINT ( 'NONE',  ( 25.82614852286542373, 11.00000000000000178, 8.640851625621191801 ) ) ;
#379 = CARTESIAN_POINT ( 'NONE',  ( 44.17385147713458338, 11.00000000000000178, 12.86130694069556490 ) ) ;
#380 = CARTESIAN_POINT ( 'NONE',  ( 34.88506313037501627, -1.664137407186330408, 14.87360983109478596 ) ) ;
#381 = CARTESIAN_POINT ( 'NONE',  ( 34.81652297045731359, 11.00000000000000178, 4.420396310546742313 ) ) ;
#382 = CARTESIAN_POINT ( 'NONE',  ( 119.3526563152608873, -0.03025704376645371035, -0.1548093451797860620 ) ) ;
#383 = VERTEX_POINT ( 'NONE', #403 ) ;
#384 = CARTESIAN_POINT ( 'NONE',  ( -49.35265631526088015, -0.01512852188249782376, -0.1414965100719714208 ) ) ;
#385 = CARTESIAN_POINT ( 'NONE',  ( 34.80308966162175466, 7.333333333333105664, 7.446930873697829689 ) ) ;
#386 = EDGE_CURVE ( 'NONE', #588, #687, #336, .T. ) ;
#387 = ORIENTED_EDGE ( 'NONE', *, *, #175, .F. ) ;
#388 = EDGE_LOOP ( 'NONE', ( #525, #11, #559, #694 ) ) ;
#389 = CARTESIAN_POINT ( 'NONE',  ( 18.73070680164478574, 0.2682391386740214378, -11.87600667920987796 ) ) ;
#390 = CARTESIAN_POINT ( 'NONE',  ( 35.00000000000000000, -3.036128408969369186E-25, 13.50000000000000000 ) ) ;
#391 = CARTESIAN_POINT ( 'NONE',  ( 36.63684761493443887, 0.004710135650341978897, -13.47310891035602154 ) ) ;
#392 = AXIS2_PLACEMENT_3D ( 'NONE', #323, #97, #367 ) ;
#393 = CARTESIAN_POINT ( 'NONE',  ( -49.35265631526088015, 4.847061337368008260E-13, -0.1281836749650132612 ) ) ;
#394 = CARTESIAN_POINT ( 'NONE',  ( -49.35265631526088015, 0.1000000000004847289, 0.04018542100516528381 ) ) ;
#395 = CARTESIAN_POINT ( 'NONE',  ( -80.00000000000001421, -9.806667400214371000, 40.00000000000002132 ) ) ;
#396 = EDGE_CURVE ( 'NONE', #563, #532, #402, .T. ) ;
#397 = ORIENTED_EDGE ( 'NONE', *, *, #230, .F. ) ;
#398 = CARTESIAN_POINT ( 'NONE',  ( 35.09845516918912978, 7.333333333333284187, -7.446930873697829689 ) ) ;
#399 = CARTESIAN_POINT ( 'NONE',  ( -4.611239067586311080, -1.114467778676601961, 9.962905390722111676 ) ) ;
#400 = LINE ( 'NONE', #422, #478 ) ;
#401 = LINE ( 'NONE', #560, #100 ) ;
#402 = B_SPLINE_CURVE_WITH_KNOTS ( 'NONE', 3,
 ( #122, #345, #243, #359, #308, #638, #356, #594, #700, #199, #527, #590, #17, #186, #685, #586, #87, #363 ),
 .UNSPECIFIED., .F., .F.,
 ( 4, 2, 2, 2, 2, 2, 2, 2, 4 ),
 ( 0.000000000000000000, 0.002453987711821127137, 0.004907975423642254274, 0.009815950847284487732, 0.01963190169456895812, 0.02944785254185342330, 0.03926380338913786766, 0.05889570508370676333, 0.07852760677827565206 ),
 .UNSPECIFIED. ) ;
#403 = CARTESIAN_POINT ( 'NONE',  ( -42.38647124188108251, 1.170250349321864114, 0.4702700296872128760 ) ) ;
#404 = CARTESIAN_POINT ( 'NONE',  ( -49.35265631526088015, 0.1000000000004847289, -0.04018542100516528381 ) ) ;
#405 = AXIS2_PLACEMENT_3D ( 'NONE', #642, #88, #582 ) ;
#406 = CARTESIAN_POINT ( 'NONE',  ( -2.963069024010528629, 4.911111111121394757, 4.987793306572434915 ) ) ;
#407 = CARTESIAN_POINT ( 'NONE',  ( -80.00000000000001421, -77.18833849770837219, -1.364264494253606465E-09 ) ) ;
#408 = PLANE ( 'NONE',  #572 ) ;
#409 = CARTESIAN_POINT ( 'NONE',  ( 35.00000000000000000, 11.00000000000000000, -4.420396310546743202 ) ) ;
#410 = ORIENTED_EDGE ( 'NONE', *, *, #699, .T. ) ;
#411 = CARTESIAN_POINT ( 'NONE',  ( 35.19584847132725969, 25.44233904015986170, 7.500577765213300552 ) ) ;
#412 = CARTESIAN_POINT ( 'NONE',  ( 119.3526563152608873, 0.1000000000004847289, -0.07855319659693903167 ) ) ;
#413 = CARTESIAN_POINT ( 'NONE',  ( -80.00000000000001421, 140.1933325997856343, 40.00000000000002842 ) ) ;
#414 = ORIENTED_EDGE ( 'NONE', *, *, #31, .T. ) ;
#415 = CARTESIAN_POINT ( 'NONE',  ( 35.00000000000000000, 11.00000000000000178, -12.86130694069594504 ) ) ;
#416 = CARTESIAN_POINT ( 'NONE',  ( 35.00000000000000000, 11.00000000000000178, -4.420396310546742313 ) ) ;
#417 = ORIENTED_EDGE ( 'NONE', *, *, #53, .T. ) ;
#418 = CARTESIAN_POINT ( 'NONE',  ( -42.38647124177703063, 1.170250349337983220, -0.4702700296936003777 ) ) ;
#419 = ADVANCED_FACE ( 'NONE', ( #28 ), #408, .F. ) ;
#420 = CARTESIAN_POINT ( 'NONE',  ( 44.17385147713458338, 11.00000000000000178, -12.86130694069605340 ) ) ;
#421 = MANIFOLD_SOLID_BREP ( 'Combine1[1]', #19 ) ;
#422 = CARTESIAN_POINT ( 'NONE',  ( 180.0000000000000000, 140.1933325997856343, 0.000000000000000000 ) ) ;
#423 = CARTESIAN_POINT ( 'NONE',  ( -2.291403582232717895, 7.366666666665098617, 2.960326014032196085 ) ) ;
#424 = CARTESIAN_POINT ( 'NONE',  ( 35.00000000000000000, 11.00000000000000178, -4.420396310546742313 ) ) ;
#425 = CARTESIAN_POINT ( 'NONE',  ( 112.3864712418810399, 1.170250349321863892, 0.4702700296872120989 ) ) ;
#426 = EDGE_LOOP ( 'NONE', ( #599, #285, #302, #387 ) ) ;
#427 = CARTESIAN_POINT ( 'NONE',  ( 25.82614852286542373, 11.00000000000000178, 12.86130694069563241 ) ) ;
#428 = CARTESIAN_POINT ( 'NONE',  ( 34.81652297045731359, 11.00000000000000178, 1.473465436848913956 ) ) ;
#429 = CARTESIAN_POINT ( 'NONE',  ( 119.3526563152608873, 0.03333333333381806318, 0.09885092364505843054 ) ) ;
#430 = CARTESIAN_POINT ( 'NONE',  ( 119.3526563152608873, -0.04538556564992291681, -0.1681221802871724624 ) ) ;
#431 = CARTESIAN_POINT ( 'NONE',  ( -2.291403582232717895, 7.366666666665098617, 8.613178284524643402 ) ) ;
#432 = CARTESIAN_POINT ( 'NONE',  ( 72.29140358223271789, 7.366666666665098617, -0.9867753380107321393 ) ) ;
#433 = CARTESIAN_POINT ( 'NONE',  ( 69.64583447913773284, 17.03865737007948766, -5.025502187107405483 ) ) ;
#434 = CARTESIAN_POINT ( 'NONE',  ( 35.00000000000000000, 25.44233905808430407, 7.500577780009563433 ) ) ;
#435 = EDGE_CURVE ( 'NONE', #361, #201, #103, .T. ) ;
#436 = DIRECTION ( 'NONE',  ( -0.000000000000000000, 0.000000000000000000, 1.000000000000000000 ) ) ;
#437 = CARTESIAN_POINT ( 'NONE',  ( 34.90826148522865680, 11.00000000000000178, 4.420396310546742313 ) ) ;
#438 = CARTESIAN_POINT ( 'NONE',  ( 35.00000000000000000, 10.99999999999999822, 4.420396310546743202 ) ) ;
#439 = CARTESIAN_POINT ( 'NONE',  ( 35.00000000000000000, 1.901932654763641534E-13, -13.50000000000000000 ) ) ;
#440 = B_SPLINE_SURFACE_WITH_KNOTS ( 'NONE', 3, 3, ( 
 ( #142, #306, #534, #185 ),
 ( #415, #78, #242, #580 ),
 ( #254, #73, #24, #460 ),
 ( #298, #296, #522, #691 ),
 ( #138, #358, #589, #82 ),
 ( #530, #32, #47, #319 ),
 ( #259, #270, #423, #256 ),
 ( #659, #378, #702, #709 ),
 ( #202, #427, #431, #649 ),
 ( #315, #266, #714, #311 ) ),
 .UNSPECIFIED., .F., .F., .F.,
 ( 4, 3, 3, 4 ),
 ( 4, 4 ),
 ( -1.432152804378049593, 0.000000000000000000, 1.000000000000000000, 2.432152804377992972 ),
 ( 0.000000000000000000, 1.000000000000000000 ),
 .UNSPECIFIED. ) ;
#441 = CARTESIAN_POINT ( 'NONE',  ( 26.83921166557180626, 0.09431719313553957318, -12.95071326284542756 ) ) ;
#442 = CARTESIAN_POINT ( 'NONE',  ( 34.92148933074413719, 18.22116952973360071, -1.540090735301862024 ) ) ;
#443 = CARTESIAN_POINT ( 'NONE',  ( 73.63473446578834114, 2.455555555577775717, -7.015260599112671969 ) ) ;
#444 = ORIENTED_EDGE ( 'NONE', *, *, #678, .F. ) ;
#445 = CARTESIAN_POINT ( 'NONE',  ( 23.50631303751194778, -1.664137407088915444, -14.87360983104702328 ) ) ;
#446 = ADVANCED_FACE ( 'NONE', ( #520 ), #152, .F. ) ;
#447 = CARTESIAN_POINT ( 'NONE',  ( 34.84297866148827438, 18.22116952973382098, -1.540090735301862024 ) ) ;
#448 = CARTESIAN_POINT ( 'NONE',  ( -3.634734465788338920, 2.455555555577775717, -7.015260599112671969 ) ) ;
#449 = CARTESIAN_POINT ( 'NONE',  ( 35.00000000000000000, -3.036128408969369186E-25, 13.50000000000000000 ) ) ;
#450 = CARTESIAN_POINT ( 'NONE',  ( -16.69331903818211771, 0.9879803761389349681, -5.507370088366073446 ) ) ;
#451 = CARTESIAN_POINT ( 'NONE',  ( 180.0000000000000000, -1.850371707708595549E-15, 40.00000000000002132 ) ) ;
#452 = LINE ( 'NONE', #9, #464 ) ;
#453 = ORIENTED_EDGE ( 'NONE', *, *, #161, .F. ) ;
#454 = CARTESIAN_POINT ( 'NONE',  ( -0.6182528352922255221, 0.7052830645472698556, -8.557997693706143494 ) ) ;
#455 = CARTESIAN_POINT ( 'NONE',  ( -49.35265631526088015, 0.03333333333381806318, 0.09885092364505843054 ) ) ;
#456 = DIRECTION ( 'NONE',  ( 1.000000000000000000, 0.000000000000000000, 0.000000000000000000 ) ) ;
#457 = CARTESIAN_POINT ( 'NONE',  ( 35.00000000000000000, -1.664137407127858959, -14.87360983104702328 ) ) ;
#458 = CARTESIAN_POINT ( 'NONE',  ( 180.0000000000000000, 1.850371707708594366E-15, -40.00000000000000711 ) ) ;
#459 = CARTESIAN_POINT ( 'NONE',  ( 9.044662697623724767, 0.4948668280638527928, 10.29277155070756677 ) ) ;
#460 = CARTESIAN_POINT ( 'NONE',  ( -49.35265631526088015, 0.1000000000004847289, -0.07855319659693862921 ) ) ;
#461 = CARTESIAN_POINT ( 'NONE',  ( 47.10336528255876232, -4.992412221508645942, 17.62082949328435433 ) ) ;
#462 = CARTESIAN_POINT ( 'NONE',  ( -10.26707023721654899, 0.8895543600146376129, 6.752509987587759888 ) ) ;
#463 = CARTESIAN_POINT ( 'NONE',  ( 35.05205497827796535, 32.66350856023846205, 13.46106480309332198 ) ) ;
#464 = VECTOR ( 'NONE', #456, 1000.000000000000000 ) ;
#465 =( GEOMETRIC_REPRESENTATION_CONTEXT ( 3 ) GLOBAL_UNCERTAINTY_ASSIGNED_CONTEXT ( ( #577 ) ) GLOBAL_UNIT_ASSIGNED_CONTEXT ( ( #207, #39, #487 ) ) REPRESENTATION_CONTEXT ( 'NONE', 'WORKASPACE' ) );
#466 = PRODUCT_RELATED_PRODUCT_CATEGORY ( 'part', '', ( #58 ) ) ;
#467 = CARTESIAN_POINT ( 'NONE',  ( 0.4926737253382023618, 7.723416783111182404, -3.103687550261776451 ) ) ;
#468 = CARTESIAN_POINT ( 'NONE',  ( 34.84383506532528685, 32.66350858920213085, -13.46106482699907225 ) ) ;
#469 = CARTESIAN_POINT ( 'NONE',  ( 28.47171762242432891, 25.44233904011412051, 7.500577765213282788 ) ) ;
#470 = CARTESIAN_POINT ( 'NONE',  ( 35.00000000000000000, 11.00000000000000178, -8.640851625621385423 ) ) ;
#471 = CARTESIAN_POINT ( 'NONE',  ( -80.00000000000001421, 1.850371707708594366E-15, -40.00000000000000711 ) ) ;
#472 = CARTESIAN_POINT ( 'NONE',  ( 119.3526563152608873, 0.1000000000004847289, -0.1169209721887127934 ) ) ;
#473 = CARTESIAN_POINT ( 'NONE',  ( 40.20549782249092630, 32.66350858913352084, -13.46106482699904916 ) ) ;
#474 = EDGE_LOOP ( 'NONE', ( #114, #251, #417, #191 ) ) ;
#475 = ADVANCED_FACE ( 'NONE', ( #376 ), #604, .F. ) ;
#476 = CARTESIAN_POINT ( 'NONE',  ( -49.35265631526088015, 0.1656469956375700991, 0.01758278893256740374 ) ) ;
#477 = CARTESIAN_POINT ( 'NONE',  ( 34.81652297045731359, 11.00000000000000178, -17.08176225577067697 ) ) ;
#478 = VECTOR ( 'NONE', #368, 1000.000000000000000 ) ;
#479 = PLANE ( 'NONE',  #536 ) ;
#480 = CARTESIAN_POINT ( 'NONE',  ( 180.0000000000000000, 140.1933325997856343, 40.00000000000002842 ) ) ;
#481 = CARTESIAN_POINT ( 'NONE',  ( -42.38647124177703063, 1.170250349337983220, -0.4702700296936003777 ) ) ;
#482 = DIRECTION ( 'NONE',  ( 0.000000000000000000, 0.000000000000000000, -1.000000000000000000 ) ) ;
#483 = ORIENTED_EDGE ( 'NONE', *, *, #499, .F. ) ;
#484 = CARTESIAN_POINT ( 'NONE',  ( 69.50732627466180702, 7.723416783111181516, -3.103687550261776007 ) ) ;
#485 = CARTESIAN_POINT ( 'NONE',  ( 44.17385147713458338, 11.00000000000000178, 4.420396310546749419 ) ) ;
#486 = B_SPLINE_SURFACE_WITH_KNOTS ( 'NONE', 3, 3, ( 
 ( #468, #301, #686, #132, #473, #141, #360 ),
 ( #591, #84, #304, #272, #550, #433, #109 ),
 ( #665, #447, #442, #540, #615, #209, #324 ),
 ( #38, #553, #41, #438, #485, #49, #705 ),
 ( #205, #385, #655, #155, #651, #609, #603 ),
 ( #497, #329, #264, #501, #165, #711, #429 ),
 ( #716, #96, #151, #605, #213, #218, #51 ),
 ( #658, #158, #380, #373, #45, #317, #490 ),
 ( #661, #98, #321, #162, #612, #707, #546 ),
 ( #105, #229, #631, #676, #461, #15, #239 ) ),
 .UNSPECIFIED., .F., .F., .F.,
 ( 4, 3, 3, 4 ),
 ( 4, 3, 4 ),
 ( -1.969409871745467111, 0.000000000000000000, 1.000000000000000000, 1.453855656505256722 ),
 ( -0.01000000000000000021, 0.000000000000000000, 1.000000000000000000 ),
 .UNSPECIFIED. ) ;
#487 =( NAMED_UNIT ( * ) SI_UNIT ( $, .STERADIAN. ) SOLID_ANGLE_UNIT ( ) );
#488 = CARTESIAN_POINT ( 'NONE',  ( 44.17385147713458338, 11.00000000000000178, 17.08176225576996998 ) ) ;
#489 = EDGE_CURVE ( 'NONE', #583, #201, #533, .T. ) ;
#490 = CARTESIAN_POINT ( 'NONE',  ( 119.3526563152608873, -0.01512852188302383355, 0.1414965100724248082 ) ) ;
#491 = MECHANICAL_DESIGN_GEOMETRIC_PRESENTATION_REPRESENTATION (  '', ( #629 ), #502 ) ;
#492 = CARTESIAN_POINT ( 'NONE',  ( 119.3526563152608873, 0.1000000000004847289, -0.04018542100516528381 ) ) ;
#493 = SHAPE_DEFINITION_REPRESENTATION ( #371, #543 ) ;
#494 = CARTESIAN_POINT ( 'NONE',  ( 44.17385147713458338, 11.00000000000000178, -4.420396310546749419 ) ) ;
#495 = CARTESIAN_POINT ( 'NONE',  ( 180.0000000000000000, -9.806667400214371000, 40.00000000000000000 ) ) ;
#496 = CARTESIAN_POINT ( 'NONE',  ( 33.36286875077348668, 0.004711483260020676682, -13.47310125272677617 ) ) ;
#497 = CARTESIAN_POINT ( 'NONE',  ( 34.68448452917928648, 3.666666666665989283, 10.47346543684891351 ) ) ;
#498 = CARTESIAN_POINT ( 'NONE',  ( 40.20549782287073270, 32.66350858705983029, 13.46106482528769455 ) ) ;
#499 = EDGE_CURVE ( 'NONE', #171, #361, #688, .T. ) ;
#500 = CARTESIAN_POINT ( 'NONE',  ( 72.29140358223271789, 7.366666666665098617, -2.960326014032196085 ) ) ;
#501 = CARTESIAN_POINT ( 'NONE',  ( 35.00000000000000000, 3.666666666666665630, 10.47346543684891351 ) ) ;
#502 =( GEOMETRIC_REPRESENTATION_CONTEXT ( 3 ) GLOBAL_UNCERTAINTY_ASSIGNED_CONTEXT ( ( #125 ) ) GLOBAL_UNIT_ASSIGNED_CONTEXT ( ( #300, #197, #692 ) ) REPRESENTATION_CONTEXT ( 'NONE', 'WORKASPACE' ) );
#503 = CARTESIAN_POINT ( 'NONE',  ( 35.33566543407406613, -8.245850104128122502E-13, -13.50000000000000000 ) ) ;
#504 = LINE ( 'NONE', #390, #234 ) ;
#505 = DIRECTION ( 'NONE',  ( 0.000000000000000000, 0.000000000000000000, -1.000000000000000000 ) ) ;
#506 = ORIENTED_EDGE ( 'NONE', *, *, #299, .F. ) ;
#507 = CARTESIAN_POINT ( 'NONE',  ( 35.11493686962488425, -1.664137407128248425, -14.87360983104702328 ) ) ;
#508 = CARTESIAN_POINT ( 'NONE',  ( 35.00000000000000000, 25.44233904154097914, -7.500577766354200371 ) ) ;
#509 = CARTESIAN_POINT ( 'NONE',  ( 67.39902069912041327, 0.6378145883691146434, -9.149395157964953285 ) ) ;
#510 = CARTESIAN_POINT ( 'NONE',  ( 35.29536550756738222, 7.333333333333058590, -7.446930873697829689 ) ) ;
#511 = FACE_OUTER_BOUND ( 'NONE', #133, .T. ) ;
#512 = AXIS2_PLACEMENT_3D ( 'NONE', #407, #578, #633 ) ;
#513 = ORIENTED_EDGE ( 'NONE', *, *, #699, .F. ) ;
#514 = CARTESIAN_POINT ( 'NONE',  ( 25.15448308108742026, 7.333333333344672411, -7.446930873697834130 ) ) ;
#515 = CARTESIAN_POINT ( 'NONE',  ( 1.676950067484278772, 21.87465270377942872, -9.018416272809240297 ) ) ;
#516 = CARTESIAN_POINT ( 'NONE',  ( 35.34481060887465276, -1.664137407129027357, -14.87360983104702328 ) ) ;
#517 = CARTESIAN_POINT ( 'NONE',  ( 35.00000000000000000, -1.664137407132439739, 14.87360983105062573 ) ) ;
#518 = ADVANCED_FACE ( 'NONE', ( #224, #172 ), #67, .F. ) ;
#519 = CARTESIAN_POINT ( 'NONE',  ( 35.15702133854710354, 18.22116952007971236, 1.540090727333278675 ) ) ;
#520 = FACE_OUTER_BOUND ( 'NONE', #426, .T. ) ;
#521 = CARTESIAN_POINT ( 'NONE',  ( 99.54124283669676743, 1.124350227356134102, -2.998464540118114474 ) ) ;
#522 = CARTESIAN_POINT ( 'NONE',  ( -2.291403582232717895, 7.366666666665098617, -2.960326014032196085 ) ) ;
#523 = CARTESIAN_POINT ( 'NONE',  ( 44.17385147713458338, 11.00000000000000178, -17.08176225577070184 ) ) ;
#524 = CARTESIAN_POINT ( 'NONE',  ( 69.50732627470462432, 7.723416783105741423, 3.103687550259590200 ) ) ;
#525 = ORIENTED_EDGE ( 'NONE', *, *, #435, .T. ) ;
#526 = CARTESIAN_POINT ( 'NONE',  ( 29.79450217220377795, 32.66350856017118076, 13.46106480309329889 ) ) ;
#527 = CARTESIAN_POINT ( 'NONE',  ( 60.95697556644658732, 0.4949042367042990609, 10.29248662985000706 ) ) ;
#528 = EDGE_CURVE ( 'NONE', #616, #588, #401, .T. ) ;
#529 = CARTESIAN_POINT ( 'NONE',  ( 35.00000000000000000, 3.353636684978552698E-12, -13.49999999999514699 ) ) ;
#530 = CARTESIAN_POINT ( 'NONE',  ( 35.00000000000000000, 11.00000000000000178, 1.473465436848913956 ) ) ;
#531 = SURFACE_SIDE_STYLE ('',( #83 ) ) ;
#532 = VERTEX_POINT ( 'NONE', #118 ) ;
#533 = B_SPLINE_CURVE_WITH_KNOTS ( 'NONE', 3,
 ( #545, #484, #549, #267 ),
 .UNSPECIFIED., .F., .F.,
 ( 4, 4 ),
 ( 0.05036222981803908927, 1.000000000000000000 ),
 .UNSPECIFIED. ) ;
#534 = CARTESIAN_POINT ( 'NONE',  ( -2.291403582232717895, 7.366666666665098617, -11.43960441977120190 ) ) ;
#535 = FILL_AREA_STYLE_COLOUR ( '', #149 ) ;
#536 = AXIS2_PLACEMENT_3D ( 'NONE', #34, #23, #482 ) ;
#537 = ORIENTED_EDGE ( 'NONE', *, *, #21, .T. ) ;
#538 = LINE ( 'NONE', #548, #674 ) ;
#539 = CARTESIAN_POINT ( 'NONE',  ( 34.72478445568597039, 11.00000000000000178, 1.473465436848913956 ) ) ;
#540 = CARTESIAN_POINT ( 'NONE',  ( 35.00000000000000000, 18.22116952973337689, -1.540090735301862024 ) ) ;
#541 = ORIENTED_EDGE ( 'NONE', *, *, #528, .T. ) ;
#542 = CARTESIAN_POINT ( 'NONE',  ( 119.3526563152608873, 0.1000000000004847289, 0.1169209721887083525 ) ) ;
#543 = ADVANCED_BREP_SHAPE_REPRESENTATION ( 'newshell_supersonic_trapezoid_cfd_larger', ( #421, #247 ), #465 ) ;
#544 = CARTESIAN_POINT ( 'NONE',  ( 35.00000000000000000, 11.00000000000000178, -4.420396310546743202 ) ) ;
#545 = CARTESIAN_POINT ( 'NONE',  ( 112.3864712417770022, 1.170250349337984774, -0.4702700296936061508 ) ) ;
#546 = CARTESIAN_POINT ( 'NONE',  ( 119.3526563152608873, -0.03025704376653239047, 0.1548093451798445985 ) ) ;
#547 = CARTESIAN_POINT ( 'NONE',  ( 70.96861903081182277, 12.20266201790938076, 1.032588086155459051 ) ) ;
#548 = CARTESIAN_POINT ( 'NONE',  ( -80.00000000000001421, 140.1933325997856343, 0.000000000000000000 ) ) ;
#549 = CARTESIAN_POINT ( 'NONE',  ( 43.71183586072657334, 11.00000000000000178, -4.420396310546749419 ) ) ;
#550 = CARTESIAN_POINT ( 'NONE',  ( 41.52828237403881673, 25.44233905942234841, -7.500577781150449042 ) ) ;
#551 = CARTESIAN_POINT ( 'NONE',  ( 69.64583447939091343, 17.03865736915366114, 5.025502186343113742 ) ) ;
#552 = CARTESIAN_POINT ( 'NONE',  ( 34.81652297045731359, 11.00000000000000178, 8.640851625621142063 ) ) ;
#553 = CARTESIAN_POINT ( 'NONE',  ( 34.81652297045731359, 10.99999999999999822, 4.420396310546743202 ) ) ;
#554 = CARTESIAN_POINT ( 'NONE',  ( 35.00000000000000000, 3.353636684978552698E-12, -13.49999999999514699 ) ) ;
#555 = CARTESIAN_POINT ( 'NONE',  ( 23.81115219753140266, 3.401613579511557734E-11, -13.50000000000000000 ) ) ;
#556 = CARTESIAN_POINT ( 'NONE',  ( -3.634734465788338920, 2.455555555577691340, 7.015260599112671969 ) ) ;
#557 = CARTESIAN_POINT ( 'NONE',  ( 74.30639990756615987, 3.411431316624367130E-11, -9.042727891652909022 ) ) ;
#558 = PRODUCT_DEFINITION_FORMATION_WITH_SPECIFIED_SOURCE ( 'ANY', '', #58, .NOT_KNOWN. ) ;
#559 = ORIENTED_EDGE ( 'NONE', *, *, #230, .T. ) ;
#560 = CARTESIAN_POINT ( 'NONE',  ( -250.0000000000000568, -9.806667398594621332, -40.00000000000000711 ) ) ;
#561 = CARTESIAN_POINT ( 'NONE',  ( 35.00000000000000000, -3.328274814264879478, 16.24721966210124791 ) ) ;
#562 = CARTESIAN_POINT ( 'NONE',  ( 35.00000000000000000, 3.353636684978552698E-12, -13.49999999999514699 ) ) ;
#563 = VERTEX_POINT ( 'NONE', #564 ) ;
#564 = CARTESIAN_POINT ( 'NONE',  ( 35.00000000000000000, -2.928538529597870248E-10, 13.50000000005383427 ) ) ;
#565 = ADVANCED_FACE ( 'NONE', ( #179 ), #703, .T. ) ;
#566 = CARTESIAN_POINT ( 'NONE',  ( -49.35265631526088015, 0.2969409869305890681, -0.1331192088246027083 ) ) ;
#567 = EDGE_LOOP ( 'NONE', ( #513, #622, #541, #314 ) ) ;
#568 = CARTESIAN_POINT ( 'NONE',  ( 35.10517182360690924, 3.666666666666568375, -10.47346543684891351 ) ) ;
#569 = CARTESIAN_POINT ( 'NONE',  ( 35.00000000000000000, 18.22116952077048779, -1.540090727903728585 ) ) ;
#570 = B_SPLINE_CURVE_WITH_KNOTS ( 'NONE', 3,
 ( #275, #575, #670, #174, #462, #240, #683, #459, #231, #71, #113, #291, #632, #340, #236, #673, #571, #128 ),
 .UNSPECIFIED., .F., .F.,
 ( 4, 2, 2, 2, 2, 2, 2, 2, 4 ),
 ( 0.000000000000000000, 0.01963749140878250435, 0.03927498281756500870, 0.04909372852195625914, 0.05891247422634750264, 0.06873121993073876002, 0.07364059278293438870, 0.07609527920903220999, 0.07854996563513003127 ),
 .UNSPECIFIED. ) ;
#571 = CARTESIAN_POINT ( 'NONE',  ( 34.18073939587863208, -5.577478199869529527E-10, 13.50000000046153836 ) ) ;
#572 = AXIS2_PLACEMENT_3D ( 'NONE', #70, #140, #645 ) ;
#573 = CARTESIAN_POINT ( 'NONE',  ( 35.00000000000000000, -4.992412221383958126, -17.62082949314107339 ) ) ;
#574 = CARTESIAN_POINT ( 'NONE',  ( 35.00000000000000000, 10.99999999999999822, 4.420396310546743202 ) ) ;
#575 = CARTESIAN_POINT ( 'NONE',  ( -35.96351677189382201, 1.162670925570164382, 1.733189012877913271 ) ) ;
#576 = EDGE_CURVE ( 'NONE', #361, #383, #120, .T. ) ;
#577 = UNCERTAINTY_MEASURE_WITH_UNIT (LENGTH_MEASURE( 1.000000000000000082E-05 ), #207, 'distance_accuracy_value', 'NONE');
#578 = DIRECTION ( 'NONE',  ( -1.000000000000000000, -0.000000000000000000, -0.000000000000000000 ) ) ;
#579 = CARTESIAN_POINT ( 'NONE',  ( 51.26818359993865926, 0.2682133915410521707, -11.87617095703537728 ) ) ;
#580 = CARTESIAN_POINT ( 'NONE',  ( -49.35265631526088015, 0.1000000000004847289, -0.1169209721887119746 ) ) ;
#581 = CARTESIAN_POINT ( 'NONE',  ( 34.81652297045731359, 11.00000000000000178, -12.86130694069603031 ) ) ;
#582 = DIRECTION ( 'NONE',  ( 0.000000000000000000, 1.000000000000000000, 4.625929269271484558E-17 ) ) ;
#583 = VERTEX_POINT ( 'NONE', #126 ) ;
#584 = CARTESIAN_POINT ( 'NONE',  ( 180.0000000000000000, -9.806667398594621332, -40.00000000000000711 ) ) ;
#585 = VECTOR ( 'NONE', #357, 1000.000000000000000 ) ;
#586 = CARTESIAN_POINT ( 'NONE',  ( 99.54147298189452897, 1.124351663733343498, 2.998419185273822674 ) ) ;
#587 = DIRECTION ( 'NONE',  ( -0.000000000000000000, -0.000000000000000000, 1.000000000000000000 ) ) ;
#588 = VERTEX_POINT ( 'NONE', #584 ) ;
#589 = CARTESIAN_POINT ( 'NONE',  ( -2.291403582232717895, 7.366666666665098617, -0.9867753380107321393 ) ) ;
#590 = CARTESIAN_POINT ( 'NONE',  ( 67.40008070462464218, 0.6378370377935952407, 9.149201291898380717 ) ) ;
#591 = CARTESIAN_POINT ( 'NONE',  ( 34.80415152877884566, 25.44233905946808960, -7.500577781150466805 ) ) ;
#592 = EDGE_LOOP ( 'NONE', ( #137, #117, #646, #167 ) ) ;
#593 = CARTESIAN_POINT ( 'NONE',  ( -42.38647124188108251, 1.170250349321864114, 0.4702700296872128760 ) ) ;
#594 = CARTESIAN_POINT ( 'NONE',  ( 48.03255380472010216, 0.1922629130498467731, 12.35690510274212883 ) ) ;
#595 = CARTESIAN_POINT ( 'NONE',  ( 0.4926737252953641288, 7.723416783105738759, 3.103687550259589756 ) ) ;
#596 = ORIENTED_EDGE ( 'NONE', *, *, #204, .F. ) ;
#597 = DIRECTION ( 'NONE',  ( 0.000000000000000000, 0.000000000000000000, 1.000000000000000000 ) ) ;
#598 = CARTESIAN_POINT ( 'NONE',  ( 31.72908341264615117, 0.01934679791808208843, -13.38897882669881412 ) ) ;
#599 = ORIENTED_EDGE ( 'NONE', *, *, #182, .F. ) ;
#600 = PRODUCT_DEFINITION ( 'UNKNOWN', '', #558, #343 ) ;
#601 = APPLICATION_PROTOCOL_DEFINITION ( 'draft international standard', 'automotive_design', 1998, #346 ) ;
#602 = CARTESIAN_POINT ( 'NONE',  ( 35.00000000000000000, 11.00000000000000178, 8.640851625621142063 ) ) ;
#603 = CARTESIAN_POINT ( 'NONE',  ( 119.3526563152608873, 0.06666666666715138911, 0.06951817232511185718 ) ) ;
#604 = PLANE ( 'NONE',  #392 ) ;
#605 = CARTESIAN_POINT ( 'NONE',  ( 35.00000000000000000, -3.036128408969369186E-25, 13.50000000000000000 ) ) ;
#606 = CARTESIAN_POINT ( 'NONE',  ( 35.00000000000000000, -1.664137407181393469, -14.87360983109121193 ) ) ;
#607 = CARTESIAN_POINT ( 'NONE',  ( 44.17385147713458338, 11.00000000000000178, 8.640851625621156273 ) ) ;
#608 = EDGE_CURVE ( 'NONE', #35, #616, #76, .T. ) ;
#609 = CARTESIAN_POINT ( 'NONE',  ( 72.96306902401053662, 4.911111111121394757, 4.987793306572434915 ) ) ;
#610 = CARTESIAN_POINT ( 'NONE',  ( 44.84551691891258685, 7.333333333344672411, -7.446930873697834130 ) ) ;
#611 = CARTESIAN_POINT ( 'NONE',  ( 72.29140358223271789, 7.366666666665098617, 2.960326014032196085 ) ) ;
#612 = CARTESIAN_POINT ( 'NONE',  ( 46.79852612252870614, -3.328274814327822018, 16.24721966218957192 ) ) ;
#613 = CARTESIAN_POINT ( 'NONE',  ( 35.00000000000000000, 18.22116952904215381, 1.540090734731410338 ) ) ;
#614 = CARTESIAN_POINT ( 'NONE',  ( 2.599919295433825717, 0.6378370381488348562, -9.149201291603572983 ) ) ;
#615 = CARTESIAN_POINT ( 'NONE',  ( 42.85106692558670005, 18.22116952971117243, -1.540090735301849811 ) ) ;
#616 = VERTEX_POINT ( 'NONE', #69 ) ;
#617 = DIRECTION ( 'NONE',  ( 0.000000000000000000, 0.000000000000000000, -1.000000000000000000 ) ) ;
#618 = CARTESIAN_POINT ( 'NONE',  ( -0.9686190323270522651, 12.20266201236987591, -1.032588081581616191 ) ) ;
#619 = VECTOR ( 'NONE', #13, 1000.000000000000000 ) ;
#620 = CARTESIAN_POINT ( 'NONE',  ( 35.24206730565055068, -4.992412221384941340, -17.62082949314107339 ) ) ;
#621 = CARTESIAN_POINT ( 'NONE',  ( 23.20147387749090129, -3.328274814220820055, 16.24721966210124791 ) ) ;
#622 = ORIENTED_EDGE ( 'NONE', *, *, #608, .T. ) ;
#623 = CARTESIAN_POINT ( 'NONE',  ( 35.00000000000000000, 7.333333333333396098, -7.446930873697829689 ) ) ;
#624 = CARTESIAN_POINT ( 'NONE',  ( -49.35265631526088015, -0.01512852188253746046, 0.1414965100719967894 ) ) ;
#625 = CARTESIAN_POINT ( 'NONE',  ( 86.69289394910055080, 0.9879748578657518987, -5.507452685690530814 ) ) ;
#626 = CARTESIAN_POINT ( 'NONE',  ( -35.96363737277811623, 1.162671067946103642, -1.733165299571238771 ) ) ;
#627 = EDGE_CURVE ( 'NONE', #148, #616, #351, .T. ) ;
#628 = CARTESIAN_POINT ( 'NONE',  ( -49.35265631526088015, 0.1656469956438528235, -0.01758278893809070778 ) ) ;
#629 = STYLED_ITEM ( 'NONE', ( #33 ), #421 ) ;
#630 = CARTESIAN_POINT ( 'NONE',  ( 1.676950067104486131, 21.87465270239068715, 9.018416271662804462 ) ) ;
#631 = CARTESIAN_POINT ( 'NONE',  ( 34.87896634717441913, -4.992412221558314656, 17.62082949328436143 ) ) ;
#632 = CARTESIAN_POINT ( 'NONE',  ( 28.46909011658030053, 0.06435047993137743561, 13.12747750533225322 ) ) ;
#633 = DIRECTION ( 'NONE',  ( 0.000000000000000000, -3.542059164832683751E-15, -1.000000000000000000 ) ) ;
#634 = CARTESIAN_POINT ( 'NONE',  ( 35.00000000000000000, 11.00000000000000178, -12.86130694069603031 ) ) ;
#635 = CARTESIAN_POINT ( 'NONE',  ( -80.00000000000001421, 140.1933325997856343, -40.00000000000000000 ) ) ;
#636 = ORIENTED_EDGE ( 'NONE', *, *, #310, .F. ) ;
#637 = CARTESIAN_POINT ( 'NONE',  ( 35.13056564755151356, 25.44233904015941761, 7.500577765213300552 ) ) ;
#638 = CARTESIAN_POINT ( 'NONE',  ( 41.53302702511427924, 0.06438485171726297807, 13.12727610835601055 ) ) ;
#639 = CARTESIAN_POINT ( 'NONE',  ( 112.3741597223414317, 1.172131903551958843, 0.1567566765616678348 ) ) ;
#640 = ORIENTED_EDGE ( 'NONE', *, *, #627, .T. ) ;
#641 = CARTESIAN_POINT ( 'NONE',  ( -0.9686190324536497753, 12.20266201190696265, 1.032588081199471208 ) ) ;
#642 = CARTESIAN_POINT ( 'NONE',  ( -250.0000000000000568, 1.850371707708594366E-15, -40.00000000000000711 ) ) ;
#643 = ORIENTED_EDGE ( 'NONE', *, *, #386, .T. ) ;
#644 = CARTESIAN_POINT ( 'NONE',  ( -42.37415972230846961, 1.172131903557209531, -0.1567566765652405048 ) ) ;
#645 = DIRECTION ( 'NONE',  ( 0.000000000000000000, -0.000000000000000000, -1.000000000000000000 ) ) ;
#646 = ORIENTED_EDGE ( 'NONE', *, *, #386, .F. ) ;
#647 = CARTESIAN_POINT ( 'NONE',  ( 34.72478445568597039, 11.00000000000000178, 4.420396310546742313 ) ) ;
#648 = ADVANCED_FACE ( 'NONE', ( #684 ), #440, .T. ) ;
#649 = CARTESIAN_POINT ( 'NONE',  ( -49.35265631526088015, 0.1000000000004847289, 0.1169209721887089493 ) ) ;
#650 = CARTESIAN_POINT ( 'NONE',  ( 72.29140358223271789, 7.366666666665098617, 0.9867753380107319172 ) ) ;
#651 = CARTESIAN_POINT ( 'NONE',  ( 44.84551691891258685, 7.333333333344609350, 7.446930873697834130 ) ) ;
#652 = CARTESIAN_POINT ( 'NONE',  ( 119.3526563152608873, 0.06666666666715138911, -0.06951817232511460498 ) ) ;
#653 = PRODUCT_CONTEXT ( 'NONE', #307, 'mechanical' ) ;
#654 = CARTESIAN_POINT ( 'NONE',  ( 119.3526563152608873, 0.1000000000004847289, 0.1552887477804798799 ) ) ;
#655 = CARTESIAN_POINT ( 'NONE',  ( 34.90154483081087733, 7.333333333333218462, 7.446930873697829689 ) ) ;
#656 = CARTESIAN_POINT ( 'NONE',  ( 35.00000000000000000, -4.992412221544560325, -17.62082949327364290 ) ) ;
#657 = CARTESIAN_POINT ( 'NONE',  ( 44.17385147713458338, 11.00000000000000178, -1.473465436848916621 ) ) ;
#658 = CARTESIAN_POINT ( 'NONE',  ( 34.65518939112503460, -1.664137407187109341, 14.87360983109478596 ) ) ;
#659 = CARTESIAN_POINT ( 'NONE',  ( 35.00000000000000000, 11.00000000000000178, 8.640851625621174037 ) ) ;
#660 = CARTESIAN_POINT ( 'NONE',  ( 34.72478445568597039, 11.00000000000000178, -1.473465436848913956 ) ) ;
#661 = CARTESIAN_POINT ( 'NONE',  ( 34.64604421632413533, -3.328274814373203938, 16.24721966218957547 ) ) ;
#662 = ORIENTED_EDGE ( 'NONE', *, *, #576, .T. ) ;
#663 = VERTEX_POINT ( 'NONE', #495 ) ;
#664 = DIRECTION ( 'NONE',  ( 1.000000000000000000, 0.000000000000000000, 0.000000000000000000 ) ) ;
#665 = CARTESIAN_POINT ( 'NONE',  ( 34.76446799223240447, 18.22116952973404480, -1.540090735301862024 ) ) ;
#666 = CARTESIAN_POINT ( 'NONE',  ( 47.10336528255638910, -4.992412221495382774, -17.62082949327363579 ) ) ;
#667 = VERTEX_POINT ( 'NONE', #480 ) ;
#668 = CARTESIAN_POINT ( 'NONE',  ( 21.96744619531554576, 0.1922629135521647659, -12.35690510232460682 ) ) ;
#669 = CARTESIAN_POINT ( 'NONE',  ( -4.916078227606472950, -2.228935557387190514, 10.88308288979131433 ) ) ;
#670 = CARTESIAN_POINT ( 'NONE',  ( -29.54124283679413310, 1.124350227249528711, 2.998464540192848471 ) ) ;
#671 = CARTESIAN_POINT ( 'NONE',  ( -42.38647124177703063, 1.170250349337983220, -0.4702700296936003777 ) ) ;
#672 = CARTESIAN_POINT ( 'NONE',  ( -42.38647124177703063, 1.170250349337983220, -0.4702700296936003777 ) ) ;
#673 = CARTESIAN_POINT ( 'NONE',  ( 33.36315238501693869, 0.004710135094226855328, 13.47310891081369100 ) ) ;
#674 = VECTOR ( 'NONE', #436, 1000.000000000000000 ) ;
#675 = CARTESIAN_POINT ( 'NONE',  ( -29.54147298180327397, 1.124351663840003068, -2.998419185197860770 ) ) ;
#676 = CARTESIAN_POINT ( 'NONE',  ( 35.00000000000000000, -4.992412221557823493, 17.62082949328436143 ) ) ;
#677 = CARTESIAN_POINT ( 'NONE',  ( 57.73016919036916761, 0.4192369291530178566, -10.84551075486659855 ) ) ;
#678 = EDGE_CURVE ( 'NONE', #148, #94, #538, .T. ) ;
#679 = CARTESIAN_POINT ( 'NONE',  ( 35.00000000000000000, 3.666666666666793528, -10.47346543684891351 ) ) ;
#680 = CARTESIAN_POINT ( 'NONE',  ( 35.00000000000000000, 32.66350856231147048, -13.46106480480467305 ) ) ;
#681 = CARTESIAN_POINT ( 'NONE',  ( 35.00000000000000000, 25.44233904015852943, 7.500577765213300552 ) ) ;
#682 = LINE ( 'NONE', #451, #619 ) ;
#683 = CARTESIAN_POINT ( 'NONE',  ( 2.600979300801277372, 0.6378145880142966906, 9.149395158256140803 ) ) ;
#684 = FACE_OUTER_BOUND ( 'NONE', #388, .T. ) ;
#685 = CARTESIAN_POINT ( 'NONE',  ( 86.69331903825816710, 0.9879803759359953030, 5.507370088528460883 ) ) ;
#686 = CARTESIAN_POINT ( 'NONE',  ( 34.94794502177510509, 32.66350858920080213, -13.46106482699907225 ) ) ;
#687 = VERTEX_POINT ( 'NONE', #216 ) ;
#688 = B_SPLINE_CURVE_WITH_KNOTS ( 'NONE', 3,
 ( #554, #48, #496, #598, #715, #217, #441, #668, #389, #14, #168, #614, #454, #228, #450, #675, #626, #671 ),
 .UNSPECIFIED., .F., .F.,
 ( 4, 2, 2, 2, 2, 2, 2, 2, 4 ),
 ( 0.000000000000000000, 0.002453987711823420008, 0.004907975423646840016, 0.009815950847293680032, 0.01963190169458735659, 0.02944785254188103663, 0.03926380338917472013, 0.05889570508376208019, 0.07852760677834944025 ),
 .UNSPECIFIED. ) ;
#689 = CARTESIAN_POINT ( 'NONE',  ( 27.14893307264487632, 18.22116952005706381, 1.540090727333266463 ) ) ;
#690 = CARTESIAN_POINT ( 'NONE',  ( 44.17385147713458338, 11.00000000000000178, -8.640851625621401411 ) ) ;
#691 = CARTESIAN_POINT ( 'NONE',  ( -49.35265631526088015, 0.1000000000004847289, -0.04018542100516528381 ) ) ;
#692 =( NAMED_UNIT ( * ) SI_UNIT ( $, .STERADIAN. ) SOLID_ANGLE_UNIT ( ) );
#693 = CARTESIAN_POINT ( 'NONE',  ( 43.71183586073379956, 11.00000000000000178, 4.420396310546748531 ) ) ;
#694 = ORIENTED_EDGE ( 'NONE', *, *, #576, .F. ) ;
#695 = CARTESIAN_POINT ( 'NONE',  ( 35.00000000000000000, 11.00000000000000178, -4.420396310546743202 ) ) ;
#696 = CARTESIAN_POINT ( 'NONE',  ( 72.29140358223271789, 7.366666666665098617, -11.43960441977128895 ) ) ;
#697 = DIRECTION ( 'NONE',  ( -0.000000000000000000, 0.7712148120812044594, 0.6365749866485113095 ) ) ;
#698 = CARTESIAN_POINT ( 'NONE',  ( -250.0000000000000568, -9.806667400214371000, 40.00000000000000000 ) ) ;
#699 = EDGE_CURVE ( 'NONE', #35, #663, #326, .T. ) ;
#700 = CARTESIAN_POINT ( 'NONE',  ( 51.26929319838956189, 0.2682391381945376518, 11.87600667960966838 ) ) ;
#701 = CARTESIAN_POINT ( 'NONE',  ( 112.3864712418810399, 1.170250349321863892, 0.4702700296872120989 ) ) ;
#702 = CARTESIAN_POINT ( 'NONE',  ( -2.291403582232717895, 7.366666666665098617, 5.786752149278420632 ) ) ;
#703 = B_SPLINE_SURFACE_WITH_KNOTS ( 'NONE', 3, 3, ( 
 ( #335, #620, #289, #573, #164, #341, #331 ),
 ( #59, #279, #62, #121, #344, #238, #54 ),
 ( #516, #282, #507, #457, #445, #233, #384 ),
 ( #503, #115, #108, #338, #555, #4, #393 ),
 ( #276, #286, #568, #679, #1, #448, #176 ),
 ( #510, #7, #398, #623, #514, #12, #292 ),
 ( #252, #27, #244, #695, #196, #188, #404 ),
 ( #192, #519, #181, #130, #689, #641, #476 ),
 ( #411, #637, #134, #681, #469, #348, #16 ),
 ( #303, #362, #463, #355, #526, #630, #248 ) ),
 .UNSPECIFIED., .F., .F., .F.,
 ( 4, 3, 3, 4 ),
 ( 4, 3, 4 ),
 ( -0.4538556564894757894, 0.000000000000000000, 1.000000000000000000, 2.969409869112560330 ),
 ( -0.01000000000000000021, 0.000000000000000000, 1.000000000000000000 ),
 .UNSPECIFIED. ) ;
#704 = CARTESIAN_POINT ( 'NONE',  ( 34.81652297045731359, 11.00000000000000178, -4.420396310546742313 ) ) ;
#705 = CARTESIAN_POINT ( 'NONE',  ( 119.3526563152608873, 0.1000000000004847289, 0.04018542100516528381 ) ) ;
#706 = CARTESIAN_POINT ( 'NONE',  ( 72.29140358223271789, 7.366666666665098617, 11.43960441977079867 ) ) ;
#707 = CARTESIAN_POINT ( 'NONE',  ( 74.91607822762608748, -2.228935557458850525, 10.88308288985047767 ) ) ;
#708 = CARTESIAN_POINT ( 'NONE',  ( 119.3526563152608873, 4.847061337368008260E-13, -0.1281836749650132612 ) ) ;
#709 = CARTESIAN_POINT ( 'NONE',  ( -49.35265631526088015, 0.1000000000004847289, 0.07855319659693711654 ) ) ;
#710 = CARTESIAN_POINT ( 'NONE',  ( 35.00000000000000000, 11.00000000000000178, 4.420396310546742313 ) ) ;
#711 = CARTESIAN_POINT ( 'NONE',  ( 73.63473446578834114, 2.455555555577691340, 7.015260599112671969 ) ) ;
#712 = ORIENTED_EDGE ( 'NONE', *, *, #310, .T. ) ;
#713 = B_SPLINE_CURVE_WITH_KNOTS ( 'NONE', 3,
 ( #365, #80, #595, #313 ),
 .UNSPECIFIED., .F., .F.,
 ( 4, 4 ),
 ( 0.000000000000000000, 0.9496377701827493079 ),
 .UNSPECIFIED. ) ;
#714 = CARTESIAN_POINT ( 'NONE',  ( -2.291403582232717895, 7.366666666665098617, 11.43960441977086795 ) ) ;
#715 = CARTESIAN_POINT ( 'NONE',  ( 30.91310460009556493, 0.02934880684794642647, -13.33128381338680768 ) ) ;
#716 = CARTESIAN_POINT ( 'NONE',  ( 34.66433456592594098, -1.014778275889480134E-12, 13.50000000000000000 ) ) ;
#717 = CARTESIAN_POINT ( 'NONE',  ( 68.32304992797001830, 21.87465272039794328, 9.018416286530769099 ) ) ;
#718 = CARTESIAN_POINT ( 'NONE',  ( 119.3526563152608873, 0.1000000000004847289, -0.01339514033505509460 ) ) ;
ENDSEC;
END-ISO-10303-21;
