ISO-10303-21;
HEADER;
FILE_DESCRIPTION (( 'STEP AP203' ),
    '1' );
FILE_NAME ('simpleFin_smaller.STEP',
    '2025-09-21T18:13:50',
    ( '' ),
    ( '' ),
    'SwSTEP 2.0',
    'SolidWorks 2025',
    '' );
FILE_SCHEMA (( 'CONFIG_CONTROL_DESIGN' ));
ENDSEC;

DATA;
#1 = CARTESIAN_POINT ( 'NONE',  ( 10.57431819279605989, 79.04350083040567654, -2.033402328746081622 ) ) ;
#2 = VERTEX_POINT ( 'NONE', #428 ) ;
#3 = ADVANCED_FACE ( 'NONE', ( #379 ), #272, .T. ) ;
#4 = VECTOR ( 'NONE', #742, 1000.000000000000000 ) ;
#5 = CARTESIAN_POINT ( 'NONE',  ( 10.92947860853085018, 78.99436165027587720, -4.764999999999999680 ) ) ;
#6 = AXIS2_PLACEMENT_3D ( 'NONE', #119, #580, #585 ) ;
#7 = PLANE ( 'NONE',  #460 ) ;
#8 = ORIENTED_EDGE ( 'NONE', *, *, #659, .T. ) ;
#9 = LINE ( 'NONE', #115, #332 ) ;
#10 = ORIENTED_EDGE ( 'NONE', *, *, #365, .T. ) ;
#11 = PLANE ( 'NONE',  #237 ) ;
#12 = DIRECTION ( 'NONE',  ( -0.9640591281908337251, 0.000000000000000000, 0.2656877817136681363 ) ) ;
#13 = EDGE_CURVE ( 'NONE', #284, #197, #437, .T. ) ;
#14 = DIRECTION ( 'NONE',  ( -0.9850867619346518334, 0.000000000000000000, 0.1720583373774799696 ) ) ;
#15 = CARTESIAN_POINT ( 'NONE',  ( 0.000000000000000000, 0.000000000000000000, 4.764999999999999680 ) ) ;
#16 = UNCERTAINTY_MEASURE_WITH_UNIT (LENGTH_MEASURE( 1.000000000000000082E-05 ), #653, 'distance_accuracy_value', 'NONE');
#17 = LINE ( 'NONE', #257, #749 ) ;
#18 = CARTESIAN_POINT ( 'NONE',  ( 0.000000000000000000, 600.0000000000000000, -261.2937609437353785 ) ) ;
#19 = ADVANCED_FACE ( 'NONE', ( #607 ), #543, .F. ) ;
#20 = FACE_OUTER_BOUND ( 'NONE', #709, .T. ) ;
#21 = VERTEX_POINT ( 'NONE', #265 ) ;
#22 = EDGE_CURVE ( 'NONE', #339, #612, #604, .T. ) ;
#23 = EDGE_LOOP ( 'NONE', ( #594, #463, #714, #173 ) ) ;
#24 = CARTESIAN_POINT ( 'NONE',  ( 5.560236332634296730, 54.09527590768239236, -1.760525647263481819 ) ) ;
#25 = DIRECTION ( 'NONE',  ( 0.5812381937190964631, -0.8137334712067350040, -0.000000000000000000 ) ) ;
#26 = CC_DESIGN_PERSON_AND_ORGANIZATION_ASSIGNMENT ( #592, #369, ( #73 ) ) ;
#27 = ORIENTED_EDGE ( 'NONE', *, *, #49, .F. ) ;
#28 = DIRECTION ( 'NONE',  ( -0.1720096048057266902, 0.02379885420821636205, -0.9848077530122079093 ) ) ;
#29 = DATE_TIME_ROLE ( 'creation_date' ) ;
#30 = AXIS2_PLACEMENT_3D ( 'NONE', #643, #518, #465 ) ;
#31 = CARTESIAN_POINT ( 'NONE',  ( 53.31867673499299087, 88.90000000000000568, -9.318158204612968731 ) ) ;
#32 = DIRECTION ( 'NONE',  ( -0.1370521391469142480, -0.9905638349724136260, -0.000000000000000000 ) ) ;
#33 = CARTESIAN_POINT ( 'NONE',  ( 7.448354274199226133, 53.83404024197656668, -4.764999999999999680 ) ) ;
#34 = VECTOR ( 'NONE', #715, 999.9999999999998863 ) ;
#35 = CARTESIAN_POINT ( 'NONE',  ( 0.000000000000000000, 0.000000000000000000, -261.2937609437353785 ) ) ;
#36 = LINE ( 'NONE', #324, #500 ) ;
#37 = DIRECTION ( 'NONE',  ( 0.000000000000000000, 0.000000000000000000, 1.000000000000000000 ) ) ;
#38 = AXIS2_PLACEMENT_3D ( 'NONE', #422, #531, #432 ) ;
#39 = EDGE_CURVE ( 'NONE', #735, #154, #210, .T. ) ;
#40 = PLANE ( 'NONE',  #621 ) ;
#41 = LINE ( 'NONE', #90, #178 ) ;
#42 = EDGE_LOOP ( 'NONE', ( #520, #455, #347 ) ) ;
#43 = LINE ( 'NONE', #453, #288 ) ;
#44 = BREP_WITH_VOIDS ( 'NONE', #295, ( #53 ) );
#45 = LINE ( 'NONE', #167, #418 ) ;
#46 = EDGE_LOOP ( 'NONE', ( #682, #498, #202, #8, #703, #436 ) ) ;
#47 = CC_DESIGN_APPROVAL ( #664, ( #266 ) ) ;
#48 = LINE ( 'NONE', #278, #358 ) ;
#49 = EDGE_CURVE ( 'NONE', #582, #409, #341, .T. ) ;
#50 = DIRECTION ( 'NONE',  ( 0.000000000000000000, -1.000000000000000000, 0.000000000000000000 ) ) ;
#51 = EDGE_CURVE ( 'NONE', #330, #58, #108, .T. ) ;
#52 = CARTESIAN_POINT ( 'NONE',  ( 25.78304755981202590, 51.29729415184117869, 4.316694454387814517 ) ) ;
#53 = ORIENTED_CLOSED_SHELL ( 'NONE', *, #420, .F. );
#54 = DIRECTION ( 'NONE',  ( -1.000000000000000000, 0.000000000000000000, -0.000000000000000000 ) ) ;
#55 = ORIENTED_EDGE ( 'NONE', *, *, #526, .F. ) ;
#56 = DIRECTION ( 'NONE',  ( -0.9905638349724136260, 0.1370521391469142480, 0.000000000000000000 ) ) ;
#57 = LINE ( 'NONE', #163, #196 ) ;
#58 = VERTEX_POINT ( 'NONE', #338 ) ;
#59 = DATE_TIME_ROLE ( 'classification_date' ) ;
#60 = ORIENTED_EDGE ( 'NONE', *, *, #464, .F. ) ;
#61 = EDGE_CURVE ( 'NONE', #561, #223, #616, .T. ) ;
#62 = PLANE ( 'NONE',  #6 ) ;
#63 = DIRECTION ( 'NONE',  ( -0.9755149445343381798, 0.1349700091987883210, 0.1736481776669314137 ) ) ;
#64 = ORIENTED_EDGE ( 'NONE', *, *, #49, .T. ) ;
#65 = VECTOR ( 'NONE', #37, 1000.000000000000000 ) ;
#66 = DIRECTION ( 'NONE',  ( -1.541238675009617413E-15, -1.113952180555727864E-14, -1.000000000000000000 ) ) ;
#67 = AXIS2_PLACEMENT_3D ( 'NONE', #243, #514, #355 ) ;
#68 = EDGE_LOOP ( 'NONE', ( #27, #469, #215 ) ) ;
#69 = DIRECTION ( 'NONE',  ( -1.000000000000000000, 0.000000000000000000, -0.000000000000000000 ) ) ;
#70 = EDGE_CURVE ( 'NONE', #284, #58, #57, .T. ) ;
#71 = AXIS2_PLACEMENT_3D ( 'NONE', #718, #200, #304 ) ;
#72 = DIRECTION ( 'NONE',  ( 0.000000000000000000, -1.000000000000000000, 0.000000000000000000 ) ) ;
#73 = PRODUCT ( 'simpleFin_smaller', 'simpleFin_smaller', '', ( #595 ) ) ;
#74 = PLANE ( 'NONE',  #551 ) ;
#75 = LINE ( 'NONE', #405, #160 ) ;
#76 = ORIENTED_EDGE ( 'NONE', *, *, #314, .F. ) ;
#77 = APPROVAL_STATUS ( 'not_yet_approved' ) ;
#78 = DIRECTION ( 'NONE',  ( 0.000000000000000000, -1.000000000000000000, 0.000000000000000000 ) ) ;
#79 = ORIENTED_EDGE ( 'NONE', *, *, #637, .T. ) ;
#80 = VERTEX_POINT ( 'NONE', #111 ) ;
#81 = CALENDAR_DATE ( 2025, 21, 9 ) ;
#82 = EDGE_CURVE ( 'NONE', #228, #339, #570, .T. ) ;
#83 = CARTESIAN_POINT ( 'NONE',  ( 0.000000000000000000, 600.0000000000000000, 261.2937609437353785 ) ) ;
#84 = ORIENTED_EDGE ( 'NONE', *, *, #524, .T. ) ;
#85 = ORIENTED_EDGE ( 'NONE', *, *, #82, .T. ) ;
#86 = CALENDAR_DATE ( 2025, 21, 9 ) ;
#87 = DIRECTION ( 'NONE',  ( 1.000000000000000000, 0.000000000000000000, 0.000000000000000000 ) ) ;
#88 = ORIENTED_EDGE ( 'NONE', *, *, #258, .T. ) ;
#89 = CARTESIAN_POINT ( 'NONE',  ( 0.000000000000000000, 0.000000000000000000, 0.000000000000000000 ) ) ;
#90 = CARTESIAN_POINT ( 'NONE',  ( 53.31867673499299087, 88.90000000000000568, 9.318158204612968731 ) ) ;
#91 = EDGE_CURVE ( 'NONE', #561, #409, #227, .T. ) ;
#92 = EDGE_LOOP ( 'NONE', ( #568, #407, #113, #720 ) ) ;
#93 = CARTESIAN_POINT ( 'NONE',  ( 0.000000000000000000, 0.000000000000000000, 4.764999999999999680 ) ) ;
#94 = ORIENTED_EDGE ( 'NONE', *, *, #337, .F. ) ;
#95 = ORIENTED_EDGE ( 'NONE', *, *, #61, .F. ) ;
#96 = VECTOR ( 'NONE', #97, 1000.000000000000000 ) ;
#97 = DIRECTION ( 'NONE',  ( -1.000000000000000000, -0.000000000000000000, -0.000000000000000000 ) ) ;
#98 = CARTESIAN_POINT ( 'NONE',  ( 26.32916598785767803, 51.29959792178725309, 4.221363373155944565 ) ) ;
#99 = ORIENTED_EDGE ( 'NONE', *, *, #707, .T. ) ;
#100 = VECTOR ( 'NONE', #601, 1000.000000000000000 ) ;
#101 = VECTOR ( 'NONE', #124, 999.9999999999998863 ) ;
#102 = EDGE_CURVE ( 'NONE', #577, #416, #686, .T. ) ;
#103 = CARTESIAN_POINT ( 'NONE',  ( 12.29999999999999183, 88.90000000000000568, -4.764999999999999680 ) ) ;
#104 = FACE_OUTER_BOUND ( 'NONE', #23, .T. ) ;
#105 = APPROVAL ( #513, 'UNSPECIFIED' ) ;
#106 = LOCAL_TIME ( 14, 13, 50.00000000000000000, #190 ) ;
#107 = DIRECTION ( 'NONE',  ( -0.9755149445343381798, 0.1349700091987883210, 0.1736481776669314137 ) ) ;
#108 = LINE ( 'NONE', #168, #386 ) ;
#109 = ORIENTED_EDGE ( 'NONE', *, *, #722, .F. ) ;
#110 = CARTESIAN_POINT ( 'NONE',  ( 0.000000000000000000, 0.000000000000000000, -4.764999999999999680 ) ) ;
#111 = CARTESIAN_POINT ( 'NONE',  ( 87.12999999999995282, 88.90000000000000568, 0.000000000000000000 ) ) ;
#112 = ORIENTED_EDGE ( 'NONE', *, *, #439, .T. ) ;
#113 = ORIENTED_EDGE ( 'NONE', *, *, #644, .F. ) ;
#114 = DATE_AND_TIME ( #231, #494 ) ;
#115 = CARTESIAN_POINT ( 'NONE',  ( 33.46065916154124409, 139.8310771738422034, 4.764999999999999680 ) ) ;
#116 = CARTESIAN_POINT ( 'NONE',  ( 338.8724262586346185, 600.0000000000000000, 0.000000000000000000 ) ) ;
#117 = ORIENTED_EDGE ( 'NONE', *, *, #579, .T. ) ;
#118 = COORDINATED_UNIVERSAL_TIME_OFFSET ( 5, 0, .BEHIND. ) ;
#119 = CARTESIAN_POINT ( 'NONE',  ( 7.448354274199185276, 53.83404024197657378, -4.764999999999999680 ) ) ;
#120 = FACE_OUTER_BOUND ( 'NONE', #309, .T. ) ;
#121 = EDGE_LOOP ( 'NONE', ( #95, #540, #657 ) ) ;
#122 = ADVANCED_FACE ( 'NONE', ( #104 ), #334, .F. ) ;
#123 = ADVANCED_FACE ( 'NONE', ( #567 ), #222, .T. ) ;
#124 = DIRECTION ( 'NONE',  ( -0.1370521391469147754, -0.9905638349724135150, 1.179973561319753667E-16 ) ) ;
#125 = AXIS2_PLACEMENT_3D ( 'NONE', #83, #482, #251 ) ;
#126 = PRODUCT_RELATED_PRODUCT_CATEGORY ( 'detail', '', ( #73 ) ) ;
#127 = CARTESIAN_POINT ( 'NONE',  ( -338.8724262586345048, 0.000000000000000000, 261.2937609437353785 ) ) ;
#128 = VECTOR ( 'NONE', #194, 1000.000000000000000 ) ;
#129 = VECTOR ( 'NONE', #673, 1000.000000000000000 ) ;
#130 = CARTESIAN_POINT ( 'NONE',  ( 18.87024105622444381, -2.610843250748721367, 4.221363373155950782 ) ) ;
#131 = ORIENTED_EDGE ( 'NONE', *, *, #388, .T. ) ;
#132 =( NAMED_UNIT ( * ) SI_UNIT ( $, .STERADIAN. ) SOLID_ANGLE_UNIT ( ) );
#133 = DIRECTION ( 'NONE',  ( 1.000000000000000000, 0.000000000000000000, -0.000000000000000000 ) ) ;
#134 = ADVANCED_FACE ( 'NONE', ( #282 ), #693, .F. ) ;
#135 = CARTESIAN_POINT ( 'NONE',  ( 25.91979654198144090, 76.92033565948351281, -4.764999999999999680 ) ) ;
#136 = APPLICATION_CONTEXT ( 'configuration controlled 3d designs of mechanical parts and assemblies' ) ;
#137 = ORIENTED_EDGE ( 'NONE', *, *, #579, .F. ) ;
#138 = APPLICATION_PROTOCOL_DEFINITION ( 'international standard', 'config_control_design', 1994, #136 ) ;
#139 = VECTOR ( 'NONE', #175, 1000.000000000000000 ) ;
#140 = LOCAL_TIME ( 14, 13, 50.00000000000000000, #162 ) ;
#141 = DIRECTION ( 'NONE',  ( 1.000000000000000000, 0.000000000000000000, 0.000000000000000000 ) ) ;
#142 = CARTESIAN_POINT ( 'NONE',  ( 8.732445392262999206, 53.65637634150205315, 7.351815557460264827 ) ) ;
#143 = ORIENTED_EDGE ( 'NONE', *, *, #512, .F. ) ;
#144 = LINE ( 'NONE', #417, #449 ) ;
#145 = ADVANCED_FACE ( 'NONE', ( #642 ), #411, .T. ) ;
#146 = LINE ( 'NONE', #478, #646 ) ;
#147 = LINE ( 'NONE', #725, #450 ) ;
#148 = VERTEX_POINT ( 'NONE', #702 ) ;
#149 = CARTESIAN_POINT ( 'NONE',  ( 12.29999999999999183, 88.90000000000000568, 4.764999999999999680 ) ) ;
#150 = CARTESIAN_POINT ( 'NONE',  ( 69.83999999999998920, 88.90000000000000568, -4.765000000000000568 ) ) ;
#151 = ORIENTED_EDGE ( 'NONE', *, *, #283, .T. ) ;
#152 = DIRECTION ( 'NONE',  ( -0.2610288422967343980, -0.1864491730690960303, 0.9471539734124948540 ) ) ;
#153 = CARTESIAN_POINT ( 'NONE',  ( 12.29999999999999183, 88.90000000000000568, 4.764999999999999680 ) ) ;
#154 = VERTEX_POINT ( 'NONE', #127 ) ;
#155 = ADVANCED_FACE ( 'NONE', ( #457 ), #750, .F. ) ;
#156 = ADVANCED_FACE ( 'NONE', ( #587 ), #11, .F. ) ;
#157 = PLANE ( 'NONE',  #38 ) ;
#158 = ORIENTED_EDGE ( 'NONE', *, *, #713, .F. ) ;
#159 = EDGE_CURVE ( 'NONE', #276, #416, #238, .T. ) ;
#160 = VECTOR ( 'NONE', #634, 1000.000000000000114 ) ;
#161 = CARTESIAN_POINT ( 'NONE',  ( 50.75065916154124324, 139.8310771738422034, 0.000000000000000000 ) ) ;
#162 = COORDINATED_UNIVERSAL_TIME_OFFSET ( 5, 0, .BEHIND. ) ;
#163 = CARTESIAN_POINT ( 'NONE',  ( 338.8724262586346185, 600.0000000000000000, 0.000000000000000000 ) ) ;
#164 = ORIENTED_EDGE ( 'NONE', *, *, #229, .T. ) ;
#165 = VECTOR ( 'NONE', #729, 1000.000000000000114 ) ;
#166 = CC_DESIGN_APPROVAL ( #105, ( #204 ) ) ;
#167 = CARTESIAN_POINT ( 'NONE',  ( 7.093193858464424295, 53.88317942210635181, -2.033402328746078958 ) ) ;
#168 = CARTESIAN_POINT ( 'NONE',  ( 0.000000000000000000, 600.0000000000000000, 261.2937609437353785 ) ) ;
#169 = ORIENTED_EDGE ( 'NONE', *, *, #205, .F. ) ;
#170 = AXIS2_PLACEMENT_3D ( 'NONE', #110, #56, #285 ) ;
#171 = APPLICATION_CONTEXT ( 'configuration controlled 3d designs of mechanical parts and assemblies' ) ;
#172 = CALENDAR_DATE ( 2025, 21, 9 ) ;
#173 = ORIENTED_EDGE ( 'NONE', *, *, #70, .F. ) ;
#174 = LINE ( 'NONE', #130, #101 ) ;
#175 = DIRECTION ( 'NONE',  ( 0.000000000000000000, 0.000000000000000000, 1.000000000000000000 ) ) ;
#176 = ORIENTED_EDGE ( 'NONE', *, *, #512, .T. ) ;
#177 = PERSON_AND_ORGANIZATION ( #658, #461 ) ;
#178 = VECTOR ( 'NONE', #270, 1000.000000000000227 ) ;
#179 = DIRECTION ( 'NONE',  ( 0.1370521391469141093, 0.9905638349724136260, -0.000000000000000000 ) ) ;
#180 = CARTESIAN_POINT ( 'NONE',  ( -10.91295876945434706, 51.29959792178722466, 4.221363373156001408 ) ) ;
#181 = EDGE_LOOP ( 'NONE', ( #647, #652, #491, #158, #382 ) ) ;
#182 = ADVANCED_FACE ( 'NONE', ( #462 ), #400, .F. ) ;
#183 = ADVANCED_FACE ( 'NONE', ( #589 ), #293, .F. ) ;
#184 = DIRECTION ( 'NONE',  ( -0.1370521391469142480, -0.9905638349724136260, -0.000000000000000000 ) ) ;
#185 = EDGE_CURVE ( 'NONE', #249, #415, #9, .T. ) ;
#186 = CARTESIAN_POINT ( 'NONE',  ( 7.448354274199185276, 53.83404024197657378, -4.764999999999999680 ) ) ;
#187 = ORIENTED_EDGE ( 'NONE', *, *, #366, .F. ) ;
#188 = CARTESIAN_POINT ( 'NONE',  ( 2.265540192603903158, 30.28239079803183387, -1.760525647263481375 ) ) ;
#189 = VERTEX_POINT ( 'NONE', #5 ) ;
#190 = COORDINATED_UNIVERSAL_TIME_OFFSET ( 5, 0, .BEHIND. ) ;
#191 = VECTOR ( 'NONE', #505, 1000.000000000000114 ) ;
#192 = CARTESIAN_POINT ( 'NONE',  ( 0.000000000000000000, 600.0000000000000000, -261.2937609437353785 ) ) ;
#193 = EDGE_CURVE ( 'NONE', #305, #189, #468, .T. ) ;
#194 = DIRECTION ( 'NONE',  ( -0.000000000000000000, -0.000000000000000000, 1.000000000000000000 ) ) ;
#195 = CARTESIAN_POINT ( 'NONE',  ( 9.396521082700699523, 79.20645813585193196, 0.2728766814825702158 ) ) ;
#196 = VECTOR ( 'NONE', #507, 1000.000000000000000 ) ;
#197 = VERTEX_POINT ( 'NONE', #345 ) ;
#198 = AXIS2_PLACEMENT_3D ( 'NONE', #15, #529, #69 ) ;
#199 = PERSON_AND_ORGANIZATION_ROLE ( 'creator' ) ;
#200 = DIRECTION ( 'NONE',  ( -0.1370521391469134986, -0.9905638349724136260, 0.000000000000000000 ) ) ;
#201 = LINE ( 'NONE', #142, #396 ) ;
#202 = ORIENTED_EDGE ( 'NONE', *, *, #410, .T. ) ;
#203 = LINE ( 'NONE', #33, #128 ) ;
#204 = PRODUCT_DEFINITION_FORMATION_WITH_SPECIFIED_SOURCE ( 'ANY', '', #73, .NOT_KNOWN. ) ;
#205 = EDGE_CURVE ( 'NONE', #748, #556, #698, .T. ) ;
#206 = CARTESIAN_POINT ( 'NONE',  ( 10.92947860853085018, 78.99436165027587720, -4.764999999999999680 ) ) ;
#207 = DIRECTION ( 'NONE',  ( 1.000000000000000000, 0.000000000000000000, 0.000000000000000000 ) ) ;
#208 = EDGE_LOOP ( 'NONE', ( #164, #287, #137, #663 ) ) ;
#209 = VECTOR ( 'NONE', #207, 1000.000000000000000 ) ;
#210 = LINE ( 'NONE', #323, #65 ) ;
#211 = CARTESIAN_POINT ( 'NONE',  ( -338.8724262586345048, 600.0000000000000000, 261.2937609437353785 ) ) ;
#212 = ORIENTED_EDGE ( 'NONE', *, *, #22, .F. ) ;
#213 = ORIENTED_EDGE ( 'NONE', *, *, #185, .F. ) ;
#214 = DIRECTION ( 'NONE',  ( -0.1370521391469142480, -0.9905638349724136260, -0.000000000000000000 ) ) ;
#215 = ORIENTED_EDGE ( 'NONE', *, *, #487, .T. ) ;
#216 = DIRECTION ( 'NONE',  ( 0.000000000000000000, -0.000000000000000000, -1.000000000000000000 ) ) ;
#217 = ORIENTED_EDGE ( 'NONE', *, *, #632, .T. ) ;
#218 = CC_DESIGN_PERSON_AND_ORGANIZATION_ASSIGNMENT ( #289, #456, ( #244 ) ) ;
#219 = DIRECTION ( 'NONE',  ( -0.1370521391469142480, -0.9905638349724136260, 0.000000000000000000 ) ) ;
#220 = PLANE ( 'NONE',  #488 ) ;
#221 = COORDINATED_UNIVERSAL_TIME_OFFSET ( 5, 0, .BEHIND. ) ;
#222 = PLANE ( 'NONE',  #352 ) ;
#223 = VERTEX_POINT ( 'NONE', #414 ) ;
#224 = AXIS2_PLACEMENT_3D ( 'NONE', #247, #628, #638 ) ;
#225 = LINE ( 'NONE', #103, #96 ) ;
#226 = DATE_AND_TIME ( #741, #661 ) ;
#227 = LINE ( 'NONE', #503, #477 ) ;
#228 = VERTEX_POINT ( 'NONE', #408 ) ;
#229 = EDGE_CURVE ( 'NONE', #424, #148, #75, .T. ) ;
#230 = VECTOR ( 'NONE', #668, 1000.000000000000000 ) ;
#231 = CALENDAR_DATE ( 2025, 21, 9 ) ;
#232 = ORIENTED_EDGE ( 'NONE', *, *, #526, .T. ) ;
#233 = VECTOR ( 'NONE', #509, 1000.000000000000000 ) ;
#234 = LINE ( 'NONE', #452, #615 ) ;
#235 = DIRECTION ( 'NONE',  ( -0.9755149445343380687, 0.1349700091987890149, 0.1736481776669313859 ) ) ;
#236 = ORIENTED_EDGE ( 'NONE', *, *, #61, .T. ) ;
#237 = AXIS2_PLACEMENT_3D ( 'NONE', #349, #66, #302 ) ;
#238 = LINE ( 'NONE', #523, #421 ) ;
#239 = EDGE_CURVE ( 'NONE', #582, #223, #174, .T. ) ;
#240 = FACE_OUTER_BOUND ( 'NONE', #68, .T. ) ;
#241 = ORIENTED_EDGE ( 'NONE', *, *, #631, .F. ) ;
#242 = AXIS2_PLACEMENT_3D ( 'NONE', #699, #406, #14 ) ;
#243 = CARTESIAN_POINT ( 'NONE',  ( 53.25557566543896115, 51.51676228825913739, -4.765000000000001457 ) ) ;
#244 = SECURITY_CLASSIFICATION ( '', '', #697 ) ;
#245 = CC_DESIGN_PERSON_AND_ORGANIZATION_ASSIGNMENT ( #476, #199, ( #266 ) ) ;
#246 = DIRECTION ( 'NONE',  ( 0.5812381937190964631, -0.8137334712067350040, -0.000000000000000000 ) ) ;
#247 = CARTESIAN_POINT ( 'NONE',  ( 10.92947860853084130, 78.99436165027589141, -2.988117237666363737E-14 ) ) ;
#248 = LINE ( 'NONE', #211, #129 ) ;
#249 = VERTEX_POINT ( 'NONE', #359 ) ;
#250 = LINE ( 'NONE', #481, #413 ) ;
#251 = DIRECTION ( 'NONE',  ( -1.000000000000000000, 0.000000000000000000, -0.000000000000000000 ) ) ;
#252 = ORIENTED_EDGE ( 'NONE', *, *, #438, .F. ) ;
#253 = DIRECTION ( 'NONE',  ( 0.000000000000000000, 0.000000000000000000, -1.000000000000000000 ) ) ;
#254 = PLANE ( 'NONE',  #71 ) ;
#255 = ORIENTED_EDGE ( 'NONE', *, *, #683, .F. ) ;
#256 = APPROVAL_DATE_TIME ( #544, #664 ) ;
#257 = CARTESIAN_POINT ( 'NONE',  ( -338.8724262586345048, 600.0000000000000000, -261.2937609437353785 ) ) ;
#258 = EDGE_CURVE ( 'NONE', #378, #504, #234, .T. ) ;
#259 = CARTESIAN_POINT ( 'NONE',  ( 0.000000000000000000, 0.000000000000000000, 4.764999999999999680 ) ) ;
#260 = AXIS2_PLACEMENT_3D ( 'NONE', #311, #133, #662 ) ;
#261 = PERSON_AND_ORGANIZATION ( #658, #461 ) ;
#262 = ADVANCED_FACE ( 'NONE', ( #353 ), #62, .F. ) ;
#263 = FACE_OUTER_BOUND ( 'NONE', #299, .T. ) ;
#264 = ORIENTED_EDGE ( 'NONE', *, *, #159, .T. ) ;
#265 = CARTESIAN_POINT ( 'NONE',  ( 10.68061220076450013, 79.02879423537741843, 7.624692238942860634 ) ) ;
#266 = PRODUCT_DEFINITION ( 'UNKNOWN', '', #204, #649 ) ;
#267 = VECTOR ( 'NONE', #401, 1000.000000000000000 ) ;
#268 = LINE ( 'NONE', #490, #165 ) ;
#269 = EDGE_LOOP ( 'NONE', ( #475, #560, #677, #294 ) ) ;
#270 = DIRECTION ( 'NONE',  ( 0.9640591281908336141, 0.000000000000000000, -0.2656877817136681363 ) ) ;
#271 = ORIENTED_EDGE ( 'NONE', *, *, #631, .T. ) ;
#272 = PLANE ( 'NONE',  #362 ) ;
#273 = EDGE_CURVE ( 'NONE', #154, #730, #300, .T. ) ;
#274 = DIRECTION ( 'NONE',  ( 0.9905638349724136260, -0.1370521391469141093, 0.000000000000000000 ) ) ;
#275 = CARTESIAN_POINT ( 'NONE',  ( 3.798497718434051595, 30.07029431245578621, -2.033402328746081622 ) ) ;
#276 = VERTEX_POINT ( 'NONE', #711 ) ;
#277 = VERTEX_POINT ( 'NONE', #135 ) ;
#278 = CARTESIAN_POINT ( 'NONE',  ( 0.000000000000000000, 0.000000000000000000, -4.764999999999999680 ) ) ;
#279 = DIRECTION ( 'NONE',  ( -0.9850952724760067003, -0.004155569132810873860, 0.1719594004135996668 ) ) ;
#280 = CARTESIAN_POINT ( 'NONE',  ( 23.26457160839068905, 51.64574470529993988, 4.764999999999998792 ) ) ;
#281 = APPROVAL_ROLE ( '' ) ;
#282 = FACE_OUTER_BOUND ( 'NONE', #42, .T. ) ;
#283 = EDGE_CURVE ( 'NONE', #360, #284, #371, .T. ) ;
#284 = VERTEX_POINT ( 'NONE', #473 ) ;
#285 = DIRECTION ( 'NONE',  ( -0.1370521391469142480, -0.9905638349724136260, 0.000000000000000000 ) ) ;
#286 = CARTESIAN_POINT ( 'NONE',  ( 7.448354274199226133, 53.83404024197656668, -4.764999999999999680 ) ) ;
#287 = ORIENTED_EDGE ( 'NONE', *, *, #713, .T. ) ;
#288 = VECTOR ( 'NONE', #525, 1000.000000000000000 ) ;
#289 = PERSON_AND_ORGANIZATION ( #658, #461 ) ;
#290 = ORIENTED_EDGE ( 'NONE', *, *, #613, .T. ) ;
#291 = APPROVAL_DATE_TIME ( #395, #105 ) ;
#292 = ADVANCED_FACE ( 'NONE', ( #600 ), #318, .F. ) ;
#293 = PLANE ( 'NONE',  #224 ) ;
#294 = ORIENTED_EDGE ( 'NONE', *, *, #599, .F. ) ;
#295 = CLOSED_SHELL ( 'NONE', ( #578, #19, #123, #474, #3, #145, #499, #182, #547, #429, #134, #623, #370, #183, #502 ) ) ;
#296 = VECTOR ( 'NONE', #141, 1000.000000000000000 ) ;
#297 = DIRECTION ( 'NONE',  ( -0.1370521391469134986, -0.9905638349724136260, 0.000000000000000000 ) ) ;
#298 = LINE ( 'NONE', #1, #354 ) ;
#299 = EDGE_LOOP ( 'NONE', ( #368, #620, #636, #326 ) ) ;
#300 = LINE ( 'NONE', #471, #296 ) ;
#301 = AXIS2_PLACEMENT_3D ( 'NONE', #558, #496, #216 ) ;
#302 = DIRECTION ( 'NONE',  ( 0.000000000000000000, 1.000000000000000000, -1.113952180555727864E-14 ) ) ;
#303 = CC_DESIGN_APPROVAL ( #393, ( #244 ) ) ;
#304 = DIRECTION ( 'NONE',  ( 0.9905638349724136260, -0.1370521391469134986, 0.000000000000000000 ) ) ;
#305 = VERTEX_POINT ( 'NONE', #545 ) ;
#306 = ORIENTED_EDGE ( 'NONE', *, *, #229, .F. ) ;
#307 = PLANE ( 'NONE',  #747 ) ;
#308 = DIRECTION ( 'NONE',  ( 0.9905638349724137370, -0.1370521391469135264, 0.000000000000000000 ) ) ;
#309 = EDGE_LOOP ( 'NONE', ( #255, #485, #399, #678 ) ) ;
#310 = EDGE_CURVE ( 'NONE', #80, #508, #723, .T. ) ;
#311 = CARTESIAN_POINT ( 'NONE',  ( -338.8724262586345048, 600.0000000000000000, 0.000000000000000000 ) ) ;
#312 = CARTESIAN_POINT ( 'NONE',  ( 50.75065916154124324, 139.8310771738422034, 0.000000000000000000 ) ) ;
#313 = EDGE_LOOP ( 'NONE', ( #79, #64, #357 ) ) ;
#314 = EDGE_CURVE ( 'NONE', #339, #424, #596, .T. ) ;
#315 = ORIENTED_EDGE ( 'NONE', *, *, #193, .F. ) ;
#316 = DATE_AND_TIME ( #86, #528 ) ;
#317 = ADVANCED_BREP_SHAPE_REPRESENTATION ( 'simpleFin_smaller', ( #44, #537, #688 ), #423 ) ;
#318 = PLANE ( 'NONE',  #260 ) ;
#319 = DIRECTION ( 'NONE',  ( -0.9755149445343381798, 0.1349700091987883210, 0.1736481776669314692 ) ) ;
#320 = ADVANCED_FACE ( 'NONE', ( #263 ), #426, .F. ) ;
#321 = ORIENTED_EDGE ( 'NONE', *, *, #239, .F. ) ;
#322 = FACE_OUTER_BOUND ( 'NONE', #391, .T. ) ;
#323 = CARTESIAN_POINT ( 'NONE',  ( -338.8724262586345048, -0.000000000000000000, 0.000000000000000000 ) ) ;
#324 = CARTESIAN_POINT ( 'NONE',  ( 3.904791726402491392, 30.05558771742753521, 7.624692238942860634 ) ) ;
#325 = VECTOR ( 'NONE', #336, 1000.000000000000114 ) ;
#326 = ORIENTED_EDGE ( 'NONE', *, *, #571, .T. ) ;
#327 = LINE ( 'NONE', #501, #325 ) ;
#328 = DIRECTION ( 'NONE',  ( -0.1370521391469141093, -0.9905638349724136260, 0.000000000000000000 ) ) ;
#329 = EDGE_LOOP ( 'NONE', ( #143, #187, #151, #342 ) ) ;
#330 = VERTEX_POINT ( 'NONE', #542 ) ;
#331 = AXIS2_PLACEMENT_3D ( 'NONE', #495, #28, #548 ) ;
#332 = VECTOR ( 'NONE', #246, 1000.000000000000000 ) ;
#333 = CARTESIAN_POINT ( 'NONE',  ( 133.3399999999999750, 0.000000000000000000, 4.764999999999999680 ) ) ;
#334 = PLANE ( 'NONE',  #655 ) ;
#335 = VECTOR ( 'NONE', #381, 999.9999999999998863 ) ;
#336 = DIRECTION ( 'NONE',  ( -0.1370521391469140537, -0.9905638349724135150, 0.000000000000000000 ) ) ;
#337 = EDGE_CURVE ( 'NONE', #556, #21, #419, .T. ) ;
#338 = CARTESIAN_POINT ( 'NONE',  ( 338.8724262586346185, 600.0000000000000000, 261.2937609437353785 ) ) ;
#339 = VERTEX_POINT ( 'NONE', #650 ) ;
#340 = FACE_OUTER_BOUND ( 'NONE', #385, .T. ) ;
#341 = LINE ( 'NONE', #397, #717 ) ;
#342 = ORIENTED_EDGE ( 'NONE', *, *, #13, .T. ) ;
#343 = CC_DESIGN_SECURITY_CLASSIFICATION ( #244, ( #204 ) ) ;
#344 = ORIENTED_EDGE ( 'NONE', *, *, #683, .T. ) ;
#345 = CARTESIAN_POINT ( 'NONE',  ( 338.8724262586346185, 0.000000000000000000, -261.2937609437353785 ) ) ;
#346 = DIRECTION ( 'NONE',  ( 1.000000000000000000, 0.000000000000000000, -0.000000000000000000 ) ) ;
#347 = ORIENTED_EDGE ( 'NONE', *, *, #707, .F. ) ;
#348 = CC_DESIGN_PERSON_AND_ORGANIZATION_ASSIGNMENT ( #566, #626, ( #204 ) ) ;
#349 = CARTESIAN_POINT ( 'NONE',  ( -10.91295876945434706, 56.37446938074984359, 4.221363373155945453 ) ) ;
#350 = LINE ( 'NONE', #629, #687 ) ;
#351 = ORIENTED_EDGE ( 'NONE', *, *, #82, .F. ) ;
#352 = AXIS2_PLACEMENT_3D ( 'NONE', #681, #618, #54 ) ;
#353 = FACE_OUTER_BOUND ( 'NONE', #121, .T. ) ;
#354 = VECTOR ( 'NONE', #235, 1000.000000000000114 ) ;
#355 = DIRECTION ( 'NONE',  ( 0.000000000000000000, -0.02415893657510759587, 0.9997081302978184647 ) ) ;
#356 = EDGE_CURVE ( 'NONE', #189, #276, #363, .T. ) ;
#357 = ORIENTED_EDGE ( 'NONE', *, *, #91, .F. ) ;
#358 = VECTOR ( 'NONE', #394, 1000.000000000000000 ) ;
#359 = CARTESIAN_POINT ( 'NONE',  ( 69.83999999999998920, 88.90000000000000568, 4.764999999999999680 ) ) ;
#360 = VERTEX_POINT ( 'NONE', #593 ) ;
#361 = DIRECTION ( 'NONE',  ( 1.000000000000000000, 0.000000000000000000, 0.000000000000000000 ) ) ;
#362 = AXIS2_PLACEMENT_3D ( 'NONE', #736, #727, #219 ) ;
#363 = LINE ( 'NONE', #206, #640 ) ;
#364 = APPLICATION_PROTOCOL_DEFINITION ( 'international standard', 'config_control_design', 1994, #171 ) ;
#365 = EDGE_CURVE ( 'NONE', #80, #378, #146, .T. ) ;
#366 = EDGE_CURVE ( 'NONE', #360, #735, #17, .T. ) ;
#367 = DIRECTION ( 'NONE',  ( -0.9640591281908336141, 0.000000000000000000, -0.2656877817136681363 ) ) ;
#368 = ORIENTED_EDGE ( 'NONE', *, *, #273, .T. ) ;
#369 = PERSON_AND_ORGANIZATION_ROLE ( 'design_owner' ) ;
#370 = ADVANCED_FACE ( 'NONE', ( #20 ), #254, .T. ) ;
#371 = LINE ( 'NONE', #192, #583 ) ;
#372 = LINE ( 'NONE', #486, #34 ) ;
#373 = DIRECTION ( 'NONE',  ( 0.9640591281908336141, -0.000000000000000000, -0.2656877817136680808 ) ) ;
#374 = DIRECTION ( 'NONE',  ( 0.9905638349724136260, -0.1370521391469141093, 0.000000000000000000 ) ) ;
#375 = EDGE_LOOP ( 'NONE', ( #639, #552, #112, #212, #351 ) ) ;
#376 = CARTESIAN_POINT ( 'NONE',  ( 133.3399999999999750, 0.000000000000000000, -4.764999999999999680 ) ) ;
#377 = FACE_OUTER_BOUND ( 'NONE', #46, .T. ) ;
#378 = VERTEX_POINT ( 'NONE', #533 ) ;
#379 = FACE_OUTER_BOUND ( 'NONE', #375, .T. ) ;
#380 = PLANE ( 'NONE',  #301 ) ;
#381 = DIRECTION ( 'NONE',  ( 0.9905638349724136260, -0.1370521391469141093, 0.000000000000000000 ) ) ;
#382 = ORIENTED_EDGE ( 'NONE', *, *, #445, .F. ) ;
#383 = ORIENTED_EDGE ( 'NONE', *, *, #402, .T. ) ;
#384 = LINE ( 'NONE', #740, #690 ) ;
#385 = EDGE_LOOP ( 'NONE', ( #732, #739, #264, #743, #645 ) ) ;
#386 = VECTOR ( 'NONE', #442, 1000.000000000000000 ) ;
#387 = VECTOR ( 'NONE', #179, 999.9999999999998863 ) ;
#388 = EDGE_CURVE ( 'NONE', #305, #577, #384, .T. ) ;
#389 = DIRECTION ( 'NONE',  ( 0.9640591281908337251, 0.000000000000000000, 0.2656877817136681363 ) ) ;
#390 = DIRECTION ( 'NONE',  ( -0.1370521391469142480, -0.9905638349724136260, -0.000000000000000000 ) ) ;
#391 = EDGE_LOOP ( 'NONE', ( #60, #574, #290 ) ) ;
#392 = VECTOR ( 'NONE', #214, 999.9999999999998863 ) ;
#393 = APPROVAL ( #404, 'UNSPECIFIED' ) ;
#394 = DIRECTION ( 'NONE',  ( 0.000000000000000000, 0.000000000000000000, 1.000000000000000000 ) ) ;
#395 = DATE_AND_TIME ( #172, #140 ) ;
#396 = VECTOR ( 'NONE', #319, 1000.000000000000114 ) ;
#397 = CARTESIAN_POINT ( 'NONE',  ( 53.98204231991220325, 51.41625002897894348, -0.6057555529348649381 ) ) ;
#398 = ORIENTED_EDGE ( 'NONE', *, *, #603, .F. ) ;
#399 = ORIENTED_EDGE ( 'NONE', *, *, #70, .T. ) ;
#400 = PLANE ( 'NONE',  #198 ) ;
#401 = DIRECTION ( 'NONE',  ( 0.000000000000000000, 0.000000000000000000, 1.000000000000000000 ) ) ;
#402 = EDGE_CURVE ( 'NONE', #508, #305, #225, .T. ) ;
#403 = VERTEX_POINT ( 'NONE', #446 ) ;
#404 = APPROVAL_STATUS ( 'not_yet_approved' ) ;
#405 = CARTESIAN_POINT ( 'NONE',  ( 23.26457160839069616, 51.64574470530001804, 4.764999999999999680 ) ) ;
#406 = DIRECTION ( 'NONE',  ( -0.1720096048057266902, 0.02379885420821636205, -0.9848077530122079093 ) ) ;
#407 = ORIENTED_EDGE ( 'NONE', *, *, #571, .F. ) ;
#408 = CARTESIAN_POINT ( 'NONE',  ( 7.448354274199227021, 53.83404024197656668, -2.096623255618929260 ) ) ;
#409 = VERTEX_POINT ( 'NONE', #52 ) ;
#410 = EDGE_CURVE ( 'NONE', #2, #228, #45, .T. ) ;
#411 = PLANE ( 'NONE',  #30 ) ;
#412 = DIRECTION ( 'NONE',  ( 0.000000000000000000, -1.000000000000000000, 0.000000000000000000 ) ) ;
#413 = VECTOR ( 'NONE', #373, 1000.000000000000114 ) ;
#414 = CARTESIAN_POINT ( 'NONE',  ( 26.31859533042370103, 51.22319699122787284, 4.221363373155945453 ) ) ;
#415 = VERTEX_POINT ( 'NONE', #333 ) ;
#416 = VERTEX_POINT ( 'NONE', #569 ) ;
#417 = CARTESIAN_POINT ( 'NONE',  ( 12.21356972659463480, 78.81669774980137788, 7.351815557460262163 ) ) ;
#418 = VECTOR ( 'NONE', #107, 1000.000000000000000 ) ;
#419 = LINE ( 'NONE', #195, #546 ) ;
#420 = CLOSED_SHELL ( 'NONE', ( #694, #262, #155, #156 ) ) ;
#421 = VECTOR ( 'NONE', #532, 1000.000000000000000 ) ;
#422 = CARTESIAN_POINT ( 'NONE',  ( 2.620700608338692117, 30.23325161790204518, 0.2728766814825702158 ) ) ;
#423 =( GEOMETRIC_REPRESENTATION_CONTEXT ( 3 ) GLOBAL_UNCERTAINTY_ASSIGNED_CONTEXT ( ( #16 ) ) GLOBAL_UNIT_ASSIGNED_CONTEXT ( ( #653, #470, #132 ) ) REPRESENTATION_CONTEXT ( 'NONE', 'WORKASPACE' ) );
#424 = VERTEX_POINT ( 'NONE', #280 ) ;
#425 = LINE ( 'NONE', #149, #230 ) ;
#426 = PLANE ( 'NONE',  #125 ) ;
#427 = CARTESIAN_POINT ( 'NONE',  ( 25.76639673475503045, 51.29959792178722466, 4.221363373155945453 ) ) ;
#428 = CARTESIAN_POINT ( 'NONE',  ( 22.43867220764981951, 51.76001425118419519, -4.764999999999999680 ) ) ;
#429 = ADVANCED_FACE ( 'NONE', ( #679 ), #220, .F. ) ;
#430 = DIRECTION ( 'NONE',  ( -0.1720096048057266069, 0.02379885420821634470, -0.9848077530122079093 ) ) ;
#431 = EDGE_LOOP ( 'NONE', ( #169, #271, #117, #94 ) ) ;
#432 = DIRECTION ( 'NONE',  ( 0.1752517868667922141, 0.000000000000000000, 0.9845236468465327073 ) ) ;
#433 = PLANE ( 'NONE',  #553 ) ;
#434 = VERTEX_POINT ( 'NONE', #614 ) ;
#435 = CARTESIAN_POINT ( 'NONE',  ( -83.23445007259462614, 66.38070496037444457, 23.72253739276842310 ) ) ;
#436 = ORIENTED_EDGE ( 'NONE', *, *, #660, .F. ) ;
#437 = LINE ( 'NONE', #667, #100 ) ;
#438 = EDGE_CURVE ( 'NONE', #277, #2, #327, .T. ) ;
#439 = EDGE_CURVE ( 'NONE', #403, #612, #48, .T. ) ;
#440 = LINE ( 'NONE', #617, #515 ) ;
#441 = APPROVAL_DATE_TIME ( #114, #393 ) ;
#442 = DIRECTION ( 'NONE',  ( 1.000000000000000000, 0.000000000000000000, 0.000000000000000000 ) ) ;
#443 = VECTOR ( 'NONE', #367, 1000.000000000000227 ) ;
#444 = ORIENTED_EDGE ( 'NONE', *, *, #402, .F. ) ;
#445 = EDGE_CURVE ( 'NONE', #416, #148, #440, .T. ) ;
#446 = CARTESIAN_POINT ( 'NONE',  ( 0.000000000000000000, 0.000000000000000000, -4.764999999999999680 ) ) ;
#447 = DIRECTION ( 'NONE',  ( 0.1720096048057268845, -0.02379885420821627878, 0.9848077530122076872 ) ) ;
#448 = ORIENTED_EDGE ( 'NONE', *, *, #258, .F. ) ;
#449 = VECTOR ( 'NONE', #712, 1000.000000000000114 ) ;
#450 = VECTOR ( 'NONE', #72, 1000.000000000000000 ) ;
#451 = ORIENTED_EDGE ( 'NONE', *, *, #39, .F. ) ;
#452 = CARTESIAN_POINT ( 'NONE',  ( 150.6299999999999955, 0.000000000000000000, 0.000000000000000000 ) ) ;
#453 = CARTESIAN_POINT ( 'NONE',  ( 33.46065916154124409, 139.8310771738422034, -4.764999999999999680 ) ) ;
#454 = LINE ( 'NONE', #695, #139 ) ;
#455 = ORIENTED_EDGE ( 'NONE', *, *, #410, .F. ) ;
#456 = PERSON_AND_ORGANIZATION_ROLE ( 'classification_officer' ) ;
#457 = FACE_OUTER_BOUND ( 'NONE', #313, .T. ) ;
#458 = PLANE ( 'NONE',  #242 ) ;
#459 = ORIENTED_EDGE ( 'NONE', *, *, #659, .F. ) ;
#460 = AXIS2_PLACEMENT_3D ( 'NONE', #116, #346, #519 ) ;
#461 = ORGANIZATION ( 'UNSPECIFIED', 'UNSPECIFIED', '' ) ;
#462 = FACE_OUTER_BOUND ( 'NONE', #691, .T. ) ;
#463 = ORIENTED_EDGE ( 'NONE', *, *, #644, .T. ) ;
#464 = EDGE_CURVE ( 'NONE', #276, #277, #684, .T. ) ;
#465 = DIRECTION ( 'NONE',  ( 0.000000000000000000, -0.000000000000000000, 1.000000000000000000 ) ) ;
#466 = CARTESIAN_POINT ( 'NONE',  ( 0.000000000000000000, 0.000000000000000000, 0.000000000000000000 ) ) ;
#467 = CC_DESIGN_DATE_AND_TIME_ASSIGNMENT ( #226, #59, ( #244 ) ) ;
#468 = LINE ( 'NONE', #708, #479 ) ;
#469 = ORIENTED_EDGE ( 'NONE', *, *, #239, .T. ) ;
#470 =( NAMED_UNIT ( * ) PLANE_ANGLE_UNIT ( ) SI_UNIT ( $, .RADIAN. ) );
#471 = CARTESIAN_POINT ( 'NONE',  ( 0.000000000000000000, -0.000000000000000000, 261.2937609437353785 ) ) ;
#472 = CARTESIAN_POINT ( 'NONE',  ( 338.8724262586346185, 0.000000000000000000, 261.2937609437353785 ) ) ;
#473 = CARTESIAN_POINT ( 'NONE',  ( 338.8724262586346185, 600.0000000000000000, -261.2937609437353785 ) ) ;
#474 = ADVANCED_FACE ( 'NONE', ( #340 ), #622, .T. ) ;
#475 = ORIENTED_EDGE ( 'NONE', *, *, #185, .T. ) ;
#476 = PERSON_AND_ORGANIZATION ( #658, #461 ) ;
#477 = VECTOR ( 'NONE', #447, 1000.000000000000114 ) ;
#478 = CARTESIAN_POINT ( 'NONE',  ( 50.75065916154124324, 139.8310771738422034, 0.000000000000000000 ) ) ;
#479 = VECTOR ( 'NONE', #184, 999.9999999999998863 ) ;
#480 = ORIENTED_EDGE ( 'NONE', *, *, #102, .T. ) ;
#481 = CARTESIAN_POINT ( 'NONE',  ( 150.6299999999999955, 0.000000000000000000, 0.000000000000000000 ) ) ;
#482 = DIRECTION ( 'NONE',  ( 0.000000000000000000, 0.000000000000000000, -1.000000000000000000 ) ) ;
#483 = EDGE_LOOP ( 'NONE', ( #689, #236, #321 ) ) ;
#484 = APPROVAL_PERSON_ORGANIZATION ( #261, #105, #633 ) ;
#485 = ORIENTED_EDGE ( 'NONE', *, *, #13, .F. ) ;
#486 = CARTESIAN_POINT ( 'NONE',  ( 7.448354274199185276, 53.83404024197657378, -4.764999999999999680 ) ) ;
#487 = EDGE_CURVE ( 'NONE', #223, #409, #734, .T. ) ;
#488 = AXIS2_PLACEMENT_3D ( 'NONE', #161, #152, #389 ) ;
#489 = CARTESIAN_POINT ( 'NONE',  ( 0.000000000000000000, 0.000000000000000000, -4.764999999999999680 ) ) ;
#490 = CARTESIAN_POINT ( 'NONE',  ( 5.915396748369079027, 54.04613672755260723, 0.2728766814825675513 ) ) ;
#491 = ORIENTED_EDGE ( 'NONE', *, *, #337, .T. ) ;
#492 = VECTOR ( 'NONE', #32, 999.9999999999998863 ) ;
#493 = LINE ( 'NONE', #550, #392 ) ;
#494 = LOCAL_TIME ( 14, 13, 50.00000000000000000, #118 ) ;
#495 = CARTESIAN_POINT ( 'NONE',  ( 5.437749252232627839, 29.84349123185148756, 7.351815557460262163 ) ) ;
#496 = DIRECTION ( 'NONE',  ( 0.000000000000000000, -1.000000000000000000, 0.000000000000000000 ) ) ;
#497 = LINE ( 'NONE', #602, #335 ) ;
#498 = ORIENTED_EDGE ( 'NONE', *, *, #438, .T. ) ;
#499 = ADVANCED_FACE ( 'NONE', ( #609 ), #380, .T. ) ;
#500 = VECTOR ( 'NONE', #555, 999.9999999999998863 ) ;
#501 = CARTESIAN_POINT ( 'NONE',  ( 19.14397606761943038, 27.94712914153362959, -4.764999999999999680 ) ) ;
#502 = ADVANCED_FACE ( 'NONE', ( #676 ), #157, .T. ) ;
#503 = CARTESIAN_POINT ( 'NONE',  ( 24.49895644174823062, 51.47495805231569221, -3.035121103072483617 ) ) ;
#504 = VERTEX_POINT ( 'NONE', #376 ) ;
#505 = DIRECTION ( 'NONE',  ( 0.9755149445343380687, -0.1349700091987889594, -0.1736481776669313859 ) ) ;
#506 = PERSON_AND_ORGANIZATION_ROLE ( 'design_supplier' ) ;
#507 = DIRECTION ( 'NONE',  ( 0.000000000000000000, 0.000000000000000000, 1.000000000000000000 ) ) ;
#508 = VERTEX_POINT ( 'NONE', #150 ) ;
#509 = DIRECTION ( 'NONE',  ( -0.9755149445343379577, 0.1349700091987896255, 0.1736481776669314969 ) ) ;
#510 = CARTESIAN_POINT ( 'NONE',  ( 0.000000000000000000, 0.000000000000000000, 4.764999999999999680 ) ) ;
#511 = ORIENTED_EDGE ( 'NONE', *, *, #557, .T. ) ;
#512 = EDGE_CURVE ( 'NONE', #735, #197, #672, .T. ) ;
#513 = APPROVAL_STATUS ( 'not_yet_approved' ) ;
#514 = DIRECTION ( 'NONE',  ( 3.641733961720009492E-19, 0.9997081302978184647, 0.02415893657510759587 ) ) ;
#515 = VECTOR ( 'NONE', #274, 999.9999999999998863 ) ;
#516 = LINE ( 'NONE', #180, #586 ) ;
#517 = ORIENTED_EDGE ( 'NONE', *, *, #524, .F. ) ;
#518 = DIRECTION ( 'NONE',  ( 0.000000000000000000, 1.000000000000000000, 0.000000000000000000 ) ) ;
#519 = DIRECTION ( 'NONE',  ( -0.000000000000000000, 0.000000000000000000, -1.000000000000000000 ) ) ;
#520 = ORIENTED_EDGE ( 'NONE', *, *, #716, .T. ) ;
#521 = VECTOR ( 'NONE', #624, 999.9999999999998863 ) ;
#522 = VECTOR ( 'NONE', #308, 999.9999999999998863 ) ;
#523 = CARTESIAN_POINT ( 'NONE',  ( 10.92947860853085018, 78.99436165027587720, -4.764999999999999680 ) ) ;
#524 = EDGE_CURVE ( 'NONE', #403, #504, #669, .T. ) ;
#525 = DIRECTION ( 'NONE',  ( 0.5812381937190964631, -0.8137334712067350040, -0.000000000000000000 ) ) ;
#526 = EDGE_CURVE ( 'NONE', #612, #415, #605, .T. ) ;
#527 = ORIENTED_EDGE ( 'NONE', *, *, #439, .F. ) ;
#528 = LOCAL_TIME ( 14, 13, 50.00000000000000000, #598 ) ;
#529 = DIRECTION ( 'NONE',  ( 0.000000000000000000, 0.000000000000000000, -1.000000000000000000 ) ) ;
#530 = CC_DESIGN_DATE_AND_TIME_ASSIGNMENT ( #316, #29, ( #266 ) ) ;
#531 = DIRECTION ( 'NONE',  ( -0.9755149445343379577, 0.1349700091987889594, 0.1736481776669318855 ) ) ;
#532 = DIRECTION ( 'NONE',  ( -0.000000000000000000, -0.000000000000000000, 1.000000000000000000 ) ) ;
#533 = CARTESIAN_POINT ( 'NONE',  ( 150.6299999999999955, 0.000000000000000000, 0.000000000000000000 ) ) ;
#534 = ORIENTED_EDGE ( 'NONE', *, *, #22, .T. ) ;
#535 = APPROVAL_ROLE ( '' ) ;
#536 = PRODUCT_DEFINITION_SHAPE ( 'NONE', 'NONE',  #266 ) ;
#537 = MANIFOLD_SOLID_BREP ( 'Boss-Extrude6', #654 ) ;
#538 = AXIS2_PLACEMENT_3D ( 'NONE', #610, #328, #374 ) ;
#539 = DIRECTION ( 'NONE',  ( -0.000000000000000000, -0.000000000000000000, 1.000000000000000000 ) ) ;
#540 = ORIENTED_EDGE ( 'NONE', *, *, #91, .T. ) ;
#541 = FACE_OUTER_BOUND ( 'NONE', #329, .T. ) ;
#542 = CARTESIAN_POINT ( 'NONE',  ( -338.8724262586345048, 600.0000000000000000, 261.2937609437353785 ) ) ;
#543 = PLANE ( 'NONE',  #331 ) ;
#544 = DATE_AND_TIME ( #81, #106 ) ;
#545 = CARTESIAN_POINT ( 'NONE',  ( 12.29999999999999183, 88.90000000000000568, -4.764999999999999680 ) ) ;
#546 = VECTOR ( 'NONE', #665, 1000.000000000000114 ) ;
#547 = ADVANCED_FACE ( 'NONE', ( #554 ), #40, .F. ) ;
#548 = DIRECTION ( 'NONE',  ( -0.9850867619346518334, 0.000000000000000000, 0.1720583373774799696 ) ) ;
#549 = DIRECTION ( 'NONE',  ( 0.000000000000000000, 0.000000000000000000, 1.000000000000000000 ) ) ;
#550 = CARTESIAN_POINT ( 'NONE',  ( 0.000000000000000000, 0.000000000000000000, -4.764999999999999680 ) ) ;
#551 = AXIS2_PLACEMENT_3D ( 'NONE', #466, #412, #641 ) ;
#552 = ORIENTED_EDGE ( 'NONE', *, *, #603, .T. ) ;
#553 = AXIS2_PLACEMENT_3D ( 'NONE', #275, #430, #606 ) ;
#554 = FACE_OUTER_BOUND ( 'NONE', #269, .T. ) ;
#555 = DIRECTION ( 'NONE',  ( 0.1370521391469141093, 0.9905638349724136260, -0.000000000000000000 ) ) ;
#556 = VERTEX_POINT ( 'NONE', #719 ) ;
#557 = EDGE_CURVE ( 'NONE', #424, #701, #201, .T. ) ;
#558 = CARTESIAN_POINT ( 'NONE',  ( 0.000000000000000000, 0.000000000000000000, -4.764999999999999680 ) ) ;
#559 = PLANE ( 'NONE',  #538 ) ;
#560 = ORIENTED_EDGE ( 'NONE', *, *, #744, .T. ) ;
#561 = VERTEX_POINT ( 'NONE', #427 ) ;
#562 = EDGE_CURVE ( 'NONE', #58, #730, #147, .T. ) ;
#563 = CARTESIAN_POINT ( 'NONE',  ( 0.000000000000000000, 600.0000000000000000, 0.000000000000000000 ) ) ;
#564 = APPROVAL_PERSON_ORGANIZATION ( #710, #664, #535 ) ;
#565 = CARTESIAN_POINT ( 'NONE',  ( 11.38149200260704497, 78.93182211431256690, -2.177084659723655502 ) ) ;
#566 = PERSON_AND_ORGANIZATION ( #658, #461 ) ;
#567 = FACE_OUTER_BOUND ( 'NONE', #572, .T. ) ;
#568 = ORIENTED_EDGE ( 'NONE', *, *, #39, .T. ) ;
#569 = CARTESIAN_POINT ( 'NONE',  ( 10.92947860853085018, 78.99436165027587720, 4.764999999999999680 ) ) ;
#570 = LINE ( 'NONE', #286, #4 ) ;
#571 = EDGE_CURVE ( 'NONE', #330, #154, #248, .T. ) ;
#572 = EDGE_LOOP ( 'NONE', ( #217, #517, #398, #99, #252, #671, #315, #444 ) ) ;
#573 = PERSON_AND_ORGANIZATION ( #658, #461 ) ;
#574 = ORIENTED_EDGE ( 'NONE', *, *, #356, .F. ) ;
#575 = DIRECTION ( 'NONE',  ( -0.9640591281908336141, 0.000000000000000000, -0.2656877817136680808 ) ) ;
#576 = LINE ( 'NONE', #581, #267 ) ;
#577 = VERTEX_POINT ( 'NONE', #153 ) ;
#578 = ADVANCED_FACE ( 'NONE', ( #377 ), #433, .T. ) ;
#579 = EDGE_CURVE ( 'NONE', #701, #21, #36, .T. ) ;
#580 = DIRECTION ( 'NONE',  ( -0.1370521391469134986, -0.9905638349724136260, 0.000000000000000000 ) ) ;
#581 = CARTESIAN_POINT ( 'NONE',  ( -338.8724262586345048, 600.0000000000000000, 0.000000000000000000 ) ) ;
#582 = VERTEX_POINT ( 'NONE', #98 ) ;
#583 = VECTOR ( 'NONE', #87, 1000.000000000000000 ) ;
#584 = CC_DESIGN_PERSON_AND_ORGANIZATION_ASSIGNMENT ( #573, #506, ( #204 ) ) ;
#585 = DIRECTION ( 'NONE',  ( 0.9905638349724136260, -0.1370521391469134986, 0.000000000000000000 ) ) ;
#586 = VECTOR ( 'NONE', #635, 1000.000000000000000 ) ;
#587 = FACE_OUTER_BOUND ( 'NONE', #483, .T. ) ;
#588 = ORIENTED_EDGE ( 'NONE', *, *, #599, .T. ) ;
#589 = FACE_OUTER_BOUND ( 'NONE', #181, .T. ) ;
#590 = EDGE_LOOP ( 'NONE', ( #625, #55, #527, #84, #448 ) ) ;
#591 = EDGE_LOOP ( 'NONE', ( #10, #88, #675, #733 ) ) ;
#592 = PERSON_AND_ORGANIZATION ( #658, #461 ) ;
#593 = CARTESIAN_POINT ( 'NONE',  ( -338.8724262586345048, 600.0000000000000000, -261.2937609437353785 ) ) ;
#594 = ORIENTED_EDGE ( 'NONE', *, *, #283, .F. ) ;
#595 = MECHANICAL_CONTEXT ( 'NONE', #171, 'mechanical' ) ;
#596 = LINE ( 'NONE', #656, #522 ) ;
#597 = DIRECTION ( 'NONE',  ( -0.2610288422967343980, -0.1864491730690960303, -0.9471539734124948540 ) ) ;
#598 = COORDINATED_UNIVERSAL_TIME_OFFSET ( 5, 0, .BEHIND. ) ;
#599 = EDGE_CURVE ( 'NONE', #249, #80, #41, .T. ) ;
#600 = FACE_OUTER_BOUND ( 'NONE', #92, .T. ) ;
#601 = DIRECTION ( 'NONE',  ( 0.000000000000000000, -1.000000000000000000, 0.000000000000000000 ) ) ;
#602 = CARTESIAN_POINT ( 'NONE',  ( 10.92947860853083775, 78.99436165027587720, -4.764999999999999680 ) ) ;
#603 = EDGE_CURVE ( 'NONE', #434, #403, #493, .T. ) ;
#604 = LINE ( 'NONE', #259, #492 ) ;
#605 = LINE ( 'NONE', #93, #728 ) ;
#606 = DIRECTION ( 'NONE',  ( -0.9850867619346518334, 0.000000000000000000, 0.1720583373774798863 ) ) ;
#607 = FACE_OUTER_BOUND ( 'NONE', #208, .T. ) ;
#608 = VECTOR ( 'NONE', #724, 1000.000000000000000 ) ;
#609 = FACE_OUTER_BOUND ( 'NONE', #590, .T. ) ;
#610 = CARTESIAN_POINT ( 'NONE',  ( 10.92947860853083775, 78.99436165027587720, -4.764999999999999680 ) ) ;
#611 = EDGE_LOOP ( 'NONE', ( #588, #630, #383, #131, #109 ) ) ;
#612 = VERTEX_POINT ( 'NONE', #731 ) ;
#613 = EDGE_CURVE ( 'NONE', #189, #277, #497, .T. ) ;
#614 = CARTESIAN_POINT ( 'NONE',  ( 7.448354274199226133, 53.83404024197656668, -4.764999999999999680 ) ) ;
#615 = VECTOR ( 'NONE', #575, 1000.000000000000114 ) ;
#616 = LINE ( 'NONE', #746, #521 ) ;
#617 = CARTESIAN_POINT ( 'NONE',  ( 10.92947860853083775, 78.99436165027587720, 4.764999999999999680 ) ) ;
#618 = DIRECTION ( 'NONE',  ( 0.000000000000000000, 0.000000000000000000, -1.000000000000000000 ) ) ;
#619 = APPROVAL_PERSON_ORGANIZATION ( #177, #393, #281 ) ;
#620 = ORIENTED_EDGE ( 'NONE', *, *, #562, .F. ) ;
#621 = AXIS2_PLACEMENT_3D ( 'NONE', #312, #597, #12 ) ;
#622 = PLANE ( 'NONE',  #170 ) ;
#623 = ADVANCED_FACE ( 'NONE', ( #322 ), #559, .T. ) ;
#624 = DIRECTION ( 'NONE',  ( 0.9905638349724135150, -0.1370521391469148309, -0.000000000000000000 ) ) ;
#625 = ORIENTED_EDGE ( 'NONE', *, *, #744, .F. ) ;
#626 = PERSON_AND_ORGANIZATION_ROLE ( 'creator' ) ;
#627 = ORIENTED_EDGE ( 'NONE', *, *, #445, .T. ) ;
#628 = DIRECTION ( 'NONE',  ( -0.1370521391469141093, -0.9905638349724135150, 3.747002708109902831E-16 ) ) ;
#629 = CARTESIAN_POINT ( 'NONE',  ( 7.093193858464424295, 53.88317942210635181, -2.033402328746078958 ) ) ;
#630 = ORIENTED_EDGE ( 'NONE', *, *, #310, .T. ) ;
#631 = EDGE_CURVE ( 'NONE', #748, #701, #268, .T. ) ;
#632 = EDGE_CURVE ( 'NONE', #508, #504, #43, .T. ) ;
#633 = APPROVAL_ROLE ( '' ) ;
#634 = DIRECTION ( 'NONE',  ( 0.1370521391469140815, 0.9905638349724135150, 0.000000000000000000 ) ) ;
#635 = DIRECTION ( 'NONE',  ( 1.000000000000000000, 3.688127852826834372E-17, -1.541238675009617808E-15 ) ) ;
#636 = ORIENTED_EDGE ( 'NONE', *, *, #51, .F. ) ;
#637 = EDGE_CURVE ( 'NONE', #561, #582, #516, .T. ) ;
#638 = DIRECTION ( 'NONE',  ( 0.9905638349724135150, -0.1370521391469141093, 0.000000000000000000 ) ) ;
#639 = ORIENTED_EDGE ( 'NONE', *, *, #716, .F. ) ;
#640 = VECTOR ( 'NONE', #539, 1000.000000000000000 ) ;
#641 = DIRECTION ( 'NONE',  ( 0.000000000000000000, -0.000000000000000000, -1.000000000000000000 ) ) ;
#642 = FACE_OUTER_BOUND ( 'NONE', #611, .T. ) ;
#643 = CARTESIAN_POINT ( 'NONE',  ( 12.29999999999999183, 88.90000000000000568, -4.764999999999999680 ) ) ;
#644 = EDGE_CURVE ( 'NONE', #360, #330, #576, .T. ) ;
#645 = ORIENTED_EDGE ( 'NONE', *, *, #388, .F. ) ;
#646 = VECTOR ( 'NONE', #25, 1000.000000000000000 ) ;
#647 = ORIENTED_EDGE ( 'NONE', *, *, #159, .F. ) ;
#648 = DIRECTION ( 'NONE',  ( -1.000000000000000000, 0.000000000000000000, -0.000000000000000000 ) ) ;
#649 = DESIGN_CONTEXT ( 'detailed design', #136, 'design' ) ;
#650 = CARTESIAN_POINT ( 'NONE',  ( 7.448354274199226133, 53.83404024197656668, 4.764999999999999680 ) ) ;
#651 = ORIENTED_EDGE ( 'NONE', *, *, #314, .T. ) ;
#652 = ORIENTED_EDGE ( 'NONE', *, *, #660, .T. ) ;
#653 =( LENGTH_UNIT ( ) NAMED_UNIT ( * ) SI_UNIT ( .MILLI., .METRE. ) );
#654 = CLOSED_SHELL ( 'NONE', ( #738, #292, #320, #674, #122, #700 ) ) ;
#655 = AXIS2_PLACEMENT_3D ( 'NONE', #563, #50, #737 ) ;
#656 = CARTESIAN_POINT ( 'NONE',  ( 7.448354274199185276, 53.83404024197657378, 4.764999999999999680 ) ) ;
#657 = ORIENTED_EDGE ( 'NONE', *, *, #487, .F. ) ;
#658 = PERSON ( 'UNSPECIFIED', 'UNSPECIFIED', 'UNSPECIFIED', ('UNSPECIFIED'), ('UNSPECIFIED'), ('UNSPECIFIED') ) ;
#659 = EDGE_CURVE ( 'NONE', #228, #748, #350, .T. ) ;
#660 = EDGE_CURVE ( 'NONE', #276, #556, #298, .T. ) ;
#661 = LOCAL_TIME ( 14, 13, 50.00000000000000000, #221 ) ;
#662 = DIRECTION ( 'NONE',  ( -0.000000000000000000, 0.000000000000000000, -1.000000000000000000 ) ) ;
#663 = ORIENTED_EDGE ( 'NONE', *, *, #557, .F. ) ;
#664 = APPROVAL ( #77, 'UNSPECIFIED' ) ;
#665 = DIRECTION ( 'NONE',  ( 0.1720096048057270788, -0.02379885420821604633, 0.9848077530122076872 ) ) ;
#666 = DIRECTION ( 'NONE',  ( 1.000000000000000000, 0.000000000000000000, 0.000000000000000000 ) ) ;
#667 = CARTESIAN_POINT ( 'NONE',  ( 338.8724262586346185, 600.0000000000000000, -261.2937609437353785 ) ) ;
#668 = DIRECTION ( 'NONE',  ( -1.000000000000000000, -0.000000000000000000, -0.000000000000000000 ) ) ;
#669 = LINE ( 'NONE', #489, #209 ) ;
#670 = EDGE_LOOP ( 'NONE', ( #176, #344, #696, #451 ) ) ;
#671 = ORIENTED_EDGE ( 'NONE', *, *, #613, .F. ) ;
#672 = LINE ( 'NONE', #35, #608 ) ;
#673 = DIRECTION ( 'NONE',  ( 0.000000000000000000, -1.000000000000000000, 0.000000000000000000 ) ) ;
#674 = ADVANCED_FACE ( 'NONE', ( #120 ), #7, .T. ) ;
#675 = ORIENTED_EDGE ( 'NONE', *, *, #632, .F. ) ;
#676 = FACE_OUTER_BOUND ( 'NONE', #431, .T. ) ;
#677 = ORIENTED_EDGE ( 'NONE', *, *, #365, .F. ) ;
#678 = ORIENTED_EDGE ( 'NONE', *, *, #562, .T. ) ;
#679 = FACE_OUTER_BOUND ( 'NONE', #591, .T. ) ;
#680 = AXIS2_PLACEMENT_3D ( 'NONE', #186, #297, #705 ) ;
#681 = CARTESIAN_POINT ( 'NONE',  ( 0.000000000000000000, 0.000000000000000000, -4.764999999999999680 ) ) ;
#682 = ORIENTED_EDGE ( 'NONE', *, *, #464, .T. ) ;
#683 = EDGE_CURVE ( 'NONE', #197, #730, #454, .T. ) ;
#684 = LINE ( 'NONE', #565, #191 ) ;
#685 = SHAPE_DEFINITION_REPRESENTATION ( #536, #317 ) ;
#686 = LINE ( 'NONE', #510, #692 ) ;
#687 = VECTOR ( 'NONE', #63, 1000.000000000000000 ) ;
#688 = AXIS2_PLACEMENT_3D ( 'NONE', #89, #549, #361 ) ;
#689 = ORIENTED_EDGE ( 'NONE', *, *, #637, .F. ) ;
#690 = VECTOR ( 'NONE', #745, 1000.000000000000000 ) ;
#691 = EDGE_LOOP ( 'NONE', ( #306, #76, #534, #232, #213, #726, #480, #627 ) ) ;
#692 = VECTOR ( 'NONE', #390, 999.9999999999998863 ) ;
#693 = PLANE ( 'NONE',  #680 ) ;
#694 = ADVANCED_FACE ( 'NONE', ( #240 ), #458, .T. ) ;
#695 = CARTESIAN_POINT ( 'NONE',  ( 338.8724262586346185, 0.000000000000000000, 0.000000000000000000 ) ) ;
#696 = ORIENTED_EDGE ( 'NONE', *, *, #273, .F. ) ;
#697 = SECURITY_CLASSIFICATION_LEVEL ( 'unclassified' ) ;
#698 = LINE ( 'NONE', #188, #387 ) ;
#699 = CARTESIAN_POINT ( 'NONE',  ( 5.437749252232627839, 29.84349123185148756, 7.351815557460262163 ) ) ;
#700 = ADVANCED_FACE ( 'NONE', ( #704 ), #74, .T. ) ;
#701 = VERTEX_POINT ( 'NONE', #706 ) ;
#702 = CARTESIAN_POINT ( 'NONE',  ( 26.74569594272232465, 76.80606611359921487, 4.764999999999998792 ) ) ;
#703 = ORIENTED_EDGE ( 'NONE', *, *, #205, .T. ) ;
#704 = FACE_OUTER_BOUND ( 'NONE', #670, .T. ) ;
#705 = DIRECTION ( 'NONE',  ( 0.9905638349724136260, -0.1370521391469134986, 0.000000000000000000 ) ) ;
#706 = CARTESIAN_POINT ( 'NONE',  ( 7.199487866432876082, 53.86847282707808660, 7.624692238942861522 ) ) ;
#707 = EDGE_CURVE ( 'NONE', #434, #2, #372, .T. ) ;
#708 = CARTESIAN_POINT ( 'NONE',  ( 0.000000000000000000, 0.000000000000000000, -4.764999999999999680 ) ) ;
#709 = EDGE_LOOP ( 'NONE', ( #459, #85, #651, #511, #241 ) ) ;
#710 = PERSON_AND_ORGANIZATION ( #658, #461 ) ;
#711 = CARTESIAN_POINT ( 'NONE',  ( 10.92947860853085018, 78.99436165027587720, -2.096623255618931037 ) ) ;
#712 = DIRECTION ( 'NONE',  ( -0.9755149445343380687, 0.1349700091987890149, 0.1736481776669315247 ) ) ;
#713 = EDGE_CURVE ( 'NONE', #148, #21, #144, .T. ) ;
#714 = ORIENTED_EDGE ( 'NONE', *, *, #51, .T. ) ;
#715 = DIRECTION ( 'NONE',  ( 0.9905638349724137370, -0.1370521391469135264, 0.000000000000000000 ) ) ;
#716 = EDGE_CURVE ( 'NONE', #434, #228, #203, .T. ) ;
#717 = VECTOR ( 'NONE', #279, 999.9999999999998863 ) ;
#718 = CARTESIAN_POINT ( 'NONE',  ( 7.448354274199185276, 53.83404024197657378, -4.764999999999999680 ) ) ;
#719 = CARTESIAN_POINT ( 'NONE',  ( 9.041360666965911008, 79.25559731598171709, -1.760525647263481375 ) ) ;
#720 = ORIENTED_EDGE ( 'NONE', *, *, #366, .T. ) ;
#721 = CARTESIAN_POINT ( 'NONE',  ( -338.8724262586345048, 0.000000000000000000, -261.2937609437353785 ) ) ;
#722 = EDGE_CURVE ( 'NONE', #249, #577, #425, .T. ) ;
#723 = LINE ( 'NONE', #31, #443 ) ;
#724 = DIRECTION ( 'NONE',  ( 1.000000000000000000, 0.000000000000000000, 0.000000000000000000 ) ) ;
#725 = CARTESIAN_POINT ( 'NONE',  ( 338.8724262586346185, 600.0000000000000000, 261.2937609437353785 ) ) ;
#726 = ORIENTED_EDGE ( 'NONE', *, *, #722, .T. ) ;
#727 = DIRECTION ( 'NONE',  ( -0.9905638349724136260, 0.1370521391469142480, 0.000000000000000000 ) ) ;
#728 = VECTOR ( 'NONE', #666, 1000.000000000000000 ) ;
#729 = DIRECTION ( 'NONE',  ( 0.1720096048057271065, -0.02379885420821630654, 0.9848077530122076872 ) ) ;
#730 = VERTEX_POINT ( 'NONE', #472 ) ;
#731 = CARTESIAN_POINT ( 'NONE',  ( 0.000000000000000000, 0.000000000000000000, 4.764999999999999680 ) ) ;
#732 = ORIENTED_EDGE ( 'NONE', *, *, #193, .T. ) ;
#733 = ORIENTED_EDGE ( 'NONE', *, *, #310, .F. ) ;
#734 = LINE ( 'NONE', #435, #233 ) ;
#735 = VERTEX_POINT ( 'NONE', #721 ) ;
#736 = CARTESIAN_POINT ( 'NONE',  ( 0.000000000000000000, 0.000000000000000000, -4.764999999999999680 ) ) ;
#737 = DIRECTION ( 'NONE',  ( 0.000000000000000000, -0.000000000000000000, -1.000000000000000000 ) ) ;
#738 = ADVANCED_FACE ( 'NONE', ( #541 ), #307, .T. ) ;
#739 = ORIENTED_EDGE ( 'NONE', *, *, #356, .T. ) ;
#740 = CARTESIAN_POINT ( 'NONE',  ( 12.29999999999999183, 88.90000000000000568, -4.764999999999999680 ) ) ;
#741 = CALENDAR_DATE ( 2025, 21, 9 ) ;
#742 = DIRECTION ( 'NONE',  ( -0.000000000000000000, -0.000000000000000000, 1.000000000000000000 ) ) ;
#743 = ORIENTED_EDGE ( 'NONE', *, *, #102, .F. ) ;
#744 = EDGE_CURVE ( 'NONE', #415, #378, #250, .T. ) ;
#745 = DIRECTION ( 'NONE',  ( 0.000000000000000000, 0.000000000000000000, 1.000000000000000000 ) ) ;
#746 = CARTESIAN_POINT ( 'NONE',  ( -10.91295876945434706, 56.37446938074984359, 4.221363373155945453 ) ) ;
#747 = AXIS2_PLACEMENT_3D ( 'NONE', #18, #253, #648 ) ;
#748 = VERTEX_POINT ( 'NONE', #24 ) ;
#749 = VECTOR ( 'NONE', #78, 1000.000000000000000 ) ;
#750 = PLANE ( 'NONE',  #67 ) ;
ENDSEC;
END-ISO-10303-21;
