ISO-10303-21;
HEADER;
FILE_DESCRIPTION (( 'STEP AP214' ),
    '1' );
FILE_NAME ('simpleFin.STEP',
    '2025-09-18T01:11:05',
    ( '' ),
    ( '' ),
    'SwSTEP 2.0',
    'SolidWorks 2025',
    '' );
FILE_SCHEMA (( 'AUTOMOTIVE_DESIGN' ));
ENDSEC;

DATA;
#1 = FACE_OUTER_BOUND ( 'NONE', #347, .T. ) ;
#2 = ADVANCED_FACE ( 'NONE', ( #667 ), #334, .F. ) ;
#3 = CARTESIAN_POINT ( 'NONE',  ( 12.29999999999999183, 88.90000000000000568, 4.764999999999999680 ) ) ;
#4 = ORIENTED_EDGE ( 'NONE', *, *, #649, .T. ) ;
#5 = EDGE_CURVE ( 'NONE', #95, #515, #59, .T. ) ;
#6 = DIRECTION ( 'NONE',  ( -0.9755149445343381798, 0.1349700091987883210, 0.1736481776669314692 ) ) ;
#7 = VECTOR ( 'NONE', #668, 1000.000000000000000 ) ;
#8 = CARTESIAN_POINT ( 'NONE',  ( 50.75065916154124324, 139.8310771738422034, 0.000000000000000000 ) ) ;
#9 = ORIENTED_EDGE ( 'NONE', *, *, #705, .F. ) ;
#10 = VECTOR ( 'NONE', #327, 999.9999999999998863 ) ;
#11 = CARTESIAN_POINT ( 'NONE',  ( 10.92947860853083775, 78.99436165027587720, -4.764999999999999680 ) ) ;
#12 = VERTEX_POINT ( 'NONE', #177 ) ;
#13 = LINE ( 'NONE', #526, #233 ) ;
#14 = ORIENTED_EDGE ( 'NONE', *, *, #196, .T. ) ;
#15 = LINE ( 'NONE', #517, #477 ) ;
#16 = FACE_OUTER_BOUND ( 'NONE', #122, .T. ) ;
#17 = SURFACE_STYLE_USAGE ( .BOTH. , #512 ) ;
#18 = CARTESIAN_POINT ( 'NONE',  ( 53.31867673499299087, 88.90000000000000568, 9.318158204612968731 ) ) ;
#19 = BREP_WITH_VOIDS ( 'NONE', #488, ( #621 ) );
#20 = ORIENTED_EDGE ( 'NONE', *, *, #377, .F. ) ;
#21 = EDGE_LOOP ( 'NONE', ( #359, #188, #657, #579 ) ) ;
#22 = CARTESIAN_POINT ( 'NONE',  ( -788.9515779256607857, 1300.000000000000000, 0.000000000000000000 ) ) ;
#23 = EDGE_CURVE ( 'NONE', #584, #33, #449, .T. ) ;
#24 = CARTESIAN_POINT ( 'NONE',  ( 10.92947860853085018, 78.99436165027587720, -4.764999999999999680 ) ) ;
#25 = DIRECTION ( 'NONE',  ( 0.000000000000000000, 0.000000000000000000, 1.000000000000000000 ) ) ;
#26 = VECTOR ( 'NONE', #475, 999.9999999999998863 ) ;
#27 = CLOSED_SHELL ( 'NONE', ( #543, #464, #324, #221 ) ) ;
#28 = ORIENTED_EDGE ( 'NONE', *, *, #23, .F. ) ;
#29 = VERTEX_POINT ( 'NONE', #275 ) ;
#30 = DIRECTION ( 'NONE',  ( -0.000000000000000000, 0.000000000000000000, -1.000000000000000000 ) ) ;
#31 = LINE ( 'NONE', #469, #317 ) ;
#32 = DIRECTION ( 'NONE',  ( 0.9640591281908336141, 0.000000000000000000, -0.2656877817136681363 ) ) ;
#33 = VERTEX_POINT ( 'NONE', #283 ) ;
#34 = EDGE_LOOP ( 'NONE', ( #580, #308, #565, #309 ) ) ;
#35 = DIRECTION ( 'NONE',  ( -0.1720096048057266902, 0.02379885420821636205, -0.9848077530122079093 ) ) ;
#36 = ORIENTED_EDGE ( 'NONE', *, *, #426, .F. ) ;
#37 = ORIENTED_EDGE ( 'NONE', *, *, #301, .T. ) ;
#38 = DIRECTION ( 'NONE',  ( 0.000000000000000000, 0.000000000000000000, -1.000000000000000000 ) ) ;
#39 = CARTESIAN_POINT ( 'NONE',  ( 10.68061220076450013, 79.02879423537741843, 7.624692238942860634 ) ) ;
#40 = ORIENTED_EDGE ( 'NONE', *, *, #438, .F. ) ;
#41 = EDGE_CURVE ( 'NONE', #202, #559, #499, .T. ) ;
#42 = ORIENTED_EDGE ( 'NONE', *, *, #576, .F. ) ;
#43 = VECTOR ( 'NONE', #595, 999.9999999999998863 ) ;
#44 = LINE ( 'NONE', #544, #148 ) ;
#45 = ADVANCED_FACE ( 'NONE', ( #496 ), #494, .F. ) ;
#46 = CARTESIAN_POINT ( 'NONE',  ( 10.92947860853083775, 78.99436165027587720, -4.764999999999999680 ) ) ;
#47 = EDGE_CURVE ( 'NONE', #423, #482, #552, .T. ) ;
#48 = STYLED_ITEM ( 'NONE', ( #483 ), #497 ) ;
#49 = CARTESIAN_POINT ( 'NONE',  ( 7.448354274199185276, 53.83404024197657378, -4.764999999999999680 ) ) ;
#50 = VECTOR ( 'NONE', #401, 1000.000000000000000 ) ;
#51 = VECTOR ( 'NONE', #424, 999.9999999999998863 ) ;
#52 = CARTESIAN_POINT ( 'NONE',  ( 0.000000000000000000, 0.000000000000000000, 4.764999999999999680 ) ) ;
#53 = DIRECTION ( 'NONE',  ( 0.9905638349724135150, -0.1370521391469141093, 0.000000000000000000 ) ) ;
#54 = CARTESIAN_POINT ( 'NONE',  ( -10.91295876945434706, 56.37446938074984359, 4.221363373155945453 ) ) ;
#55 = DIRECTION ( 'NONE',  ( -0.1370521391469142480, -0.9905638349724136260, 0.000000000000000000 ) ) ;
#56 = EDGE_CURVE ( 'NONE', #584, #515, #230, .T. ) ;
#57 = CARTESIAN_POINT ( 'NONE',  ( 9.396521082700699523, 79.20645813585193196, 0.2728766814825702158 ) ) ;
#58 = VECTOR ( 'NONE', #295, 1000.000000000000114 ) ;
#59 = LINE ( 'NONE', #554, #521 ) ;
#60 =( GEOMETRIC_REPRESENTATION_CONTEXT ( 3 ) GLOBAL_UNCERTAINTY_ASSIGNED_CONTEXT ( ( #696 ) ) GLOBAL_UNIT_ASSIGNED_CONTEXT ( ( #440, #67, #63 ) ) REPRESENTATION_CONTEXT ( 'NONE', 'WORKASPACE' ) );
#61 = CARTESIAN_POINT ( 'NONE',  ( 0.000000000000000000, 0.000000000000000000, -4.764999999999999680 ) ) ;
#62 = ADVANCED_FACE ( 'NONE', ( #555 ), #502, .F. ) ;
#63 =( NAMED_UNIT ( * ) SI_UNIT ( $, .STERADIAN. ) SOLID_ANGLE_UNIT ( ) );
#64 = CARTESIAN_POINT ( 'NONE',  ( 10.92947860853084130, 78.99436165027589141, -2.988117237666363737E-14 ) ) ;
#65 = EDGE_CURVE ( 'NONE', #514, #95, #270, .T. ) ;
#66 = LINE ( 'NONE', #125, #487 ) ;
#67 =( NAMED_UNIT ( * ) PLANE_ANGLE_UNIT ( ) SI_UNIT ( $, .RADIAN. ) );
#68 = PLANE ( 'NONE',  #146 ) ;
#69 = VECTOR ( 'NONE', #510, 1000.000000000000000 ) ;
#70 = ORIENTED_EDGE ( 'NONE', *, *, #425, .F. ) ;
#71 = AXIS2_PLACEMENT_3D ( 'NONE', #406, #623, #139 ) ;
#72 = LINE ( 'NONE', #237, #660 ) ;
#73 = VERTEX_POINT ( 'NONE', #3 ) ;
#74 = CARTESIAN_POINT ( 'NONE',  ( -788.9515779256607857, 0.000000000000000000, -684.1945219355317249 ) ) ;
#75 = DIRECTION ( 'NONE',  ( -0.000000000000000000, -0.000000000000000000, 1.000000000000000000 ) ) ;
#76 = ORIENTED_EDGE ( 'NONE', *, *, #120, .F. ) ;
#77 = DIRECTION ( 'NONE',  ( -0.1370521391469142480, -0.9905638349724136260, -0.000000000000000000 ) ) ;
#78 = ORIENTED_EDGE ( 'NONE', *, *, #376, .F. ) ;
#79 = EDGE_LOOP ( 'NONE', ( #14, #304, #261, #466, #37, #70 ) ) ;
#80 = DIRECTION ( 'NONE',  ( 1.000000000000000000, 0.000000000000000000, 0.000000000000000000 ) ) ;
#81 = LINE ( 'NONE', #529, #549 ) ;
#82 = PLANE ( 'NONE',  #360 ) ;
#83 = ORIENTED_EDGE ( 'NONE', *, *, #576, .T. ) ;
#84 = VERTEX_POINT ( 'NONE', #603 ) ;
#85 = DIRECTION ( 'NONE',  ( -0.1720096048057266902, 0.02379885420821636205, -0.9848077530122079093 ) ) ;
#86 = PLANE ( 'NONE',  #632 ) ;
#87 = PLANE ( 'NONE',  #273 ) ;
#88 = AXIS2_PLACEMENT_3D ( 'NONE', #394, #179, #231 ) ;
#89 = ORIENTED_EDGE ( 'NONE', *, *, #298, .T. ) ;
#90 = VECTOR ( 'NONE', #608, 1000.000000000000000 ) ;
#91 = EDGE_LOOP ( 'NONE', ( #9, #457, #292, #532, #586, #619, #476, #96 ) ) ;
#92 = CARTESIAN_POINT ( 'NONE',  ( 26.32916598785767803, 51.29959792178725309, 4.221363373155944565 ) ) ;
#93 = ADVANCED_FACE ( 'NONE', ( #226 ), #225, .T. ) ;
#94 = VERTEX_POINT ( 'NONE', #492 ) ;
#95 = VERTEX_POINT ( 'NONE', #117 ) ;
#96 = ORIENTED_EDGE ( 'NONE', *, *, #321, .T. ) ;
#97 = LINE ( 'NONE', #366, #224 ) ;
#98 = CARTESIAN_POINT ( 'NONE',  ( 22.43867220764981951, 51.76001425118419519, -4.764999999999999680 ) ) ;
#99 = EDGE_LOOP ( 'NONE', ( #690, #184, #459, #417, #189 ) ) ;
#100 = ORIENTED_EDGE ( 'NONE', *, *, #280, .F. ) ;
#101 = LINE ( 'NONE', #691, #118 ) ;
#102 = VECTOR ( 'NONE', #356, 1000.000000000000000 ) ;
#103 = PRESENTATION_LAYER_ASSIGNMENT (  '', '', ( #714 ) ) ;
#104 = APPLICATION_PROTOCOL_DEFINITION ( 'draft international standard', 'automotive_design', 1998, #322 ) ;
#105 = ADVANCED_FACE ( 'NONE', ( #1 ), #328, .T. ) ;
#106 = LINE ( 'NONE', #124, #436 ) ;
#107 = EDGE_CURVE ( 'NONE', #631, #346, #437, .T. ) ;
#108 = DIRECTION ( 'NONE',  ( 1.000000000000000000, 0.000000000000000000, 0.000000000000000000 ) ) ;
#109 = CARTESIAN_POINT ( 'NONE',  ( 7.448354274199227021, 53.83404024197656668, -2.096623255618929260 ) ) ;
#110 = FACE_OUTER_BOUND ( 'NONE', #358, .T. ) ;
#111 = CARTESIAN_POINT ( 'NONE',  ( 0.000000000000000000, 0.000000000000000000, 4.764999999999999680 ) ) ;
#112 = PRODUCT ( 'simpleFin', 'simpleFin', '', ( #220 ) ) ;
#113 = EDGE_CURVE ( 'NONE', #238, #498, #223, .T. ) ;
#114 = DIRECTION ( 'NONE',  ( -0.9755149445343381798, 0.1349700091987883210, 0.1736481776669314137 ) ) ;
#115 = APPLICATION_CONTEXT ( 'automotive_design' ) ;
#116 = ADVANCED_FACE ( 'NONE', ( #547 ), #652, .T. ) ;
#117 = CARTESIAN_POINT ( 'NONE',  ( 788.9515779256606720, 1300.000000000000000, -684.1945219355317249 ) ) ;
#118 = VECTOR ( 'NONE', #468, 999.9999999999998863 ) ;
#119 = CLOSED_SHELL ( 'NONE', ( #563, #441, #414, #318, #525, #612 ) ) ;
#120 = EDGE_CURVE ( 'NONE', #444, #256, #272, .T. ) ;
#121 = CARTESIAN_POINT ( 'NONE',  ( 0.000000000000000000, 0.000000000000000000, -684.1945219355317249 ) ) ;
#122 = EDGE_LOOP ( 'NONE', ( #501, #205, #683, #152 ) ) ;
#123 = CARTESIAN_POINT ( 'NONE',  ( 7.199487866432876082, 53.86847282707808660, 7.624692238942861522 ) ) ;
#124 = CARTESIAN_POINT ( 'NONE',  ( -10.91295876945434706, 51.29959792178722466, 4.221363373156001408 ) ) ;
#125 = CARTESIAN_POINT ( 'NONE',  ( 788.9515779256606720, 1300.000000000000000, 684.1945219355316112 ) ) ;
#126 = ORIENTED_EDGE ( 'NONE', *, *, #142, .T. ) ;
#127 = FACE_OUTER_BOUND ( 'NONE', #289, .T. ) ;
#128 = FACE_OUTER_BOUND ( 'NONE', #232, .T. ) ;
#129 = FILL_AREA_STYLE ('',( #180 ) ) ;
#130 = DIRECTION ( 'NONE',  ( 1.000000000000000000, 0.000000000000000000, 0.000000000000000000 ) ) ;
#131 = VECTOR ( 'NONE', #303, 1000.000000000000000 ) ;
#132 = ORIENTED_EDGE ( 'NONE', *, *, #113, .F. ) ;
#133 = PLANE ( 'NONE',  #541 ) ;
#134 = LINE ( 'NONE', #407, #58 ) ;
#135 = EDGE_CURVE ( 'NONE', #236, #684, #384, .T. ) ;
#136 = ORIENTED_EDGE ( 'NONE', *, *, #593, .F. ) ;
#137 = ORIENTED_EDGE ( 'NONE', *, *, #142, .F. ) ;
#138 = CARTESIAN_POINT ( 'NONE',  ( 0.000000000000000000, 0.000000000000000000, 4.764999999999999680 ) ) ;
#139 = DIRECTION ( 'NONE',  ( 0.9905638349724136260, -0.1370521391469134986, 0.000000000000000000 ) ) ;
#140 = LINE ( 'NONE', #284, #131 ) ;
#141 = VERTEX_POINT ( 'NONE', #386 ) ;
#142 = EDGE_CURVE ( 'NONE', #141, #346, #602, .T. ) ;
#143 =( NAMED_UNIT ( * ) PLANE_ANGLE_UNIT ( ) SI_UNIT ( $, .RADIAN. ) );
#144 = CARTESIAN_POINT ( 'NONE',  ( 69.83999999999998920, 88.90000000000000568, 4.764999999999999680 ) ) ;
#145 = CARTESIAN_POINT ( 'NONE',  ( 0.000000000000000000, 1300.000000000000000, 684.1945219355316112 ) ) ;
#146 = AXIS2_PLACEMENT_3D ( 'NONE', #605, #85, #522 ) ;
#147 = ORIENTED_EDGE ( 'NONE', *, *, #594, .F. ) ;
#148 = VECTOR ( 'NONE', #263, 1000.000000000000000 ) ;
#149 = VERTEX_POINT ( 'NONE', #269 ) ;
#150 = DIRECTION ( 'NONE',  ( 0.9905638349724136260, -0.1370521391469134986, 0.000000000000000000 ) ) ;
#151 = CARTESIAN_POINT ( 'NONE',  ( 7.448354274199226133, 53.83404024197656668, -4.764999999999999680 ) ) ;
#152 = ORIENTED_EDGE ( 'NONE', *, *, #41, .F. ) ;
#153 = ORIENTED_EDGE ( 'NONE', *, *, #445, .T. ) ;
#154 = CARTESIAN_POINT ( 'NONE',  ( 0.000000000000000000, 0.000000000000000000, 4.764999999999999680 ) ) ;
#155 = CARTESIAN_POINT ( 'NONE',  ( 24.49895644174823062, 51.47495805231569221, -3.035121103072483617 ) ) ;
#156 = ORIENTED_EDGE ( 'NONE', *, *, #266, .F. ) ;
#157 = FACE_OUTER_BOUND ( 'NONE', #243, .T. ) ;
#158 = VECTOR ( 'NONE', #25, 1000.000000000000000 ) ;
#159 = PRODUCT_DEFINITION_FORMATION_WITH_SPECIFIED_SOURCE ( 'ANY', '', #112, .NOT_KNOWN. ) ;
#160 = LINE ( 'NONE', #164, #43 ) ;
#161 = VECTOR ( 'NONE', #219, 1000.000000000000114 ) ;
#162 = APPLICATION_PROTOCOL_DEFINITION ( 'draft international standard', 'automotive_design', 1998, #115 ) ;
#163 = CARTESIAN_POINT ( 'NONE',  ( 19.14397606761943038, 27.94712914153362959, -4.764999999999999680 ) ) ;
#164 = CARTESIAN_POINT ( 'NONE',  ( 7.448354274199185276, 53.83404024197657378, 4.764999999999999680 ) ) ;
#165 = VECTOR ( 'NONE', #461, 1000.000000000000000 ) ;
#166 = PLANE ( 'NONE',  #550 ) ;
#167 = DIRECTION ( 'NONE',  ( -0.2610288422967343980, -0.1864491730690960303, 0.9471539734124948540 ) ) ;
#168 = VECTOR ( 'NONE', #486, 999.9999999999998863 ) ;
#169 = ADVANCED_FACE ( 'NONE', ( #110 ), #430, .T. ) ;
#170 = CARTESIAN_POINT ( 'NONE',  ( 50.75065916154124324, 139.8310771738422034, 0.000000000000000000 ) ) ;
#171 = DIRECTION ( 'NONE',  ( -0.9905638349724136260, 0.1370521391469142480, 0.000000000000000000 ) ) ;
#172 = SURFACE_STYLE_FILL_AREA ( #129 ) ;
#173 = EDGE_CURVE ( 'NONE', #408, #684, #222, .T. ) ;
#174 = DIRECTION ( 'NONE',  ( 0.000000000000000000, -0.000000000000000000, -1.000000000000000000 ) ) ;
#175 = AXIS2_PLACEMENT_3D ( 'NONE', #607, #666, #448 ) ;
#176 = PLANE ( 'NONE',  #175 ) ;
#177 = CARTESIAN_POINT ( 'NONE',  ( 788.9515779256606720, 1300.000000000000000, 684.1945219355316112 ) ) ;
#178 = AXIS2_PLACEMENT_3D ( 'NONE', #600, #599, #174 ) ;
#179 = DIRECTION ( 'NONE',  ( -0.1370521391469134986, -0.9905638349724136260, 0.000000000000000000 ) ) ;
#180 = FILL_AREA_STYLE_COLOUR ( '', #633 ) ;
#181 = LINE ( 'NONE', #450, #281 ) ;
#182 = DIRECTION ( 'NONE',  ( -1.000000000000000000, 0.000000000000000000, -0.000000000000000000 ) ) ;
#183 = LINE ( 'NONE', #567, #102 ) ;
#184 = ORIENTED_EDGE ( 'NONE', *, *, #625, .T. ) ;
#185 =( LENGTH_UNIT ( ) NAMED_UNIT ( * ) SI_UNIT ( .MILLI., .METRE. ) );
#186 = EDGE_CURVE ( 'NONE', #699, #238, #711, .T. ) ;
#187 = DIRECTION ( 'NONE',  ( 0.5812381937190964631, -0.8137334712067350040, -0.000000000000000000 ) ) ;
#188 = ORIENTED_EDGE ( 'NONE', *, *, #438, .T. ) ;
#189 = ORIENTED_EDGE ( 'NONE', *, *, #372, .F. ) ;
#190 =( NAMED_UNIT ( * ) SI_UNIT ( $, .STERADIAN. ) SOLID_ANGLE_UNIT ( ) );
#191 = DIRECTION ( 'NONE',  ( -0.1720096048057266069, 0.02379885420821634470, -0.9848077530122079093 ) ) ;
#192 = CARTESIAN_POINT ( 'NONE',  ( 53.25557566543896115, 51.51676228825913739, -4.765000000000001457 ) ) ;
#193 = EDGE_CURVE ( 'NONE', #195, #444, #375, .T. ) ;
#194 = ORIENTED_EDGE ( 'NONE', *, *, #285, .T. ) ;
#195 = VERTEX_POINT ( 'NONE', #323 ) ;
#196 = EDGE_CURVE ( 'NONE', #29, #478, #540, .T. ) ;
#197 = DIRECTION ( 'NONE',  ( -1.000000000000000000, 0.000000000000000000, -0.000000000000000000 ) ) ;
#198 =( NAMED_UNIT ( * ) PLANE_ANGLE_UNIT ( ) SI_UNIT ( $, .RADIAN. ) );
#199 = DIRECTION ( 'NONE',  ( 1.000000000000000000, 0.000000000000000000, -0.000000000000000000 ) ) ;
#200 = EDGE_CURVE ( 'NONE', #699, #700, #428, .T. ) ;
#201 = ORIENTED_EDGE ( 'NONE', *, *, #708, .F. ) ;
#202 = VERTEX_POINT ( 'NONE', #319 ) ;
#203 = PLANE ( 'NONE',  #88 ) ;
#204 = CARTESIAN_POINT ( 'NONE',  ( 12.29999999999999183, 88.90000000000000568, -4.764999999999999680 ) ) ;
#205 = ORIENTED_EDGE ( 'NONE', *, *, #173, .T. ) ;
#206 = AXIS2_PLACEMENT_3D ( 'NONE', #300, #503, #506 ) ;
#207 = AXIS2_PLACEMENT_3D ( 'NONE', #46, #217, #709 ) ;
#208 = ORIENTED_EDGE ( 'NONE', *, *, #601, .F. ) ;
#209 = CARTESIAN_POINT ( 'NONE',  ( 26.31859533042370103, 51.22319699122787284, 4.221363373155945453 ) ) ;
#210 = LINE ( 'NONE', #155, #234 ) ;
#211 = EDGE_LOOP ( 'NONE', ( #638, #419, #248 ) ) ;
#212 = ORIENTED_EDGE ( 'NONE', *, *, #570, .F. ) ;
#213 = CARTESIAN_POINT ( 'NONE',  ( -788.9515779256607857, 1300.000000000000000, 0.000000000000000000 ) ) ;
#214 = DIRECTION ( 'NONE',  ( 0.1752517868667922141, 0.000000000000000000, 0.9845236468465327073 ) ) ;
#215 = VECTOR ( 'NONE', #130, 1000.000000000000000 ) ;
#216 = COLOUR_RGB ( '',0.7921568627450980005, 0.8196078431372548767, 0.9333333333333333481 ) ;
#217 = DIRECTION ( 'NONE',  ( -0.1370521391469141093, -0.9905638349724136260, 0.000000000000000000 ) ) ;
#218 = ADVANCED_FACE ( 'NONE', ( #651 ), #166, .T. ) ;
#219 = DIRECTION ( 'NONE',  ( 0.9755149445343380687, -0.1349700091987889594, -0.1736481776669313859 ) ) ;
#220 = PRODUCT_CONTEXT ( 'NONE', #115, 'mechanical' ) ;
#221 = ADVANCED_FACE ( 'NONE', ( #645 ), #591, .F. ) ;
#222 = LINE ( 'NONE', #491, #597 ) ;
#223 = LINE ( 'NONE', #431, #481 ) ;
#224 = VECTOR ( 'NONE', #420, 1000.000000000000227 ) ;
#225 = PLANE ( 'NONE',  #178 ) ;
#226 = FACE_OUTER_BOUND ( 'NONE', #634, .T. ) ;
#227 = EDGE_CURVE ( 'NONE', #29, #578, #44, .T. ) ;
#228 = DIRECTION ( 'NONE',  ( 0.000000000000000000, -1.000000000000000000, 0.000000000000000000 ) ) ;
#229 = EDGE_CURVE ( 'NONE', #478, #700, #647, .T. ) ;
#230 = LINE ( 'NONE', #121, #418 ) ;
#231 = DIRECTION ( 'NONE',  ( 0.9905638349724136260, -0.1370521391469134986, 0.000000000000000000 ) ) ;
#232 = EDGE_LOOP ( 'NONE', ( #132, #413, #467, #568, #40 ) ) ;
#233 = VECTOR ( 'NONE', #399, 999.9999999999998863 ) ;
#234 = VECTOR ( 'NONE', #636, 1000.000000000000114 ) ;
#235 = DIRECTION ( 'NONE',  ( 0.9905638349724136260, -0.1370521391469141093, 0.000000000000000000 ) ) ;
#236 = VERTEX_POINT ( 'NONE', #379 ) ;
#237 = CARTESIAN_POINT ( 'NONE',  ( 33.46065916154124409, 139.8310771738422034, 4.764999999999999680 ) ) ;
#238 = VERTEX_POINT ( 'NONE', #109 ) ;
#239 = EDGE_CURVE ( 'NONE', #73, #578, #378, .T. ) ;
#240 = LINE ( 'NONE', #22, #165 ) ;
#241 = LINE ( 'NONE', #355, #433 ) ;
#242 = CARTESIAN_POINT ( 'NONE',  ( 0.000000000000000000, 0.000000000000000000, -4.764999999999999680 ) ) ;
#243 = EDGE_LOOP ( 'NONE', ( #528, #451, #76 ) ) ;
#244 = ORIENTED_EDGE ( 'NONE', *, *, #332, .T. ) ;
#245 = FACE_OUTER_BOUND ( 'NONE', #604, .T. ) ;
#246 = DIRECTION ( 'NONE',  ( -0.000000000000000000, -0.000000000000000000, 1.000000000000000000 ) ) ;
#247 = LINE ( 'NONE', #465, #548 ) ;
#248 = ORIENTED_EDGE ( 'NONE', *, *, #120, .T. ) ;
#249 = EDGE_LOOP ( 'NONE', ( #453, #137, #665, #313, #676, #212, #20, #42 ) ) ;
#250 = CARTESIAN_POINT ( 'NONE',  ( 7.448354274199226133, 53.83404024197656668, 4.764999999999999680 ) ) ;
#251 = DIRECTION ( 'NONE',  ( 0.000000000000000000, -0.000000000000000000, -1.000000000000000000 ) ) ;
#252 = ADVANCED_FACE ( 'NONE', ( #326 ), #592, .T. ) ;
#253 = CARTESIAN_POINT ( 'NONE',  ( 69.83999999999998920, 88.90000000000000568, -4.765000000000000568 ) ) ;
#254 = VERTEX_POINT ( 'NONE', #490 ) ;
#255 = LINE ( 'NONE', #639, #587 ) ;
#256 = VERTEX_POINT ( 'NONE', #650 ) ;
#257 = ORIENTED_EDGE ( 'NONE', *, *, #227, .F. ) ;
#258 = DIRECTION ( 'NONE',  ( -0.9755149445343380687, 0.1349700091987890149, 0.1736481776669313859 ) ) ;
#259 = ORIENTED_EDGE ( 'NONE', *, *, #649, .F. ) ;
#260 = VECTOR ( 'NONE', #703, 1000.000000000000114 ) ;
#261 = ORIENTED_EDGE ( 'NONE', *, *, #601, .T. ) ;
#262 =( LENGTH_UNIT ( ) NAMED_UNIT ( * ) SI_UNIT ( .MILLI., .METRE. ) );
#263 = DIRECTION ( 'NONE',  ( -0.000000000000000000, -0.000000000000000000, 1.000000000000000000 ) ) ;
#264 = EDGE_CURVE ( 'NONE', #423, #202, #160, .T. ) ;
#265 = CARTESIAN_POINT ( 'NONE',  ( 11.38149200260704497, 78.93182211431256690, -2.177084659723655502 ) ) ;
#266 = EDGE_CURVE ( 'NONE', #195, #618, #106, .T. ) ;
#267 = DIRECTION ( 'NONE',  ( -0.1370521391469142480, -0.9905638349724136260, 0.000000000000000000 ) ) ;
#268 = VECTOR ( 'NONE', #6, 1000.000000000000114 ) ;
#269 = CARTESIAN_POINT ( 'NONE',  ( 87.12999999999995282, 88.90000000000000568, 0.000000000000000000 ) ) ;
#270 = LINE ( 'NONE', #656, #715 ) ;
#271 = DIRECTION ( 'NONE',  ( -0.9755149445343380687, 0.1349700091987890149, 0.1736481776669315247 ) ) ;
#272 = LINE ( 'NONE', #330, #589 ) ;
#273 = AXIS2_PLACEMENT_3D ( 'NONE', #145, #38, #197 ) ;
#274 = DIRECTION ( 'NONE',  ( 0.1720096048057270788, -0.02379885420821604633, 0.9848077530122076872 ) ) ;
#275 = CARTESIAN_POINT ( 'NONE',  ( 10.92947860853085018, 78.99436165027587720, -2.096623255618931037 ) ) ;
#276 = DIRECTION ( 'NONE',  ( 1.000000000000000000, 0.000000000000000000, 0.000000000000000000 ) ) ;
#277 = EDGE_LOOP ( 'NONE', ( #574, #153, #531, #28 ) ) ;
#278 = DIRECTION ( 'NONE',  ( -0.1370521391469141093, -0.9905638349724135150, 3.747002708109902831E-16 ) ) ;
#279 = FACE_OUTER_BOUND ( 'NONE', #34, .T. ) ;
#280 = EDGE_CURVE ( 'NONE', #95, #12, #140, .T. ) ;
#281 = VECTOR ( 'NONE', #560, 1000.000000000000000 ) ;
#282 = DIRECTION ( 'NONE',  ( -1.000000000000000000, 0.000000000000000000, -0.000000000000000000 ) ) ;
#283 = CARTESIAN_POINT ( 'NONE',  ( -788.9515779256607857, 0.000000000000000000, 684.1945219355316112 ) ) ;
#284 = CARTESIAN_POINT ( 'NONE',  ( 788.9515779256606720, 1300.000000000000000, 0.000000000000000000 ) ) ;
#285 = EDGE_CURVE ( 'NONE', #514, #584, #609, .T. ) ;
#286 = ORIENTED_EDGE ( 'NONE', *, *, #107, .F. ) ;
#287 = CARTESIAN_POINT ( 'NONE',  ( 33.46065916154124409, 139.8310771738422034, -4.764999999999999680 ) ) ;
#288 = CARTESIAN_POINT ( 'NONE',  ( 0.000000000000000000, 0.000000000000000000, 0.000000000000000000 ) ) ;
#289 = EDGE_LOOP ( 'NONE', ( #575, #627, #364, #626 ) ) ;
#290 = LINE ( 'NONE', #18, #644 ) ;
#291 = ORIENTED_EDGE ( 'NONE', *, *, #385, .F. ) ;
#292 = ORIENTED_EDGE ( 'NONE', *, *, #47, .T. ) ;
#293 = DIRECTION ( 'NONE',  ( 0.000000000000000000, -1.000000000000000000, 0.000000000000000000 ) ) ;
#294 = CARTESIAN_POINT ( 'NONE',  ( 7.448354274199226133, 53.83404024197656668, -4.764999999999999680 ) ) ;
#295 = DIRECTION ( 'NONE',  ( 0.9640591281908336141, -0.000000000000000000, -0.2656877817136680808 ) ) ;
#296 = ORIENTED_EDGE ( 'NONE', *, *, #200, .F. ) ;
#297 = ORIENTED_EDGE ( 'NONE', *, *, #425, .T. ) ;
#298 = EDGE_CURVE ( 'NONE', #33, #254, #363, .T. ) ;
#299 = MECHANICAL_DESIGN_GEOMETRIC_PRESENTATION_REPRESENTATION (  '', ( #48 ), #388 ) ;
#300 = CARTESIAN_POINT ( 'NONE',  ( 0.000000000000000000, 1300.000000000000000, -684.1945219355317249 ) ) ;
#301 = EDGE_CURVE ( 'NONE', #498, #236, #508, .T. ) ;
#302 = CARTESIAN_POINT ( 'NONE',  ( 5.437749252232627839, 29.84349123185148756, 7.351815557460262163 ) ) ;
#303 = DIRECTION ( 'NONE',  ( 0.000000000000000000, 0.000000000000000000, 1.000000000000000000 ) ) ;
#304 = ORIENTED_EDGE ( 'NONE', *, *, #229, .T. ) ;
#305 = ORIENTED_EDGE ( 'NONE', *, *, #196, .F. ) ;
#306 = SURFACE_SIDE_STYLE ('',( #410 ) ) ;
#307 = PLANE ( 'NONE',  #362 ) ;
#308 = ORIENTED_EDGE ( 'NONE', *, *, #285, .F. ) ;
#309 = ORIENTED_EDGE ( 'NONE', *, *, #5, .T. ) ;
#310 = ORIENTED_EDGE ( 'NONE', *, *, #135, .T. ) ;
#311 = CARTESIAN_POINT ( 'NONE',  ( 788.9515779256606720, 0.000000000000000000, 0.000000000000000000 ) ) ;
#312 = PLANE ( 'NONE',  #71 ) ;
#313 = ORIENTED_EDGE ( 'NONE', *, *, #200, .T. ) ;
#314 = ORIENTED_EDGE ( 'NONE', *, *, #23, .T. ) ;
#315 = PLANE ( 'NONE',  #653 ) ;
#316 = SHAPE_DEFINITION_REPRESENTATION ( #710, #357 ) ;
#317 = VECTOR ( 'NONE', #687, 1000.000000000000114 ) ;
#318 = ADVANCED_FACE ( 'NONE', ( #127 ), #688, .T. ) ;
#319 = CARTESIAN_POINT ( 'NONE',  ( 23.26457160839068905, 51.64574470529993988, 4.764999999999998792 ) ) ;
#320 = DIRECTION ( 'NONE',  ( -0.9755149445343379577, 0.1349700091987889594, 0.1736481776669318855 ) ) ;
#321 = EDGE_CURVE ( 'NONE', #578, #408, #13, .T. ) ;
#322 = APPLICATION_CONTEXT ( 'automotive_design' ) ;
#323 = CARTESIAN_POINT ( 'NONE',  ( 25.76639673475503045, 51.29959792178722466, 4.221363373155945453 ) ) ;
#324 = ADVANCED_FACE ( 'NONE', ( #629 ), #82, .F. ) ;
#325 = CARTESIAN_POINT ( 'NONE',  ( 0.000000000000000000, 0.000000000000000000, -4.764999999999999680 ) ) ;
#326 = FACE_OUTER_BOUND ( 'NONE', #21, .T. ) ;
#327 = DIRECTION ( 'NONE',  ( -0.1370521391469142480, -0.9905638349724136260, -0.000000000000000000 ) ) ;
#328 = PLANE ( 'NONE',  #697 ) ;
#329 = VECTOR ( 'NONE', #701, 1000.000000000000000 ) ;
#330 = CARTESIAN_POINT ( 'NONE',  ( -83.23445007259462614, 66.38070496037444457, 23.72253739276842310 ) ) ;
#331 = DIRECTION ( 'NONE',  ( 1.000000000000000000, 0.000000000000000000, 0.000000000000000000 ) ) ;
#332 = EDGE_CURVE ( 'NONE', #149, #631, #183, .T. ) ;
#333 = PLANE ( 'NONE',  #446 ) ;
#334 = PLANE ( 'NONE',  #434 ) ;
#335 = EDGE_CURVE ( 'NONE', #94, #631, #134, .T. ) ;
#336 = FACE_OUTER_BOUND ( 'NONE', #211, .T. ) ;
#337 = ORIENTED_EDGE ( 'NONE', *, *, #186, .F. ) ;
#338 = CARTESIAN_POINT ( 'NONE',  ( 133.3399999999999750, 0.000000000000000000, -4.764999999999999680 ) ) ;
#339 = ORIENTED_EDGE ( 'NONE', *, *, #266, .T. ) ;
#340 = VECTOR ( 'NONE', #77, 999.9999999999998863 ) ;
#341 = AXIS2_PLACEMENT_3D ( 'NONE', #648, #704, #484 ) ;
#342 = LINE ( 'NONE', #11, #596 ) ;
#343 = ORIENTED_EDGE ( 'NONE', *, *, #590, .F. ) ;
#344 = AXIS2_PLACEMENT_3D ( 'NONE', #485, #320, #214 ) ;
#345 = CARTESIAN_POINT ( 'NONE',  ( 788.9515779256606720, 1300.000000000000000, 0.000000000000000000 ) ) ;
#346 = VERTEX_POINT ( 'NONE', #338 ) ;
#347 = EDGE_LOOP ( 'NONE', ( #404, #520, #83, #620, #400 ) ) ;
#348 = CARTESIAN_POINT ( 'NONE',  ( 10.92947860853085018, 78.99436165027587720, -4.764999999999999680 ) ) ;
#349 = FACE_OUTER_BOUND ( 'NONE', #675, .T. ) ;
#350 = LINE ( 'NONE', #573, #158 ) ;
#351 = EDGE_CURVE ( 'NONE', #699, #141, #518, .T. ) ;
#352 = VERTEX_POINT ( 'NONE', #253 ) ;
#353 = ORIENTED_EDGE ( 'NONE', *, *, #516, .F. ) ;
#354 = DIRECTION ( 'NONE',  ( 0.000000000000000000, 0.000000000000000000, -1.000000000000000000 ) ) ;
#355 = CARTESIAN_POINT ( 'NONE',  ( 12.29999999999999183, 88.90000000000000568, 4.764999999999999680 ) ) ;
#356 = DIRECTION ( 'NONE',  ( 0.5812381937190964631, -0.8137334712067350040, -0.000000000000000000 ) ) ;
#357 = ADVANCED_BREP_SHAPE_REPRESENTATION ( 'simpleFin', ( #19, #497, #341 ), #460 ) ;
#358 = EDGE_LOOP ( 'NONE', ( #305, #519, #422 ) ) ;
#359 = ORIENTED_EDGE ( 'NONE', *, *, #301, .F. ) ;
#360 = AXIS2_PLACEMENT_3D ( 'NONE', #192, #562, #624 ) ;
#361 = DIRECTION ( 'NONE',  ( -0.1370521391469134986, -0.9905638349724136260, 0.000000000000000000 ) ) ;
#362 = AXIS2_PLACEMENT_3D ( 'NONE', #288, #616, #251 ) ;
#363 = LINE ( 'NONE', #672, #215 ) ;
#364 = ORIENTED_EDGE ( 'NONE', *, *, #280, .T. ) ;
#365 = EDGE_LOOP ( 'NONE', ( #244, #367, #343, #614 ) ) ;
#366 = CARTESIAN_POINT ( 'NONE',  ( 53.31867673499299087, 88.90000000000000568, -9.318158204612968731 ) ) ;
#367 = ORIENTED_EDGE ( 'NONE', *, *, #107, .T. ) ;
#368 = EDGE_LOOP ( 'NONE', ( #472, #628, #561, #78 ) ) ;
#369 = LINE ( 'NONE', #695, #673 ) ;
#370 = CARTESIAN_POINT ( 'NONE',  ( 3.904791726402491392, 30.05558771742753521, 7.624692238942860634 ) ) ;
#371 = ORIENTED_EDGE ( 'NONE', *, *, #553, .F. ) ;
#372 = EDGE_CURVE ( 'NONE', #640, #73, #350, .T. ) ;
#373 = CARTESIAN_POINT ( 'NONE',  ( 10.57431819279605989, 79.04350083040567654, -2.033402328746081622 ) ) ;
#374 = AXIS2_PLACEMENT_3D ( 'NONE', #213, #642, #30 ) ;
#375 = LINE ( 'NONE', #54, #168 ) ;
#376 = EDGE_CURVE ( 'NONE', #611, #149, #290, .T. ) ;
#377 = EDGE_CURVE ( 'NONE', #640, #569, #247, .T. ) ;
#378 = LINE ( 'NONE', #52, #435 ) ;
#379 = CARTESIAN_POINT ( 'NONE',  ( 9.041360666965911008, 79.25559731598171709, -1.760525647263481375 ) ) ;
#380 = AXIS2_PLACEMENT_3D ( 'NONE', #678, #191, #671 ) ;
#381 = DIRECTION ( 'NONE',  ( -1.541238675009617413E-15, -1.113952180555727864E-14, -1.000000000000000000 ) ) ;
#382 = VECTOR ( 'NONE', #274, 1000.000000000000114 ) ;
#383 = CARTESIAN_POINT ( 'NONE',  ( 0.000000000000000000, 0.000000000000000000, -4.764999999999999680 ) ) ;
#384 = LINE ( 'NONE', #57, #382 ) ;
#385 = EDGE_CURVE ( 'NONE', #618, #444, #456, .T. ) ;
#386 = CARTESIAN_POINT ( 'NONE',  ( 0.000000000000000000, 0.000000000000000000, -4.764999999999999680 ) ) ;
#387 = VECTOR ( 'NONE', #396, 999.9999999999998863 ) ;
#388 =( GEOMETRIC_REPRESENTATION_CONTEXT ( 3 ) GLOBAL_UNCERTAINTY_ASSIGNED_CONTEXT ( ( #523 ) ) GLOBAL_UNIT_ASSIGNED_CONTEXT ( ( #262, #143, #190 ) ) REPRESENTATION_CONTEXT ( 'NONE', 'WORKASPACE' ) );
#389 = EDGE_CURVE ( 'NONE', #611, #94, #72, .T. ) ;
#390 = CARTESIAN_POINT ( 'NONE',  ( 150.6299999999999955, 0.000000000000000000, 0.000000000000000000 ) ) ;
#391 = DIRECTION ( 'NONE',  ( -0.2610288422967343980, -0.1864491730690960303, -0.9471539734124948540 ) ) ;
#392 = PRODUCT_DEFINITION ( 'UNKNOWN', '', #159, #686 ) ;
#393 = EDGE_LOOP ( 'NONE', ( #337, #682, #4, #480, #201 ) ) ;
#394 = CARTESIAN_POINT ( 'NONE',  ( 7.448354274199185276, 53.83404024197657378, -4.764999999999999680 ) ) ;
#395 = CARTESIAN_POINT ( 'NONE',  ( -788.9515779256607857, -0.000000000000000000, 0.000000000000000000 ) ) ;
#396 = DIRECTION ( 'NONE',  ( 0.1370521391469141093, 0.9905638349724136260, -0.000000000000000000 ) ) ;
#397 = FACE_OUTER_BOUND ( 'NONE', #249, .T. ) ;
#398 = CARTESIAN_POINT ( 'NONE',  ( 0.000000000000000000, 0.000000000000000000, 4.764999999999999680 ) ) ;
#399 = DIRECTION ( 'NONE',  ( 0.9905638349724136260, -0.1370521391469141093, 0.000000000000000000 ) ) ;
#400 = ORIENTED_EDGE ( 'NONE', *, *, #646, .F. ) ;
#401 = DIRECTION ( 'NONE',  ( -0.9755149445343381798, 0.1349700091987883210, 0.1736481776669314137 ) ) ;
#402 = CARTESIAN_POINT ( 'NONE',  ( 26.74569594272232465, 76.80606611359921487, 4.764999999999998792 ) ) ;
#403 = EDGE_LOOP ( 'NONE', ( #314, #36, #147, #194 ) ) ;
#404 = ORIENTED_EDGE ( 'NONE', *, *, #376, .T. ) ;
#405 = CARTESIAN_POINT ( 'NONE',  ( 0.000000000000000000, 0.000000000000000000, -4.764999999999999680 ) ) ;
#406 = CARTESIAN_POINT ( 'NONE',  ( 7.448354274199185276, 53.83404024197657378, -4.764999999999999680 ) ) ;
#407 = CARTESIAN_POINT ( 'NONE',  ( 150.6299999999999955, 0.000000000000000000, 0.000000000000000000 ) ) ;
#408 = VERTEX_POINT ( 'NONE', #402 ) ;
#409 = ORIENTED_EDGE ( 'NONE', *, *, #594, .T. ) ;
#410 = SURFACE_STYLE_FILL_AREA ( #537 ) ;
#411 = FACE_OUTER_BOUND ( 'NONE', #277, .T. ) ;
#412 = DIRECTION ( 'NONE',  ( -0.000000000000000000, 0.000000000000000000, -1.000000000000000000 ) ) ;
#413 = ORIENTED_EDGE ( 'NONE', *, *, #708, .T. ) ;
#414 = ADVANCED_FACE ( 'NONE', ( #617 ), #87, .F. ) ;
#415 = SURFACE_STYLE_USAGE ( .BOTH. , #306 ) ;
#416 = DIRECTION ( 'NONE',  ( 0.000000000000000000, 0.000000000000000000, 1.000000000000000000 ) ) ;
#417 = ORIENTED_EDGE ( 'NONE', *, *, #239, .F. ) ;
#418 = VECTOR ( 'NONE', #331, 1000.000000000000000 ) ;
#419 = ORIENTED_EDGE ( 'NONE', *, *, #385, .T. ) ;
#420 = DIRECTION ( 'NONE',  ( -0.9640591281908336141, 0.000000000000000000, -0.2656877817136681363 ) ) ;
#421 = UNCERTAINTY_MEASURE_WITH_UNIT (LENGTH_MEASURE( 1.000000000000000082E-05 ), #185, 'distance_accuracy_value', 'NONE');
#422 = ORIENTED_EDGE ( 'NONE', *, *, #570, .T. ) ;
#423 = VERTEX_POINT ( 'NONE', #250 ) ;
#424 = DIRECTION ( 'NONE',  ( 0.9905638349724137370, -0.1370521391469135264, 0.000000000000000000 ) ) ;
#425 = EDGE_CURVE ( 'NONE', #29, #236, #577, .T. ) ;
#426 = EDGE_CURVE ( 'NONE', #84, #33, #255, .T. ) ;
#427 = MECHANICAL_DESIGN_GEOMETRIC_PRESENTATION_REPRESENTATION (  '', ( #714 ), #60 ) ;
#428 = LINE ( 'NONE', #49, #51 ) ;
#429 = DIRECTION ( 'NONE',  ( -0.9905638349724136260, 0.1370521391469142480, 0.000000000000000000 ) ) ;
#430 = PLANE ( 'NONE',  #207 ) ;
#431 = CARTESIAN_POINT ( 'NONE',  ( 7.093193858464424295, 53.88317942210635181, -2.033402328746078958 ) ) ;
#432 = VECTOR ( 'NONE', #452, 999.9999999999998863 ) ;
#433 = VECTOR ( 'NONE', #511, 1000.000000000000000 ) ;
#434 = AXIS2_PLACEMENT_3D ( 'NONE', #398, #661, #182 ) ;
#435 = VECTOR ( 'NONE', #598, 999.9999999999998863 ) ;
#436 = VECTOR ( 'NONE', #680, 1000.000000000000000 ) ;
#437 = LINE ( 'NONE', #390, #505 ) ;
#438 = EDGE_CURVE ( 'NONE', #498, #559, #369, .T. ) ;
#439 = CARTESIAN_POINT ( 'NONE',  ( 8.732445392262999206, 53.65637634150205315, 7.351815557460264827 ) ) ;
#440 =( LENGTH_UNIT ( ) NAMED_UNIT ( * ) SI_UNIT ( .MILLI., .METRE. ) );
#441 = ADVANCED_FACE ( 'NONE', ( #585 ), #588, .F. ) ;
#442 = DIRECTION ( 'NONE',  ( 0.9640591281908337251, 0.000000000000000000, 0.2656877817136681363 ) ) ;
#443 = FACE_OUTER_BOUND ( 'NONE', #368, .T. ) ;
#444 = VERTEX_POINT ( 'NONE', #209 ) ;
#445 = EDGE_CURVE ( 'NONE', #515, #254, #635, .T. ) ;
#446 = AXIS2_PLACEMENT_3D ( 'NONE', #8, #391, #557 ) ;
#447 = AXIS2_PLACEMENT_3D ( 'NONE', #538, #381, #545 ) ;
#448 = DIRECTION ( 'NONE',  ( 0.000000000000000000, -0.000000000000000000, -1.000000000000000000 ) ) ;
#449 = LINE ( 'NONE', #395, #90 ) ;
#450 = CARTESIAN_POINT ( 'NONE',  ( 12.29999999999999183, 88.90000000000000568, -4.764999999999999680 ) ) ;
#451 = ORIENTED_EDGE ( 'NONE', *, *, #663, .T. ) ;
#452 = DIRECTION ( 'NONE',  ( -0.1370521391469147754, -0.9905638349724135150, 1.179973561319753667E-16 ) ) ;
#453 = ORIENTED_EDGE ( 'NONE', *, *, #590, .T. ) ;
#454 = LINE ( 'NONE', #670, #50 ) ;
#455 = LINE ( 'NONE', #151, #542 ) ;
#456 = LINE ( 'NONE', #470, #432 ) ;
#457 = ORIENTED_EDGE ( 'NONE', *, *, #264, .F. ) ;
#458 = AXIS2_PLACEMENT_3D ( 'NONE', #345, #199, #412 ) ;
#459 = ORIENTED_EDGE ( 'NONE', *, *, #227, .T. ) ;
#460 =( GEOMETRIC_REPRESENTATION_CONTEXT ( 3 ) GLOBAL_UNCERTAINTY_ASSIGNED_CONTEXT ( ( #421 ) ) GLOBAL_UNIT_ASSIGNED_CONTEXT ( ( #185, #198, #582 ) ) REPRESENTATION_CONTEXT ( 'NONE', 'WORKASPACE' ) );
#461 = DIRECTION ( 'NONE',  ( 0.000000000000000000, 0.000000000000000000, 1.000000000000000000 ) ) ;
#462 = VECTOR ( 'NONE', #707, 1000.000000000000000 ) ;
#463 = CARTESIAN_POINT ( 'NONE',  ( 150.6299999999999955, 0.000000000000000000, 0.000000000000000000 ) ) ;
#464 = ADVANCED_FACE ( 'NONE', ( #157 ), #315, .F. ) ;
#465 = CARTESIAN_POINT ( 'NONE',  ( 0.000000000000000000, 0.000000000000000000, -4.764999999999999680 ) ) ;
#466 = ORIENTED_EDGE ( 'NONE', *, *, #113, .T. ) ;
#467 = ORIENTED_EDGE ( 'NONE', *, *, #264, .T. ) ;
#468 = DIRECTION ( 'NONE',  ( -0.9850952724760067003, -0.004155569132810873860, 0.1719594004135996668 ) ) ;
#469 = CARTESIAN_POINT ( 'NONE',  ( 23.26457160839069616, 51.64574470530001804, 4.764999999999999680 ) ) ;
#470 = CARTESIAN_POINT ( 'NONE',  ( 18.87024105622444381, -2.610843250748721367, 4.221363373155950782 ) ) ;
#471 = EDGE_CURVE ( 'NONE', #149, #352, #97, .T. ) ;
#472 = ORIENTED_EDGE ( 'NONE', *, *, #389, .T. ) ;
#473 = PRODUCT_RELATED_PRODUCT_CATEGORY ( 'part', '', ( #112 ) ) ;
#474 = DIRECTION ( 'NONE',  ( 0.1720096048057271065, -0.02379885420821630654, 0.9848077530122076872 ) ) ;
#475 = DIRECTION ( 'NONE',  ( 0.1370521391469141093, 0.9905638349724136260, -0.000000000000000000 ) ) ;
#476 = ORIENTED_EDGE ( 'NONE', *, *, #239, .T. ) ;
#477 = VECTOR ( 'NONE', #80, 1000.000000000000000 ) ;
#478 = VERTEX_POINT ( 'NONE', #533 ) ;
#479 = DIRECTION ( 'NONE',  ( 0.000000000000000000, -1.000000000000000000, 0.000000000000000000 ) ) ;
#480 = ORIENTED_EDGE ( 'NONE', *, *, #47, .F. ) ;
#481 = VECTOR ( 'NONE', #114, 1000.000000000000000 ) ;
#482 = VERTEX_POINT ( 'NONE', #154 ) ;
#483 = PRESENTATION_STYLE_ASSIGNMENT (( #415 ) ) ;
#484 = DIRECTION ( 'NONE',  ( 1.000000000000000000, 0.000000000000000000, 0.000000000000000000 ) ) ;
#485 = CARTESIAN_POINT ( 'NONE',  ( 2.620700608338692117, 30.23325161790204518, 0.2728766814825702158 ) ) ;
#486 = DIRECTION ( 'NONE',  ( 0.9905638349724135150, -0.1370521391469148309, -0.000000000000000000 ) ) ;
#487 = VECTOR ( 'NONE', #293, 1000.000000000000000 ) ;
#488 = CLOSED_SHELL ( 'NONE', ( #643, #702, #551, #116, #218, #105, #93, #2, #530, #45, #679, #169, #500, #62, #252 ) ) ;
#489 = AXIS2_PLACEMENT_3D ( 'NONE', #170, #167, #442 ) ;
#490 = CARTESIAN_POINT ( 'NONE',  ( 788.9515779256606720, 0.000000000000000000, 684.1945219355316112 ) ) ;
#491 = CARTESIAN_POINT ( 'NONE',  ( 12.21356972659463480, 78.81669774980137788, 7.351815557460262163 ) ) ;
#492 = CARTESIAN_POINT ( 'NONE',  ( 133.3399999999999750, 0.000000000000000000, 4.764999999999999680 ) ) ;
#493 = EDGE_CURVE ( 'NONE', #618, #256, #101, .T. ) ;
#494 = PLANE ( 'NONE',  #489 ) ;
#495 = PRESENTATION_LAYER_ASSIGNMENT (  '', '', ( #48 ) ) ;
#496 = FACE_OUTER_BOUND ( 'NONE', #365, .T. ) ;
#497 = MANIFOLD_SOLID_BREP ( 'Boss-Extrude6', #119 ) ;
#498 = VERTEX_POINT ( 'NONE', #659 ) ;
#499 = LINE ( 'NONE', #439, #268 ) ;
#500 = ADVANCED_FACE ( 'NONE', ( #128 ), #203, .T. ) ;
#501 = ORIENTED_EDGE ( 'NONE', *, *, #705, .T. ) ;
#502 = PLANE ( 'NONE',  #654 ) ;
#503 = DIRECTION ( 'NONE',  ( 0.000000000000000000, 0.000000000000000000, -1.000000000000000000 ) ) ;
#504 = ORIENTED_EDGE ( 'NONE', *, *, #193, .T. ) ;
#505 = VECTOR ( 'NONE', #546, 1000.000000000000114 ) ;
#506 = DIRECTION ( 'NONE',  ( -1.000000000000000000, 0.000000000000000000, -0.000000000000000000 ) ) ;
#507 = EDGE_LOOP ( 'NONE', ( #339, #583, #689 ) ) ;
#508 = LINE ( 'NONE', #513, #387 ) ;
#509 = ORIENTED_EDGE ( 'NONE', *, *, #321, .F. ) ;
#510 = DIRECTION ( 'NONE',  ( 0.5812381937190964631, -0.8137334712067350040, -0.000000000000000000 ) ) ;
#511 = DIRECTION ( 'NONE',  ( -1.000000000000000000, -0.000000000000000000, -0.000000000000000000 ) ) ;
#512 = SURFACE_SIDE_STYLE ('',( #172 ) ) ;
#513 = CARTESIAN_POINT ( 'NONE',  ( 2.265540192603903158, 30.28239079803183387, -1.760525647263481375 ) ) ;
#514 = VERTEX_POINT ( 'NONE', #556 ) ;
#515 = VERTEX_POINT ( 'NONE', #615 ) ;
#516 = EDGE_CURVE ( 'NONE', #12, #254, #66, .T. ) ;
#517 = CARTESIAN_POINT ( 'NONE',  ( 0.000000000000000000, 1300.000000000000000, 684.1945219355316112 ) ) ;
#518 = LINE ( 'NONE', #242, #340 ) ;
#519 = ORIENTED_EDGE ( 'NONE', *, *, #625, .F. ) ;
#520 = ORIENTED_EDGE ( 'NONE', *, *, #471, .T. ) ;
#521 = VECTOR ( 'NONE', #228, 1000.000000000000000 ) ;
#522 = DIRECTION ( 'NONE',  ( -0.9850867619346518334, 0.000000000000000000, 0.1720583373774799696 ) ) ;
#523 = UNCERTAINTY_MEASURE_WITH_UNIT (LENGTH_MEASURE( 1.000000000000000082E-05 ), #262, 'distance_accuracy_value', 'NONE');
#524 = DIRECTION ( 'NONE',  ( -0.9850867619346518334, 0.000000000000000000, 0.1720583373774799696 ) ) ;
#525 = ADVANCED_FACE ( 'NONE', ( #245 ), #176, .F. ) ;
#526 = CARTESIAN_POINT ( 'NONE',  ( 10.92947860853083775, 78.99436165027587720, 4.764999999999999680 ) ) ;
#527 = ORIENTED_EDGE ( 'NONE', *, *, #186, .T. ) ;
#528 = ORIENTED_EDGE ( 'NONE', *, *, #193, .F. ) ;
#529 = CARTESIAN_POINT ( 'NONE',  ( 0.000000000000000000, 0.000000000000000000, -4.764999999999999680 ) ) ;
#530 = ADVANCED_FACE ( 'NONE', ( #443 ), #333, .F. ) ;
#531 = ORIENTED_EDGE ( 'NONE', *, *, #298, .F. ) ;
#532 = ORIENTED_EDGE ( 'NONE', *, *, #553, .T. ) ;
#533 = CARTESIAN_POINT ( 'NONE',  ( 25.91979654198144090, 76.92033565948351281, -4.764999999999999680 ) ) ;
#534 = LINE ( 'NONE', #24, #674 ) ;
#535 = EDGE_LOOP ( 'NONE', ( #257, #297, #310, #536, #509 ) ) ;
#536 = ORIENTED_EDGE ( 'NONE', *, *, #173, .F. ) ;
#537 = FILL_AREA_STYLE ('',( #685 ) ) ;
#538 = CARTESIAN_POINT ( 'NONE',  ( -10.91295876945434706, 56.37446938074984359, 4.221363373155945453 ) ) ;
#539 = CARTESIAN_POINT ( 'NONE',  ( 7.448354274199226133, 53.83404024197656668, -4.764999999999999680 ) ) ;
#540 = LINE ( 'NONE', #265, #161 ) ;
#541 = AXIS2_PLACEMENT_3D ( 'NONE', #405, #354, #282 ) ;
#542 = VECTOR ( 'NONE', #75, 1000.000000000000000 ) ;
#543 = ADVANCED_FACE ( 'NONE', ( #336 ), #68, .T. ) ;
#544 = CARTESIAN_POINT ( 'NONE',  ( 10.92947860853085018, 78.99436165027587720, -4.764999999999999680 ) ) ;
#545 = DIRECTION ( 'NONE',  ( 0.000000000000000000, 1.000000000000000000, -1.113952180555727864E-14 ) ) ;
#546 = DIRECTION ( 'NONE',  ( -0.9640591281908336141, 0.000000000000000000, -0.2656877817136680808 ) ) ;
#547 = FACE_OUTER_BOUND ( 'NONE', #99, .T. ) ;
#548 = VECTOR ( 'NONE', #558, 999.9999999999998863 ) ;
#549 = VECTOR ( 'NONE', #416, 1000.000000000000000 ) ;
#550 = AXIS2_PLACEMENT_3D ( 'NONE', #325, #429, #267 ) ;
#551 = ADVANCED_FACE ( 'NONE', ( #397 ), #133, .T. ) ;
#552 = LINE ( 'NONE', #111, #10 ) ;
#553 = EDGE_CURVE ( 'NONE', #482, #94, #622, .T. ) ;
#554 = CARTESIAN_POINT ( 'NONE',  ( 788.9515779256606720, 1300.000000000000000, -684.1945219355317249 ) ) ;
#555 = FACE_OUTER_BOUND ( 'NONE', #535, .T. ) ;
#556 = CARTESIAN_POINT ( 'NONE',  ( -788.9515779256607857, 1300.000000000000000, -684.1945219355317249 ) ) ;
#557 = DIRECTION ( 'NONE',  ( -0.9640591281908337251, 0.000000000000000000, 0.2656877817136681363 ) ) ;
#558 = DIRECTION ( 'NONE',  ( -0.1370521391469142480, -0.9905638349724136260, -0.000000000000000000 ) ) ;
#559 = VERTEX_POINT ( 'NONE', #123 ) ;
#560 = DIRECTION ( 'NONE',  ( -1.000000000000000000, -0.000000000000000000, -0.000000000000000000 ) ) ;
#561 = ORIENTED_EDGE ( 'NONE', *, *, #332, .F. ) ;
#562 = DIRECTION ( 'NONE',  ( 3.641733961720009492E-19, 0.9997081302978184647, 0.02415893657510759587 ) ) ;
#563 = ADVANCED_FACE ( 'NONE', ( #279 ), #571, .T. ) ;
#564 = ORIENTED_EDGE ( 'NONE', *, *, #335, .F. ) ;
#565 = ORIENTED_EDGE ( 'NONE', *, *, #65, .T. ) ;
#566 = CARTESIAN_POINT ( 'NONE',  ( 10.92947860853085018, 78.99436165027587720, 4.764999999999999680 ) ) ;
#567 = CARTESIAN_POINT ( 'NONE',  ( 50.75065916154124324, 139.8310771738422034, 0.000000000000000000 ) ) ;
#568 = ORIENTED_EDGE ( 'NONE', *, *, #41, .T. ) ;
#569 = VERTEX_POINT ( 'NONE', #348 ) ;
#570 = EDGE_CURVE ( 'NONE', #569, #478, #342, .T. ) ;
#571 = PLANE ( 'NONE',  #206 ) ;
#572 = LINE ( 'NONE', #370, #26 ) ;
#573 = CARTESIAN_POINT ( 'NONE',  ( 12.29999999999999183, 88.90000000000000568, -4.764999999999999680 ) ) ;
#574 = ORIENTED_EDGE ( 'NONE', *, *, #56, .T. ) ;
#575 = ORIENTED_EDGE ( 'NONE', *, *, #445, .F. ) ;
#576 = EDGE_CURVE ( 'NONE', #352, #640, #181, .T. ) ;
#577 = LINE ( 'NONE', #373, #706 ) ;
#578 = VERTEX_POINT ( 'NONE', #566 ) ;
#579 = ORIENTED_EDGE ( 'NONE', *, *, #135, .F. ) ;
#580 = ORIENTED_EDGE ( 'NONE', *, *, #56, .F. ) ;
#581 = CARTESIAN_POINT ( 'NONE',  ( 7.448354274199185276, 53.83404024197657378, -4.764999999999999680 ) ) ;
#582 =( NAMED_UNIT ( * ) SI_UNIT ( $, .STERADIAN. ) SOLID_ANGLE_UNIT ( ) );
#583 = ORIENTED_EDGE ( 'NONE', *, *, #493, .T. ) ;
#584 = VERTEX_POINT ( 'NONE', #74 ) ;
#585 = FACE_OUTER_BOUND ( 'NONE', #403, .T. ) ;
#586 = ORIENTED_EDGE ( 'NONE', *, *, #389, .F. ) ;
#587 = VECTOR ( 'NONE', #479, 1000.000000000000000 ) ;
#588 = PLANE ( 'NONE',  #374 ) ;
#589 = VECTOR ( 'NONE', #713, 1000.000000000000000 ) ;
#590 = EDGE_CURVE ( 'NONE', #352, #346, #610, .T. ) ;
#591 = PLANE ( 'NONE',  #447 ) ;
#592 = PLANE ( 'NONE',  #344 ) ;
#593 = EDGE_CURVE ( 'NONE', #84, #12, #15, .T. ) ;
#594 = EDGE_CURVE ( 'NONE', #514, #84, #240, .T. ) ;
#595 = DIRECTION ( 'NONE',  ( 0.9905638349724137370, -0.1370521391469135264, 0.000000000000000000 ) ) ;
#596 = VECTOR ( 'NONE', #235, 999.9999999999998863 ) ;
#597 = VECTOR ( 'NONE', #271, 1000.000000000000114 ) ;
#598 = DIRECTION ( 'NONE',  ( -0.1370521391469142480, -0.9905638349724136260, -0.000000000000000000 ) ) ;
#599 = DIRECTION ( 'NONE',  ( 0.000000000000000000, -1.000000000000000000, 0.000000000000000000 ) ) ;
#600 = CARTESIAN_POINT ( 'NONE',  ( 0.000000000000000000, 0.000000000000000000, -4.764999999999999680 ) ) ;
#601 = EDGE_CURVE ( 'NONE', #700, #238, #454, .T. ) ;
#602 = LINE ( 'NONE', #61, #662 ) ;
#603 = CARTESIAN_POINT ( 'NONE',  ( -788.9515779256607857, 1300.000000000000000, 684.1945219355316112 ) ) ;
#604 = EDGE_LOOP ( 'NONE', ( #669, #409, #637, #100 ) ) ;
#605 = CARTESIAN_POINT ( 'NONE',  ( 5.437749252232627839, 29.84349123185148756, 7.351815557460262163 ) ) ;
#606 = PRESENTATION_STYLE_ASSIGNMENT (( #17 ) ) ;
#607 = CARTESIAN_POINT ( 'NONE',  ( 0.000000000000000000, 1300.000000000000000, 0.000000000000000000 ) ) ;
#608 = DIRECTION ( 'NONE',  ( 0.000000000000000000, 0.000000000000000000, 1.000000000000000000 ) ) ;
#609 = LINE ( 'NONE', #613, #7 ) ;
#610 = LINE ( 'NONE', #287, #69 ) ;
#611 = VERTEX_POINT ( 'NONE', #144 ) ;
#612 = ADVANCED_FACE ( 'NONE', ( #411 ), #307, .T. ) ;
#613 = CARTESIAN_POINT ( 'NONE',  ( -788.9515779256607857, 1300.000000000000000, -684.1945219355317249 ) ) ;
#614 = ORIENTED_EDGE ( 'NONE', *, *, #471, .F. ) ;
#615 = CARTESIAN_POINT ( 'NONE',  ( 788.9515779256606720, 0.000000000000000000, -684.1945219355317249 ) ) ;
#616 = DIRECTION ( 'NONE',  ( 0.000000000000000000, -1.000000000000000000, 0.000000000000000000 ) ) ;
#617 = FACE_OUTER_BOUND ( 'NONE', #693, .T. ) ;
#618 = VERTEX_POINT ( 'NONE', #92 ) ;
#619 = ORIENTED_EDGE ( 'NONE', *, *, #646, .T. ) ;
#620 = ORIENTED_EDGE ( 'NONE', *, *, #372, .T. ) ;
#621 = ORIENTED_CLOSED_SHELL ( 'NONE', *, #27, .F. );
#622 = LINE ( 'NONE', #138, #630 ) ;
#623 = DIRECTION ( 'NONE',  ( -0.1370521391469134986, -0.9905638349724136260, 0.000000000000000000 ) ) ;
#624 = DIRECTION ( 'NONE',  ( 0.000000000000000000, -0.02415893657510759587, 0.9997081302978184647 ) ) ;
#625 = EDGE_CURVE ( 'NONE', #569, #29, #534, .T. ) ;
#626 = ORIENTED_EDGE ( 'NONE', *, *, #516, .T. ) ;
#627 = ORIENTED_EDGE ( 'NONE', *, *, #5, .F. ) ;
#628 = ORIENTED_EDGE ( 'NONE', *, *, #335, .T. ) ;
#629 = FACE_OUTER_BOUND ( 'NONE', #507, .T. ) ;
#630 = VECTOR ( 'NONE', #664, 1000.000000000000000 ) ;
#631 = VERTEX_POINT ( 'NONE', #463 ) ;
#632 = AXIS2_PLACEMENT_3D ( 'NONE', #302, #35, #524 ) ;
#633 = COLOUR_RGB ( '',0.7921568627450980005, 0.8196078431372548767, 0.9333333333333333481 ) ;
#634 = EDGE_LOOP ( 'NONE', ( #564, #371, #259, #126, #286 ) ) ;
#635 = LINE ( 'NONE', #311, #329 ) ;
#636 = DIRECTION ( 'NONE',  ( 0.1720096048057268845, -0.02379885420821627878, 0.9848077530122076872 ) ) ;
#637 = ORIENTED_EDGE ( 'NONE', *, *, #593, .T. ) ;
#638 = ORIENTED_EDGE ( 'NONE', *, *, #493, .F. ) ;
#639 = CARTESIAN_POINT ( 'NONE',  ( -788.9515779256607857, 1300.000000000000000, 684.1945219355316112 ) ) ;
#640 = VERTEX_POINT ( 'NONE', #204 ) ;
#641 = ORIENTED_EDGE ( 'NONE', *, *, #426, .T. ) ;
#642 = DIRECTION ( 'NONE',  ( 1.000000000000000000, 0.000000000000000000, -0.000000000000000000 ) ) ;
#643 = ADVANCED_FACE ( 'NONE', ( #698 ), #692, .T. ) ;
#644 = VECTOR ( 'NONE', #32, 1000.000000000000227 ) ;
#645 = FACE_OUTER_BOUND ( 'NONE', #694, .T. ) ;
#646 = EDGE_CURVE ( 'NONE', #611, #73, #241, .T. ) ;
#647 = LINE ( 'NONE', #163, #260 ) ;
#648 = CARTESIAN_POINT ( 'NONE',  ( 0.000000000000000000, 0.000000000000000000, 0.000000000000000000 ) ) ;
#649 = EDGE_CURVE ( 'NONE', #141, #482, #81, .T. ) ;
#650 = CARTESIAN_POINT ( 'NONE',  ( 25.78304755981202590, 51.29729415184117869, 4.316694454387814517 ) ) ;
#651 = FACE_OUTER_BOUND ( 'NONE', #393, .T. ) ;
#652 = PLANE ( 'NONE',  #677 ) ;
#653 = AXIS2_PLACEMENT_3D ( 'NONE', #581, #361, #150 ) ;
#654 = AXIS2_PLACEMENT_3D ( 'NONE', #64, #278, #53 ) ;
#655 = CARTESIAN_POINT ( 'NONE',  ( 12.29999999999999183, 88.90000000000000568, -4.764999999999999680 ) ) ;
#656 = CARTESIAN_POINT ( 'NONE',  ( 0.000000000000000000, 1300.000000000000000, -684.1945219355317249 ) ) ;
#657 = ORIENTED_EDGE ( 'NONE', *, *, #681, .T. ) ;
#658 = DIRECTION ( 'NONE',  ( 0.000000000000000000, -0.000000000000000000, 1.000000000000000000 ) ) ;
#659 = CARTESIAN_POINT ( 'NONE',  ( 5.560236332634296730, 54.09527590768239236, -1.760525647263481819 ) ) ;
#660 = VECTOR ( 'NONE', #187, 1000.000000000000000 ) ;
#661 = DIRECTION ( 'NONE',  ( 0.000000000000000000, 0.000000000000000000, -1.000000000000000000 ) ) ;
#662 = VECTOR ( 'NONE', #108, 1000.000000000000000 ) ;
#663 = EDGE_CURVE ( 'NONE', #195, #256, #210, .T. ) ;
#664 = DIRECTION ( 'NONE',  ( 1.000000000000000000, 0.000000000000000000, 0.000000000000000000 ) ) ;
#665 = ORIENTED_EDGE ( 'NONE', *, *, #351, .F. ) ;
#666 = DIRECTION ( 'NONE',  ( 0.000000000000000000, -1.000000000000000000, 0.000000000000000000 ) ) ;
#667 = FACE_OUTER_BOUND ( 'NONE', #91, .T. ) ;
#668 = DIRECTION ( 'NONE',  ( 0.000000000000000000, -1.000000000000000000, 0.000000000000000000 ) ) ;
#669 = ORIENTED_EDGE ( 'NONE', *, *, #65, .F. ) ;
#670 = CARTESIAN_POINT ( 'NONE',  ( 7.093193858464424295, 53.88317942210635181, -2.033402328746078958 ) ) ;
#671 = DIRECTION ( 'NONE',  ( -0.9850867619346518334, 0.000000000000000000, 0.1720583373774798863 ) ) ;
#672 = CARTESIAN_POINT ( 'NONE',  ( 0.000000000000000000, -0.000000000000000000, 684.1945219355316112 ) ) ;
#673 = VECTOR ( 'NONE', #474, 1000.000000000000114 ) ;
#674 = VECTOR ( 'NONE', #246, 1000.000000000000000 ) ;
#675 = EDGE_LOOP ( 'NONE', ( #527, #208, #296 ) ) ;
#676 = ORIENTED_EDGE ( 'NONE', *, *, #229, .F. ) ;
#677 = AXIS2_PLACEMENT_3D ( 'NONE', #383, #171, #55 ) ;
#678 = CARTESIAN_POINT ( 'NONE',  ( 3.798497718434051595, 30.07029431245578621, -2.033402328746081622 ) ) ;
#679 = ADVANCED_FACE ( 'NONE', ( #349 ), #312, .F. ) ;
#680 = DIRECTION ( 'NONE',  ( 1.000000000000000000, 3.688127852826834372E-17, -1.541238675009617808E-15 ) ) ;
#681 = EDGE_CURVE ( 'NONE', #559, #684, #572, .T. ) ;
#682 = ORIENTED_EDGE ( 'NONE', *, *, #351, .T. ) ;
#683 = ORIENTED_EDGE ( 'NONE', *, *, #681, .F. ) ;
#684 = VERTEX_POINT ( 'NONE', #39 ) ;
#685 = FILL_AREA_STYLE_COLOUR ( '', #216 ) ;
#686 = PRODUCT_DEFINITION_CONTEXT ( 'detailed design', #322, 'design' ) ;
#687 = DIRECTION ( 'NONE',  ( 0.1370521391469140815, 0.9905638349724135150, 0.000000000000000000 ) ) ;
#688 = PLANE ( 'NONE',  #458 ) ;
#689 = ORIENTED_EDGE ( 'NONE', *, *, #663, .F. ) ;
#690 = ORIENTED_EDGE ( 'NONE', *, *, #377, .T. ) ;
#691 = CARTESIAN_POINT ( 'NONE',  ( 53.98204231991220325, 51.41625002897894348, -0.6057555529348649381 ) ) ;
#692 = PLANE ( 'NONE',  #380 ) ;
#693 = EDGE_LOOP ( 'NONE', ( #89, #353, #136, #641 ) ) ;
#694 = EDGE_LOOP ( 'NONE', ( #156, #504, #291 ) ) ;
#695 = CARTESIAN_POINT ( 'NONE',  ( 5.915396748369079027, 54.04613672755260723, 0.2728766814825675513 ) ) ;
#696 = UNCERTAINTY_MEASURE_WITH_UNIT (LENGTH_MEASURE( 1.000000000000000082E-05 ), #440, 'distance_accuracy_value', 'NONE');
#697 = AXIS2_PLACEMENT_3D ( 'NONE', #655, #712, #658 ) ;
#698 = FACE_OUTER_BOUND ( 'NONE', #79, .T. ) ;
#699 = VERTEX_POINT ( 'NONE', #294 ) ;
#700 = VERTEX_POINT ( 'NONE', #98 ) ;
#701 = DIRECTION ( 'NONE',  ( 0.000000000000000000, 0.000000000000000000, 1.000000000000000000 ) ) ;
#702 = ADVANCED_FACE ( 'NONE', ( #16 ), #86, .F. ) ;
#703 = DIRECTION ( 'NONE',  ( -0.1370521391469140537, -0.9905638349724135150, 0.000000000000000000 ) ) ;
#704 = DIRECTION ( 'NONE',  ( 0.000000000000000000, 0.000000000000000000, 1.000000000000000000 ) ) ;
#705 = EDGE_CURVE ( 'NONE', #202, #408, #31, .T. ) ;
#706 = VECTOR ( 'NONE', #258, 1000.000000000000114 ) ;
#707 = DIRECTION ( 'NONE',  ( -0.000000000000000000, -0.000000000000000000, 1.000000000000000000 ) ) ;
#708 = EDGE_CURVE ( 'NONE', #238, #423, #455, .T. ) ;
#709 = DIRECTION ( 'NONE',  ( 0.9905638349724136260, -0.1370521391469141093, 0.000000000000000000 ) ) ;
#710 = PRODUCT_DEFINITION_SHAPE ( 'NONE', 'NONE',  #392 ) ;
#711 = LINE ( 'NONE', #539, #462 ) ;
#712 = DIRECTION ( 'NONE',  ( 0.000000000000000000, 1.000000000000000000, 0.000000000000000000 ) ) ;
#713 = DIRECTION ( 'NONE',  ( -0.9755149445343379577, 0.1349700091987896255, 0.1736481776669314969 ) ) ;
#714 = STYLED_ITEM ( 'NONE', ( #606 ), #19 ) ;
#715 = VECTOR ( 'NONE', #276, 1000.000000000000000 ) ;
ENDSEC;
END-ISO-10303-21;
